<?xml version="1.0" encoding="UTF-8" standalone="no"?>
<svg width="18px" height="14px" viewBox="0 0 18 14" version="1.1" xmlns="http://www.w3.org/2000/svg" xmlns:xlink="http://www.w3.org/1999/xlink" xmlns:sketch="http://www.bohemiancoding.com/sketch/ns">
    <!-- Generator: Sketch 3.4 (15575) - http://www.bohemiancoding.com/sketch -->
    <title>Page 1</title>
    <desc>Created with Sketch.</desc>
    <defs></defs>
    <g id="Page-1" stroke="none" stroke-width="1" fill="none" fill-rule="evenodd" sketch:type="MSPage">
        <g id="Doctor---Patient-Landing-Page---Patient---Perio-Chart" sketch:type="MSArtboardGroup" transform="translate(-900.000000, -776.000000)">
            <g id="Chart" sketch:type="MSLayerGroup" transform="translate(271.000000, 398.000000)">
                <g id="Form" transform="translate(0.000000, 24.000000)" sketch:type="MSShapeGroup">
                    <g id="Row-16" transform="translate(622.000000, 197.000000)">
                        <g id="Page-1" transform="translate(7.000000, 157.000000)">
                            <path d="M1.3177,0.7386 C1.2967,0.7386 1.2767,0.7376 1.2557,0.7376 C1.0627,0.7336 0.8517,0.7686 0.7177,0.9096 C0.5217,1.1156 0.4757,1.5696 0.5107,1.8376 C0.5527,2.1586 0.5727,2.4636 0.5907,2.7906 C0.6287,3.4806 0.7007,4.1696 0.8167,4.8506 L0.8167,7.3506 C0.8347,8.3306 0.8547,9.3086 0.8717,10.2886 C0.8827,10.8686 0.8987,11.4746 1.1707,11.9876 C1.7387,13.0576 3.1357,13.3046 4.3417,13.4286 C5.3157,13.5296 6.3847,13.6066 7.1907,13.0496 C7.5907,12.7736 7.9107,12.3496 8.3807,12.2286 C8.7847,12.1246 9.2037,12.2706 9.6067,12.3776 C10.8457,12.7056 12.1517,12.6756 13.4267,12.5446 C14.0807,12.4776 14.7447,12.3816 15.3377,12.0966 C16.5777,11.5006 17.3207,10.1406 17.4847,8.7746 C17.6477,7.4086 17.3137,6.0316 16.8747,4.7276 C16.4357,3.4236 15.9147,2.1336 15.6297,0.7876 C15.6287,0.7836 15.4897,0.7876 15.4817,0.7876 L11.8197,0.7876 L6.0057,0.7876 C4.4417,0.7876 2.8777,0.7686 1.3177,0.7386 L1.3177,0.7386 Z" id="Stroke-1" stroke="#F99B3B"></path>
                            <path d="M16.8745,4.7275 C16.4355,3.4235 15.9145,2.1345 15.6295,0.7885 C15.6285,0.7835 15.4895,0.7885 15.4815,0.7885 L11.9415,0.7885 C12.1175,1.8335 12.5625,2.8715 12.9515,3.8715 C13.5655,5.4465 14.0275,7.3125 13.1435,8.7535 C12.6385,9.5775 11.7175,10.1305 10.7525,10.1885 C10.0715,10.2285 9.3555,10.0155 8.8815,9.5245 C8.1595,8.7755 8.0615,7.4965 7.1705,6.9605 C6.7145,8.0845 7.0535,9.3625 6.9235,10.5685 C6.8915,10.8735 6.8225,11.1885 6.6295,11.4275 C6.3835,11.7355 5.9795,11.8655 5.5935,11.9415 C3.9785,12.2605 2.2535,11.8635 0.9025,10.9305 C0.9335,11.2995 0.9985,11.6625 1.1705,11.9875 C1.7385,13.0585 3.1355,13.3045 4.3415,13.4285 C5.3165,13.5295 6.3845,13.6075 7.1905,13.0505 C7.5905,12.7735 7.9105,12.3495 8.3815,12.2285 C8.7845,12.1245 9.2045,12.2705 9.6065,12.3775 C10.8455,12.7065 12.1515,12.6755 13.4265,12.5445 C14.0805,12.4775 14.7445,12.3815 15.3375,12.0965 C16.5775,11.5015 17.3205,10.1405 17.4845,8.7745 C17.6475,7.4085 17.3135,6.0315 16.8745,4.7275" id="Fill-3" fill="#ECECD3"></path>
                            <path d="M5.5931,11.9413 C5.9791,11.8653 6.3831,11.7353 6.6301,11.4283 C6.8221,11.1883 6.8911,10.8733 6.9241,10.5683 C7.0531,9.3623 6.7141,8.0843 7.1701,6.9603 C8.0621,7.4963 8.1591,8.7753 8.8821,9.5243 C9.3561,10.0153 10.0711,10.2283 10.7531,10.1883 C11.7171,10.1303 12.6391,9.5773 13.1441,8.7533 C14.0271,7.3123 13.5651,5.4463 12.9521,3.8713 C12.5621,2.8713 12.1181,1.8333 11.9411,0.7883 L11.8201,0.7883 L6.0061,0.7883 C4.4411,0.7883 2.8771,0.7683 1.3181,0.7383 C1.2971,0.7383 1.2771,0.7373 1.2561,0.7373 C1.0621,0.7333 0.8521,0.7693 0.7181,0.9093 C0.5221,1.1153 0.4761,1.5703 0.5111,1.8373 C0.5531,2.1583 0.5721,2.4633 0.5901,2.7903 C0.6291,3.4803 0.7011,4.1693 0.8171,4.8503 L0.8171,7.3503 C0.8341,8.3303 0.8551,9.3083 0.8721,10.2883 C0.8761,10.5013 0.8851,10.7163 0.9031,10.9303 C2.2541,11.8633 3.9791,12.2603 5.5931,11.9413" id="Fill-5" fill="#FFFEED"></path>
                        </g>
                    </g>
                </g>
            </g>
        </g>
    </g>
</svg>