<?xml version="1.0" encoding="UTF-8" standalone="no"?>
<svg width="15px" height="22px" viewBox="0 0 15 22" version="1.1" xmlns="http://www.w3.org/2000/svg" xmlns:xlink="http://www.w3.org/1999/xlink" xmlns:sketch="http://www.bohemiancoding.com/sketch/ns">
    <!-- Generator: Sketch 3.4 (15575) - http://www.bohemiancoding.com/sketch -->
    <title>Page 1</title>
    <desc>Created with Sketch.</desc>
    <defs></defs>
    <g id="Page-1" stroke="none" stroke-width="1" fill="none" fill-rule="evenodd" sketch:type="MSPage">
        <g id="Doctor---Patient-Landing-Page---Patient---Perio-Chart" sketch:type="MSArtboardGroup" transform="translate(-581.000000, -734.000000)">
            <g id="Chart" sketch:type="MSLayerGroup" transform="translate(271.000000, 398.000000)">
                <g id="Form" transform="translate(0.000000, 24.000000)" sketch:type="MSShapeGroup">
                    <g id="Row-6" transform="translate(302.000000, 197.000000)">
                        <g id="Tooth--6" transform="translate(8.000000, 34.000000)">
                            <g id="Page-1" transform="translate(0.000000, 82.000000)">
                                <path d="M5.6061,0.5491 C4.7641,0.9111 3.9611,1.4321 3.3961,1.8691 C2.2121,2.7871 0.6081,3.9571 0.5201,5.5921 C0.4051,7.7321 0.7801,10.1111 1.6441,12.0711 C2.4231,13.8391 3.6121,15.4701 3.9211,17.3781 C4.0681,18.2901 4.0521,19.3361 4.7251,19.9701 C5.3661,20.5731 6.3591,20.5341 7.2351,20.4581 C7.5881,20.4271 7.9491,20.3941 8.2671,20.2371 C8.7621,19.9931 9.0711,19.4921 9.3461,19.0131 C10.6911,16.6721 11.7991,14.3871 12.8941,11.9221 C13.3271,10.9481 14.0601,9.9221 14.1111,8.8371 C14.1621,7.7441 13.8361,6.5421 13.5511,5.4991 C13.3871,4.8971 13.1831,4.2931 12.8091,3.7921 C12.4631,3.3271 11.9881,2.9761 11.5141,2.6411 C10.4671,1.9081 9.1241,0.3371 7.8301,0.1331 C7.1531,0.0261 6.3641,0.2231 5.6061,0.5491 L5.6061,0.5491 Z" id="Stroke-1" stroke="#F99B3B"></path>
                                <path d="M9.3758,6.3427 C9.4898,8.2457 9.6028,10.1487 9.7158,12.0517 C9.7788,13.0937 9.8308,14.1857 9.3858,15.1287 C8.9408,16.0727 7.8188,16.7847 6.8468,16.4057 C6.4718,16.2587 6.1398,15.9647 5.7378,15.9507 C5.2268,15.9317 4.8208,16.3667 4.5448,16.7957 C4.3248,17.1387 4.1398,17.5037 3.9898,17.8817 C3.9688,17.7117 3.9478,17.5427 3.9208,17.3777 C3.6128,15.4697 2.4238,13.8397 1.6438,12.0707 C0.7798,10.1107 0.4058,7.7327 0.5198,5.5927 C0.6078,3.9577 2.2118,2.7877 3.3968,1.8697 C3.9608,1.4317 4.7638,0.9117 5.6058,0.5487 C6.3638,0.2237 7.1528,0.0257 7.8298,0.1327 C7.8938,0.1427 7.9578,0.1707 8.0218,0.1867 C8.3018,0.6657 8.5298,1.1787 8.7008,1.7037 C9.1858,3.1937 9.2828,4.7787 9.3758,6.3427" id="Fill-3" fill="#FFFEED"></path>
                                <path d="M12.8939,11.9223 C11.7989,14.3873 10.6909,16.6723 9.3459,19.0133 C9.0709,19.4923 8.7629,19.9933 8.2669,20.2373 C7.9489,20.3933 7.5879,20.4273 7.2359,20.4573 C6.3589,20.5343 5.3659,20.5723 4.7249,19.9693 C4.1739,19.4503 4.0849,18.6543 3.9899,17.8823 C4.1399,17.5033 4.3249,17.1383 4.5449,16.7963 C4.8209,16.3663 5.2269,15.9323 5.7379,15.9503 C6.1399,15.9653 6.4719,16.2593 6.8469,16.4053 C7.8189,16.7843 8.9409,16.0723 9.3859,15.1293 C9.8309,14.1853 9.7789,13.0933 9.7159,12.0523 C9.6029,10.1493 9.4889,8.2463 9.3759,6.3423 C9.2829,4.7783 9.1859,3.1943 8.7009,1.7033 C8.5299,1.1783 8.3019,0.6663 8.0219,0.1863 C9.2559,0.5033 10.5189,1.9443 11.5139,2.6413 C11.9879,2.9763 12.4629,3.3273 12.8099,3.7923 C13.1829,4.2933 13.3869,4.8973 13.5509,5.4993 C13.8359,6.5423 14.1619,7.7443 14.1109,8.8373 C14.0599,9.9223 13.3269,10.9483 12.8939,11.9223" id="Fill-5" fill="#ECECD3"></path>
                            </g>
                        </g>
                    </g>
                </g>
            </g>
        </g>
    </g>
</svg>