<?xml version="1.0" encoding="UTF-8" standalone="no"?>
<svg width="20px" height="14px" viewBox="0 0 20 14" version="1.1" xmlns="http://www.w3.org/2000/svg" xmlns:xlink="http://www.w3.org/1999/xlink" xmlns:sketch="http://www.bohemiancoding.com/sketch/ns">
    <!-- Generator: Sketch 3.4 (15575) - http://www.bohemiancoding.com/sketch -->
    <title>Page 1</title>
    <desc>Created with Sketch.</desc>
    <defs></defs>
    <g id="Page-1" stroke="none" stroke-width="1" fill="none" fill-rule="evenodd" sketch:type="MSPage">
        <g id="Doctor---Patient-Landing-Page---Patient---Perio-Chart" sketch:type="MSArtboardGroup" transform="translate(-451.000000, -776.000000)">
            <g id="Chart" sketch:type="MSLayerGroup" transform="translate(271.000000, 398.000000)">
                <g id="Form" transform="translate(0.000000, 24.000000)" sketch:type="MSShapeGroup">
                    <g id="Row-2" transform="translate(174.000000, 197.000000)">
                        <g id="Tooth--31" transform="translate(5.000000, 157.000000)">
                            <g id="Page-1" transform="translate(1.000000, 0.000000)">
                                <path d="M5.55,0.8149 C4.894,0.9729 4.272,1.2509 3.706,1.7349 C3.053,2.2929 2.552,3.0059 2.071,3.7189 C1.235,4.9549 0.637,6.4749 0.518,7.9659 C0.352,10.0569 1.341,12.3659 3.287,13.1479 C3.905,13.3969 4.578,13.4799 5.243,13.4969 C5.93,13.5149 6.627,13.4619 7.274,13.2299 C7.599,13.1139 7.909,12.9529 8.245,12.8719 C8.781,12.7429 9.341,12.8259 9.888,12.8949 C11.516,13.1019 12.86,13.6039 14.53,13.2389 C16.129,12.8889 17.394,12.6419 18.43,11.2329 C19.387,9.9329 18.866,8.8029 18.924,7.2729 C18.972,6.0279 18.901,4.7689 18.648,3.5459 C18.324,1.9869 16.513,1.2279 15.069,0.8929 C12.804,0.3689 10.447,0.6449 8.147,0.6169 C7.261,0.6069 6.379,0.6149 5.55,0.8149 L5.55,0.8149 Z" id="Stroke-1" stroke="#F99B3B"></path>
                                <path d="M8.734,9.663 C8.816,9.54 8.898,9.408 9.029,9.34 C9.283,9.206 9.602,9.375 9.773,9.606 C9.944,9.836 10.028,10.122 10.192,10.357 C10.658,11.021 11.593,11.101 12.404,11.117 C12.939,11.128 13.496,11.135 13.983,10.912 C14.638,10.611 15.048,9.951 15.353,9.297 C16.49,6.864 16.686,4.135 16.657,1.428 C16.136,1.187 15.58,1.012 15.069,0.893 C12.804,0.369 10.447,0.645 8.147,0.617 C7.261,0.606 6.379,0.615 5.55,0.815 C4.894,0.973 4.272,1.251 3.706,1.734 C3.053,2.293 2.552,3.006 2.071,3.718 C1.235,4.955 0.637,6.475 0.518,7.966 C0.444,8.899 0.612,9.87 0.981,10.735 C1.808,11.432 2.835,11.893 3.914,11.986 C5.778,12.146 7.697,11.221 8.734,9.663" id="Fill-3" fill="#FFFEED"></path>
                                <path d="M18.9241,7.2733 C18.9721,6.0273 18.9011,4.7683 18.6471,3.5463 C18.4381,2.5393 17.6071,1.8693 16.6571,1.4283 C16.6861,4.1353 16.4901,6.8643 15.3531,9.2973 C15.0481,9.9503 14.6381,10.6113 13.9821,10.9113 C13.4961,11.1343 12.9391,11.1283 12.4041,11.1173 C11.5931,11.1013 10.6571,11.0213 10.1921,10.3573 C10.0281,10.1213 9.9441,9.8363 9.7731,9.6063 C9.6021,9.3753 9.2831,9.2063 9.0291,9.3393 C8.8981,9.4083 8.8161,9.5403 8.7341,9.6633 C7.6971,11.2213 5.7781,12.1463 3.9141,11.9863 C2.8351,11.8933 1.8071,11.4323 0.9811,10.7353 C1.4381,11.8083 2.2101,12.7153 3.2871,13.1483 C3.9051,13.3963 4.5771,13.4803 5.2431,13.4973 C5.9301,13.5143 6.6271,13.4613 7.2731,13.2303 C7.5991,13.1133 7.9091,12.9523 8.2451,12.8713 C8.7811,12.7423 9.3411,12.8253 9.8881,12.8953 C11.5161,13.1023 12.8601,13.6033 14.5301,13.2383 C16.1291,12.8893 17.3941,12.6413 18.4301,11.2333 C19.3871,9.9333 18.8651,8.8033 18.9241,7.2733" id="Fill-5" fill="#ECECD3"></path>
                            </g>
                        </g>
                    </g>
                </g>
            </g>
        </g>
    </g>
</svg>