<?xml version="1.0" encoding="UTF-8" standalone="no"?>
<svg width="15px" height="14px" viewBox="0 0 15 14" version="1.1" xmlns="http://www.w3.org/2000/svg" xmlns:xlink="http://www.w3.org/1999/xlink" xmlns:sketch="http://www.bohemiancoding.com/sketch/ns">
    <!-- Generator: Sketch 3.4 (15575) - http://www.bohemiancoding.com/sketch -->
    <title>Page 1</title>
    <desc>Created with Sketch.</desc>
    <defs></defs>
    <g id="Page-1" stroke="none" stroke-width="1" fill="none" fill-rule="evenodd" sketch:type="MSPage">
        <g id="Doctor---Patient-Landing-Page---Patient---Perio-Chart" sketch:type="MSArtboardGroup" transform="translate(-806.000000, -808.000000)">
            <g id="Chart" sketch:type="MSLayerGroup" transform="translate(271.000000, 398.000000)">
                <g id="Form" transform="translate(0.000000, 24.000000)" sketch:type="MSShapeGroup">
                    <g id="Row-13" transform="translate(526.000000, 197.000000)">
                        <g id="Page-1" transform="translate(9.000000, 189.000000)">
                            <path d="M1.7243,3.5865 C2.0833,2.5325 2.5293,1.3765 3.5253,0.8795 C4.0413,0.6225 4.6353,0.5835 5.2113,0.5675 C6.0123,0.5465 6.8133,0.5615 7.6123,0.6115 C8.6553,0.6775 9.7213,0.8125 10.6513,1.2895 C11.5823,1.7655 12.3643,2.6445 12.4723,3.6845 C12.5323,4.2635 12.3863,4.8655 12.5523,5.4245 C12.6433,5.7285 12.8203,5.9965 12.9733,6.2745 C13.9793,8.1065 13.8533,10.5025 12.6623,12.2185 C12.3863,12.6155 12.0453,12.9875 11.6033,13.1835 C11.2283,13.3495 10.8093,13.3765 10.3993,13.4015 C8.7433,13.5025 7.0653,13.6025 5.4373,13.2805 C4.0583,13.0075 2.6623,13.0355 1.6333,11.9595 C0.7613,11.0475 0.5333,9.6985 0.5013,8.4835 C0.4773,7.5815 0.8333,6.7735 1.0823,5.9275 C1.3123,5.1465 1.4563,4.3715 1.7243,3.5865 L1.7243,3.5865 Z" id="Stroke-1" stroke="#F99B3B"></path>
                            <path d="M2.1642,10.7964 C2.6762,11.0894 3.2702,11.1974 3.8522,11.2964 C5.7572,11.6214 7.7132,11.9004 9.6122,11.5454 C11.1772,11.2524 12.7052,10.4474 13.6402,9.1894 C13.6762,8.1794 13.4602,7.1614 12.9732,6.2744 C12.8202,5.9974 12.6432,5.7284 12.5522,5.4244 C12.3862,4.8664 12.5322,4.2644 12.4722,3.6844 C12.3642,2.6444 11.5822,1.7664 10.6512,1.2894 C9.7212,0.8134 8.6552,0.6774 7.6122,0.6114 C6.8132,0.5614 6.0122,0.5464 5.2122,0.5674 C4.6352,0.5834 4.0412,0.6224 3.5252,0.8794 C2.5292,1.3764 2.0832,2.5324 1.7242,3.5864 C1.4562,4.3724 1.3122,5.1464 1.0822,5.9274 C0.8332,6.7734 0.4772,7.5814 0.5012,8.4834 C0.5162,9.0654 0.5792,9.6774 0.7342,10.2584 C1.0172,10.3674 1.3002,10.4764 1.5832,10.5854 C1.8332,10.6814 1.9322,10.6634 2.1642,10.7964" id="Fill-3" fill="#FFFEED"></path>
                            <path d="M9.6125,11.545 C7.7135,11.9 5.7575,11.621 3.8525,11.297 C3.2705,11.198 2.6765,11.09 2.1645,10.796 C1.9315,10.663 1.8325,10.682 1.5825,10.585 C1.2995,10.476 1.0165,10.367 0.7335,10.258 C0.9025,10.89 1.1795,11.484 1.6335,11.96 C2.6625,13.036 4.0575,13.008 5.4375,13.281 C7.0655,13.603 8.7435,13.503 10.3995,13.402 C10.8085,13.377 11.2285,13.349 11.6025,13.183 C12.0455,12.988 12.3865,12.616 12.6625,12.219 C13.2765,11.333 13.6025,10.266 13.6405,9.19 C12.7055,10.447 11.1765,11.253 9.6125,11.545" id="Fill-5" fill="#ECECD3"></path>
                            <path d="M4.5859,7.6555 C4.0469,7.8745 2.9529,8.7875 2.4479,8.2175 C2.2739,8.0205 2.2049,7.7535 2.1709,7.4935 C2.0589,6.6365 2.2789,5.3665 2.7919,4.6535 C3.3589,3.8665 4.3179,3.4155 5.2839,3.3415 C6.2499,3.2675 7.2199,3.5425 8.0809,3.9855 C8.1469,4.0185 8.2119,4.0545 8.2669,4.1035 C8.5489,4.3615 8.3629,4.8755 8.0219,5.0485 C7.6809,5.2215 7.2739,5.1645 6.8949,5.1155 C6.3439,5.0455 5.7769,5.0045 5.2399,5.1455 C4.7029,5.2865 4.1949,5.6395 3.9969,6.1585 C3.9029,6.4025 3.7899,6.6315 3.6969,6.8615 C3.2849,7.8755 4.6529,7.0855 4.9389,6.9255 C5.9329,6.3665 7.1619,6.2425 8.2479,6.5905 C8.5699,6.6945 8.9389,6.8325 9.2249,6.6525 C9.4719,6.4965 9.5439,6.1635 9.7599,5.9655 C10.1749,5.5845 10.9129,5.9445 11.0819,6.4815 C11.2499,7.0195 11.0289,7.5975 10.7699,8.0975 C10.7149,8.2035 10.6409,8.3205 10.5229,8.3355 C10.4309,8.3475 10.3449,8.2915 10.2679,8.2395 C8.6219,7.1355 6.4219,6.9095 4.5859,7.6555" id="Fill-7" fill="#ECECD3"></path>
                        </g>
                    </g>
                </g>
            </g>
        </g>
    </g>
</svg>