<?xml version="1.0" encoding="UTF-8" standalone="no"?>
<svg width="17px" height="36px" viewBox="0 0 17 36" version="1.1" xmlns="http://www.w3.org/2000/svg" xmlns:xlink="http://www.w3.org/1999/xlink" xmlns:sketch="http://www.bohemiancoding.com/sketch/ns">
    <!-- Generator: Sketch 3.4 (15575) - http://www.bohemiancoding.com/sketch -->
    <title>Top</title>
    <desc>Created with Sketch.</desc>
    <defs></defs>
    <g id="Page-1" stroke="none" stroke-width="1" fill="none" fill-rule="evenodd" sketch:type="MSPage">
        <g id="Doctor---Patient-Landing-Page---Patient---Perio-Chart" sketch:type="MSArtboardGroup" transform="translate(-421.000000, -660.000000)">
            <g id="Chart" sketch:type="MSLayerGroup" transform="translate(271.000000, 398.000000)">
                <g id="Form" transform="translate(0.000000, 24.000000)" sketch:type="MSShapeGroup">
                    <g id="Row-1" transform="translate(141.000000, 197.000000)">
                        <g id="Tooth---1" transform="translate(9.000000, 41.000000)">
                            <g id="Top">
                                <path d="M15.2717,33.4825 C15.1637,33.6605 15.0417,33.8305 14.9007,33.9895 C13.7057,35.3375 11.6897,35.5075 9.8887,35.4995 C9.3337,35.4975 8.7657,35.4855 8.2477,35.2875 C7.7997,35.1175 7.4047,34.8155 6.9417,34.6935 C5.8117,34.3955 4.6757,35.2325 3.5087,35.1915 C2.5637,35.1575 1.7477,34.5325 1.2337,33.7215 C1.0927,33.4995 0.9707,33.2675 0.8797,33.0265 C0.4537,31.9005 0.4827,30.6615 0.5187,29.4585 C0.5687,27.7425 0.6427,26.0055 1.1017,24.3565 C1.1417,24.2125 1.1667,24.0635 1.2137,23.9205 C1.4727,23.1275 1.8337,22.3655 2.0137,21.5495 C2.1587,20.8915 2.1827,20.2135 2.2057,19.5395 C2.2777,17.4435 2.3497,15.3475 2.4217,13.2505 C2.5197,10.3765 2.6067,7.4205 1.6317,4.7145 C1.3767,4.0045 1.0437,3.2645 1.1987,2.5265 C1.3027,2.0305 1.7617,1.6075 2.2277,1.5215 C2.4557,1.4805 2.6857,1.5135 2.8767,1.6715 C3.1717,1.9165 3.4637,2.5155 3.9237,2.4225 C4.0707,2.3925 4.1497,2.2855 4.2547,2.1885 C4.3977,2.0555 4.5407,1.9235 4.6827,1.7905 L4.7607,1.7185 C5.0277,1.4705 5.2947,1.2225 5.5617,0.9745 C5.7247,0.8225 5.9047,0.6635 6.1267,0.6435 C6.4227,0.6165 6.6747,0.8445 6.8737,1.0655 C8.5037,2.8705 9.3887,5.2095 10.2387,7.4885 C11.1817,10.0205 12.1317,12.5765 12.5067,15.2525 C12.6997,16.6275 12.7397,18.0255 13.0467,19.3795 C13.3307,20.6355 13.8367,21.8265 14.2987,23.0315 C14.3857,23.2575 14.4747,23.4835 14.5567,23.7115 C15.2037,25.5135 15.6387,27.3915 15.8517,29.2935 C16.0107,30.7185 15.9977,32.2875 15.2717,33.4825 L15.2717,33.4825 Z" id="Stroke-1" stroke="#F99B3B"></path>
                                <path d="M6.6052,10.4201 C6.7282,13.1291 6.5492,16.0861 4.7802,18.1411 C4.6022,18.3481 4.3662,18.5591 4.0962,18.5251 C3.5882,18.4601 3.5832,17.7281 3.7182,17.2351 C4.0982,15.8571 4.4512,14.4611 4.5422,13.0351 C4.7082,10.4391 4.0022,7.8751 3.3022,5.3701 C2.9442,4.0871 2.5852,2.8051 2.2272,1.5221 C2.4552,1.4801 2.6852,1.5131 2.8762,1.6721 C3.1722,1.9171 3.4632,2.5151 3.9242,2.4221 C4.0712,2.3921 4.1492,2.2861 4.2542,2.1881 C4.3972,2.0561 4.5402,1.9231 4.6832,1.7901 C4.7092,1.7661 4.7352,1.7421 4.7602,1.7181 C4.8472,2.8981 5.4072,4.0481 5.7902,5.1951 C6.3502,6.8721 6.5252,8.6531 6.6052,10.4201" id="Fill-3" fill="#E6C78C"></path>
                                <path d="M6.9776,31.1134 C7.7156,30.8974 8.4406,31.4824 8.9086,32.0924 C9.3756,32.7024 9.8056,33.4284 10.5336,33.6734 C10.9246,33.8044 11.3486,33.7754 11.7586,33.7444 C12.9296,33.6574 14.1006,33.5704 15.2716,33.4824 C15.1636,33.6604 15.0416,33.8304 14.9006,33.9894 C13.7056,35.3384 11.6896,35.5074 9.8886,35.4994 C9.3336,35.4974 8.7656,35.4854 8.2476,35.2884 C7.7996,35.1184 7.4046,34.8154 6.9416,34.6934 C5.8116,34.3954 4.6766,35.2324 3.5086,35.1914 C2.5636,35.1584 1.7486,34.5324 1.2336,33.7214 C2.9846,33.6754 4.7246,33.0094 6.0066,31.8124 C6.3016,31.5374 6.5906,31.2264 6.9776,31.1134" id="Fill-5" fill="#ECECD3"></path>
                                <path d="M11.7591,33.7448 C11.3481,33.7758 10.9241,33.8048 10.5341,33.6728 C9.8051,33.4278 9.3761,32.7028 8.9081,32.0928 C8.4411,31.4828 7.7151,30.8978 6.9781,31.1138 C6.5911,31.2268 6.3011,31.5378 6.0071,31.8118 C4.7241,33.0088 2.9841,33.6758 1.2331,33.7208 C1.0931,33.4998 0.9711,33.2678 0.8791,33.0258 C0.4531,31.9008 0.4831,30.6608 0.5181,29.4578 C0.5691,27.7428 0.6431,26.0058 1.1021,24.3568 C1.5151,24.2548 1.9361,24.1808 2.3521,24.1418 C4.2091,23.9678 6.0901,24.2468 7.9421,24.0298 C9.3691,23.8618 10.7451,23.4038 12.1601,23.1618 C12.8611,23.0418 13.5891,22.9798 14.2991,23.0308 C14.3861,23.2578 14.4741,23.4838 14.5561,23.7118 C15.2031,25.5138 15.6391,27.3908 15.8511,29.2938 C16.0101,30.7188 15.9981,32.2868 15.2721,33.4828 C14.1011,33.5698 12.9301,33.6578 11.7591,33.7448" id="Fill-7" fill="#FFFEED"></path>
                                <path d="M10.2948,19.5871 C9.5468,21.2301 7.4878,21.9561 5.7068,21.6621 C4.8658,21.5241 4.0188,21.2011 3.1848,21.3781 C2.7538,21.4691 2.3618,21.6901 1.9928,21.9291 C1.9568,21.9531 1.9248,21.9811 1.8888,22.0051 C1.9338,21.8541 1.9798,21.7041 2.0138,21.5501 C2.1588,20.8911 2.1828,20.2131 2.2058,19.5391 C2.2778,17.4431 2.3498,15.3471 2.4218,13.2511 C2.5198,10.3771 2.6068,7.4201 1.6318,4.7151 C1.3768,4.0051 1.0438,3.2641 1.1988,2.5261 C1.3028,2.0301 1.7618,1.6071 2.2268,1.5221 C2.5858,2.8051 2.9438,4.0871 3.3018,5.3701 C4.0018,7.8751 4.7078,10.4391 4.5428,13.0351 C4.4518,14.4611 4.0978,15.8571 3.7188,17.2351 C3.5828,17.7281 3.5878,18.4601 4.0958,18.5251 C4.3668,18.5591 4.6018,18.3481 4.7808,18.1411 C6.5498,16.0861 6.7278,13.1291 6.6048,10.4201 C6.5248,8.6531 6.3498,6.8721 5.7898,5.1951 C5.4068,4.0481 4.8478,2.8981 4.7608,1.7181 C5.0278,1.4701 5.2948,1.2221 5.5618,0.9741 C5.7248,0.8231 5.9048,0.6631 6.1268,0.6431 C6.4228,0.6171 6.6748,0.8451 6.8738,1.0651 C8.5038,2.8701 9.3888,5.2091 10.2388,7.4881 C11.0258,9.6001 11.7958,11.7331 12.2548,13.9341 C11.7418,13.6411 11.1578,13.4781 10.5638,13.5191 C10.0868,15.5071 11.1418,17.7261 10.2948,19.5871" id="Fill-9" fill="#F3D498"></path>
                                <path d="M13.0463,19.3793 C13.3313,20.6353 13.8363,21.8273 14.2993,23.0313 C13.5893,22.9803 12.8613,23.0413 12.1603,23.1613 C10.7443,23.4033 9.3683,23.8623 7.9423,24.0293 C6.0903,24.2473 4.2093,23.9683 2.3523,24.1423 C1.9363,24.1813 1.5153,24.2553 1.1013,24.3573 C1.1423,24.2123 1.1663,24.0643 1.2133,23.9203 C1.4233,23.2773 1.6963,22.6523 1.8893,22.0053 C1.9253,21.9813 1.9573,21.9523 1.9923,21.9293 C2.3623,21.6893 2.7543,21.4693 3.1843,21.3783 C4.0183,21.2013 4.8653,21.5243 5.7063,21.6623 C7.4873,21.9563 9.5473,21.2303 10.2953,19.5873 C11.1423,17.7263 10.0873,15.5073 10.5643,13.5193 C11.1573,13.4783 11.7413,13.6413 12.2553,13.9343 C12.3463,14.3723 12.4453,14.8083 12.5073,15.2523 C12.7003,16.6273 12.7393,18.0253 13.0463,19.3793" id="Fill-11" fill="#E6C78C"></path>
                            </g>
                        </g>
                    </g>
                </g>
            </g>
        </g>
    </g>
</svg>