<?xml version="1.0" encoding="UTF-8" standalone="no"?>
<svg width="15px" height="18px" viewBox="0 0 15 18" version="1.1" xmlns="http://www.w3.org/2000/svg" xmlns:xlink="http://www.w3.org/1999/xlink" xmlns:sketch="http://www.bohemiancoding.com/sketch/ns">
    <!-- Generator: Sketch 3.4 (15575) - http://www.bohemiancoding.com/sketch -->
    <title>Page 1</title>
    <desc>Created with Sketch.</desc>
    <defs></defs>
    <g id="Page-1" stroke="none" stroke-width="1" fill="none" fill-rule="evenodd" sketch:type="MSPage">
        <g id="Doctor---Patient-Landing-Page---Patient---Perio-Chart" sketch:type="MSArtboardGroup" transform="translate(-549.000000, -776.000000)">
            <g id="Chart" sketch:type="MSLayerGroup" transform="translate(271.000000, 398.000000)">
                <g id="Form" transform="translate(0.000000, 24.000000)" sketch:type="MSShapeGroup">
                    <g id="Row-5" transform="translate(270.000000, 197.000000)">
                        <g id="Tooth---6" transform="translate(8.000000, 157.000000)">
                            <g id="Page-1">
                                <path d="M4.209,16.7063 C1.061,15.0663 -0.093,12.0533 0.785,8.6213 C1.023,7.6883 1.489,6.8293 1.779,5.9113 C2.306,4.2443 2.372,2.2013 3.808,1.2043 C5.277,0.1853 7.254,0.8913 9.019,1.1783 C10.144,1.3613 11.426,1.4173 12.176,2.2753 C12.593,2.7503 12.758,3.3893 12.91,4.0033 C13.256,5.4023 13.603,6.8013 13.95,8.2003 C14.249,9.4083 14.547,10.6933 14.16,11.8753 C13.93,12.5803 13.473,13.1863 13.016,13.7703 C11.858,15.2513 10.537,16.7623 8.734,17.2953 C7.238,17.7383 5.592,17.4263 4.209,16.7063 L4.209,16.7063 Z" id="Stroke-1" stroke="#F99B3B"></path>
                                <path d="M3.6946,12.4026 C5.5646,13.2576 7.8146,13.2336 9.6656,12.3386 C11.1496,11.6206 12.3356,10.4016 13.3296,9.0866 C13.5476,8.7986 13.7526,8.4996 13.9486,8.1966 C13.6026,6.7986 13.2556,5.4006 12.9096,4.0036 C12.7576,3.3896 12.5926,2.7506 12.1766,2.2746 C11.4256,1.4166 10.1436,1.3616 9.0186,1.1786 C7.2536,0.8916 5.2776,0.1846 3.8086,1.2046 C2.3716,2.2016 2.3056,4.2446 1.7786,5.9116 C1.4886,6.8296 1.0236,7.6886 0.7846,8.6216 C0.6996,8.9546 0.6496,9.2806 0.6026,9.6056 C1.3306,10.8146 2.4096,11.8146 3.6946,12.4026" id="Fill-3" fill="#FFFEED"></path>
                                <path d="M13.949,8.1963 C13.753,8.5003 13.547,8.7983 13.33,9.0863 C12.335,10.4013 11.149,11.6203 9.665,12.3383 C7.814,13.2333 5.564,13.2583 3.695,12.4023 C2.41,11.8153 1.331,10.8143 0.603,9.6053 C0.167,12.6223 1.366,15.2253 4.209,16.7063 C5.592,17.4263 7.238,17.7383 8.734,17.2953 C10.537,16.7623 11.858,15.2513 13.016,13.7703 C13.473,13.1863 13.93,12.5813 14.16,11.8763 C14.547,10.6933 14.249,9.4083 13.95,8.2003 C13.95,8.1993 13.949,8.1973 13.949,8.1963" id="Fill-5" fill="#ECECD3"></path>
                            </g>
                        </g>
                    </g>
                </g>
            </g>
        </g>
    </g>
</svg>