<?xml version="1.0" encoding="UTF-8" standalone="no"?>
<svg width="21px" height="14px" viewBox="0 0 21 14" version="1.1" xmlns="http://www.w3.org/2000/svg" xmlns:xlink="http://www.w3.org/1999/xlink" xmlns:sketch="http://www.bohemiancoding.com/sketch/ns">
    <!-- Generator: Sketch 3.4 (15575) - http://www.bohemiancoding.com/sketch -->
    <title>Page 1</title>
    <desc>Created with Sketch.</desc>
    <defs></defs>
    <g id="Page-1" stroke="none" stroke-width="1" fill="none" fill-rule="evenodd" sketch:type="MSPage">
        <g id="Doctor---Patient-Landing-Page---Patient---Perio-Chart" sketch:type="MSArtboardGroup" transform="translate(-835.000000, -776.000000)">
            <g id="Chart" sketch:type="MSLayerGroup" transform="translate(271.000000, 398.000000)">
                <g id="Form" transform="translate(0.000000, 24.000000)" sketch:type="MSShapeGroup">
                    <g id="Row-14" transform="translate(558.000000, 197.000000)">
                        <g id="Page-1" transform="translate(6.000000, 157.000000)">
                            <path d="M2.7788,0.9822 C1.0338,1.5852 0.7308,3.2922 0.6058,4.9122 C0.4308,7.1692 0.3108,9.6372 1.6308,11.4772 C2.3878,12.5322 3.5838,13.2612 4.8688,13.4502 C6.1528,13.6392 7.5088,13.2852 8.5368,12.4922 C8.7348,12.3402 8.9388,12.1662 9.1868,12.1482 C9.4568,12.1292 9.6978,12.3002 9.9328,12.4362 C10.7598,12.9122 11.7508,12.9902 12.7048,13.0382 C13.8558,13.0962 15.0088,13.1262 16.1618,13.1272 C16.5298,13.1272 16.9028,13.1242 17.2578,13.0262 C18.0368,12.8122 18.6358,12.1572 18.9648,11.4192 C19.2928,10.6822 19.3878,9.8642 19.4458,9.0592 C19.6128,6.7692 19.4898,4.3502 18.3228,2.3742 C18.1118,2.0172 17.8628,1.6722 17.5218,1.4362 C17.1308,1.1662 16.6498,1.0602 16.1788,0.9902 C15.1028,0.8282 14.0088,0.8182 12.9198,0.8112 C10.1318,0.7922 7.3448,0.7892 4.5568,0.7852 C3.9578,0.7852 3.3448,0.7862 2.7788,0.9822 L2.7788,0.9822 Z" id="Stroke-1" stroke="#F99B3B"></path>
                            <path d="M3.6299,12.4267 C4.5919,12.1707 5.3599,11.3417 5.6109,10.3787 C5.8029,9.6427 5.7159,8.8657 5.7739,8.1077 C5.8289,7.3897 6.0149,6.6897 6.1999,5.9947 C6.3459,5.4447 6.5679,4.8127 7.1089,4.6407 C7.5809,4.4917 8.1049,4.7927 8.3589,5.2177 C8.6129,5.6427 8.6549,6.1587 8.6619,6.6537 C8.6779,7.7157 8.5639,8.8067 8.8839,9.8207 C9.2029,10.8337 10.1289,11.7657 11.1859,11.6517 C11.3249,11.5077 11.3659,11.2967 11.3919,11.0977 C11.5729,9.6937 11.3129,8.2677 11.4239,6.8567 C11.5349,5.4457 12.1549,3.9217 13.4609,3.3777 C13.9709,3.1657 14.5539,3.1177 15.0099,2.8047 C15.5969,2.4027 15.8149,1.6877 15.9169,0.9587 C14.9249,0.8327 13.9209,0.8177 12.9199,0.8107 C10.1319,0.7917 7.3439,0.7887 4.5559,0.7857 C3.9569,0.7847 3.3449,0.7867 2.7789,0.9817 C1.0339,1.5857 0.7309,3.2927 0.6059,4.9117 C0.4309,7.1687 0.3109,9.6377 1.6309,11.4767 C1.9069,11.8627 2.2579,12.1867 2.6349,12.4747 C2.9659,12.5227 3.3069,12.5127 3.6299,12.4267" id="Fill-3" fill="#FFFEED"></path>
                            <path d="M18.3228,2.3739 C18.1118,2.0169 17.8628,1.6719 17.5218,1.4369 C17.1308,1.1659 16.6498,1.0609 16.1798,0.9899 C16.0918,0.9769 16.0038,0.9699 15.9168,0.9589 C15.8148,1.6879 15.5978,2.4029 15.0098,2.8049 C14.5538,3.1169 13.9718,3.1659 13.4618,3.3779 C12.1548,3.9219 11.5348,5.4459 11.4238,6.8569 C11.3128,8.2669 11.5728,9.6939 11.3918,11.0979 C11.3658,11.2959 11.3248,11.5069 11.1858,11.6519 C10.1288,11.7659 9.2038,10.8339 8.8838,9.8199 C8.5638,8.8069 8.6778,7.7159 8.6618,6.6529 C8.6548,6.1579 8.6128,5.6429 8.3588,5.2179 C8.1048,4.7929 7.5808,4.4909 7.1098,4.6409 C6.5678,4.8129 6.3468,5.4449 6.1998,5.9949 C6.0148,6.6899 5.8298,7.3899 5.7738,8.1069 C5.7158,8.8659 5.8028,9.6429 5.6108,10.3789 C5.3598,11.3419 4.5918,12.1709 3.6298,12.4269 C3.3068,12.5129 2.9668,12.5229 2.6348,12.4749 C3.2888,12.9739 4.0538,13.3299 4.8688,13.4499 C6.1528,13.6389 7.5088,13.2849 8.5368,12.4929 C8.7348,12.3409 8.9388,12.1659 9.1868,12.1479 C9.4568,12.1289 9.6978,12.3009 9.9328,12.4359 C10.7598,12.9119 11.7508,12.9909 12.7048,13.0389 C13.8558,13.0959 15.0088,13.1259 16.1618,13.1269 C16.5298,13.1279 16.9028,13.1239 17.2578,13.0269 C18.0368,12.8119 18.6358,12.1569 18.9648,11.4199 C19.2928,10.6819 19.3878,9.8639 19.4458,9.0589 C19.6128,6.7699 19.4898,4.3509 18.3228,2.3739" id="Fill-5" fill="#ECECD3"></path>
                        </g>
                    </g>
                </g>
            </g>
        </g>
    </g>
</svg>