<?xml version="1.0" encoding="UTF-8" standalone="no"?>
<svg width="14px" height="44px" viewBox="0 0 14 44" version="1.1" xmlns="http://www.w3.org/2000/svg" xmlns:xlink="http://www.w3.org/1999/xlink" xmlns:sketch="http://www.bohemiancoding.com/sketch/ns">
    <!-- Generator: Sketch 3.4 (15575) - http://www.bohemiancoding.com/sketch -->
    <title>Page 1</title>
    <desc>Created with Sketch.</desc>
    <defs></defs>
    <g id="Page-1" stroke="none" stroke-width="1" fill="none" fill-rule="evenodd" sketch:type="MSPage">
        <g id="Doctor---Patient-Landing-Page---Patient---Perio-Chart" sketch:type="MSArtboardGroup" transform="translate(-806.000000, -836.000000)">
            <g id="Chart" sketch:type="MSLayerGroup" transform="translate(271.000000, 398.000000)">
                <g id="Form" transform="translate(0.000000, 24.000000)" sketch:type="MSShapeGroup">
                    <g id="Row-13" transform="translate(526.000000, 197.000000)">
                        <g id="Page-1" transform="translate(9.000000, 218.000000)">
                            <path d="M12.0661,3.6772 C10.6961,2.7382 8.8671,1.5482 8.6641,1.3322 C8.0391,0.6662 6.2681,-0.0638 4.9141,0.8022 C4.0351,1.3642 1.2821,2.5552 0.7971,3.4162 C0.2211,4.4372 0.4981,8.4162 1.4981,10.9882 C2.1571,12.6842 2.6711,14.3932 2.9451,15.3622 C3.0151,15.6102 3.1281,15.8382 3.2741,16.0432 L3.2721,16.0442 C3.2721,16.0442 3.2981,16.7462 3.3391,17.8472 C3.4821,21.7462 3.8121,30.6642 3.8571,31.2492 C3.9141,31.9992 6.8311,41.4992 8.4981,42.3322 C10.1641,43.1662 10.4141,40.6662 10.4141,39.7492 C10.4141,39.0062 11.0081,24.3912 11.4611,18.3222 C11.5671,16.8992 11.6661,15.9442 11.7481,15.7492 C12.0121,15.2192 12.6451,8.3312 12.8941,5.5192 C12.8961,5.4972 12.8981,5.4692 12.9001,5.4462 C12.9621,4.7462 12.6451,4.0742 12.0661,3.6772 L12.0661,3.6772 Z" id="Stroke-1" stroke="#F99B3B"></path>
                            <path d="M9.2344,24.0205 C7.9434,24.0885 4.5484,19.5325 3.3384,17.8475 C3.4824,21.7465 3.8124,30.6645 3.8574,31.2495 C3.9144,31.9995 6.8314,41.4995 8.4974,42.3325 C10.1644,43.1655 10.4144,40.6655 10.4144,39.7495 C10.4144,39.0065 11.0074,24.3915 11.4614,18.3215 C10.8774,20.5255 10.3874,23.9595 9.2344,24.0205" id="Fill-3" fill="#F3D498"></path>
                            <path d="M7.9976,13.5825 L3.2726,16.0435 C3.2726,16.0435 3.2986,16.7455 3.3386,17.8475 C4.5486,19.5325 7.9436,24.0885 9.2346,24.0205 C10.3876,23.9595 10.8776,20.5255 11.4616,18.3215 C11.5676,16.8995 11.6666,15.9435 11.7476,15.7495 C12.1766,14.7245 7.9976,13.5825 7.9976,13.5825" id="Fill-5" fill="#E6C78C"></path>
                            <path d="M12.0661,3.6772 C10.6961,2.7382 8.8671,1.5482 8.6641,1.3322 C8.0391,0.6662 6.2681,-0.0638 4.9141,0.8022 C4.0351,1.3642 1.2821,2.5552 0.7971,3.4162 C0.2211,4.4372 0.4981,8.4162 1.4981,10.9882 C2.1571,12.6842 2.6711,14.3932 2.9451,15.3622 C3.0911,15.8762 3.4111,16.3132 3.8571,16.6092 C4.2001,16.8372 4.5751,17.0852 4.9751,17.3002 C4.7621,15.0082 3.9911,6.2182 4.5881,5.7292 C5.1611,5.2612 9.4511,6.3862 12.8941,5.5192 C12.8961,5.4972 12.8981,5.4692 12.9001,5.4462 C12.9621,4.7462 12.6451,4.0742 12.0661,3.6772" id="Fill-7" fill="#FFFEED"></path>
                            <path d="M4.5885,5.7289 C3.9905,6.2179 4.7625,15.0089 4.9745,17.3009 C5.6445,17.6619 6.3835,17.9339 7.1645,17.8699 C8.7475,17.7399 11.4145,16.4159 11.7475,15.7489 C12.0125,15.2199 12.6445,8.3319 12.8935,5.5199 C9.4515,6.3869 5.1605,5.2609 4.5885,5.7289" id="Fill-9" fill="#ECECD3"></path>
                        </g>
                    </g>
                </g>
            </g>
        </g>
    </g>
</svg>