<?xml version="1.0" encoding="UTF-8" standalone="no"?>
<svg width="21px" height="15px" viewBox="0 0 21 15" version="1.1" xmlns="http://www.w3.org/2000/svg" xmlns:xlink="http://www.w3.org/1999/xlink" xmlns:sketch="http://www.bohemiancoding.com/sketch/ns">
    <!-- Generator: Sketch 3.4 (15575) - http://www.bohemiancoding.com/sketch -->
    <title>Page 1</title>
    <desc>Created with Sketch.</desc>
    <defs></defs>
    <g id="Page-1" stroke="none" stroke-width="1" fill="none" fill-rule="evenodd" sketch:type="MSPage">
        <g id="Doctor---Patient-Landing-Page---Patient---Perio-Chart" sketch:type="MSArtboardGroup" transform="translate(-483.000000, -741.000000)">
            <g id="Chart" sketch:type="MSLayerGroup" transform="translate(271.000000, 398.000000)">
                <g id="Form" transform="translate(0.000000, 24.000000)" sketch:type="MSShapeGroup">
                    <g id="Row-3" transform="translate(206.000000, 197.000000)">
                        <g id="Tooth---3" transform="translate(5.000000, 36.000000)">
                            <g id="Page-1" transform="translate(1.000000, 87.000000)">
                                <path d="M8.25,1.3656 C6.924,1.1636 5.837,0.1916 4.451,0.3326 C3.713,0.4066 2.5,0.5756 1.852,0.9716 C-0.22,2.2406 0.61,5.9526 0.978,7.8466 C1.285,9.4266 1.928,10.9426 2.859,12.2566 C3.102,12.6006 3.375,12.9386 3.742,13.1456 C4.222,13.4156 4.799,13.4266 5.35,13.4316 C8.11,13.4536 10.87,13.4766 13.63,13.4986 C14.138,13.5026 14.659,13.5046 15.134,13.3276 C15.519,13.1836 15.852,12.9296 16.172,12.6726 C16.906,12.0836 17.615,11.4516 18.181,10.7006 C19.436,9.0386 19.916,6.8146 19.458,4.7836 C19.384,4.4536 19.286,4.1276 19.137,3.8246 C18.773,3.0866 18.133,2.5286 17.509,1.9916 C16.949,1.5096 16.362,1.0126 15.646,0.8286 C15.061,0.6776 14.445,0.7506 13.846,0.8246 C12.521,0.9876 11.196,1.1516 9.871,1.3146 C9.333,1.3806 8.786,1.4476 8.25,1.3656 L8.25,1.3656 Z" id="Stroke-1" stroke="#F99B3B"></path>
                                <path d="M10.294,2.6714 C9.616,3.0534 9.214,3.8104 9.075,4.5764 C8.937,5.3434 9.024,6.1304 9.112,6.9044 C8.655,5.8244 8.149,4.7474 7.402,3.8434 C6.655,2.9394 5.635,2.2134 4.476,2.0314 C4.005,1.9564 3.508,1.9764 3.069,2.1634 C2.633,2.3494 2.28,2.6874 1.963,3.0404 C1.407,3.6574 0.932,4.3454 0.54,5.0774 C0.404,3.4454 0.582,1.7494 1.852,0.9724 C2.5,0.5754 3.713,0.4064 4.451,0.3324 C5.837,0.1924 6.924,1.1634 8.25,1.3654 C8.786,1.4474 9.333,1.3814 9.871,1.3144 C11.196,1.1514 12.521,0.9874 13.846,0.8244 C14.243,0.7754 14.646,0.7334 15.044,0.7494 C14.111,1.4724 13.015,1.9854 11.859,2.2294 C11.326,2.3424 10.768,2.4044 10.294,2.6714" id="Fill-3" fill="#ECECD3"></path>
                                <path d="M18.7436,6.0669 C18.4016,7.1709 17.6266,8.0799 16.8716,8.9549 C16.4076,9.4919 15.9216,10.0469 15.2706,10.3319 C14.6566,10.6019 13.9636,10.6029 13.2946,10.6559 C10.8346,10.8499 8.4536,11.8509 6.5686,13.4409 C6.1626,13.4379 5.7566,13.4349 5.3496,13.4319 C4.7996,13.4269 4.2216,13.4159 3.7426,13.1459 C3.3746,12.9389 3.1026,12.5999 2.8586,12.2559 C1.9286,10.9429 1.2846,9.4269 0.9776,7.8469 C0.8356,7.1139 0.6256,6.1079 0.5396,5.0779 C0.9326,4.3459 1.4076,3.6579 1.9626,3.0399 C2.2806,2.6879 2.6326,2.3499 3.0696,2.1629 C3.5086,1.9759 4.0046,1.9569 4.4756,2.0309 C5.6346,2.2139 6.6546,2.9399 7.4026,3.8439 C8.1496,4.7479 8.6546,5.8239 9.1126,6.9039 C9.0246,6.1299 8.9366,5.3429 9.0756,4.5769 C9.2146,3.8099 9.6156,3.0539 10.2936,2.6719 C10.7686,2.4039 11.3266,2.3429 11.8596,2.2299 C13.0146,1.9859 14.1106,1.4729 15.0446,0.7499 C15.2476,0.7579 15.4486,0.7779 15.6466,0.8279 C16.3616,1.0129 16.9496,1.5099 17.5096,1.9919 C17.9666,2.3859 18.4306,2.7919 18.7906,3.2719 C18.9836,4.2089 19.0246,5.1589 18.7436,6.0669" id="Fill-5" fill="#FFFEED"></path>
                                <path d="M18.1815,10.7005 C17.6145,11.4515 16.9065,12.0845 16.1725,12.6725 C15.8525,12.9305 15.5195,13.1835 15.1345,13.3275 C14.6585,13.5045 14.1385,13.5035 13.6305,13.4985 C11.2765,13.4795 8.9225,13.4605 6.5695,13.4415 C8.4535,11.8505 10.8345,10.8495 13.2945,10.6555 C13.9635,10.6025 14.6565,10.6025 15.2705,10.3325 C15.9215,10.0465 16.4075,9.4925 16.8715,8.9545 C17.6265,8.0795 18.4015,7.1705 18.7435,6.0665 C19.0255,5.1595 18.9835,4.2095 18.7905,3.2715 C18.9215,3.4455 19.0395,3.6285 19.1365,3.8255 C19.2855,4.1285 19.3835,4.4535 19.4575,4.7835 C19.9155,6.8145 19.4365,9.0385 18.1815,10.7005" id="Fill-7" fill="#ECECD3"></path>
                            </g>
                        </g>
                    </g>
                </g>
            </g>
        </g>
    </g>
</svg>