<?xml version="1.0" encoding="UTF-8" standalone="no"?>
<svg width="21px" height="42px" viewBox="0 0 21 42" version="1.1" xmlns="http://www.w3.org/2000/svg" xmlns:xlink="http://www.w3.org/1999/xlink" xmlns:sketch="http://www.bohemiancoding.com/sketch/ns">
    <!-- Generator: Sketch 3.4 (15575) - http://www.bohemiancoding.com/sketch -->
    <title>Page 1</title>
    <desc>Created with Sketch.</desc>
    <defs></defs>
    <g id="Page-1" stroke="none" stroke-width="1" fill="none" fill-rule="evenodd" sketch:type="MSPage">
        <g id="Doctor---Patient-Landing-Page---Patient---Perio-Chart" sketch:type="MSArtboardGroup" transform="translate(-482.000000, -654.000000)">
            <g id="Chart" sketch:type="MSLayerGroup" transform="translate(271.000000, 398.000000)">
                <g id="Form" transform="translate(0.000000, 24.000000)" sketch:type="MSShapeGroup">
                    <g id="Row-3" transform="translate(206.000000, 197.000000)">
                        <g id="Tooth---3" transform="translate(5.000000, 36.000000)">
                            <g id="Page-1">
                                <path d="M5.4004,2.3407 C5.6814,3.5107 5.9624,4.6807 6.2424,5.8507 C6.3964,6.4917 6.5844,7.1637 6.8564,7.7627 C7.1914,8.5007 7.5784,9.2947 8.3074,9.6487 C8.3444,9.6677 8.3874,9.6847 8.4274,9.6737 C8.5044,9.6527 8.5194,9.5517 8.5194,9.4727 C8.5194,8.1257 8.2984,6.8357 8.3704,5.4987 C8.4494,4.0347 8.6504,2.5457 9.2974,1.2137 C9.4684,0.8627 9.6804,0.5127 10.0124,0.3067 C10.6464,-0.0863 11.1914,0.2777 11.6134,0.7697 C12.0724,1.3037 12.0994,1.8717 12.1034,2.5617 C12.1134,4.3687 12.3094,6.1177 12.1864,7.9087 C12.1224,8.8487 12.0844,9.7967 12.1964,10.7347 C12.2534,11.2177 12.2794,11.9077 12.6984,12.2377 C13.4394,12.8227 13.6684,11.4507 13.8554,10.9547 C14.4894,9.2767 14.9974,7.5197 15.0164,5.7127 C15.0224,5.1057 14.9724,4.4997 14.9084,3.8967 C14.8654,3.4907 14.5924,2.6787 14.7154,2.2977 C14.9354,1.6117 15.9224,1.6157 16.4904,1.7327 C17.3804,1.9147 17.7584,2.5497 18.0634,3.3797 C18.4494,4.4307 18.5054,5.5707 18.5354,6.6907 C18.5774,8.2357 18.5794,9.7817 18.5724,11.3267 C18.5624,13.3707 18.5324,15.4407 17.9974,17.4137 C17.5664,18.9967 16.8094,20.5327 16.8294,22.1737 C16.8484,23.7677 17.5984,25.2467 18.2414,26.7047 C18.8584,28.1037 19.3904,29.5407 19.8324,31.0037 C19.9764,31.4767 20.1114,31.9597 20.1274,32.4537 C20.1474,33.0387 20.0014,33.6157 19.8554,34.1827 C19.5054,35.5467 19.1464,36.9357 18.4044,38.1337 C17.6624,39.3317 16.4654,40.3307 15.0644,40.4797 C12.7344,40.7267 10.4844,38.6387 8.2394,39.3087 C7.7784,39.4457 7.3564,39.6947 6.8954,39.8297 C6.4304,39.9647 5.9354,39.9797 5.4554,39.9137 C3.5124,39.6447 1.9484,38.0607 1.1824,36.2547 C0.2154,33.9527 0.5094,31.2397 0.6754,28.8017 C0.7704,27.4087 1.2434,26.1877 2.2164,25.1507 C2.6364,24.7017 2.9874,24.2117 3.1654,23.6157 C3.2794,23.2347 3.3204,22.8357 3.3604,22.4407 C3.5994,20.1047 3.9714,17.8807 3.9514,15.5137 C3.9294,12.9697 3.8584,10.4257 3.7374,7.8847 C3.6774,6.6137 3.6044,5.3437 3.5194,4.0747 C3.4724,3.3737 3.0674,1.9887 3.6194,1.3817 C3.8074,1.1747 4.1214,1.1157 4.3944,1.1787 C5.0344,1.3267 5.2594,1.7547 5.4004,2.3407 L5.4004,2.3407 Z" id="Stroke-1" stroke="#F99B3B"></path>
                                <path d="M8.4264,25.2652 C10.2844,25.2792 12.1984,24.9982 14.0104,25.2612 C14.2024,25.6752 14.4014,26.0852 14.5884,26.4902 C15.3274,28.0902 15.9004,29.7662 16.2944,31.4842 C16.5214,32.4702 16.6894,33.4872 16.5744,34.4922 C16.4594,35.4982 16.0304,36.5012 15.2404,37.1342 C14.3594,37.8392 13.1594,37.9972 12.0314,37.9622 C11.7684,37.9542 11.5014,37.9352 11.2584,37.8362 C10.3484,37.4662 10.2284,36.2632 9.8204,35.3702 C9.7354,35.1852 9.6014,34.9852 9.3984,34.9692 C9.2854,34.9602 9.1764,35.0112 9.0804,35.0722 C8.5014,35.4442 8.2124,36.1882 7.5884,36.4812 C7.3024,36.6162 6.9744,36.6392 6.6814,36.7602 C6.0784,37.0112 5.7254,37.6252 5.2584,38.0812 C4.7384,38.5892 4.0894,38.8842 3.3894,39.0652 C2.4194,38.3772 1.6504,37.3592 1.1824,36.2552 C0.2154,33.9532 0.5094,31.2402 0.6754,28.8012 C0.7694,27.4362 1.2314,26.2382 2.1654,25.2152 C2.6414,25.1302 3.1244,25.0792 3.6024,25.0632 C5.2114,25.0092 6.8164,25.2532 8.4264,25.2652" id="Fill-3" fill="#FFFEED"></path>
                                <path d="M9.258,15.8294 C9.214,16.7494 9.168,17.6834 8.873,18.5554 C8.577,19.4284 7.993,20.2454 7.147,20.6094 C7.669,17.1114 6.725,13.5694 5.608,10.2134 C5.392,9.5624 5.168,8.9124 4.995,8.2484 C4.404,5.9774 4.422,3.6004 4.578,1.2514 C5.067,1.4374 5.276,1.8214 5.4,2.3404 C5.681,3.5104 5.962,4.6804 6.243,5.8504 C6.397,6.4914 6.585,7.1634 6.857,7.7624 C7.188,8.4944 7.574,9.2784 8.29,9.6374 C8.589,10.3414 8.884,11.0504 9.063,11.7794 C9.384,13.0974 9.322,14.4744 9.258,15.8294" id="Fill-5" fill="#E6C78C"></path>
                                <path d="M10.8519,16.6013 C10.7389,16.6583 10.6049,16.7113 10.4889,16.6583 C10.3819,16.6083 10.3319,16.4853 10.2959,16.3723 C10.0839,15.7093 9.9899,15.0093 10.0199,14.3143 C10.0439,13.7453 10.1499,13.1833 10.2089,12.6173 C10.2839,11.8933 10.2819,11.1653 10.2799,10.4383 C10.2769,9.3263 10.2739,8.2143 10.2709,7.1033 C10.2659,4.9513 10.2369,2.7163 9.6179,0.6833 C9.7289,0.5373 9.8559,0.4033 10.0119,0.3063 C10.6469,-0.0867 11.1919,0.2783 11.6139,0.7703 C12.0729,1.3043 12.0999,1.8713 12.1039,2.5623 C12.1129,4.3693 12.3099,6.1173 12.1869,7.9083 C12.1219,8.8483 12.0849,9.7963 12.1959,10.7343 C12.2529,11.2173 12.2789,11.9073 12.6979,12.2383 C13.1639,12.6053 13.4269,12.2013 13.6049,11.7263 C13.6069,11.7493 13.6109,11.7723 13.6119,11.7943 C13.7379,13.7483 12.6029,15.7253 10.8519,16.6013" id="Fill-7" fill="#E6C78C"></path>
                                <path d="M20.1278,32.4538 C20.1478,33.0388 20.0008,33.6148 19.8558,34.1818 C19.5058,35.5468 19.1458,36.9358 18.4038,38.1338 C17.6628,39.3318 16.4658,40.3308 15.0648,40.4798 C12.7348,40.7268 10.4848,38.6378 8.2398,39.3088 C7.7788,39.4458 7.3568,39.6948 6.8948,39.8298 C6.4298,39.9648 5.9348,39.9798 5.4558,39.9138 C4.7008,39.8098 4.0048,39.5028 3.3888,39.0648 C4.0898,38.8838 4.7388,38.5898 5.2578,38.0818 C5.7248,37.6248 6.0788,37.0108 6.6818,36.7608 C6.9738,36.6388 7.3018,36.6158 7.5888,36.4808 C8.2118,36.1878 8.5008,35.4448 9.0808,35.0728 C9.1768,35.0118 9.2858,34.9598 9.3978,34.9688 C9.6018,34.9858 9.7358,35.1848 9.8198,35.3698 C10.2288,36.2628 10.3488,37.4658 11.2578,37.8368 C11.5008,37.9358 11.7688,37.9538 12.0308,37.9618 C13.1588,37.9968 14.3588,37.8388 15.2408,37.1338 C16.0308,36.5018 16.4598,35.4978 16.5748,34.4928 C16.6898,33.4868 16.5218,32.4698 16.2948,31.4838 C15.8998,29.7668 15.3268,28.0898 14.5888,26.4898 C14.4008,26.0848 14.2018,25.6748 14.0098,25.2608 C14.5428,25.3388 15.0678,25.4568 15.5788,25.6518 C16.7538,26.0988 17.7558,26.8808 18.6688,27.7588 C19.1008,28.8248 19.4998,29.9028 19.8328,31.0038 C19.9758,31.4768 20.1108,31.9588 20.1278,32.4538" id="Fill-9" fill="#ECECD3"></path>
                                <path d="M16.1885,4.86 C16.3855,9.23 16.5355,13.828 14.5415,17.721 C13.9895,18.799 13.2715,19.829 13.0685,21.022 C12.8225,22.479 13.3755,23.893 14.0105,25.261 C12.1985,24.998 10.2845,25.279 8.4265,25.265 C6.8165,25.253 5.2115,25.009 3.6025,25.063 C3.1245,25.079 2.6415,25.13 2.1655,25.215 C2.1845,25.194 2.1965,25.171 2.2165,25.15 C2.6365,24.702 2.9875,24.212 3.1655,23.616 C3.2795,23.235 3.3205,22.836 3.3605,22.441 C3.5995,20.105 3.9715,17.881 3.9515,15.514 C3.9295,12.97 3.8585,10.426 3.7375,7.885 C3.6775,6.614 3.6045,5.344 3.5195,4.074 C3.4725,3.374 3.0675,1.989 3.6195,1.382 C3.8075,1.175 4.1215,1.115 4.3945,1.179 C4.4665,1.195 4.5155,1.228 4.5775,1.251 C4.4225,3.601 4.4035,5.977 4.9955,8.249 C5.1675,8.913 5.3915,9.562 5.6085,10.213 C6.7245,13.569 7.6685,17.111 7.1475,20.609 C7.9935,20.246 8.5765,19.428 8.8725,18.556 C9.1685,17.683 9.2145,16.749 9.2585,15.829 C9.3225,14.474 9.3845,13.097 9.0625,11.779 C8.8845,11.05 8.5895,10.342 8.2905,9.637 C8.2965,9.64 8.3005,9.646 8.3075,9.649 C8.3445,9.667 8.3875,9.685 8.4275,9.674 C8.5045,9.652 8.5195,9.552 8.5195,9.472 C8.5195,8.126 8.2985,6.836 8.3705,5.499 C8.4495,4.035 8.6505,2.546 9.2975,1.214 C9.3875,1.029 9.4925,0.847 9.6175,0.684 C10.2375,2.716 10.2655,4.951 10.2715,7.103 C10.2745,8.215 10.2775,9.326 10.2795,10.438 C10.2815,11.165 10.2835,11.894 10.2085,12.617 C10.1495,13.184 10.0435,13.746 10.0195,14.315 C9.9895,15.01 10.0835,15.71 10.2955,16.372 C10.3315,16.485 10.3815,16.609 10.4895,16.658 C10.6045,16.711 10.7385,16.658 10.8515,16.601 C12.6025,15.726 13.7385,13.748 13.6125,11.795 C13.6105,11.772 13.6065,11.749 13.6045,11.727 C13.7105,11.445 13.7855,11.139 13.8555,10.955 C14.4895,9.276 14.9975,7.52 15.0165,5.713 C15.0225,5.105 14.9725,4.5 14.9085,3.896 C14.8655,3.49 14.5925,2.679 14.7155,2.298 C14.8085,2.007 15.0415,1.846 15.3195,1.759 C15.4655,1.941 15.6025,2.131 15.7095,2.341 C16.1035,3.107 16.1495,3.999 16.1885,4.86" id="Fill-11" fill="#F3D498"></path>
                                <path d="M14.0101,25.2613 C13.3751,23.8923 12.8221,22.4793 13.0691,21.0223 C13.2711,19.8283 13.9891,18.7983 14.5411,17.7213 C16.5361,13.8283 16.3851,9.2293 16.1881,4.8603 C16.1501,3.9993 16.1031,3.1073 15.7091,2.3403 C15.6021,2.1313 15.4661,1.9413 15.3201,1.7583 C15.6981,1.6403 16.1621,1.6653 16.4901,1.7323 C17.3801,1.9143 17.7581,2.5503 18.0631,3.3793 C18.4501,4.4303 18.5051,5.5713 18.5361,6.6903 C18.5781,8.2353 18.5801,9.7813 18.5721,11.3273 C18.5621,13.3713 18.5331,15.4413 17.9971,17.4133 C17.5671,18.9973 16.8101,20.5323 16.8291,22.1733 C16.8491,23.7673 17.5991,25.2463 18.2421,26.7053 C18.3951,27.0523 18.5261,27.4073 18.6681,27.7593 C17.7551,26.8803 16.7541,26.0993 15.5781,25.6513 C15.0681,25.4573 14.5431,25.3383 14.0101,25.2613" id="Fill-13" fill="#E6C78C"></path>
                            </g>
                        </g>
                    </g>
                </g>
            </g>
        </g>
    </g>
</svg>