<?xml version="1.0" encoding="UTF-8" standalone="no"?>
<svg width="15px" height="16px" viewBox="0 0 15 16" version="1.1" xmlns="http://www.w3.org/2000/svg" xmlns:xlink="http://www.w3.org/1999/xlink" xmlns:sketch="http://www.bohemiancoding.com/sketch/ns">
    <!-- Generator: Sketch 3.4 (15575) - http://www.bohemiancoding.com/sketch -->
    <title>Page 1</title>
    <desc>Created with Sketch.</desc>
    <defs></defs>
    <g id="Page-1" stroke="none" stroke-width="1" fill="none" fill-rule="evenodd" sketch:type="MSPage">
        <g id="Doctor---Patient-Landing-Page---Patient---Perio-Chart" sketch:type="MSArtboardGroup" transform="translate(-518.000000, -806.000000)">
            <g id="Chart" sketch:type="MSLayerGroup" transform="translate(271.000000, 398.000000)">
                <g id="Form" transform="translate(0.000000, 24.000000)" sketch:type="MSShapeGroup">
                    <g id="Row-4" transform="translate(238.000000, 197.000000)">
                        <g id="Tooth---29" transform="translate(8.000000, 158.000000)">
                            <g id="Page-1" transform="translate(1.000000, 29.000000)">
                                <path d="M0.7323,4.5562 C0.8483,4.1352 0.9993,3.7172 1.2523,3.3612 C1.5893,2.8872 2.0823,2.5512 2.5653,2.2262 C3.3923,1.6692 4.2443,1.1012 5.2163,0.8762 C5.7353,0.7562 6.2713,0.7392 6.8043,0.7362 C7.7943,0.7302 8.7853,0.7702 9.7723,0.8572 C10.1233,0.8882 10.4843,0.9282 10.7953,1.0932 C11.1393,1.2762 11.3883,1.5922 11.6263,1.9002 C12.0563,2.4532 12.4883,3.0102 12.8193,3.6272 C13.7303,5.3252 13.8123,7.3292 13.8743,9.2552 C13.8953,9.9032 13.9143,10.5682 13.7083,11.1832 C13.5293,11.7172 13.1913,12.1822 12.8293,12.6142 C11.5223,14.1762 9.6963,15.4772 7.6583,15.4992 C6.9483,15.5072 6.2463,15.3592 5.5533,15.2072 C4.7433,15.0282 3.9353,14.8412 3.1293,14.6462 C2.6633,14.5332 2.1843,14.4112 1.8023,14.1222 C0.5513,13.1752 0.5933,11.2602 0.6403,9.8562 C0.7013,8.0432 0.2343,6.3682 0.7323,4.5562 L0.7323,4.5562 Z" id="Stroke-1" stroke="#F99B3B"></path>
                                <path d="M8.248,13.2017 C9.121,13.1527 10,13.0757 10.836,12.8187 C12,12.4597 13.037,11.7317 13.806,10.7877 C13.901,10.2877 13.891,9.7667 13.875,9.2557 C13.813,7.3297 13.73,5.3247 12.819,3.6267 C12.488,3.0097 12.056,2.4537 11.627,1.8997 C11.388,1.5927 11.139,1.2757 10.795,1.0937 C10.484,0.9287 10.123,0.8887 9.772,0.8577 C8.785,0.7707 7.795,0.7297 6.804,0.7357 C6.272,0.7397 5.735,0.7567 5.216,0.8767 C4.244,1.1007 3.392,1.6687 2.565,2.2267 C2.082,2.5517 1.589,2.8867 1.252,3.3617 C1,3.7177 0.848,4.1347 0.732,4.5557 C0.234,6.3677 0.702,8.0437 0.641,9.8557 C0.619,10.4907 0.605,11.2287 0.705,11.9357 C1.539,12.4077 2.45,12.7527 3.389,12.9537 C4.98,13.2937 6.624,13.2937 8.248,13.2017" id="Fill-3" fill="#FFFEED"></path>
                                <path d="M10.8358,12.8184 C10.0008,13.0754 9.1208,13.1524 8.2478,13.2014 C6.6238,13.2934 4.9798,13.2934 3.3888,12.9534 C2.4498,12.7524 1.5388,12.4074 0.7048,11.9354 C0.8258,12.7924 1.1168,13.6034 1.8018,14.1224 C2.1848,14.4114 2.6638,14.5334 3.1288,14.6464 C3.9348,14.8414 4.7428,15.0284 5.5528,15.2064 C6.2468,15.3594 6.9478,15.5074 7.6588,15.4994 C9.6958,15.4774 11.5218,14.1764 12.8298,12.6134 C13.1908,12.1824 13.5298,11.7164 13.7078,11.1824 C13.7518,11.0534 13.7798,10.9214 13.8058,10.7874 C13.0378,11.7324 11.9998,12.4594 10.8358,12.8184" id="Fill-5" fill="#ECECD3"></path>
                                <path d="M5.3286,8.3858 C5.3476,8.2588 5.3716,8.1228 5.4626,8.0338 C5.5716,7.9268 5.7406,7.9188 5.8936,7.9178 C6.6906,7.9118 7.5076,7.9088 8.2586,8.1788 C9.0086,8.4498 9.6896,9.0548 9.8196,9.8418 C9.8586,10.0818 9.8726,10.3748 10.0866,10.4908 C10.2276,10.5678 10.4006,10.5318 10.5566,10.4928 C11.0166,10.3788 11.5776,10.1478 11.5896,9.6738 C11.5976,9.3708 11.3646,9.1258 11.2076,8.8668 C10.8736,8.3168 10.8776,7.5798 11.2176,7.0348 C11.4966,6.5838 12.0056,6.1488 11.8506,5.6428 C11.6946,5.1348 10.9656,5.0608 10.4986,5.3148 C10.0316,5.5688 9.7056,6.0228 9.2586,6.3108 C8.8126,6.5988 8.1066,6.6418 7.8436,6.1808 C7.5616,5.6888 7.9876,4.9908 7.6646,4.5248 C7.5276,4.3268 7.2876,4.2298 7.0576,4.1558 C6.2976,3.9098 5.4926,3.7978 4.6936,3.8288 C4.3346,3.8418 3.9656,3.8878 3.6566,4.0708 C3.2996,4.2808 3.0656,4.6488 2.8896,5.0238 C2.4586,5.9358 2.2906,6.9698 2.4106,7.9718 C3.0326,8.1618 3.8176,7.6338 4.3026,8.0668 C4.7286,8.4478 4.1916,9.4308 4.7376,9.6298 C5.3206,9.8428 5.2836,8.6818 5.3286,8.3858" id="Fill-7" fill="#ECECD3"></path>
                            </g>
                        </g>
                    </g>
                </g>
            </g>
        </g>
    </g>
</svg>