<?xml version="1.0" encoding="UTF-8" standalone="no"?>
<svg width="19px" height="38px" viewBox="0 0 19 38" version="1.1" xmlns="http://www.w3.org/2000/svg" xmlns:xlink="http://www.w3.org/1999/xlink" xmlns:sketch="http://www.bohemiancoding.com/sketch/ns">
    <!-- Generator: Sketch 3.4 (15575) - http://www.bohemiancoding.com/sketch -->
    <title>Page 1</title>
    <desc>Created with Sketch.</desc>
    <defs></defs>
    <g id="Page-1" stroke="none" stroke-width="1" fill="none" fill-rule="evenodd" sketch:type="MSPage">
        <g id="Doctor---Patient-Landing-Page---Patient---Perio-Chart" sketch:type="MSArtboardGroup" transform="translate(-451.000000, -658.000000)">
            <g id="Chart" sketch:type="MSLayerGroup" transform="translate(271.000000, 398.000000)">
                <g id="Form" transform="translate(0.000000, 24.000000)" sketch:type="MSShapeGroup">
                    <g id="Row-2" transform="translate(174.000000, 197.000000)">
                        <g id="Tooth---2" transform="translate(6.000000, 40.000000)">
                            <g id="Page-1">
                                <path d="M3.3112,9.6898 C3.7352,12.4988 3.9772,15.4208 3.1862,18.1898 C2.4282,20.8418 1.0902,23.1338 0.7452,25.9158 C0.5762,27.2768 0.4952,28.6488 0.5002,30.0198 C0.5062,31.4768 0.6252,33.3238 1.7712,34.3858 C2.9932,35.5188 5.1352,35.9228 6.7332,35.7618 C8.1592,35.6188 9.3132,35.3298 10.7632,35.7788 C11.2372,35.9248 11.6942,36.1218 12.1722,36.2538 C13.2162,36.5418 14.6522,36.7368 15.4722,35.8918 C16.1902,35.1518 16.9412,33.9328 17.4732,33.0458 C20.0552,28.7428 15.9572,25.5838 14.9392,21.6118 C14.3092,19.1578 15.0242,16.6478 15.3682,14.2098 C15.6902,11.9358 14.8842,9.6958 14.2352,7.5328 C13.7582,5.9418 13.3812,4.4498 12.6152,2.9728 C12.3162,2.3958 11.9932,1.8108 11.4982,1.3898 C11.0042,0.9678 10.2972,0.7358 9.6892,0.9678 C9.1762,1.1628 8.6332,1.6618 8.1732,1.3628 C7.9442,1.2138 7.8652,0.9228 7.7132,0.6968 C6.8312,-0.6152 5.2002,1.6188 4.2642,1.7288 C3.9902,1.7608 3.7132,1.7068 3.4372,1.7008 C3.1622,1.6948 2.8622,1.7508 2.6762,1.9538 C2.3502,2.3078 2.2982,3.0718 2.2842,3.5238 C2.2632,4.2248 2.3362,4.9248 2.4552,5.6148 C2.6912,6.9828 3.1042,8.3158 3.3112,9.6898 L3.3112,9.6898 Z" id="Stroke-1" stroke="#F99B3B"></path>
                                <path d="M5.9352,21.7072 C8.4092,22.0552 10.9162,22.6392 13.3942,22.7712 C13.6552,23.5302 13.9072,24.2922 14.1802,25.0472 C14.7342,26.5772 15.3212,28.1422 15.3082,29.7692 C15.3032,30.3442 15.2192,30.9312 14.9572,31.4432 C14.4502,32.4372 13.3862,32.9882 12.4512,33.5982 C11.6272,34.1362 10.8372,34.8412 10.3222,35.6662 C9.9692,35.5892 9.6312,35.5512 9.3002,35.5432 C9.3282,34.7092 9.2862,33.8712 9.2362,33.0372 C9.1962,32.3752 9.1452,31.6762 8.7712,31.1282 C8.3972,30.5802 7.5802,30.2772 7.0502,30.6762 C6.8772,30.8062 6.7552,30.9932 6.6532,31.1852 C6.0432,32.3222 6.0102,33.6682 5.9902,34.9582 L5.9782,35.7912 C4.5092,35.7802 2.8092,35.3482 1.7712,34.3862 C0.6252,33.3232 0.5062,31.4772 0.5002,30.0202 C0.4952,28.6492 0.5762,27.2772 0.7452,25.9162 C0.8982,24.6782 1.2522,23.5392 1.6602,22.4202 C2.0312,22.1722 2.4152,21.9432 2.8372,21.7992 C3.8242,21.4622 4.9022,21.5622 5.9352,21.7072" id="Fill-3" fill="#FFFEED"></path>
                                <path d="M6.6531,31.1848 C6.7551,30.9938 6.8771,30.8068 7.0501,30.6758 C7.5801,30.2768 8.3971,30.5808 8.7711,31.1278 C9.1451,31.6758 9.1961,32.3748 9.2361,33.0368 C9.2861,33.8708 9.3281,34.7088 9.3001,35.5428 C8.4561,35.5198 7.6511,35.6698 6.7331,35.7618 C6.4931,35.7858 6.2381,35.7928 5.9781,35.7908 L5.9901,34.9578 C6.0101,33.6678 6.0431,32.3218 6.6531,31.1848" id="Fill-5" fill="#ECECD3"></path>
                                <path d="M12.4515,33.5984 C13.3865,32.9884 14.4505,32.4374 14.9575,31.4434 C15.2185,30.9304 15.3035,30.3444 15.3075,29.7694 C15.3215,28.1414 14.7345,26.5774 14.1805,25.0474 C13.9075,24.2924 13.6555,23.5304 13.3945,22.7704 C14.0405,22.8054 14.6825,22.7954 15.3235,22.7554 C16.7015,26.2114 19.8025,29.1634 17.4725,33.0464 C16.9405,33.9324 16.1895,35.1514 15.4725,35.8914 C14.6525,36.7374 13.2165,36.5414 12.1715,36.2534 C11.6945,36.1214 11.2365,35.9254 10.7635,35.7784 C10.6125,35.7324 10.4665,35.6974 10.3215,35.6664 C10.8375,34.8404 11.6275,34.1364 12.4515,33.5984" id="Fill-7" fill="#ECECD3"></path>
                                <path d="M15.3235,22.7556 C14.6825,22.7956 14.0405,22.8056 13.3945,22.7706 C13.1765,22.1366 12.9465,21.5056 12.7375,20.8686 C12.4615,20.0316 12.1915,19.1816 12.1355,18.3026 C12.0785,17.4056 12.2455,16.5126 12.3735,15.6236 C13.0745,10.7386 12.5525,5.6896 10.9025,1.0386 C11.1175,1.1276 11.3235,1.2406 11.4985,1.3896 C11.9925,1.8116 12.3155,2.3956 12.6155,2.9726 C13.3815,4.4496 13.7585,5.9416 14.2355,7.5326 C14.8845,9.6966 15.6895,11.9366 15.3685,14.2106 C15.0245,16.6486 14.3095,19.1576 14.9385,21.6126 C15.0385,22.0016 15.1735,22.3806 15.3235,22.7556" id="Fill-9" fill="#E6C78C"></path>
                                <path d="M12.3731,15.6237 C12.2451,16.5127 12.0781,17.4057 12.1351,18.3027 C12.1911,19.1817 12.4611,20.0317 12.7371,20.8687 C12.9471,21.5057 13.1761,22.1367 13.3941,22.7707 C10.9171,22.6397 8.4091,22.0557 5.9351,21.7067 C4.9021,21.5617 3.8241,21.4627 2.8371,21.7987 C2.4151,21.9427 2.0311,22.1717 1.6601,22.4207 C2.1691,21.0247 2.7651,19.6617 3.1861,18.1907 C3.9771,15.4207 3.7351,12.4997 3.3111,9.6897 C3.1041,8.3157 2.6911,6.9827 2.4551,5.6147 C2.3361,4.9247 2.2631,4.2247 2.2841,3.5237 C2.2981,3.0717 2.3501,2.3077 2.6761,1.9537 C2.7771,1.8427 2.9131,1.7817 3.0601,1.7447 C5.6981,6.6647 6.6371,12.4847 5.6011,17.9727 C6.1641,16.5947 7.7071,15.9387 8.7781,14.9037 C10.1171,13.6097 10.7051,11.6757 10.6691,9.8137 C10.6331,7.9517 10.0311,6.1437 9.2781,4.4407 C8.8371,3.4447 8.3361,2.4237 8.1771,1.3647 C8.6361,1.6587 9.1781,1.1617 9.6891,0.9677 C10.0821,0.8177 10.5111,0.8747 10.9031,1.0387 C12.5521,5.6897 13.0751,10.7377 12.3731,15.6237" id="Fill-11" fill="#F3D498"></path>
                                <path d="M6.9982,3.6363 C7.4982,5.5183 7.9992,7.4003 8.4992,9.2823 C8.5952,9.6413 8.6912,10.0193 8.6002,10.3803 C8.5102,10.7403 8.1642,11.0663 7.7992,10.9963 C7.4212,10.9233 7.2332,10.5043 7.1162,10.1373 C6.5282,8.2953 6.1832,6.3843 5.6182,4.5353 C5.3182,3.5543 4.9392,2.5853 4.4542,1.6813 C5.0682,1.4643 5.8982,0.6163 6.6322,0.3613 C6.5872,0.6013 6.5602,0.8433 6.5582,1.0843 C6.5512,1.9503 6.7762,2.7993 6.9982,3.6363" id="Fill-13" fill="#F3D498"></path>
                                <path d="M8.7778,14.9041 C7.7068,15.9391 6.1638,16.5941 5.6008,17.9731 C6.6368,12.4851 5.6978,6.6641 3.0598,1.7451 C3.1828,1.7141 3.3118,1.6981 3.4378,1.7011 C3.7138,1.7061 3.9898,1.7611 4.2638,1.7291 C4.3248,1.7221 4.3888,1.7051 4.4548,1.6811 C4.9398,2.5851 5.3178,3.5541 5.6178,4.5351 C6.1828,6.3841 6.5288,8.2961 7.1168,10.1371 C7.2338,10.5041 7.4208,10.9241 7.7988,10.9961 C8.1638,11.0661 8.5098,10.7401 8.6008,10.3801 C8.6908,10.0191 8.5948,9.6411 8.4988,9.2821 C7.9988,7.4001 7.4988,5.5181 6.9978,3.6361 C6.7758,2.7991 6.5518,1.9501 6.5578,1.0841 C6.5598,0.8431 6.5878,0.6011 6.6318,0.3621 C7.0398,0.2201 7.4188,0.2581 7.7128,0.6961 C7.8648,0.9231 7.9448,1.2141 8.1728,1.3631 C8.1738,1.3631 8.1758,1.3631 8.1768,1.3641 C8.3358,2.4241 8.8378,3.4451 9.2778,4.4411 C10.0308,6.1441 10.6328,7.9511 10.6688,9.8131 C10.7048,11.6751 10.1168,13.6101 8.7778,14.9041" id="Fill-15" fill="#E6C78C"></path>
                            </g>
                        </g>
                    </g>
                </g>
            </g>
        </g>
    </g>
</svg>