<?xml version="1.0" encoding="UTF-8" standalone="no"?>
<svg width="21px" height="15px" viewBox="0 0 21 15" version="1.1" xmlns="http://www.w3.org/2000/svg" xmlns:xlink="http://www.w3.org/1999/xlink" xmlns:sketch="http://www.bohemiancoding.com/sketch/ns">
    <!-- Generator: Sketch 3.4 (15575) - http://www.bohemiancoding.com/sketch -->
    <title>Page 1</title>
    <desc>Created with Sketch.</desc>
    <defs></defs>
    <g id="Page-1" stroke="none" stroke-width="1" fill="none" fill-rule="evenodd" sketch:type="MSPage">
        <g id="Doctor---Patient-Landing-Page---Patient---Perio-Chart" sketch:type="MSArtboardGroup" transform="translate(-835.000000, -741.000000)">
            <g id="Chart" sketch:type="MSLayerGroup" transform="translate(271.000000, 398.000000)">
                <g id="Form" transform="translate(0.000000, 24.000000)" sketch:type="MSShapeGroup">
                    <g id="Row-14" transform="translate(558.000000, 197.000000)">
                        <g id="Page-1" transform="translate(6.000000, 123.000000)">
                            <path d="M13.2403,13.4794 C14.2813,13.5194 15.3743,13.5494 16.3033,13.0794 C16.7743,12.8414 17.1773,12.4864 17.5263,12.0924 C19.2513,10.1434 19.6483,7.3564 19.5913,4.7544 C19.5713,3.8254 19.4753,2.8264 18.8713,2.1204 C18.2023,1.3374 17.0893,1.1234 16.0623,1.0554 C13.7493,0.9024 11.4083,1.2434 9.1163,0.8934 C7.9613,0.7174 6.8243,0.3664 5.6563,0.3734 C3.0533,0.3894 0.5383,2.5794 0.5003,5.1824 C0.4883,6.0264 0.7123,6.8564 0.9813,7.6574 C1.5493,9.3464 2.6163,12.6834 4.5083,13.1484 C5.7803,13.4614 7.4293,13.2544 8.7443,13.3054 C10.2423,13.3634 11.7413,13.4214 13.2403,13.4794 L13.2403,13.4794 Z" id="Stroke-1" stroke="#F99B3B"></path>
                            <path d="M8.4456,2.1103 C8.8856,2.1593 9.3346,2.2363 9.7186,2.4563 C10.7656,3.0563 10.9836,4.4443 11.0876,5.6453 C12.0306,4.6283 12.3266,2.9143 13.6386,2.4643 C14.5826,2.1413 15.6616,2.7183 16.1716,3.5753 C16.6816,4.4333 16.7296,5.4903 16.6166,6.4823 C16.5366,7.1823 16.3816,7.8833 16.0626,8.5123 C15.0046,10.6003 12.4006,11.4343 10.0606,11.3763 C9.5676,11.3643 9.0566,11.3253 8.5976,11.5043 C8.2496,11.6403 7.9596,11.8913 7.6396,12.0843 C7.0666,12.4283 6.3986,12.5833 5.8186,12.9143 C5.6496,13.0103 5.4876,13.1333 5.3436,13.2713 C5.0556,13.2443 4.7696,13.2133 4.5076,13.1483 C2.6166,12.6833 1.5486,9.3463 0.9816,7.6573 C0.7116,6.8563 0.4886,6.0263 0.5006,5.1823 C0.5076,4.7113 0.5976,4.2553 0.7526,3.8223 C3.0456,2.4473 5.7856,1.8123 8.4456,2.1103" id="Fill-3" fill="#FFFEED"></path>
                            <path d="M17.5264,12.0919 C17.1774,12.4869 16.7744,12.8419 16.3034,13.0799 C15.3734,13.5489 14.2814,13.5199 13.2404,13.4799 L8.7444,13.3059 C7.6994,13.2649 6.4524,13.3759 5.3434,13.2719 C5.4874,13.1329 5.6494,13.0109 5.8184,12.9139 C6.3984,12.5829 7.0674,12.4279 7.6394,12.0839 C7.9594,11.8909 8.2494,11.6399 8.5974,11.5039 C9.0574,11.3249 9.5674,11.3649 10.0604,11.3769 C12.4004,11.4349 15.0054,10.5999 16.0624,8.5119 C16.3814,7.8829 16.5364,7.1829 16.6164,6.4819 C16.7294,5.4909 16.6824,4.4329 16.1714,3.5759 C15.6614,2.7179 14.5824,2.1409 13.6384,2.4649 C12.3274,2.9149 12.0304,4.6289 11.0874,5.6459 C10.9834,4.4439 10.7654,3.0559 9.7194,2.4569 C9.3344,2.2369 8.8864,2.1599 8.4454,2.1099 C5.7854,1.8129 3.0464,2.4469 0.7524,3.8219 C1.4534,1.8589 3.5234,0.3869 5.6564,0.3739 C6.8244,0.3669 7.9614,0.7179 9.1164,0.8939 C11.4084,1.2429 13.7484,0.9019 16.0624,1.0549 C17.0894,1.1229 18.2024,1.3379 18.8714,2.1209 C19.4754,2.8269 19.5714,3.8259 19.5914,4.7549 C19.6484,7.3559 19.2514,10.1439 17.5264,12.0919" id="Fill-5" fill="#ECECD3"></path>
                        </g>
                    </g>
                </g>
            </g>
        </g>
    </g>
</svg>