<?xml version="1.0" encoding="UTF-8" standalone="no"?>
<svg width="20px" height="15px" viewBox="0 0 20 15" version="1.1" xmlns="http://www.w3.org/2000/svg" xmlns:xlink="http://www.w3.org/1999/xlink" xmlns:sketch="http://www.bohemiancoding.com/sketch/ns">
    <!-- Generator: Sketch 3.4 (15575) - http://www.bohemiancoding.com/sketch -->
    <title>Page 1</title>
    <desc>Created with Sketch.</desc>
    <defs></defs>
    <g id="Page-1" stroke="none" stroke-width="1" fill="none" fill-rule="evenodd" sketch:type="MSPage">
        <g id="Doctor---Patient-Landing-Page---Patient---Perio-Chart" sketch:type="MSArtboardGroup" transform="translate(-867.000000, -775.000000)">
            <g id="Chart" sketch:type="MSLayerGroup" transform="translate(271.000000, 398.000000)">
                <g id="Form" transform="translate(0.000000, 24.000000)" sketch:type="MSShapeGroup">
                    <g id="Row-15" transform="translate(590.000000, 197.000000)">
                        <g id="Page-1" transform="translate(6.000000, 157.000000)">
                            <path d="M3.5188,0.2189 C3.0738,0.2079 2.6368,0.2379 2.2788,0.3889 C1.2908,0.8039 0.8088,2.6109 0.6468,3.5619 C0.3908,5.0679 0.5568,6.5999 0.5168,8.1179 C0.4758,9.6629 0.5198,11.4179 1.6658,12.4559 C2.4688,13.1819 3.6168,13.3569 4.6958,13.4479 C5.4508,13.5109 6.2188,13.5469 6.9568,13.3769 C7.7418,13.1959 8.4838,12.7839 9.2888,12.7909 C9.7148,12.7949 10.1288,12.9179 10.5458,13.0039 C11.6058,13.2239 12.6988,13.2119 13.7808,13.1999 C14.9008,13.1859 16.0668,13.1619 17.0628,12.6519 C18.3088,12.0149 19.1008,10.6719 19.2918,9.2859 C19.4818,7.9009 19.1318,6.4829 18.5358,5.2179 C17.9408,3.9519 17.1098,2.8139 16.2838,1.6849 C16.0168,1.3209 15.7358,0.9439 15.3338,0.7389 C14.9488,0.5429 14.5008,0.5289 14.0688,0.5189 L8.0178,0.3759 C6.9828,0.3519 5.9488,0.3279 4.9138,0.3029 C4.5008,0.2939 4.0058,0.2309 3.5188,0.2189 L3.5188,0.2189 Z" id="Stroke-1" stroke="#F99B3B"></path>
                            <path d="M14.968,11.1821 C13.705,11.6241 12.113,11.6901 11.218,10.6961 C10.576,9.9821 10.491,8.9421 10.438,7.9831 C10.402,7.3351 10.367,6.6871 10.331,6.0391 C9.326,6.3271 8.501,7.1721 8.236,8.1831 C8.093,8.7341 8.104,9.3201 7.914,9.8561 C7.504,11.0081 6.245,11.6561 5.032,11.8151 C3.511,12.0151 1.932,11.5741 0.695,10.6711 C0.856,11.3561 1.143,11.9821 1.666,12.4551 C2.469,13.1821 3.617,13.3571 4.695,13.4471 C5.45,13.5101 6.219,13.5471 6.957,13.3761 C7.741,13.1951 8.484,12.7841 9.289,12.7911 C9.715,12.7951 10.129,12.9181 10.546,13.0041 C11.606,13.2241 12.699,13.2121 13.781,13.1991 C14.901,13.1861 16.067,13.1621 17.063,12.6521 C18.308,12.0151 19.1,10.6721 19.291,9.2861 C19.324,9.0481 19.321,8.8081 19.323,8.5691 C18.68,8.7601 18.106,9.2951 17.56,9.7371 C16.787,10.3621 15.906,10.8531 14.968,11.1821" id="Fill-3" fill="#ECECD3"></path>
                            <path d="M18.5361,5.2175 C17.9411,3.9515 17.1091,2.8135 16.2831,1.6855 C16.0171,1.3205 15.7361,0.9435 15.3341,0.7385 C14.9491,0.5435 14.5011,0.5285 14.0691,0.5185 C12.0521,0.4715 10.0351,0.4235 8.0171,0.3765 C6.9831,0.3515 5.9481,0.3275 4.9141,0.3035 C4.5011,0.2935 4.0051,0.2315 3.5191,0.2185 C3.0741,0.2075 2.6371,0.2385 2.2781,0.3885 C1.2901,0.8045 0.8091,2.6115 0.6471,3.5615 C0.3901,5.0685 0.5561,6.6005 0.5161,8.1175 C0.4941,8.9575 0.5041,9.8565 0.6951,10.6715 C1.9321,11.5735 3.5111,12.0155 5.0321,11.8155 C6.2451,11.6565 7.5031,11.0075 7.9141,9.8555 C8.1041,9.3205 8.0921,8.7335 8.2361,8.1835 C8.5011,7.1725 9.3261,6.3275 10.3311,6.0395 C10.3671,6.6865 10.4021,7.3345 10.4381,7.9825 C10.4911,8.9415 10.5751,9.9825 11.2181,10.6965 C12.1131,11.6905 13.7051,11.6245 14.9681,11.1825 C15.9061,10.8535 16.7871,10.3625 17.5601,9.7375 C18.1061,9.2955 18.6801,8.7605 19.3231,8.5685 C19.3341,7.4175 19.0291,6.2655 18.5361,5.2175" id="Fill-5" fill="#FFFEED"></path>
                        </g>
                    </g>
                </g>
            </g>
        </g>
    </g>
</svg>