<?xml version="1.0" encoding="UTF-8" standalone="no"?>
<svg width="13px" height="19px" viewBox="0 0 13 19" version="1.1" xmlns="http://www.w3.org/2000/svg" xmlns:xlink="http://www.w3.org/1999/xlink" xmlns:sketch="http://www.bohemiancoding.com/sketch/ns">
    <!-- Generator: Sketch 3.4 (15575) - http://www.bohemiancoding.com/sketch -->
    <title>Page 1</title>
    <desc>Created with Sketch.</desc>
    <defs></defs>
    <g id="Page-1" stroke="none" stroke-width="1" fill="none" fill-rule="evenodd" sketch:type="MSPage">
        <g id="Doctor---Patient-Landing-Page---Patient---Perio-Chart" sketch:type="MSArtboardGroup" transform="translate(-711.000000, -737.000000)">
            <g id="Chart" sketch:type="MSLayerGroup" transform="translate(271.000000, 398.000000)">
                <g id="Form" transform="translate(0.000000, 24.000000)" sketch:type="MSShapeGroup">
                    <g id="Row-10" transform="translate(429.000000, 197.000000)">
                        <g id="Tooth---9" transform="translate(10.000000, 43.000000)">
                            <g id="Page-1" transform="translate(1.000000, 75.000000)">
                                <path d="M9.9227,1.3105 C10.4797,1.4965 11.0597,1.7545 11.3637,2.2565 C11.6097,2.6625 11.6327,3.1605 11.6487,3.6335 C11.6927,4.8965 11.7357,6.1715 11.4927,7.4105 C11.1027,9.3955 10.0027,11.1715 9.4737,13.1235 C9.1447,14.3415 9.0327,15.6365 8.4497,16.7545 C7.8657,17.8735 6.5927,18.7865 5.3867,18.4165 C4.4857,18.1405 3.9237,17.2625 3.4897,16.4265 C2.1927,13.9235 1.3467,11.1895 0.9807,8.3955 C0.7387,6.5475 -0.1113,3.3615 1.2697,1.7725 C1.9787,0.9585 3.9257,0.8725 4.9517,0.7695 C6.6227,0.6015 8.3297,0.7785 9.9227,1.3105 L9.9227,1.3105 Z" id="Stroke-1" stroke="#F99B3B"></path>
                                <path d="M9.9227,1.3105 C10.4797,1.4965 11.0597,1.7545 11.3637,2.2565 C11.6097,2.6625 11.6327,3.1605 11.6487,3.6335 C11.6927,4.8965 11.7357,6.1715 11.4927,7.4105 C11.1027,9.3955 10.0027,11.1715 9.4737,13.1235 C9.1447,14.3415 9.0327,15.6365 8.4497,16.7545 C7.8657,17.8735 6.5927,18.7865 5.3867,18.4165 C4.4857,18.1405 3.9237,17.2625 3.4897,16.4265 C2.1927,13.9235 1.3467,11.1895 0.9807,8.3955 C0.7387,6.5475 -0.1113,3.3615 1.2697,1.7725 C1.9787,0.9585 3.9257,0.8725 4.9517,0.7695 C6.6227,0.6015 8.3297,0.7785 9.9227,1.3105" id="Fill-3" fill="#FFFEED"></path>
                                <path d="M7.0139,9.1616 C6.5069,9.8256 5.9299,10.5136 5.7219,11.3416 C5.5959,11.8456 5.8499,12.8226 5.4709,13.2286 C4.3029,14.4786 3.3759,11.7386 3.1489,11.0766 C2.6019,9.4816 2.4079,7.7636 2.6119,6.0886 C2.6579,5.7046 2.7269,5.3166 2.9079,4.9756 C3.1289,4.5616 3.5019,4.2456 3.9079,4.0106 C5.2259,3.2466 6.8409,3.2786 8.3629,3.3306 C8.9219,3.3506 9.5829,3.4296 9.8489,3.9216 C10.1209,4.4256 9.8039,5.0336 9.4949,5.5156 C8.7009,6.7536 7.9059,7.9926 7.0139,9.1616" id="Fill-5" fill="#ECECD3"></path>
                            </g>
                        </g>
                    </g>
                </g>
            </g>
        </g>
    </g>
</svg>