<?xml version="1.0" encoding="UTF-8" standalone="no"?>
<svg width="20px" height="14px" viewBox="0 0 20 14" version="1.1" xmlns="http://www.w3.org/2000/svg" xmlns:xlink="http://www.w3.org/1999/xlink" xmlns:sketch="http://www.bohemiancoding.com/sketch/ns">
    <!-- Generator: Sketch 3.4 (15575) - http://www.bohemiancoding.com/sketch -->
    <title>Top</title>
    <desc>Created with Sketch.</desc>
    <defs></defs>
    <g id="Page-1" stroke="none" stroke-width="1" fill="none" fill-rule="evenodd" sketch:type="MSPage">
        <g id="Doctor---Patient-Landing-Page---Patient---Perio-Chart" sketch:type="MSArtboardGroup" transform="translate(-419.000000, -776.000000)">
            <g id="Chart" sketch:type="MSLayerGroup" transform="translate(271.000000, 398.000000)">
                <g id="Form" transform="translate(0.000000, 24.000000)" sketch:type="MSShapeGroup">
                    <g id="Row-1" transform="translate(141.000000, 197.000000)">
                        <g id="Tooth---32" transform="translate(6.000000, 157.000000)">
                            <g id="Top" transform="translate(1.000000, 0.000000)">
                                <path d="M5.1837,0.7951 C8.5037,1.0461 11.7857,1.1291 15.1447,1.1291 C15.9557,1.1291 16.7687,1.1091 17.5727,1.2151 C18.3777,3.7281 18.7517,6.3791 18.6727,9.0161 C18.6457,9.9421 18.5487,10.9111 18.0397,11.6851 C17.3577,12.7241 16.0547,13.2031 14.8127,13.2601 C13.5707,13.3171 12.3437,13.0231 11.1137,12.8431 C10.7957,12.7961 10.4747,12.7571 10.1517,12.7571 C9.2227,12.7591 8.3297,13.0861 7.4227,13.2921 C5.5937,13.7071 3.4967,13.5601 2.0997,12.3081 C0.8977,11.2301 0.4327,9.5141 0.5077,7.9011 C0.5837,6.2891 1.1307,4.7401 1.6727,3.2191 C1.6727,2.5471 2.0907,1.2421 2.7017,0.8711 C3.2697,0.5271 4.0817,0.7071 4.7017,0.7571 C4.8627,0.7701 5.0227,0.7831 5.1837,0.7951 L5.1837,0.7951 Z" id="Stroke-1" stroke="#F99B3B"></path>
                                <path d="M9.4745,9.0128 C9.6885,8.7818 9.9475,8.5168 10.2595,8.5598 C10.5135,8.5948 10.6945,8.8318 10.7765,9.0738 C10.8575,9.3158 10.8695,9.5778 10.9435,9.8228 C11.1045,10.3578 11.5585,10.7698 12.0705,10.9948 C12.5825,11.2188 13.1515,11.2788 13.7105,11.2968 C14.2485,11.3128 14.8175,11.2838 15.2725,10.9948 C15.7195,10.7108 15.9885,10.2138 16.1615,9.7128 C16.5415,8.6168 16.5515,7.4328 16.5575,6.2738 C16.5675,4.5648 16.5765,2.8568 16.5855,1.1478 C16.1055,1.1318 15.6255,1.1298 15.1445,1.1298 C11.7855,1.1298 8.5035,1.0468 5.1835,0.7948 C5.0235,0.7828 4.8625,0.7708 4.7015,0.7578 C4.0825,0.7078 3.2695,0.5268 2.7015,0.8708 C2.0905,1.2418 1.6735,2.5478 1.6725,3.2188 C1.1305,4.7398 0.5835,6.2888 0.5075,7.9018 C0.4655,8.8038 0.6005,9.7348 0.9305,10.5718 C1.9665,11.2348 3.2295,11.5658 4.4645,11.4968 C6.3725,11.3898 8.1745,10.4128 9.4745,9.0128" id="Fill-3" fill="#FFFEED"></path>
                                <path d="M17.5724,1.215 C17.2444,1.172 16.9154,1.159 16.5854,1.148 C16.5764,2.856 16.5674,4.565 16.5584,6.274 C16.5514,7.433 16.5414,8.617 16.1624,9.713 C15.9884,10.214 15.7194,10.711 15.2724,10.995 C14.8184,11.284 14.2484,11.313 13.7104,11.296 C13.1514,11.279 12.5824,11.219 12.0704,10.994 C11.5584,10.77 11.1044,10.358 10.9434,9.822 C10.8694,9.577 10.8584,9.316 10.7764,9.074 C10.6944,8.831 10.5134,8.595 10.2604,8.56 C9.9474,8.517 9.6894,8.782 9.4744,9.013 C8.1744,10.413 6.3724,11.39 4.4644,11.497 C3.2294,11.566 1.9674,11.235 0.9304,10.571 C1.1914,11.231 1.5704,11.833 2.0994,12.308 C3.4964,13.56 5.5934,13.707 7.4224,13.292 C8.3294,13.086 9.2224,12.759 10.1524,12.757 C10.4744,12.757 10.7954,12.796 11.1144,12.843 C12.3444,13.023 13.5704,13.317 14.8124,13.26 C16.0544,13.203 17.3574,12.724 18.0394,11.685 C18.5484,10.911 18.6454,9.942 18.6734,9.016 C18.7514,6.379 18.3774,3.728 17.5724,1.215" id="Fill-5" fill="#ECECD3"></path>
                            </g>
                        </g>
                    </g>
                </g>
            </g>
        </g>
    </g>
</svg>