<?xml version="1.0" encoding="UTF-8" standalone="no"?>
<svg width="15px" height="18px" viewBox="0 0 15 18" version="1.1" xmlns="http://www.w3.org/2000/svg" xmlns:xlink="http://www.w3.org/1999/xlink" xmlns:sketch="http://www.bohemiancoding.com/sketch/ns">
    <!-- Generator: Sketch 3.4 (15575) - http://www.bohemiancoding.com/sketch -->
    <title>Page 1</title>
    <desc>Created with Sketch.</desc>
    <defs></defs>
    <g id="Page-1" stroke="none" stroke-width="1" fill="none" fill-rule="evenodd" sketch:type="MSPage">
        <g id="Doctor---Patient-Landing-Page---Patient---Perio-Chart" sketch:type="MSArtboardGroup" transform="translate(-517.000000, -710.000000)">
            <g id="Chart" sketch:type="MSLayerGroup" transform="translate(271.000000, 398.000000)">
                <g id="Form" transform="translate(0.000000, 24.000000)" sketch:type="MSShapeGroup">
                    <g id="Row-4" transform="translate(238.000000, 197.000000)">
                        <g id="Tooth---4" transform="translate(8.000000, 33.000000)">
                            <g id="Page-1" transform="translate(0.000000, 58.000000)">
                                <path d="M4.0443,15.7995 C2.8063,14.9115 1.3723,13.2805 1.0723,11.7415 C0.7373,10.0215 0.8513,8.1435 0.6173,6.3935 C0.4613,5.2265 0.3273,3.4045 1.1423,2.4345 C1.4283,2.0935 1.8353,1.8765 2.2483,1.7095 C3.4783,1.2135 4.8233,1.0995 6.1443,0.9905 C8.5273,0.7945 11.0663,0.6285 13.1683,1.7665 C13.4223,1.9045 13.6743,2.0675 13.8313,2.3095 C14.0163,2.5945 14.0453,2.9505 14.0693,3.2905 L14.3603,7.4805 C14.4703,9.0665 14.5803,10.6645 14.3823,12.2425 C14.1843,13.8205 13.6573,15.3945 12.6253,16.6045 C12.4623,16.7955 12.2843,16.9785 12.0703,17.1085 C11.7633,17.2945 11.4013,17.3605 11.0453,17.4075 C8.6143,17.7265 6.0373,17.2285 4.0443,15.7995 L4.0443,15.7995 Z" id="Stroke-1" stroke="#F99B3B"></path>
                                <path d="M13.5791,15.0616 C13.3221,15.6126 13.0211,16.1406 12.6251,16.6046 C12.4621,16.7956 12.2841,16.9786 12.0701,17.1086 C11.7631,17.2946 11.4011,17.3606 11.0461,17.4076 C8.6141,17.7266 6.0371,17.2286 4.0441,15.7996 C3.7721,15.6046 3.4911,15.3686 3.2141,15.1106 C3.4741,15.1136 3.7171,15.1256 3.9111,15.1646 C7.0921,15.8186 10.4101,15.7706 13.5791,15.0616" id="Fill-3" fill="#ECECD3"></path>
                                <path d="M3.068,11.293 C3.409,11.056 3.588,10.572 3.996,10.492 C4.44,10.406 4.789,10.86 4.982,11.269 C5.175,11.677 5.41,12.163 5.858,12.224 C6.653,12.332 6.969,11.042 7.759,10.902 C8.51,10.768 8.952,11.705 9.12,12.449 C9.287,13.193 9.711,14.132 10.465,14.018 C10.278,13.391 10.276,12.711 10.459,12.083 C10.53,11.837 10.645,11.581 10.87,11.46 C11.12,11.326 11.425,11.397 11.704,11.449 C12.62,11.622 13.579,11.549 14.462,11.251 C14.445,11.582 14.424,11.913 14.382,12.242 C14.261,13.215 13.993,14.176 13.579,15.062 C10.41,15.771 7.092,15.819 3.911,15.165 C3.717,15.125 3.474,15.114 3.215,15.111 C2.238,14.201 1.32,12.959 1.079,11.765 C1.258,11.626 1.501,11.537 1.726,11.517 C2.184,11.475 2.69,11.555 3.068,11.293" id="Fill-5" fill="#FFFEED"></path>
                                <path d="M11.4064,8.9868 C11.2814,8.7928 11.2814,8.5458 11.2954,8.3148 C11.3564,7.3368 11.5964,6.3708 11.5714,5.3908 C11.5574,4.8508 11.4484,4.2818 11.0884,3.8788 C10.7284,3.4748 10.0594,3.3128 9.6344,3.6468 C9.1644,4.0158 9.2104,4.7218 9.1954,5.3198 C9.1594,6.8618 8.1974,8.5078 6.6764,8.7638 C6.4594,8.8008 6.2314,8.8068 6.0264,8.7288 C5.4894,8.5258 5.3224,7.8698 5.1414,7.3248 C4.9604,6.7808 4.5124,6.1698 3.9564,6.3108 C3.4484,6.4398 3.3004,7.0968 3.3574,7.6178 C3.4144,8.1388 3.5694,8.7018 3.3134,9.1598 C3.0114,9.6978 2.2984,9.8138 1.6824,9.8388 C1.4064,9.8508 1.1304,9.8388 0.8554,9.8378 C0.7814,8.6868 0.7674,7.5148 0.6174,6.3938 C0.4614,5.2268 0.3274,3.4048 1.1414,2.4348 C1.4284,2.0938 1.8354,1.8768 2.2484,1.7098 C3.4784,1.2138 4.8234,1.0998 6.1444,0.9908 C8.5274,0.7938 11.0664,0.6278 13.1684,1.7668 C13.4224,1.9038 13.6744,2.0668 13.8314,2.3088 C14.0164,2.5948 14.0454,2.9508 14.0694,3.2908 C14.1664,4.6868 14.2634,6.0838 14.3604,7.4798 C14.4304,8.4948 14.4914,9.5148 14.4814,10.5308 C13.5954,10.1738 12.7204,9.7868 11.8724,9.3448 C11.6964,9.2538 11.5134,9.1538 11.4064,8.9868" id="Fill-7" fill="#FFFEED"></path>
                                <path d="M11.7036,11.4494 C11.4246,11.3974 11.1206,11.3264 10.8706,11.4604 C10.6456,11.5814 10.5296,11.8374 10.4586,12.0824 C10.2756,12.7104 10.2786,13.3914 10.4656,14.0184 C9.7116,14.1324 9.2866,13.1934 9.1196,12.4484 C8.9526,11.7044 8.5096,10.7684 7.7586,10.9014 C6.9696,11.0424 6.6526,12.3324 5.8576,12.2244 C5.4096,12.1634 5.1746,11.6774 4.9816,11.2684 C4.7886,10.8604 4.4396,10.4054 3.9956,10.4924 C3.5886,10.5724 3.4096,11.0564 3.0676,11.2934 C2.6896,11.5554 2.1846,11.4754 1.7266,11.5164 C1.5006,11.5374 1.2586,11.6264 1.0786,11.7654 C1.0776,11.7574 1.0736,11.7494 1.0726,11.7424 C0.9516,11.1234 0.8966,10.4834 0.8556,9.8374 C1.1306,9.8394 1.4066,9.8504 1.6826,9.8394 C2.2986,9.8144 3.0116,9.6974 3.3126,9.1594 C3.5686,8.7024 3.4146,8.1384 3.3576,7.6174 C3.3006,7.0964 3.4486,6.4404 3.9556,6.3114 C4.5126,6.1704 4.9606,6.7804 5.1416,7.3254 C5.3216,7.8704 5.4896,8.5254 6.0266,8.7294 C6.2316,8.8074 6.4596,8.8004 6.6766,8.7644 C8.1976,8.5084 9.1596,6.8624 9.1956,5.3194 C9.2096,4.7214 9.1636,4.0164 9.6346,3.6464 C10.0596,3.3124 10.7276,3.4754 11.0876,3.8784 C11.4476,4.2814 11.5576,4.8504 11.5716,5.3914 C11.5966,6.3704 11.3556,7.3374 11.2956,8.3144 C11.2816,8.5454 11.2816,8.7924 11.4066,8.9864 C11.5136,9.1534 11.6966,9.2534 11.8726,9.3454 C12.7196,9.7874 13.5946,10.1734 14.4816,10.5314 C14.4796,10.7714 14.4746,11.0114 14.4616,11.2514 C13.5786,11.5484 12.6196,11.6214 11.7036,11.4494" id="Fill-9" fill="#ECECD3"></path>
                            </g>
                        </g>
                    </g>
                </g>
            </g>
        </g>
    </g>
</svg>