<?xml version="1.0" encoding="UTF-8" standalone="no"?>
<svg width="13px" height="21px" viewBox="0 0 13 21" version="1.1" xmlns="http://www.w3.org/2000/svg" xmlns:xlink="http://www.w3.org/1999/xlink" xmlns:sketch="http://www.bohemiancoding.com/sketch/ns">
    <!-- Generator: Sketch 3.4 (15575) - http://www.bohemiancoding.com/sketch -->
    <title>Page 1</title>
    <desc>Created with Sketch.</desc>
    <defs></defs>
    <g id="Page-1" stroke="none" stroke-width="1" fill="none" fill-rule="evenodd" sketch:type="MSPage">
        <g id="Doctor---Patient-Landing-Page---Patient---Perio-Chart" sketch:type="MSArtboardGroup" transform="translate(-742.000000, -775.000000)">
            <g id="Chart" sketch:type="MSLayerGroup" transform="translate(271.000000, 398.000000)">
                <g id="Form" transform="translate(0.000000, 24.000000)" sketch:type="MSShapeGroup">
                    <g id="Row-11" transform="translate(462.000000, 197.000000)">
                        <g id="Page-1" transform="translate(9.000000, 157.000000)">
                            <path d="M3.5629,19.0225 C2.9039,18.7535 2.3539,18.5805 1.6899,18.4385 C1.2389,18.3425 0.9229,18.2545 0.6939,17.8225 C0.3199,17.1165 0.6019,16.0965 0.5989,15.3385 C0.5919,13.6735 0.5999,12.0075 0.6229,10.3425 C0.6369,9.3605 0.6569,8.3705 0.8719,7.4125 C1.0399,6.6635 1.3239,5.9455 1.6289,5.2415 C2.3429,3.5955 3.1789,2.0015 4.1259,0.4765 C4.2199,0.3245 4.3259,0.1645 4.4899,0.0935 C4.8029,-0.0405 5.1349,0.2025 5.4539,0.3245 C6.1759,0.6015 7.0549,0.2525 7.7309,0.6275 C8.0359,0.7965 8.2499,1.0895 8.4519,1.3735 C9.9729,3.5185 11.4299,5.7835 12.0529,8.3385 C12.5459,10.3595 12.4929,12.4685 12.4369,14.5485 C12.4179,15.2405 12.3919,15.9645 12.0529,16.5685 C11.6879,17.2205 11.0179,17.6325 10.3769,18.0155 C9.7069,18.4155 9.0329,18.8175 8.3029,19.0915 C6.7879,19.6595 5.0599,19.6345 3.5629,19.0225 L3.5629,19.0225 Z" id="Stroke-1" stroke="#F99B3B"></path>
                            <path d="M9.0555,9.2834 C8.8315,8.6814 8.6035,8.0484 8.6875,7.4114 C8.7505,6.9254 8.9905,6.4824 9.2265,6.0514 C9.5745,5.4174 9.9215,4.7824 10.2695,4.1474 C9.7105,3.1944 9.0885,2.2724 8.4515,1.3734 C8.2495,1.0894 8.0365,0.7964 7.7315,0.6274 C7.5755,0.5414 7.4085,0.4954 7.2355,0.4694 C7.0965,1.5374 6.9575,2.6054 6.8185,3.6724 C6.7135,4.4784 6.6065,5.2914 6.3235,6.0524 C6.0855,6.6944 5.7285,7.2834 5.3975,7.8814 C3.5815,11.1574 2.5055,14.7704 1.5695,18.4094 C1.6105,18.4184 1.6465,18.4294 1.6905,18.4384 C2.3545,18.5804 2.9035,18.7534 3.5625,19.0224 C3.7225,19.0874 3.8925,19.1194 4.0565,19.1714 C4.2475,18.3114 4.5185,17.4694 4.8705,16.6624 C5.0445,16.2644 5.2455,15.8644 5.5695,15.5754 C5.8945,15.2874 6.3705,15.1314 6.7745,15.2924 C7.0495,15.4024 7.2525,15.6384 7.4335,15.8734 C8.1075,16.7514 8.6525,17.7334 9.2885,18.6354 C9.6575,18.4394 10.0185,18.2294 10.3765,18.0154 C10.8895,17.7094 11.4125,17.3784 11.7905,16.9284 C11.5935,16.1444 11.3185,15.3724 11.0365,14.6134 C10.3765,12.8364 9.7155,11.0604 9.0555,9.2834" id="Fill-3" fill="#ECECD3"></path>
                            <path d="M6.3238,6.0529 C6.6068,5.2919 6.7138,4.4779 6.8178,3.6729 C6.9568,2.6049 7.0968,1.5379 7.2358,0.4699 C6.6578,0.3829 6.0098,0.5379 5.4538,0.3249 C5.1358,0.2029 4.8028,-0.0411 4.4898,0.0939 C4.3258,0.1649 4.2198,0.3249 4.1258,0.4769 C3.1788,2.0009 2.3438,3.5949 1.6288,5.2419 C1.3238,5.9459 1.0398,6.6629 0.8718,7.4119 C0.6568,8.3699 0.6368,9.3599 0.6228,10.3419 C0.5998,12.0079 0.5918,13.6729 0.5988,15.3389 C0.6018,16.0959 0.3198,17.1169 0.6938,17.8219 C0.9018,18.2129 1.1848,18.3209 1.5688,18.4089 C2.5058,14.7709 3.5808,11.1579 5.3968,7.8809 C5.7288,7.2829 6.0858,6.6939 6.3238,6.0529" id="Fill-5" fill="#FFFEED"></path>
                            <path d="M6.7743,15.2926 C6.3713,15.1316 5.8943,15.2876 5.5703,15.5756 C5.2453,15.8646 5.0443,16.2646 4.8703,16.6626 C4.5183,17.4696 4.2473,18.3116 4.0573,19.1706 C5.4343,19.6056 6.9493,19.5986 8.3033,19.0916 C8.6423,18.9646 8.9683,18.8046 9.2883,18.6356 C8.6523,17.7326 8.1073,16.7506 7.4333,15.8736 C7.2523,15.6386 7.0493,15.4026 6.7743,15.2926" id="Fill-7" fill="#FFFEED"></path>
                            <path d="M12.4368,14.548 C12.4928,12.468 12.5458,10.359 12.0528,8.338 C11.6908,6.854 11.0428,5.47 10.2688,4.148 C9.9218,4.783 9.5738,5.417 9.2268,6.052 C8.9908,6.482 8.7508,6.925 8.6868,7.411 C8.6038,8.049 8.8318,8.681 9.0558,9.283 C9.7158,11.06 10.3758,12.837 11.0368,14.614 C11.3188,15.372 11.5938,16.144 11.7908,16.928 C11.8858,16.815 11.9798,16.7 12.0528,16.569 C12.3918,15.964 12.4178,15.241 12.4368,14.548" id="Fill-9" fill="#FFFEED"></path>
                        </g>
                    </g>
                </g>
            </g>
        </g>
    </g>
</svg>