<?xml version="1.0" encoding="UTF-8" standalone="no"?>
<svg width="16px" height="44px" viewBox="0 0 16 44" version="1.1" xmlns="http://www.w3.org/2000/svg" xmlns:xlink="http://www.w3.org/1999/xlink" xmlns:sketch="http://www.bohemiancoding.com/sketch/ns">
    <!-- Generator: Sketch 3.4 (15575) - http://www.bohemiancoding.com/sketch -->
    <title>Page 1</title>
    <desc>Created with Sketch.</desc>
    <defs></defs>
    <g id="Page-1" stroke="none" stroke-width="1" fill="none" fill-rule="evenodd" sketch:type="MSPage">
        <g id="Doctor---Patient-Landing-Page---Patient---Perio-Chart" sketch:type="MSArtboardGroup" transform="translate(-773.000000, -837.000000)">
            <g id="Chart" sketch:type="MSLayerGroup" transform="translate(271.000000, 398.000000)">
                <g id="Form" transform="translate(0.000000, 24.000000)" sketch:type="MSShapeGroup">
                    <g id="Row-12" transform="translate(494.000000, 197.000000)">
                        <g id="Rectangle-154-Copy-12-+-12-Copy" transform="translate(0.000000, 35.000000)">
                            <g id="tooth-22" transform="translate(8.000000, 122.000000)">
                                <g id="Page-1" transform="translate(0.000000, 61.000000)">
                                    <path d="M15.2074,6.3148 C15.1754,6.2268 15.1264,6.1418 15.0864,6.0548 C13.7844,3.2558 8.4804,1.4128 7.0054,0.9498 C6.6984,0.8538 6.3834,0.8418 6.0704,0.9148 C4.5704,1.2618 1.4244,2.6608 1.0404,3.5648 C0.5454,4.7318 0.1244,9.4818 1.0404,10.8878 C1.9574,12.2928 2.2834,13.0118 2.7074,14.5648 C2.7664,14.7798 2.9994,15.3448 3.5794,16.0978 L3.5754,16.1008 C3.5754,16.1008 3.5434,17.3768 3.5124,19.1648 C3.4504,22.6798 3.3904,28.1788 3.5754,29.8768 C3.8534,32.4398 7.6654,42.5648 9.3534,43.1898 C11.0404,43.8148 11.5404,43.5028 11.3534,42.1898 C11.2184,41.2468 11.1094,30.4248 11.6634,23.4818 C11.8804,20.7618 12.1994,18.6378 12.6594,17.9348 C12.8564,17.6268 12.9714,17.2818 12.9574,16.8978 C12.8744,14.5648 16.4574,9.7318 15.2074,6.3148 L15.2074,6.3148 Z" id="Stroke-1" stroke="#F99B3B"></path>
                                    <path d="M9.7907,26.6898 C10.8127,26.0658 11.3227,24.8478 11.6637,23.4818 C11.8807,20.7618 12.1997,18.6378 12.6587,17.9348 L5.7907,14.5018 L3.5747,16.1008 C3.5747,16.1008 3.5437,17.3768 3.5117,19.1648 C4.6107,21.8978 7.4317,28.1308 9.7907,26.6898" id="Fill-3" fill="#E6C78C"></path>
                                    <path d="M9.7907,26.6898 C7.4317,28.1308 4.6107,21.8978 3.5117,19.1648 C3.4507,22.6798 3.3907,28.1788 3.5747,29.8778 C3.8537,32.4398 7.6657,42.5648 9.3537,43.1898 C11.0407,43.8148 11.5407,43.5018 11.3527,42.1898 C11.2187,41.2468 11.1087,30.4248 11.6637,23.4818 C11.3227,24.8478 10.8127,26.0658 9.7907,26.6898" id="Fill-5" fill="#F3D498"></path>
                                    <path d="M5.0407,6.1898 C4.7027,6.1898 4.9747,15.7428 5.0307,17.6158 C5.3557,17.8978 5.7077,18.1858 6.1237,18.4818 C8.7077,20.3148 13.0407,19.2318 12.9577,16.8978 C12.8737,14.5648 16.4577,9.7318 15.2077,6.3148 C15.1747,6.2268 15.1267,6.1418 15.0857,6.0548 C11.1977,7.8008 5.3357,6.1898 5.0407,6.1898" id="Fill-7" fill="#ECECD3"></path>
                                    <path d="M7.005,0.9496 C6.699,0.8536 6.383,0.8416 6.07,0.9146 C4.57,1.2616 1.424,2.6606 1.041,3.5646 C0.546,4.7316 0.124,9.4816 1.041,10.8876 C1.957,12.2936 2.283,13.0116 2.707,14.5646 C2.801,14.9086 3.34,16.1446 5.031,17.6156 C4.974,15.7426 4.702,6.1896 5.041,6.1896 C5.336,6.1896 11.198,7.8006 15.086,6.0556 C13.784,3.2556 8.48,1.4136 7.005,0.9496" id="Fill-9" fill="#FFFEED"></path>
                                </g>
                            </g>
                        </g>
                    </g>
                </g>
            </g>
        </g>
    </g>
</svg>