<?xml version="1.0" encoding="UTF-8" standalone="no"?>
<svg width="18px" height="14px" viewBox="0 0 18 14" version="1.1" xmlns="http://www.w3.org/2000/svg" xmlns:xlink="http://www.w3.org/1999/xlink" xmlns:sketch="http://www.bohemiancoding.com/sketch/ns">
    <!-- Generator: Sketch 3.4 (15575) - http://www.bohemiancoding.com/sketch -->
    <title>Page 1</title>
    <desc>Created with Sketch.</desc>
    <defs></defs>
    <g id="Page-1" stroke="none" stroke-width="1" fill="none" fill-rule="evenodd" sketch:type="MSPage">
        <g id="Doctor---Patient-Landing-Page---Patient---Perio-Chart" sketch:type="MSArtboardGroup" transform="translate(-452.000000, -742.000000)">
            <g id="Chart" sketch:type="MSLayerGroup" transform="translate(271.000000, 398.000000)">
                <g id="Form" transform="translate(0.000000, 24.000000)" sketch:type="MSShapeGroup">
                    <g id="Row-2" transform="translate(174.000000, 197.000000)">
                        <g id="Tooth---2" transform="translate(6.000000, 40.000000)">
                            <g id="Page-1" transform="translate(1.000000, 84.000000)">
                                <path d="M14.7533,12.4018 C15.3753,10.7288 16.0833,9.0838 16.5383,7.3578 C16.6643,6.8768 16.7853,6.3878 16.7833,5.8908 C16.7813,5.3998 16.6593,4.9188 16.5383,4.4438 C16.3523,3.7158 16.1663,2.9878 15.9813,2.2598 C15.8063,1.5778 15.5893,0.8328 15.0013,0.4458 C14.2043,-0.0792 13.1543,0.2968 12.2453,0.5888 C10.5243,1.1398 8.6883,1.3308 6.8903,1.1458 C6.5673,1.1118 6.2363,1.0638 5.9503,0.9078 C5.7393,0.7928 5.5633,0.6238 5.3633,0.4888 C4.4963,-0.0972 3.2693,0.0648 2.4233,0.6808 C1.5783,1.2968 1.0693,2.2838 0.7893,3.2918 C0.4643,4.4618 0.4123,5.7068 0.6373,6.9008 C0.8493,8.0238 1.3043,9.0788 1.5663,10.1888 C1.7543,10.9858 1.9653,12.1788 2.8903,12.4588 C3.2793,12.5768 3.9773,12.4038 4.4183,12.4018 C5.7083,12.3968 6.9973,12.4018 8.2863,12.4018 L14.7533,12.4018 L14.7533,12.4018 Z" id="Stroke-1" stroke="#F99B3B"></path>
                                <path d="M9.4303,2.3092 C9.1953,2.4172 8.9173,2.3802 8.6753,2.4712 C8.2613,2.6262 8.0713,3.0952 7.9483,3.5192 C7.7423,4.2312 7.5943,4.9602 7.5063,5.6972 C6.7053,5.3542 6.4813,4.3572 6.1173,3.5652 C5.6103,2.4612 4.6403,1.5792 3.4933,1.1782 C3.0543,1.0252 2.5913,0.9662 2.1263,0.9542 C2.2253,0.8622 2.3143,0.7612 2.4233,0.6812 C3.2693,0.0642 4.4963,-0.0968 5.3633,0.4892 C5.5633,0.6232 5.7393,0.7932 5.9503,0.9082 C6.2363,1.0642 6.5673,1.1122 6.8903,1.1452 C7.9303,1.2532 8.9813,1.2192 10.0173,1.0782 C9.9133,1.5782 9.8653,2.1082 9.4303,2.3092" id="Fill-3" fill="#ECECD3"></path>
                                <path d="M16.5378,7.3578 C16.0828,9.0838 15.3748,10.7288 14.7528,12.4018 L8.2868,12.4018 C6.9978,12.4018 5.7078,12.3968 4.4188,12.4018 C3.9778,12.4038 3.2788,12.5768 2.8908,12.4588 C1.9648,12.1788 1.7538,10.9858 1.5668,10.1888 C1.4628,9.7508 1.3288,9.3218 1.1918,8.8938 C3.7658,10.2538 6.8798,10.5788 9.8338,10.4358 C10.3948,10.4088 10.9648,10.3648 11.4858,10.1568 C11.9878,9.9568 12.4198,9.6138 12.8038,9.2338 C14.2418,7.8138 15.0788,5.8308 15.2168,3.8138 C15.2978,2.6468 15.1448,1.4728 14.8108,0.3498 C14.8748,0.3798 14.9408,0.4058 15.0018,0.4458 C15.5898,0.8328 15.8068,1.5778 15.9808,2.2608 C16.1668,2.9878 16.3518,3.7158 16.5378,4.4438 C16.6588,4.9188 16.7808,5.3998 16.7828,5.8908 C16.7858,6.3878 16.6648,6.8768 16.5378,7.3578" id="Fill-5" fill="#ECECD3"></path>
                                <path d="M15.2173,3.8141 C15.0783,5.8311 14.2413,7.8131 12.8043,9.2341 C12.4193,9.6141 11.9873,9.9571 11.4863,10.1571 C10.9643,10.3651 10.3943,10.4081 9.8343,10.4361 C6.8803,10.5791 3.7663,10.2531 1.1913,8.8931 C0.9823,8.2361 0.7653,7.5811 0.6373,6.9011 C0.4123,5.7071 0.4643,4.4621 0.7893,3.2921 C1.0323,2.4141 1.4653,1.5691 2.1263,0.9541 C2.5913,0.9661 3.0543,1.0251 3.4933,1.1791 C4.6403,1.5791 5.6103,2.4611 6.1173,3.5651 C6.4813,4.3571 6.7053,5.3541 7.5063,5.6971 C7.5943,4.9611 7.7423,4.2311 7.9483,3.5191 C8.0713,3.0951 8.2613,2.6261 8.6753,2.4711 C8.9173,2.3801 9.1953,2.4181 9.4303,2.3091 C9.8653,2.1081 9.9133,1.5781 10.0173,1.0781 C10.7723,0.9751 11.5193,0.8211 12.2453,0.5881 C13.0843,0.3191 14.0413,-0.0119 14.8113,0.3501 C15.1443,1.4731 15.2973,2.6461 15.2173,3.8141" id="Fill-7" fill="#FFFEED"></path>
                            </g>
                        </g>
                    </g>
                </g>
            </g>
        </g>
    </g>
</svg>