<?xml version="1.0" encoding="UTF-8" standalone="no"?>
<svg width="16px" height="45px" viewBox="0 0 16 45" version="1.1" xmlns="http://www.w3.org/2000/svg" xmlns:xlink="http://www.w3.org/1999/xlink" xmlns:sketch="http://www.bohemiancoding.com/sketch/ns">
    <!-- Generator: Sketch 3.4 (15575) - http://www.bohemiancoding.com/sketch -->
    <title>Page 1</title>
    <desc>Created with Sketch.</desc>
    <defs></defs>
    <g id="Page-1" stroke="none" stroke-width="1" fill="none" fill-rule="evenodd" sketch:type="MSPage">
        <g id="Doctor---Patient-Landing-Page---Patient---Perio-Chart" sketch:type="MSArtboardGroup" transform="translate(-549.000000, -837.000000)">
            <g id="Chart" sketch:type="MSLayerGroup" transform="translate(271.000000, 398.000000)">
                <g id="Form" transform="translate(0.000000, 24.000000)" sketch:type="MSShapeGroup">
                    <g id="Row-5" transform="translate(270.000000, 197.000000)">
                        <g id="Tooth---6" transform="translate(8.000000, 157.000000)">
                            <g id="Page-1" transform="translate(0.000000, 61.000000)">
                                <path d="M13.9668,2.9836 C13.1578,2.5266 11.2168,1.0466 10.2788,0.8796 C9.3418,0.7126 6.1548,0.8796 6.1548,0.8796 C4.9108,0.9296 0.6538,5.2966 0.5288,6.4836 C0.4038,7.6706 0.6538,10.9206 1.7788,12.4836 C2.5988,13.6216 3.0178,14.5326 2.9448,16.6536 C2.9178,17.4456 2.8238,18.4016 2.6538,19.6086 C2.0288,24.0456 4.4038,45.1716 5.7788,44.4836 C7.1548,43.7966 11.4668,32.9206 11.5288,29.9836 C11.5768,27.7506 11.7328,20.2126 12.0798,16.3666 C12.1888,15.1536 12.3168,14.3036 12.4668,14.1086 C13.0918,13.2966 14.0918,10.6706 14.7788,8.2336 C15.4668,5.7966 15.0728,3.6086 13.9668,2.9836 L13.9668,2.9836 Z" id="Stroke-1" stroke="#F99B3B"></path>
                                <path d="M4.0723,5.2961 C3.8853,7.5461 5.8223,14.2961 6.7603,14.9211 C7.6973,15.5461 10.1343,13.8591 10.0723,13.1711 C10.0093,12.4831 11.5093,7.4841 11.5093,7.4841 C11.7943,6.3141 12.7133,4.3681 13.5533,2.7281 C12.6193,2.1271 11.0833,1.0221 10.2793,0.8791 C9.3413,0.7131 6.1543,0.8791 6.1543,0.8791 C5.7113,0.8971 4.8853,1.4661 4.0013,2.2401 C4.0953,3.1171 4.1613,4.2281 4.0723,5.2961" id="Fill-3" fill="#FFFEED"></path>
                                <path d="M1.8848,8.7708 C1.5128,8.1298 1.5348,6.3638 1.6668,4.6348 C1.0248,5.4108 0.5688,6.1068 0.5288,6.4838 C0.4038,7.6708 0.6538,10.9208 1.7788,12.4838 C2.5978,13.6208 3.0168,14.5328 2.9448,16.6538 C3.2458,16.8368 3.6018,17.0178 4.0068,17.1848 C4.1038,16.5768 4.2058,15.9858 4.2598,15.7958 C4.3848,15.3588 2.6968,10.1708 1.8848,8.7708" id="Fill-5" fill="#FFFEED"></path>
                                <path d="M12.0794,16.3668 C12.1884,15.1528 12.3164,14.3038 12.4664,14.1088 C13.0914,13.2958 14.0914,10.6708 14.7794,8.2338 C15.4664,5.7958 15.0724,3.6088 13.9664,2.9838 C13.8514,2.9178 13.7084,2.8288 13.5534,2.7288 C12.7134,4.3688 11.7944,6.3148 11.5094,7.4838 C11.5094,7.4838 10.0094,12.4838 10.0724,13.1708 C10.1344,13.8588 7.6974,15.5458 6.7594,14.9208 C5.8224,14.2958 3.8844,7.5458 4.0724,5.2958 C4.1614,4.2288 4.0954,3.1168 4.0014,2.2398 C3.1894,2.9508 2.3294,3.8338 1.6674,4.6348 C1.5354,6.3638 1.5134,8.1298 1.8844,8.7708 C2.6974,10.1708 4.3844,15.3588 4.2594,15.7958 C4.2054,15.9858 4.1044,16.5768 4.0064,17.1848 C5.0224,17.6048 6.3754,17.9298 8.1554,17.9298 C9.5834,17.9298 10.9454,17.2248 12.0794,16.3668" id="Fill-7" fill="#ECECD3"></path>
                                <path d="M9.9057,25.8794 C10.4887,22.4624 7.7387,20.3794 5.7387,20.2464 C4.8657,20.1884 3.7557,19.4404 2.7827,18.6174 C2.7457,18.9294 2.7037,19.2554 2.6547,19.6084 C2.0297,24.0464 4.4047,45.1714 5.7797,44.4834 C7.0387,43.8534 10.7627,34.6744 11.4257,30.8814 C10.6507,29.9764 9.5097,28.1974 9.9057,25.8794" id="Fill-9" fill="#F3D498"></path>
                                <path d="M12.0794,16.3668 C10.9454,17.2248 9.5834,17.9298 8.1554,17.9298 C5.6664,17.9298 4.0014,17.2978 2.9444,16.6538 C2.9254,17.2138 2.8714,17.8618 2.7824,18.6168 C3.7554,19.4408 4.8654,20.1878 5.7394,20.2468 C7.7394,20.3798 10.4894,22.4628 9.9054,25.8798 C9.5104,28.1978 10.6504,29.9758 11.4264,30.8818 C11.4864,30.5348 11.5244,30.2298 11.5294,29.9838 C11.5764,27.7508 11.7324,20.2128 12.0794,16.3668" id="Fill-11" fill="#E6C78C"></path>
                            </g>
                        </g>
                    </g>
                </g>
            </g>
        </g>
    </g>
</svg>