<?xml version="1.0" encoding="UTF-8" standalone="no"?>
<svg width="14px" height="46px" viewBox="0 0 14 46" version="1.1" xmlns="http://www.w3.org/2000/svg" xmlns:xlink="http://www.w3.org/1999/xlink" xmlns:sketch="http://www.bohemiancoding.com/sketch/ns">
    <!-- Generator: Sketch 3.4 (15575) - http://www.bohemiancoding.com/sketch -->
    <title>Page 1</title>
    <desc>Created with Sketch.</desc>
    <defs></defs>
    <g id="Page-1" stroke="none" stroke-width="1" fill="none" fill-rule="evenodd" sketch:type="MSPage">
        <g id="Doctor---Patient-Landing-Page---Patient---Perio-Chart" sketch:type="MSArtboardGroup" transform="translate(-518.000000, -651.000000)">
            <g id="Chart" sketch:type="MSLayerGroup" transform="translate(271.000000, 398.000000)">
                <g id="Form" transform="translate(0.000000, 24.000000)" sketch:type="MSShapeGroup">
                    <g id="Row-4" transform="translate(238.000000, 197.000000)">
                        <g id="Tooth---4" transform="translate(8.000000, 33.000000)">
                            <g id="Page-1" transform="translate(1.000000, 0.000000)">
                                <path d="M0.7753,36.4033 C0.7753,36.4033 6.1083,24.4523 4.2753,1.0363 C4.2753,1.0363 4.4423,0.2863 5.3583,0.4523 C6.2753,0.6193 10.4423,18.2023 10.9423,27.2023 C10.9423,27.2023 11.8583,29.7863 12.5253,30.6193 C13.1923,31.4523 13.7753,37.2863 13.1083,38.7863 C12.8743,39.3123 12.6103,39.8173 12.3653,40.2523 C11.8863,41.1023 11.1003,41.7303 10.1623,41.9963 C9.1543,42.2823 7.8323,42.6733 7.0893,42.9543 C5.7753,43.4523 4.8583,44.9093 4.1923,44.3893 C3.5253,43.8693 2.5253,42.3693 2.1083,42.0363 C1.6923,41.7023 1.4423,40.7863 1.4423,40.7863 L0.9533,40.3623 C0.6323,40.0833 0.4653,39.6673 0.5063,39.2433 L0.7753,36.4033 L0.7753,36.4033 Z" id="Stroke-1" stroke="#F99B3B"></path>
                                <path d="M5.924,26.7835 C6.973,26.8925 7.977,27.2485 8.944,27.6785 C9.112,28.3555 9.345,29.0095 9.722,29.5955 C10.357,30.5825 11.375,31.3575 11.682,32.4905 C12.01,33.7025 11.302,35.1065 10.132,35.5625 C9.688,35.7365 9.199,35.7855 8.774,36.0015 C8.109,36.3395 7.684,37.0995 7.742,37.8425 C7.832,38.9785 8.865,39.7625 9.714,40.5215 C10.103,40.8695 10.474,41.3075 10.719,41.7775 C10.539,41.8615 10.356,41.9415 10.162,41.9965 C9.154,42.2825 7.832,42.6725 7.089,42.9545 C5.775,43.4525 4.859,44.9095 4.192,44.3895 C3.631,43.9515 2.837,42.8255 2.35,42.2795 C2.55,42.0305 2.717,41.7425 2.864,41.4605 C3.414,40.4115 3.906,39.3325 4.336,38.2285 C4.373,38.1325 4.408,38.0155 4.348,37.9315 C4.272,37.8275 4.113,37.8515 3.991,37.8935 C3.177,38.1725 2.471,38.6985 1.682,39.0405 C1.307,39.2025 0.911,39.3085 0.509,39.3825 C0.509,39.3355 0.501,39.2905 0.506,39.2435 L0.775,36.4035 C0.775,36.4035 2.159,33.2925 3.275,27.1505 C4.097,26.8015 5.029,26.6905 5.924,26.7835" id="Fill-3" fill="#FFFEED"></path>
                                <path d="M3.991,37.8937 C4.113,37.8517 4.272,37.8267 4.348,37.9317 C4.408,38.0157 4.373,38.1327 4.336,38.2287 C3.906,39.3327 3.414,40.4117 2.864,41.4607 C2.717,41.7427 2.55,42.0307 2.35,42.2797 C2.259,42.1777 2.174,42.0887 2.109,42.0357 C1.692,41.7027 1.442,40.7857 1.442,40.7857 L0.954,40.3617 C0.668,40.1147 0.514,39.7557 0.509,39.3827 C0.911,39.3077 1.307,39.2027 1.682,39.0407 C2.471,38.6987 3.177,38.1727 3.991,37.8937" id="Fill-5" fill="#ECECD3"></path>
                                <path d="M9.7141,40.5214 C8.8641,39.7624 7.8321,38.9784 7.7421,37.8424 C7.6841,37.0994 8.1091,36.3394 8.7741,36.0014 C9.1981,35.7854 9.6881,35.7364 10.1321,35.5624 C11.3021,35.1064 12.0101,33.7024 11.6821,32.4904 C11.3751,31.3574 10.3571,30.5824 9.7221,29.5954 C9.3451,29.0094 9.1121,28.3554 8.9441,27.6784 C9.1361,27.7634 9.3301,27.8484 9.5191,27.9384 C10.0531,28.1934 10.5831,28.4654 11.0561,28.8214 C11.4091,29.0884 11.7141,29.4044 11.9991,29.7384 C12.1781,30.0954 12.3591,30.4114 12.5251,30.6194 C13.1921,31.4524 13.7751,37.2864 13.1081,38.7864 C12.8751,39.3124 12.6101,39.8174 12.3651,40.2524 C11.9851,40.9264 11.4081,41.4524 10.7191,41.7774 C10.4741,41.3074 10.1031,40.8694 9.7141,40.5214" id="Fill-7" fill="#ECECD3"></path>
                                <path d="M11.999,29.7384 C11.714,29.4044 11.409,29.0884 11.056,28.8214 C10.583,28.4654 10.053,28.1934 9.519,27.9384 C9.33,27.8484 9.136,27.7644 8.944,27.6784 C8.793,27.0724 8.694,26.4474 8.602,25.8314 C7.829,20.6584 7.094,15.3124 8.245,10.2414 C9.486,15.8374 10.688,22.6274 10.942,27.2024 C10.942,27.2024 11.459,28.6594 11.999,29.7384" id="Fill-9" fill="#E6C78C"></path>
                                <path d="M8.6016,25.8311 C8.6936,26.4471 8.7936,27.0721 8.9436,27.6781 C7.9766,27.2491 6.9736,26.8931 5.9236,26.7831 C5.0286,26.6901 4.0976,26.8021 3.2756,27.1511 C4.3486,21.2391 5.1746,12.5201 4.2756,1.0361 C4.2756,1.0361 4.4416,0.2861 5.3586,0.4531 C5.8096,0.5341 7.0456,4.8291 8.2456,10.2411 C7.0936,15.3121 7.8286,20.6581 8.6016,25.8311" id="Fill-11" fill="#F3D498"></path>
                            </g>
                        </g>
                    </g>
                </g>
            </g>
        </g>
    </g>
</svg>