<?xml version="1.0" encoding="UTF-8" standalone="no"?>
<svg width="21px" height="39px" viewBox="0 0 21 39" version="1.1" xmlns="http://www.w3.org/2000/svg" xmlns:xlink="http://www.w3.org/1999/xlink" xmlns:sketch="http://www.bohemiancoding.com/sketch/ns">
    <!-- Generator: Sketch 3.4 (15575) - http://www.bohemiancoding.com/sketch -->
    <title>Page 1</title>
    <desc>Created with Sketch.</desc>
    <defs></defs>
    <g id="Page-1" stroke="none" stroke-width="1" fill="none" fill-rule="evenodd" sketch:type="MSPage">
        <g id="Doctor---Patient-Landing-Page---Patient---Perio-Chart" sketch:type="MSArtboardGroup" transform="translate(-482.000000, -837.000000)">
            <g id="Chart" sketch:type="MSLayerGroup" transform="translate(271.000000, 398.000000)">
                <g id="Form" transform="translate(0.000000, 24.000000)" sketch:type="MSShapeGroup">
                    <g id="Row-3" transform="translate(206.000000, 197.000000)">
                        <g id="Tooth---30" transform="translate(5.000000, 157.000000)">
                            <g id="Page-1" transform="translate(0.000000, 61.000000)">
                                <path d="M20.4237,4.1827 C20.0907,1.0997 17.0067,1.2247 17.0067,1.2247 C15.8407,1.0157 12.9447,2.0527 11.5907,1.8497 C11.1917,1.7897 10.9067,1.5627 10.6057,1.4007 C9.5077,0.8067 8.3967,0.5997 7.1487,0.5997 L5.6637,0.7397 C1.9597,1.1927 0.1737,4.5157 1.8407,10.2657 C2.1767,11.4277 2.3767,12.4867 2.4817,13.4627 C2.8957,17.3147 1.7717,19.8037 1.1737,21.5997 C0.4237,23.8497 0.5907,29.2657 0.5067,31.5997 C0.4237,33.9327 1.0907,37.4327 2.0067,37.7657 C2.9237,38.0997 4.1737,36.8497 4.6737,33.5997 C5.1737,30.3497 7.6737,24.8497 8.1737,22.5997 C8.6737,20.3497 10.3407,21.0157 10.5067,21.2657 C10.6737,21.5157 11.7567,25.2657 12.1737,28.9327 C12.5907,32.5997 11.4237,35.9327 10.9237,36.8497 C10.8407,37.0017 10.8037,37.1647 10.7997,37.3277 C10.7767,38.3017 11.9927,38.8447 12.7687,38.2567 C18.8207,33.6747 18.6497,22.2597 18.2567,19.4327 C18.0547,17.9777 18.3627,16.2917 18.7337,14.9367 C19.1267,13.4967 19.5907,12.4327 19.5907,12.4327 C19.5907,12.4327 20.7567,7.2657 20.4237,4.1827 L20.4237,4.1827 Z" id="Stroke-1" stroke="#F99B3B"></path>
                                <path d="M20.4237,4.1827 C20.0907,1.0997 17.0067,1.2247 17.0067,1.2247 C15.8407,1.0157 12.9447,2.0527 11.5907,1.8497 C11.4867,1.8337 11.3917,1.8067 11.3017,1.7727 C11.9897,3.1287 13.0857,4.3237 14.5547,3.6987 C15.1377,3.4517 15.5797,2.9437 16.1647,2.7017 C16.6137,2.5157 17.1137,2.4997 17.6007,2.5097 C17.9847,2.5177 18.3937,2.5497 18.7027,2.7797 C19.0447,3.0357 19.1847,3.4757 19.2927,3.8887 C19.4697,4.5627 19.6167,5.2437 19.7307,5.9317 C19.8177,6.4537 19.8867,6.9887 19.7957,7.5097 C19.7047,8.0307 19.4317,8.5437 18.9737,8.8087 C19.2017,7.7617 18.6297,6.5947 17.6617,6.1347 C16.7307,5.6917 15.6387,5.8897 14.6177,6.0357 C13.9407,6.1337 13.2087,6.2057 12.5387,6.0227 C11.9097,5.8497 11.5387,5.4097 10.9987,5.0787 C9.7597,4.3207 8.3277,3.8737 6.8767,3.8057 C6.1527,3.7717 5.3907,3.8397 4.7827,4.2317 C4.2717,4.5607 4.2297,4.9187 4.0467,5.4227 C3.9037,5.8167 3.4537,6.0767 3.0707,6.1947 C2.4277,6.3927 1.7377,6.2297 1.2347,5.8217 C1.1637,7.0857 1.3477,8.5667 1.8407,10.2657 C2.1767,11.4277 2.3767,12.4867 2.4817,13.4627 C4.3777,14.1017 7.8737,15.2497 9.7567,15.6697 C11.4057,16.0387 15.6957,15.4447 18.7337,14.9367 C19.1267,13.4967 19.5907,12.4327 19.5907,12.4327 C19.5907,12.4327 20.7567,7.2657 20.4237,4.1827" id="Fill-3" fill="#FFFEED"></path>
                                <path d="M3.0706,6.1948 C3.4536,6.0768 3.9036,5.8158 4.0466,5.4228 C4.2296,4.9188 4.2716,4.5608 4.7826,4.2308 C5.3916,3.8388 6.1536,3.7708 6.8766,3.8058 C8.3276,3.8738 9.7596,4.3198 10.9986,5.0788 C11.5386,5.4098 11.9096,5.8498 12.5386,6.0228 C13.2086,6.2058 13.9406,6.1338 14.6176,6.0358 C15.6386,5.8898 16.7306,5.6918 17.6616,6.1348 C18.6296,6.5948 19.2016,7.7618 18.9736,8.8088 C19.4316,8.5438 19.7046,8.0308 19.7956,7.5098 C19.8866,6.9888 19.8176,6.4538 19.7306,5.9318 C19.6166,5.2438 19.4706,4.5618 19.2936,3.8888 C19.1846,3.4758 19.0446,3.0358 18.7026,2.7798 C18.3946,2.5498 17.9846,2.5178 17.6006,2.5098 C17.1136,2.4998 16.6136,2.5158 16.1646,2.7018 C15.5806,2.9438 15.1376,3.4518 14.5556,3.6988 C13.0856,4.3238 11.9896,3.1288 11.3016,1.7728 C11.0436,1.6758 10.8296,1.5208 10.6056,1.4008 C9.5076,0.8068 8.3966,0.5998 7.1486,0.5998 L5.6636,0.7398 C3.0546,1.0588 1.4036,2.8088 1.2346,5.8218 C1.7376,6.2298 2.4276,6.3928 3.0706,6.1948" id="Fill-5" fill="#ECECD3"></path>
                                <path d="M5.1938,18.3792 C5.3248,18.8662 5.3908,19.4272 5.7888,19.7362 C6.1398,20.0082 6.6368,19.9852 7.0678,19.8802 C7.7798,19.7072 8.4348,19.3512 9.1358,19.1382 C10.5758,18.6992 12.1978,18.9022 13.4848,19.6812 C14.7718,20.4602 15.7038,21.8022 15.9838,23.2812 C16.0488,23.6242 16.0828,23.9802 16.2348,24.2942 C16.3878,24.6092 16.6978,24.8792 17.0468,24.8562 C17.5288,24.8252 17.7988,24.2992 17.9668,23.8462 C18.1188,23.4322 18.2678,23.0142 18.4158,22.5952 C18.4228,21.2132 18.3478,20.0872 18.2568,19.4322 C18.0548,17.9782 18.3628,16.2912 18.7328,14.9362 C15.6958,15.4442 11.4058,16.0382 9.7568,15.6702 C7.8738,15.2492 4.3778,14.1012 2.4808,13.4622 C2.5608,14.1982 2.5698,14.8692 2.5518,15.5102 C3.0098,15.7672 3.4738,16.0162 3.8798,16.3472 C4.5148,16.8662 4.9808,17.5872 5.1938,18.3792" id="Fill-7" fill="#E6C78C"></path>
                                <path d="M17.9663,23.846 C17.7993,24.299 17.5293,24.825 17.0473,24.856 C16.6983,24.879 16.3873,24.609 16.2353,24.295 C16.0823,23.98 16.0493,23.624 15.9843,23.281 C15.7043,21.802 14.7723,20.46 13.4843,19.681 C12.1973,18.902 10.5753,18.7 9.1363,19.138 C8.4353,19.351 7.7803,19.707 7.0683,19.881 C6.6363,19.985 6.1403,20.008 5.7893,19.736 C5.3913,19.427 5.3243,18.866 5.1933,18.379 C4.9813,17.588 4.5143,16.866 3.8803,16.348 C3.4743,16.016 3.0103,15.768 2.5513,15.51 C2.4723,18.226 1.6583,20.147 1.1733,21.599 C0.4233,23.849 0.5903,29.266 0.5073,31.599 C0.4233,33.933 1.0903,37.433 2.0073,37.766 C2.9233,38.099 4.1733,36.849 4.6733,33.599 C5.1733,30.349 7.6733,24.849 8.1733,22.599 C8.6733,20.349 10.3403,21.016 10.5073,21.266 C10.6733,21.516 11.7573,25.266 12.1733,28.933 C12.5903,32.599 11.4233,35.933 10.9233,36.849 C10.8403,37.002 10.8033,37.164 10.7993,37.328 C10.7763,38.301 11.9933,38.845 12.7693,38.257 C17.4203,34.734 18.3923,27.188 18.4153,22.595 C18.2673,23.014 18.1193,23.432 17.9663,23.846" id="Fill-9" fill="#F3D498"></path>
                            </g>
                        </g>
                    </g>
                </g>
            </g>
        </g>
    </g>
</svg>