<?xml version="1.0" encoding="UTF-8" standalone="no"?>
<svg width="20px" height="21px" viewBox="0 0 20 21" version="1.1" xmlns="http://www.w3.org/2000/svg" xmlns:xlink="http://www.w3.org/1999/xlink" xmlns:sketch="http://www.bohemiancoding.com/sketch/ns">
    <!-- Generator: Sketch 3.4 (15575) - http://www.bohemiancoding.com/sketch -->
    <title>Page 1</title>
    <desc>Created with Sketch.</desc>
    <defs></defs>
    <g id="Page-1" stroke="none" stroke-width="1" fill="none" fill-rule="evenodd" sketch:type="MSPage">
        <g id="Doctor---Patient-Landing-Page---Patient---Perio-Chart" sketch:type="MSArtboardGroup" transform="translate(-451.000000, -707.000000)">
            <g id="Chart" sketch:type="MSLayerGroup" transform="translate(271.000000, 398.000000)">
                <g id="Form" transform="translate(0.000000, 24.000000)" sketch:type="MSShapeGroup">
                    <g id="Row-2" transform="translate(174.000000, 197.000000)">
                        <g id="Tooth---2" transform="translate(6.000000, 40.000000)">
                            <g id="Page-1" transform="translate(0.000000, 49.000000)">
                                <path d="M3.1235,3.4151 C1.7845,4.9421 1.1225,7.4071 0.7215,9.3611 C0.2745,11.5391 0.5175,13.7241 1.3295,15.7871 C1.8295,17.0581 2.5285,18.3801 3.7715,18.9441 C4.7465,19.3861 5.8685,19.2741 6.9395,19.2521 C8.6065,19.2181 10.2785,19.4231 11.9405,19.2801 C13.6015,19.1371 15.3185,18.5861 16.4105,17.3251 C17.8475,15.6661 17.8385,13.3371 18.1035,11.2781 C18.2355,10.2571 18.7385,9.1211 18.6815,8.1091 C18.6225,7.0521 18.4265,5.8971 18.3125,4.8271 C18.0245,2.1051 15.6455,0.8321 13.1535,0.4101 C10.4325,-0.0499 7.9585,0.2981 5.5455,1.6061 C4.6555,2.0891 3.7915,2.6531 3.1235,3.4151 L3.1235,3.4151 Z" id="Stroke-1" stroke="#F99B3B"></path>
                                <path d="M5.1427,14.9874 C5.3937,15.2714 5.5217,15.6404 5.6447,15.9994 C5.8727,16.6634 6.0997,17.3274 6.3277,17.9914 C6.4767,18.4284 6.6507,18.8774 6.9087,19.2534 C5.8467,19.2764 4.7377,19.3824 3.7717,18.9444 C2.5287,18.3804 1.8297,17.0574 1.3297,15.7874 C1.1127,15.2364 0.9397,14.6754 0.8057,14.1084 C1.2117,14.2364 1.6277,14.3314 2.0527,14.3504 C3.1377,14.4014 4.4237,14.1724 5.1427,14.9874" id="Fill-3" fill="#FFFEED"></path>
                                <path d="M9.031,18.4645 C8.643,17.6055 7.915,16.9525 7.392,16.1685 C6.869,15.3835 6.575,14.2935 7.121,13.5255 C7.647,12.7835 8.728,12.6755 9.609,12.9045 C10.489,13.1325 11.289,13.6175 12.175,13.8255 C14.193,14.2975 16.237,13.2695 17.994,12.1715 C17.997,12.1695 18,12.1675 18.003,12.1655 C17.812,13.9825 17.644,15.9005 16.41,17.3255 C15.319,18.5865 13.602,19.1365 11.94,19.2805 C11.02,19.3595 10.096,19.3325 9.172,19.2975 C9.228,19.0185 9.149,18.7255 9.031,18.4645" id="Fill-5" fill="#FFFEED"></path>
                                <path d="M5.3771,12.2393 C6.1741,11.6973 6.5861,10.6293 7.4981,10.3173 C7.7791,10.2213 8.1031,10.1983 8.3161,9.9923 C8.5261,9.7893 8.5621,9.4703 8.5861,9.1793 C8.7311,7.3773 8.8711,5.5203 8.3251,3.7973 C9.2251,4.0313 9.6851,5.0443 9.8051,5.9663 C9.9251,6.8883 9.8371,7.8583 10.1941,8.7173 C11.4781,7.8303 10.9641,5.6903 11.9651,4.4923 C12.1721,4.2453 12.5531,4.0463 12.7991,4.2543 C12.9651,4.3933 12.9731,4.6403 12.9641,4.8563 C12.9161,5.9993 12.7471,7.1373 12.4601,8.2453 C12.2331,9.1263 12.0311,10.2833 12.8091,10.7553 C13.0671,10.9123 13.3801,10.9453 13.6811,10.9633 C15.2291,11.0573 16.7901,10.8673 18.2761,10.4223 C18.2041,10.7133 18.1391,11.0003 18.1041,11.2783 C18.0661,11.5693 18.0341,11.8663 18.0031,12.1653 C18.0001,12.1673 17.9971,12.1693 17.9941,12.1713 C16.2371,13.2693 14.1921,14.2973 12.1751,13.8253 C11.2891,13.6183 10.4891,13.1323 9.6081,12.9043 C8.7281,12.6753 7.6471,12.7833 7.1211,13.5253 C6.5751,14.2943 6.8691,15.3833 7.3921,16.1683 C7.9141,16.9523 8.6431,17.6053 9.0311,18.4643 C9.1491,18.7263 9.2281,19.0183 9.1721,19.2973 C8.4271,19.2703 7.6831,19.2373 6.9391,19.2523 C6.9291,19.2523 6.9191,19.2533 6.9091,19.2533 C6.6511,18.8773 6.4771,18.4283 6.3271,17.9913 C6.1001,17.3273 5.8721,16.6633 5.6451,15.9993 C5.5221,15.6403 5.3931,15.2713 5.1431,14.9873 C4.4241,14.1723 3.1381,14.4013 2.0521,14.3513 C1.6271,14.3313 1.2121,14.2363 0.8061,14.1093 C0.5641,13.0803 0.4601,12.0313 0.5151,10.9763 C0.8671,11.2883 1.2361,11.5803 1.6321,11.8323 C2.7551,12.5483 4.2761,12.9883 5.3771,12.2393" id="Fill-7" fill="#ECECD3"></path>
                                <path d="M15.4237,4.4065 C14.8797,3.6655 14.7407,2.4615 13.8437,2.2605 C13.4817,2.1795 13.1117,2.3095 12.7447,2.3635 C11.9707,2.4785 11.1917,2.2565 10.4257,2.0905 C9.0447,1.7925 7.5967,1.6795 6.2227,2.0135 C4.8497,2.3475 3.5547,3.1725 2.8717,4.4095 C2.5607,4.9735 2.3687,5.6255 1.9027,6.0695 C1.8017,6.1665 1.6777,6.2425 1.5467,6.3015 C1.9327,5.2235 2.4387,4.1965 3.1237,3.4155 C3.7917,2.6535 4.6557,2.0895 5.5457,1.6065 C7.9587,0.2985 10.4327,-0.0495 13.1537,0.4105 C15.6457,0.8325 18.0247,2.1055 18.3127,4.8265 C18.3407,5.0855 18.3777,5.3575 18.4117,5.6235 C17.2587,5.4255 16.0867,5.3095 15.4237,4.4065" id="Fill-9" fill="#ECECD3"></path>
                                <path d="M2.8719,4.4097 C3.5549,3.1727 4.8499,2.3477 6.2229,2.0137 C7.5959,1.6797 9.0439,1.7927 10.4259,2.0907 C11.1909,2.2557 11.9699,2.4787 12.7449,2.3637 C13.1119,2.3087 13.4819,2.1797 13.8439,2.2607 C14.7399,2.4617 14.8799,3.6657 15.4239,4.4067 C16.0869,5.3097 17.2579,5.4257 18.4119,5.6237 C18.5179,6.4577 18.6369,7.3077 18.6809,8.1087 C18.7229,8.8457 18.4689,9.6467 18.2759,10.4227 C16.7899,10.8667 15.2289,11.0577 13.6809,10.9637 C13.3799,10.9457 13.0669,10.9127 12.8089,10.7557 C12.0319,10.2827 12.2329,9.1267 12.4609,8.2457 C12.7469,7.1377 12.9159,5.9997 12.9639,4.8567 C12.9729,4.6407 12.9649,4.3937 12.7999,4.2547 C12.5529,4.0467 12.1719,4.2447 11.9649,4.4927 C10.9649,5.6907 11.4779,7.8297 10.1939,8.7177 C9.8369,7.8587 9.9249,6.8887 9.8049,5.9667 C9.6849,5.0437 9.2249,4.0317 8.3249,3.7967 C8.8719,5.5207 8.7309,7.3767 8.5859,9.1797 C8.5619,9.4707 8.5259,9.7897 8.3169,9.9927 C8.1039,10.1987 7.7789,10.2217 7.4989,10.3177 C6.5859,10.6297 6.1739,11.6977 5.3769,12.2397 C4.2759,12.9877 2.7549,12.5487 1.6319,11.8327 C1.2359,11.5797 0.8669,11.2877 0.5149,10.9767 C0.5429,10.4387 0.6109,9.8997 0.7219,9.3617 C0.9179,8.4067 1.1779,7.3317 1.5459,6.3017 C1.6779,6.2427 1.8009,6.1667 1.9029,6.0697 C2.3689,5.6247 2.5609,4.9737 2.8719,4.4097" id="Fill-11" fill="#FFFEED"></path>
                            </g>
                        </g>
                    </g>
                </g>
            </g>
        </g>
    </g>
</svg>