<?xml version="1.0" encoding="UTF-8" standalone="no"?>
<svg width="21px" height="19px" viewBox="0 0 21 19" version="1.1" xmlns="http://www.w3.org/2000/svg" xmlns:xlink="http://www.w3.org/1999/xlink" xmlns:sketch="http://www.bohemiancoding.com/sketch/ns">
    <!-- Generator: Sketch 3.4 (15575) - http://www.bohemiancoding.com/sketch -->
    <title>Page 1</title>
    <desc>Created with Sketch.</desc>
    <defs></defs>
    <g id="Page-1" stroke="none" stroke-width="1" fill="none" fill-rule="evenodd" sketch:type="MSPage">
        <g id="Doctor---Patient-Landing-Page---Patient---Perio-Chart" sketch:type="MSArtboardGroup" transform="translate(-835.000000, -803.000000)">
            <g id="Chart" sketch:type="MSLayerGroup" transform="translate(271.000000, 398.000000)">
                <g id="Form" transform="translate(0.000000, 24.000000)" sketch:type="MSShapeGroup">
                    <g id="Row-14" transform="translate(558.000000, 197.000000)">
                        <g id="Page-1" transform="translate(6.000000, 184.000000)">
                            <path d="M10.0161,18.5 L4.6801,18.5 C2.3711,18.5 0.5001,16.629 0.5001,14.32 L0.5001,5.596 C0.5001,2.92 2.6701,0.75 5.3461,0.75 L15.2661,0.75 C17.6081,0.75 19.5061,2.648 19.5061,4.99 L19.5061,9.01 C19.5061,14.251 15.2571,18.5 10.0161,18.5 L10.0161,18.5 Z" id="Stroke-1" stroke="#F99B3B"></path>
                            <path d="M9.9304,4.1672 C9.7554,5.1292 10.2284,6.1432 11.0004,6.7432 C11.7714,7.3432 12.7964,7.5592 13.7704,7.4702 C14.7764,7.3772 15.7524,6.9722 16.5284,6.3252 C16.6934,6.1872 16.8534,6.0332 16.9434,5.8382 C17.1234,5.4492 16.9894,4.9942 16.8534,4.5872 C16.5064,3.5502 16.1594,2.5122 15.8114,1.4742 C16.5344,1.4282 17.2624,1.5222 17.9534,1.7352 C17.2204,1.1292 16.2924,0.7502 15.2664,0.7502 L14.2264,0.7502 C13.8624,0.9122 13.4994,1.0742 13.1354,1.2362 C11.7564,1.8512 10.2004,2.6812 9.9304,4.1672" id="Fill-3" fill="#FFFEED"></path>
                            <path d="M19.5061,4.9899 C19.5061,3.6739 18.8941,2.5129 17.9541,1.7359 C17.2621,1.5219 16.5341,1.4279 15.8121,1.4739 C16.1591,2.5119 16.5061,3.5499 16.8531,4.5879 C16.9891,4.9939 17.1231,5.4489 16.9431,5.8379 C16.8531,6.0339 16.6931,6.1869 16.5281,6.3249 C15.7521,6.9729 14.7771,7.3779 13.7701,7.4699 C12.7971,7.5589 11.7721,7.3439 11.0001,6.7429 C10.2281,6.1429 9.7561,5.1289 9.9301,4.1669 C10.2001,2.6819 11.7561,1.8519 13.1351,1.2359 C13.4991,1.0739 13.8621,0.9119 14.2261,0.7499 L8.7551,0.7499 C8.5311,1.1339 8.2921,1.4929 7.8821,1.6039 C7.5251,1.7009 7.0311,1.6309 6.8921,1.9739 C6.8321,2.1229 6.8771,2.2909 6.9031,2.4509 C7.0541,3.3949 6.4531,4.3039 5.7391,4.9409 C5.0251,5.5779 4.1711,6.0579 3.5391,6.7769 C2.7671,7.6549 2.3981,8.8069 2.0481,9.9229 C1.9391,10.2719 1.8281,10.6449 1.9251,10.9969 C2.1101,11.6699 2.9671,11.9339 3.6491,11.7859 C4.3301,11.6379 4.9141,11.2109 5.5561,10.9379 C6.1981,10.6659 7.0161,10.5799 7.5311,11.0499 C5.8751,12.0759 4.8451,14.0369 4.9401,15.9819 C4.9841,16.8709 5.2711,17.7359 5.7261,18.4999 L10.0161,18.4999 C11.9761,18.4999 13.7971,17.9049 15.3101,16.8869 C15.5671,16.3989 15.7001,15.8619 15.6171,15.3129 C13.8921,15.3879 12.1651,15.4139 10.4391,15.3899 C9.4441,15.3759 7.2971,15.1179 7.0281,13.8589 C6.7931,12.7609 8.8251,10.7819 9.4581,10.0389 C9.6241,9.8439 9.8021,9.6419 10.0431,9.5569 C10.4051,9.4299 10.8051,9.6059 11.1041,9.8449 C12.3221,10.8229 12.6621,12.8809 14.1821,13.2349 C14.2541,12.3919 13.4671,11.7069 13.3441,10.8699 C13.2051,9.9189 14.0591,8.9979 15.0151,8.9119 C15.9721,8.8259 16.9041,9.4549 17.3441,10.3089 C17.6581,10.9179 17.7571,11.6229 18.0991,12.2169 C18.2401,12.4619 18.4531,12.6829 18.6951,12.8399 C19.2131,11.6679 19.5061,10.3739 19.5061,9.0099 L19.5061,4.9899 Z" id="Fill-5" fill="#ECECD3"></path>
                            <path d="M7.5309,11.0503 C7.0159,10.5793 6.1979,10.6663 5.5559,10.9383 C4.9139,11.2103 4.3309,11.6383 3.6489,11.7863 C2.9679,11.9343 2.1099,11.6703 1.9259,10.9973 C1.8289,10.6443 1.9389,10.2723 2.0479,9.9233 C2.3979,8.8073 2.7669,7.6553 3.5399,6.7763 C4.1709,6.0583 5.0259,5.5773 5.7389,4.9413 C6.4529,4.3043 7.0539,3.3953 6.9029,2.4503 C6.8779,2.2913 6.8319,2.1233 6.8929,1.9733 C7.0309,1.6313 7.5259,1.7003 7.8819,1.6043 C8.2919,1.4923 8.5309,1.1343 8.7549,0.7503 L5.3469,0.7503 C2.6699,0.7503 0.4999,2.9203 0.4999,5.5963 L0.4999,14.3203 C0.4999,16.6283 2.3709,18.5003 4.6799,18.5003 L5.7269,18.5003 C5.2709,17.7363 4.9839,16.8713 4.9399,15.9823 C4.8449,14.0363 5.8749,12.0763 7.5309,11.0503" id="Fill-7" fill="#FFFEED"></path>
                            <path d="M18.0988,12.2167 C17.7568,11.6227 17.6578,10.9177 17.3438,10.3087 C16.9038,9.4557 15.9718,8.8257 15.0158,8.9117 C14.0588,8.9977 13.2058,9.9187 13.3438,10.8697 C13.4668,11.7067 14.2538,12.3917 14.1828,13.2347 C12.6618,12.8807 12.3218,10.8227 11.1038,9.8447 C10.8058,9.6057 10.4048,9.4297 10.0438,9.5567 C9.8018,9.6417 9.6248,9.8447 9.4588,10.0387 C8.8248,10.7817 6.7938,12.7607 7.0278,13.8587 C7.2968,15.1177 9.4438,15.3757 10.4388,15.3897 C12.1648,15.4137 13.8918,15.3887 15.6168,15.3127 C15.6998,15.8627 15.5678,16.3987 15.3098,16.8867 C16.7888,15.8907 17.9668,14.4877 18.6948,12.8397 C18.4528,12.6827 18.2398,12.4627 18.0988,12.2167" id="Fill-9" fill="#FFFEED"></path>
                        </g>
                    </g>
                </g>
            </g>
        </g>
    </g>
</svg>