<?xml version="1.0" encoding="UTF-8" standalone="no"?>
<svg width="16px" height="52px" viewBox="0 0 16 52" version="1.1" xmlns="http://www.w3.org/2000/svg" xmlns:xlink="http://www.w3.org/1999/xlink" xmlns:sketch="http://www.bohemiancoding.com/sketch/ns">
    <!-- Generator: Sketch 3.4 (15575) - http://www.bohemiancoding.com/sketch -->
    <title>Page 1</title>
    <desc>Created with Sketch.</desc>
    <defs></defs>
    <g id="Page-1" stroke="none" stroke-width="1" fill="none" fill-rule="evenodd" sketch:type="MSPage">
        <g id="Doctor---Patient-Landing-Page---Patient---Perio-Chart" sketch:type="MSArtboardGroup" transform="translate(-741.000000, -653.000000)">
            <g id="Chart" sketch:type="MSLayerGroup" transform="translate(271.000000, 398.000000)">
                <g id="Form" transform="translate(0.000000, 24.000000)" sketch:type="MSShapeGroup">
                    <g id="Row-11" transform="translate(462.000000, 197.000000)">
                        <g id="Page-1" transform="translate(8.000000, 34.000000)">
                            <path d="M0.8531,40.8944 C1.2521,38.5374 2.6591,36.7074 3.2391,34.4894 C3.7171,32.6584 3.2641,30.1814 3.3131,28.2654 C3.3811,25.5934 3.4481,22.9224 3.5161,20.2504 C3.6011,16.9114 3.9271,13.5654 4.6141,10.2954 C4.9601,8.6474 5.3991,7.0174 5.9711,5.4344 C6.4861,4.0104 6.6781,2.5754 7.1891,1.1464 C7.2451,0.9894 7.3051,0.8274 7.4231,0.7094 C7.5461,0.5884 7.7191,0.5284 7.8911,0.5104 C8.5731,0.4354 9.2071,0.9574 9.4891,1.5824 C9.7701,2.2084 9.7781,2.9184 9.7801,3.6044 C9.7871,5.4194 9.7931,7.2364 9.6871,9.0484 C9.5861,10.7734 9.3831,12.4924 9.3201,14.2194 C9.1451,18.9504 10.3761,23.2244 11.4431,27.7694 C12.4601,32.1014 12.4041,36.6704 13.8341,40.8834 C14.3441,42.3834 15.0491,43.9154 14.8101,45.4814 C14.5761,47.0114 13.6641,47.9404 12.4811,48.8254 C11.1861,49.7934 9.9951,50.6334 8.4401,51.2134 C8.0591,51.3554 7.6651,51.4844 7.2581,51.4984 C6.2351,51.5344 5.3351,50.8564 4.5941,50.1514 C4.2481,49.8224 3.9131,49.4784 3.5161,49.2134 C2.8601,48.7744 1.9151,48.7424 1.3911,48.1454 C0.9321,47.6234 0.7371,46.7304 0.6291,46.0674 C0.3511,44.3664 0.5681,42.5804 0.8531,40.8944 L0.8531,40.8944 Z" id="Stroke-1" stroke="#F99B3B"></path>
                            <path d="M7.7393,32.9828 C8.1483,33.0758 8.5013,33.3238 8.8433,33.5668 C9.0953,33.7458 9.3453,33.9258 9.5973,34.1058 C9.6883,34.5738 9.7663,35.0458 9.8273,35.5208 C10.5183,40.9048 9.0013,46.2828 7.3663,51.4818 C7.3303,51.4848 7.2943,51.4978 7.2573,51.4988 C6.2353,51.5338 5.3353,50.8568 4.5943,50.1518 C4.2483,49.8228 3.9133,49.4778 3.5163,49.2128 C2.8593,48.7738 1.9153,48.7428 1.3913,48.1458 C0.9323,47.6228 0.7373,46.7308 0.6283,46.0678 C0.3513,44.3668 0.5683,42.5808 0.8533,40.8948 C1.2223,38.7088 2.4503,36.9738 3.0913,34.9658 C3.7433,34.6948 4.3793,34.3918 4.9763,34.0148 C5.8323,33.4748 6.7523,32.7578 7.7393,32.9828" id="Fill-3" fill="#FFFEED"></path>
                            <path d="M6.9345,24.2026 C7.6225,27.5516 8.9475,30.7586 9.5975,34.1056 C9.3455,33.9256 9.0945,33.7456 8.8435,33.5666 C8.5015,33.3236 8.1475,33.0756 7.7395,32.9826 C6.7515,32.7576 5.8325,33.4746 4.9755,34.0156 C4.3795,34.3916 3.7425,34.6946 3.0915,34.9656 C3.1415,34.8076 3.1965,34.6516 3.2385,34.4896 C3.7175,32.6586 3.2645,30.1816 3.3125,28.2656 C3.3805,25.5936 3.4485,22.9216 3.5165,20.2506 C3.6015,16.9116 3.9265,13.5656 4.6135,10.2946 C4.9595,8.6476 5.3995,7.0176 5.9715,5.4346 C6.4855,4.0106 6.6785,2.5756 7.1895,1.1466 C7.2455,0.9896 7.3055,0.8276 7.4235,0.7096 C7.5455,0.5876 7.7195,0.5286 7.8905,0.5096 C8.5615,0.4366 9.1815,0.9416 9.4705,1.5526 C7.1345,8.9186 5.3885,16.6746 6.9345,24.2026" id="Fill-5" fill="#F3D498"></path>
                            <path d="M14.8099,45.4819 C14.5759,47.0119 13.6639,47.9409 12.4809,48.8259 C11.1859,49.7939 9.9949,50.6339 8.4409,51.2139 C8.0929,51.3429 7.7349,51.4509 7.3669,51.4819 C9.0009,46.2829 10.5189,40.9049 9.8279,35.5209 C9.7669,35.0459 9.6879,34.5739 9.5969,34.1059 C10.6859,34.8839 11.7689,35.6719 12.8029,36.5199 C13.0449,37.9989 13.3519,39.4629 13.8339,40.8839 C14.3439,42.3839 15.0489,43.9159 14.8099,45.4819" id="Fill-7" fill="#ECECD3"></path>
                            <path d="M6.9345,24.2026 C5.3885,16.6746 7.1345,8.9186 9.4705,1.5526 C9.4755,1.5636 9.4845,1.5726 9.4885,1.5826 C9.7705,2.2086 9.7775,2.9186 9.7805,3.6046 C9.7865,5.4196 9.7925,7.2366 9.6865,9.0486 C9.5865,10.7736 9.3835,12.4926 9.3195,14.2196 C9.1455,18.9506 10.3765,23.2246 11.4435,27.7696 C12.1175,30.6396 12.3265,33.6136 12.8025,36.5196 C11.7685,35.6726 10.6865,34.8836 9.5975,34.1056 C8.9475,30.7586 7.6225,27.5516 6.9345,24.2026" id="Fill-9" fill="#E6C78C"></path>
                        </g>
                    </g>
                </g>
            </g>
        </g>
    </g>
</svg>