<?xml version="1.0" encoding="UTF-8" standalone="no"?>
<svg width="16px" height="20px" viewBox="0 0 16 20" version="1.1" xmlns="http://www.w3.org/2000/svg" xmlns:xlink="http://www.w3.org/1999/xlink" xmlns:sketch="http://www.bohemiancoding.com/sketch/ns">
    <!-- Generator: Sketch 3.4 (15575) - http://www.bohemiancoding.com/sketch -->
    <title>Page 1</title>
    <desc>Created with Sketch.</desc>
    <defs></defs>
    <g id="Page-1" stroke="none" stroke-width="1" fill="none" fill-rule="evenodd" sketch:type="MSPage">
        <g id="Doctor---Patient-Landing-Page---Patient---Perio-Chart" sketch:type="MSArtboardGroup" transform="translate(-645.000000, -737.000000)">
            <g id="Chart" sketch:type="MSLayerGroup" transform="translate(271.000000, 398.000000)">
                <g id="Form" transform="translate(0.000000, 24.000000)" sketch:type="MSShapeGroup">
                    <g id="Row-8" transform="translate(365.000000, 197.000000)">
                        <g id="Page-1" transform="translate(9.000000, 118.000000)">
                            <path d="M6.3368,0.7099 L13.3408,0.7099 C13.8148,0.7099 14.3158,1.1679 14.5178,1.5959 C14.6628,1.9039 14.6668,2.2559 14.6678,2.5959 C14.6738,3.7719 14.6788,4.9469 14.6838,6.1229 C14.6878,6.9599 14.6898,7.8119 14.4548,8.6159 C14.2898,9.1789 14.0138,9.7009 13.7568,10.2279 C12.8508,12.0829 12.1548,14.0409 11.6868,16.0519 C11.4888,16.9069 11.3298,17.7749 11.0328,18.6009 C10.9598,18.8049 10.8718,19.0149 10.7048,19.1529 C10.4848,19.3349 10.1768,19.3549 9.8918,19.3669 C8.8808,19.4089 7.8698,19.4509 6.8588,19.4919 C6.5118,19.5069 6.1478,19.5179 5.8368,19.3619 C5.5078,19.1969 5.2938,18.8729 5.1038,18.5589 C3.5788,16.0419 2.6028,13.2349 1.7498,10.4189 C1.1268,8.3629 0.4368,6.2019 0.5048,4.0279 C0.5358,3.0309 0.7308,1.8939 1.5018,1.1839 C2.5808,0.1919 4.9648,0.6879 6.3368,0.7099 L6.3368,0.7099 Z" id="Stroke-1" stroke="#F99B3B"></path>
                            <path d="M6.3368,0.7099 L13.3408,0.7099 C13.8148,0.7099 14.3158,1.1679 14.5178,1.5959 C14.6628,1.9039 14.6668,2.2559 14.6678,2.5959 C14.6738,3.7719 14.6788,4.9469 14.6838,6.1229 C14.6878,6.9599 14.6898,7.8119 14.4548,8.6159 C14.2898,9.1789 14.0138,9.7009 13.7568,10.2279 C12.8508,12.0829 12.1548,14.0409 11.6868,16.0519 C11.4888,16.9069 11.3298,17.7749 11.0328,18.6009 C10.9598,18.8049 10.8718,19.0149 10.7048,19.1529 C10.4848,19.3349 10.1768,19.3549 9.8918,19.3669 C8.8808,19.4089 7.8698,19.4509 6.8588,19.4919 C6.5118,19.5069 6.1478,19.5179 5.8368,19.3619 C5.5078,19.1969 5.2938,18.8729 5.1038,18.5589 C3.5788,16.0419 2.6028,13.2349 1.7498,10.4189 C1.1268,8.3629 0.4368,6.2019 0.5048,4.0279 C0.5358,3.0309 0.7308,1.8939 1.5018,1.1839 C2.5808,0.1919 4.9648,0.6879 6.3368,0.7099" id="Fill-3" fill="#FFFEED"></path>
                            <path d="M6.189,5.8792 C7.087,5.8652 7.985,5.8512 8.883,5.8382 C9.424,5.8292 10.007,5.8332 10.447,6.1492 C11.031,6.5692 11.153,7.4112 10.986,8.1112 C10.819,8.8112 10.426,9.4332 10.157,10.1012 C9.75,11.1122 9.635,12.2542 9.926,13.3042 C10.27,13.3482 10.532,13.0152 10.717,12.7202 C11.692,11.1642 12.681,9.5772 13.148,7.8012 C13.615,6.0252 13.488,3.9982 12.376,2.5362 C12.051,2.1102 11.636,1.7322 11.128,1.5602 C10.704,1.4172 10.246,1.4262 9.799,1.4362 C8.026,1.4762 6.253,1.5172 4.481,1.5572 C3.886,1.5712 3.263,1.5922 2.749,1.8912 C1.714,2.4922 1.662,4.2322 2.658,4.8952 C2.846,5.0192 3.06,5.1112 3.209,5.2802 C4.053,6.2442 2.121,8.1452 3.612,8.7882 C4.457,7.5482 4.242,5.9092 6.189,5.8792" id="Fill-5" fill="#ECECD3"></path>
                        </g>
                    </g>
                </g>
            </g>
        </g>
    </g>
</svg>