<?xml version="1.0" encoding="UTF-8" standalone="no"?>
<svg width="18px" height="38px" viewBox="0 0 18 38" version="1.1" xmlns="http://www.w3.org/2000/svg" xmlns:xlink="http://www.w3.org/1999/xlink" xmlns:sketch="http://www.bohemiancoding.com/sketch/ns">
    <!-- Generator: Sketch 3.4 (15575) - http://www.bohemiancoding.com/sketch -->
    <title>Page 1</title>
    <desc>Created with Sketch.</desc>
    <defs></defs>
    <g id="Page-1" stroke="none" stroke-width="1" fill="none" fill-rule="evenodd" sketch:type="MSPage">
        <g id="Doctor---Patient-Landing-Page---Patient---Perio-Chart" sketch:type="MSArtboardGroup" transform="translate(-868.000000, -658.000000)">
            <g id="Chart" sketch:type="MSLayerGroup" transform="translate(271.000000, 398.000000)">
                <g id="Form" transform="translate(0.000000, 24.000000)" sketch:type="MSShapeGroup">
                    <g id="Row-15" transform="translate(590.000000, 197.000000)">
                        <g id="Page-1" transform="translate(7.000000, 39.000000)">
                            <path d="M1.7486,24.0263 C1.7086,24.0923 1.6676,24.1583 1.6246,24.2253 C0.7836,25.5373 0.4496,27.7943 0.5066,29.3843 C0.5536,30.7213 0.9166,32.0983 0.8656,33.4313 C0.7986,35.1563 1.2056,35.7553 2.6556,36.6323 C3.4246,37.0973 4.1976,37.3793 5.0986,37.4733 C6.0786,37.5753 7.1276,37.3953 7.8906,36.7723 C8.0366,36.6543 8.1786,36.5163 8.3596,36.4673 C8.6416,36.3913 8.9266,36.5473 9.1896,36.6733 C10.8686,37.4753 13.9746,37.9073 15.4506,36.4103 C16.1946,35.6563 16.2686,34.1143 16.4616,33.1313 C16.7566,31.6253 16.9576,30.0893 16.8676,28.5513 C16.7846,27.1223 16.4506,25.7103 15.8466,24.4103 C15.5086,23.6823 15.0756,22.9963 14.8196,22.2353 C14.6136,21.6273 14.5256,20.9853 14.4396,20.3493 C14.0836,17.7403 13.5556,15.3523 13.7836,12.6813 C14.0086,10.0403 14.6326,7.4523 15.2926,4.8923 C15.4176,4.4073 15.5426,3.8853 15.3646,3.4173 C15.1276,2.7913 14.3986,2.4643 13.7286,2.4863 C13.0596,2.5073 12.4326,2.8003 11.8276,3.0893 C11.0856,2.7633 11.8056,1.4203 11.2046,0.8773 C10.8446,0.5523 10.2536,0.7623 9.9046,1.0983 C9.5546,1.4343 9.3026,1.8843 8.8786,2.1183 C8.3106,2.4323 7.6096,2.2733 6.9656,2.3563 C5.5996,2.5323 4.6296,3.7763 4.0416,5.0223 C2.8406,7.5623 2.5836,10.4413 2.5706,13.2513 C2.5606,15.4883 2.5596,17.7263 2.6386,19.9623 C2.6976,21.6023 2.5526,22.6953 1.7486,24.0263 L1.7486,24.0263 Z" id="Stroke-1" stroke="#F99B3B"></path>
                            <path d="M4.9146,35.4615 C7.0146,34.6245 7.9846,32.2395 8.6056,30.0665 L9.5396,34.3355 C9.5796,34.5165 9.6256,34.7095 9.7606,34.8355 C9.8786,34.9465 10.0446,34.9875 10.2036,35.0215 C11.5326,35.3035 13.0626,35.3495 14.0936,34.4635 C15.2626,33.4585 15.3146,31.6145 14.7526,30.1785 C14.4786,29.4765 14.0826,28.8165 13.9166,28.0815 C13.6916,27.0825 13.9086,26.0205 13.6576,25.0275 C13.4836,24.3385 13.1006,23.7375 12.7076,23.1375 C12.8396,23.1615 12.9736,23.1745 13.1056,23.2025 C14.0396,23.4025 14.9496,23.7545 15.7656,24.2465 C15.7916,24.3015 15.8206,24.3555 15.8466,24.4105 C16.4506,25.7105 16.7846,27.1225 16.8676,28.5515 C16.9576,30.0895 16.7566,31.6255 16.4616,33.1315 C16.2686,34.1145 16.1946,35.6555 15.4506,36.4105 C13.9746,37.9075 10.8686,37.4755 9.1896,36.6735 C8.9266,36.5475 8.6416,36.3915 8.3596,36.4675 C8.1786,36.5165 8.0366,36.6545 7.8906,36.7725 C7.1276,37.3955 6.0786,37.5755 5.0986,37.4735 C4.1976,37.3795 3.4246,37.0975 2.6556,36.6325 C2.0756,36.2815 1.6686,35.9735 1.3866,35.6215 C2.5786,35.8185 3.8046,35.9035 4.9146,35.4615" id="Fill-3" fill="#ECECD3"></path>
                            <path d="M12.7075,23.1374 C12.3765,22.6314 12.0395,22.1274 11.8155,21.5704 C11.0305,19.6174 11.7555,17.4164 12.4805,15.4394 C12.8505,14.4294 13.2485,13.4054 13.8055,12.4944 C13.7995,12.5564 13.7885,12.6184 13.7835,12.6814 C13.5555,15.3524 14.0845,17.7404 14.4395,20.3494 C14.5255,20.9854 14.6135,21.6274 14.8195,22.2354 C15.0565,22.9384 15.4405,23.5794 15.7655,24.2464 C14.9495,23.7544 14.0405,23.4024 13.1055,23.2024 C12.9735,23.1744 12.8395,23.1614 12.7075,23.1374" id="Fill-5" fill="#E6C78C"></path>
                            <path d="M8.4617,22.8822 C9.8817,22.8732 11.3117,22.8892 12.7077,23.1372 C13.0997,23.7372 13.4837,24.3382 13.6577,25.0282 C13.9087,26.0202 13.6917,27.0822 13.9167,28.0812 C14.0827,28.8162 14.4787,29.4762 14.7527,30.1782 C15.3147,31.6152 15.2627,33.4582 14.0927,34.4632 C13.0627,35.3492 11.5317,35.3042 10.2037,35.0212 C10.0447,34.9872 9.8787,34.9472 9.7607,34.8362 C9.6257,34.7092 9.5797,34.5162 9.5397,34.3352 C9.2287,32.9122 8.9177,31.4892 8.6057,30.0662 C7.9847,32.2402 7.0147,34.6252 4.9147,35.4612 C3.8047,35.9032 2.5787,35.8182 1.3857,35.6222 C0.9617,35.0942 0.8247,34.4672 0.8657,33.4312 C0.9167,32.0982 0.5537,30.7222 0.5057,29.3842 C0.4497,27.7942 0.7827,25.5372 1.6247,24.2252 C1.6477,24.1892 1.6697,24.1532 1.6917,24.1172 C2.3467,23.7482 3.0627,23.4732 3.7917,23.2922 C5.3127,22.9162 6.8957,22.8912 8.4617,22.8822" id="Fill-7" fill="#FFFEED"></path>
                            <path d="M7.3057,8.6806 C7.2407,9.8106 7.2917,11.0386 7.9907,11.9296 C8.9697,8.7076 10.1397,5.5446 11.4707,2.4506 C11.4917,2.7346 11.5687,2.9756 11.8277,3.0886 C12.2687,2.8786 12.7237,2.6676 13.1967,2.5596 C13.0087,3.0906 12.9057,3.6636 12.8107,4.2226 C12.3897,6.6996 11.7187,9.1256 11.0487,11.5476 C10.4077,13.8626 9.7477,16.2206 8.4227,18.2236 C8.2177,18.5326 7.8467,18.8686 7.5297,18.6776 C7.4017,18.5996 7.3317,18.4546 7.2707,18.3176 C6.3487,16.2566 5.6397,14.0996 5.1577,11.8936 C4.7117,9.8506 4.4727,7.6546 5.2647,5.7186 C5.7447,4.5456 6.5857,3.5076 7.0557,2.3506 C7.5997,2.2986 8.1717,2.3736 8.6717,2.1936 C8.6177,2.3446 8.5637,2.4956 8.5107,2.6466 C7.8317,4.5886 7.4247,6.6266 7.3057,8.6806" id="Fill-9" fill="#E6C78C"></path>
                            <path d="M7.9908,11.9293 C7.2918,11.0383 7.2408,9.8113 7.3058,8.6803 C7.4248,6.6263 7.8318,4.5883 8.5108,2.6463 C8.5638,2.4963 8.6178,2.3443 8.6718,2.1933 C8.7408,2.1683 8.8128,2.1553 8.8778,2.1183 C9.3028,1.8843 9.5548,1.4343 9.9038,1.0983 C10.2538,0.7623 10.8448,0.5523 11.2038,0.8773 C11.5958,1.2313 11.4308,1.9213 11.4708,2.4513 C10.1398,5.5443 8.9698,8.7073 7.9908,11.9293" id="Fill-11" fill="#F3D498"></path>
                            <path d="M6.6778,20.1587 C6.8678,20.0297 7.0418,19.8717 7.2528,19.7817 C7.7478,19.5717 8.3098,19.7737 8.8218,19.9377 C9.7068,20.2207 10.6218,20.3807 11.5438,20.4967 C11.5968,20.8607 11.6748,21.2207 11.8158,21.5707 C12.0398,22.1267 12.3768,22.6317 12.7078,23.1377 C11.3118,22.8887 9.8818,22.8737 8.4618,22.8827 C6.8958,22.8917 5.3128,22.9157 3.7918,23.2927 C3.0628,23.4727 2.3468,23.7487 1.6918,24.1177 C1.7108,24.0877 1.7308,24.0567 1.7488,24.0267 C2.4008,22.9457 2.6158,22.0187 2.6438,20.8317 C2.8668,20.7967 3.0908,20.7717 3.3088,20.7617 C4.4658,20.7117 5.7208,20.8117 6.6778,20.1587" id="Fill-13" fill="#E6C78C"></path>
                            <path d="M13.8057,12.4943 C13.2487,13.4063 12.8507,14.4293 12.4797,15.4393 C11.8857,17.0623 11.3047,18.8333 11.5447,20.4963 C10.6217,20.3803 9.7067,20.2203 8.8227,19.9373 C8.3097,19.7733 7.7477,19.5713 7.2527,19.7823 C7.0417,19.8723 6.8677,20.0293 6.6777,20.1583 C5.7207,20.8113 4.4657,20.7113 3.3087,20.7623 C3.0907,20.7713 2.8667,20.7973 2.6437,20.8323 C2.6507,20.5563 2.6497,20.2713 2.6387,19.9623 C2.5597,17.7263 2.5607,15.4883 2.5707,13.2513 C2.5837,10.4413 2.8407,7.5623 4.0417,5.0223 C4.6297,3.7763 5.5997,2.5323 6.9657,2.3563 C6.9957,2.3523 7.0267,2.3533 7.0557,2.3503 C6.5857,3.5073 5.7447,4.5453 5.2647,5.7193 C4.4727,7.6543 4.7117,9.8513 5.1577,11.8943 C5.6397,14.1003 6.3487,16.2563 7.2707,18.3173 C7.3317,18.4553 7.4017,18.5993 7.5297,18.6773 C7.8467,18.8693 8.2177,18.5323 8.4227,18.2233 C9.7477,16.2203 10.4077,13.8623 11.0487,11.5473 C11.7187,9.1263 12.3897,6.6993 12.8107,4.2223 C12.9057,3.6633 13.0087,3.0903 13.1967,2.5593 C13.3717,2.5193 13.5487,2.4913 13.7287,2.4863 C14.3987,2.4643 15.1277,2.7913 15.3647,3.4173 C15.5427,3.8853 15.4177,4.4073 15.2927,4.8923 C14.6487,7.3913 14.0437,9.9183 13.8057,12.4943" id="Fill-15" fill="#F3D498"></path>
                        </g>
                    </g>
                </g>
            </g>
        </g>
    </g>
</svg>