<?xml version="1.0" encoding="UTF-8" standalone="no"?>
<svg width="15px" height="44px" viewBox="0 0 15 44" version="1.1" xmlns="http://www.w3.org/2000/svg" xmlns:xlink="http://www.w3.org/1999/xlink" xmlns:sketch="http://www.bohemiancoding.com/sketch/ns">
    <!-- Generator: Sketch 3.4 (15575) - http://www.bohemiancoding.com/sketch -->
    <title>Page 1</title>
    <desc>Created with Sketch.</desc>
    <defs></defs>
    <g id="Page-1" stroke="none" stroke-width="1" fill="none" fill-rule="evenodd" sketch:type="MSPage">
        <g id="Doctor---Patient-Landing-Page---Patient---Perio-Chart" sketch:type="MSArtboardGroup" transform="translate(-550.000000, -652.000000)">
            <g id="Chart" sketch:type="MSLayerGroup" transform="translate(271.000000, 398.000000)">
                <g id="Form" transform="translate(0.000000, 24.000000)" sketch:type="MSShapeGroup">
                    <g id="Row-5" transform="translate(270.000000, 197.000000)">
                        <g id="Tooth---5" transform="translate(8.000000, 34.000000)">
                            <g id="Page-1" transform="translate(1.000000, 0.000000)">
                                <path d="M2.4712,39.9051 C2.4712,39.9051 4.3882,42.3221 5.9712,42.4881 C7.5542,42.6551 10.4712,40.9711 11.0542,40.6461 C11.6382,40.3221 13.9712,39.8871 13.9712,38.9381 C13.9712,37.9881 10.3882,24.1551 9.9712,16.2381 C9.5542,8.3221 8.2212,0.8221 7.0542,0.4881 C5.8882,0.1551 4.8042,1.3221 4.8042,1.3221 C4.8042,1.3221 3.8882,0.1191 3.3042,0.4281 C2.7212,0.7381 2.8882,5.1551 3.0542,5.6551 C3.0542,5.6551 4.8882,18.6551 4.1382,22.1551 C3.3882,25.6551 2.2212,28.1551 1.7212,29.4881 C1.2212,30.8221 0.2612,33.7251 0.5542,36.7271 C0.6702,37.9101 0.8042,36.3221 2.4712,39.9051 L2.4712,39.9051 Z" id="Stroke-1" stroke="#F99B3B"></path>
                                <path d="M8.4032,26.1388 C8.4362,26.7408 8.4932,27.3398 8.6142,27.9298 C8.7802,28.7378 9.0602,29.5188 9.2402,30.3238 C9.4222,31.1328 9.5032,31.9608 9.5502,32.7888 C9.7212,35.8318 9.3982,38.8938 8.6512,41.8478 C7.7132,42.2438 6.7022,42.5658 5.9712,42.4888 C4.3882,42.3218 2.4712,39.9048 2.4712,39.9048 C0.8042,36.3218 0.6702,37.9098 0.5542,36.7268 C0.2612,33.7248 1.2212,30.8218 1.7212,29.4888 C1.9482,28.8828 2.3152,28.0238 2.7162,26.9518 C3.8972,26.3918 5.1872,26.0598 6.4932,26.0098 C7.1322,25.9858 7.7722,26.0348 8.4032,26.1388" id="Fill-3" fill="#FFFEED"></path>
                                <path d="M8.9373,16.8752 C8.2533,19.4272 8.3023,22.1112 8.3563,24.7532 C8.3653,25.2142 8.3783,25.6772 8.4033,26.1392 C7.7723,26.0352 7.1323,25.9862 6.4933,26.0102 C5.1863,26.0602 3.8973,26.3912 2.7163,26.9512 C3.1973,25.6642 3.7283,24.0642 4.1383,22.1552 C4.3783,21.0342 4.3523,18.9362 4.2083,16.6042 C5.2703,11.5252 4.6203,6.1572 5.2043,0.9742 C5.6233,0.6612 6.3223,0.2792 7.0543,0.4882 C8.0283,0.7662 9.1153,6.0372 9.6913,12.3722 C9.6783,13.1932 9.6543,14.0162 9.4953,14.8202 C9.3573,15.5162 9.1213,16.1892 8.9373,16.8752" id="Fill-5" fill="#F3D498"></path>
                                <path d="M3.0546,5.6551 C2.8876,5.1551 2.7216,0.7381 3.3046,0.4281 C3.8876,0.1191 4.8046,1.3221 4.8046,1.3221 C4.8046,1.3221 4.9556,1.1601 5.2036,0.9741 C4.6206,6.1581 5.2706,11.5251 4.2076,16.6051 C3.9006,11.6581 3.0546,5.6551 3.0546,5.6551" id="Fill-7" fill="#E6C78C"></path>
                                <path d="M11.0546,40.6463 C10.7406,40.8213 9.7466,41.3863 8.6516,41.8483 C9.3986,38.8933 9.7216,35.8313 9.5506,32.7893 C9.5036,31.9613 9.4226,31.1323 9.2406,30.3233 C9.0596,29.5183 8.7806,28.7373 8.6146,27.9293 C8.4936,27.3393 8.4366,26.7403 8.4036,26.1383 C9.4976,26.3193 10.5586,26.6853 11.5296,27.2193 C12.6586,33.0663 13.9716,38.3633 13.9716,38.9383 C13.9716,39.8873 11.6376,40.3213 11.0546,40.6463" id="Fill-9" fill="#ECECD3"></path>
                                <path d="M8.3561,24.753 C8.3021,22.111 8.2531,19.427 8.9371,16.875 C9.1211,16.189 9.3571,15.517 9.4951,14.82 C9.6541,14.016 9.6781,13.193 9.6911,12.373 C9.8061,13.631 9.9021,14.927 9.9711,16.238 C10.1361,19.363 10.7941,23.408 11.5301,27.219 C10.5581,26.685 9.4971,26.319 8.4031,26.139 C8.3781,25.677 8.3651,25.215 8.3561,24.753" id="Fill-11" fill="#E6C78C"></path>
                            </g>
                        </g>
                    </g>
                </g>
            </g>
        </g>
    </g>
</svg>