<?xml version="1.0" encoding="UTF-8" standalone="no"?>
<svg width="21px" height="40px" viewBox="0 0 21 40" version="1.1" xmlns="http://www.w3.org/2000/svg" xmlns:xlink="http://www.w3.org/1999/xlink" xmlns:sketch="http://www.bohemiancoding.com/sketch/ns">
    <!-- Generator: Sketch 3.4 (15575) - http://www.bohemiancoding.com/sketch -->
    <title>Page 1</title>
    <desc>Created with Sketch.</desc>
    <defs>
        <path id="path-1" d="M2.975,1.199 C1.565,1.738 0.572,5.45 0.502,7.449 L0.502,7.449 C0.446,9.017 1.696,12.836 2.237,14.411 L2.237,14.411 C2.42,14.943 2.824,15.359 3.347,15.565 L3.347,15.565 C6.268,16.712 15.329,18.548 17.921,14.738 L17.921,14.738 C20.912,10.341 20.048,4.15 19.138,2.773 L19.138,2.773 C18.2,1.354 14.865,0.989 13.697,0.995 L13.697,0.995 C12.249,1.003 10.495,1.842 8.96,1.745 L8.96,1.745 C8.461,1.714 7.258,0.775 6.327,0.735 L6.327,0.735 C6.006,0.721 5.721,0.71 5.45,0.71 L5.45,0.71 C4.67,0.71 4.01,0.803 2.975,1.199"></path>
    </defs>
    <g id="Page-1" stroke="none" stroke-width="1" fill="none" fill-rule="evenodd" sketch:type="MSPage">
        <g id="Doctor---Patient-Landing-Page---Patient---Perio-Chart" sketch:type="MSArtboardGroup" transform="translate(-835.000000, -837.000000)">
            <g id="Chart" sketch:type="MSLayerGroup" transform="translate(271.000000, 398.000000)">
                <g id="Form" transform="translate(0.000000, 24.000000)">
                    <g id="Row-14" transform="translate(558.000000, 197.000000)">
                        <g id="Page-1" transform="translate(6.000000, 218.000000)">
                            <g id="Group-9" sketch:type="MSShapeGroup">
                                <path d="M18.8456,20.8891 C18.3976,18.8661 18.0756,14.7311 18.5476,13.6791 C18.5496,13.6761 18.5466,13.6731 18.5476,13.6701 C20.7686,9.3971 19.9766,4.0421 19.1376,2.7741 C18.1996,1.3541 14.8656,0.9891 13.6976,0.9951 C12.2496,1.0021 10.4946,1.8411 8.9596,1.7451 C8.4606,1.7141 7.2576,0.7751 6.3276,0.7351 C5.0826,0.6811 4.3696,0.6651 2.9756,1.1991 C1.5656,1.7381 0.5726,5.4501 0.5016,7.4491 C0.4466,9.0161 1.6956,12.8371 2.2376,14.4111 C2.2376,14.4111 2.3876,15.3561 2.5276,16.5581 C2.7036,18.0671 2.8646,19.9831 2.6906,20.9511 C2.3786,22.6911 2.0046,36.0041 6.9656,39.1151 C9.0796,40.4401 8.9656,38.0061 8.7946,36.9281 C8.6236,35.8581 7.7426,28.9691 8.2416,26.6521 C8.7406,24.3351 10.1946,20.9681 10.9386,21.1611 C11.2916,21.2531 12.7316,22.2421 13.7206,25.0121 C14.7196,27.8131 15.3596,32.2781 16.0896,36.1581 C16.2586,37.0581 16.7526,37.8821 17.5146,38.3901 C18.0286,38.7331 18.5826,38.8601 18.9086,38.2041 C19.6416,36.7301 19.5406,23.1341 19.0136,21.5311 C18.9566,21.3571 18.9006,21.1361 18.8456,20.8891 L18.8456,20.8891 Z" id="Stroke-1" stroke="#F99B3B"></path>
                                <path d="M14.2271,21.756 C13.6021,19.631 8.7901,18.693 6.2901,18.881 C5.0651,18.973 3.6521,17.789 2.5281,16.558 C2.7041,18.067 2.8641,19.983 2.6901,20.951 C2.3781,22.691 2.0051,36.004 6.9651,39.115 C9.0791,40.44 8.9661,38.006 8.7941,36.928 C8.6231,35.858 7.7421,28.969 8.2421,26.652 C8.7411,24.335 10.1951,20.968 10.9381,21.161 C11.2921,21.253 12.7321,22.242 13.7201,25.012 C14.7191,27.814 15.3601,32.278 16.0891,36.158 C16.2581,37.058 16.7521,37.882 17.5141,38.39 C18.0291,38.733 18.5821,38.86 18.9081,38.205 C19.6411,36.73 19.5401,23.134 19.0131,21.531 C18.9561,21.357 18.9001,21.136 18.8451,20.889 C18.4351,23.018 18.5561,27.312 18.4141,28.068 C18.2271,29.068 14.8521,23.881 14.2271,21.756" id="Fill-3" fill="#F3D498"></path>
                                <path d="M18.5478,13.679 C19.0778,12.499 2.2368,14.411 2.2368,14.411 C2.2368,14.411 2.3878,15.356 2.5278,16.558 C3.6518,17.789 5.0648,18.973 6.2898,18.881 C8.7898,18.693 13.6018,19.631 14.2268,21.756 C14.8518,23.881 18.2268,29.068 18.4148,28.068 C18.5568,27.312 18.4348,23.018 18.8458,20.889 C18.3968,18.866 18.0758,14.731 18.5478,13.679" id="Fill-5" fill="#E6C78C"></path>
                                <path d="M3.3473,15.5646 C2.8243,15.3586 2.4203,14.9426 2.2373,14.4106 C1.6953,12.8366 0.4463,9.0166 0.5013,7.4486 C0.5723,5.4496 1.5653,1.7386 2.9753,1.1986 C4.3703,0.6656 5.0823,0.6816 6.3273,0.7346 C7.2583,0.7746 8.4603,1.7136 8.9593,1.7456 C10.4953,1.8416 12.2493,1.0026 13.6973,0.9946 C14.8653,0.9886 18.1993,1.3546 19.1383,2.7736 C20.0483,4.1506 20.9123,10.3416 17.9203,14.7376 C15.3283,18.5486 6.2673,16.7116 3.3473,15.5646" id="Fill-7" fill="#FFFEED"></path>
                            </g>
                            <g id="Group-12">
                                <mask id="mask-2" sketch:name="Clip 11" fill="white">
                                    <use xlink:href="#path-1"></use>
                                </mask>
                                <g id="Clip-11"></g>
                                <path d="M9.7271,6.1935 C9.7271,6.1935 8.7441,3.6935 6.0571,4.1935 C3.3691,4.6935 3.9001,7.3185 3.2271,6.1935 C2.6141,5.1685 3.2271,2.2555 4.7271,2.0685 C6.2271,1.8815 8.1651,2.6935 8.9151,2.9435 C9.6651,3.1935 12.9151,1.9435 15.2891,2.3185 C17.6641,2.6935 22.4151,5.5065 22.4151,5.5065 L19.9951,14.9435 C19.9951,14.9435 12.6931,19.0155 13.7271,17.4645 C15.0601,15.4645 19.6441,6.5895 16.4141,4.2565 C14.6851,3.0065 11.7271,3.8185 11.6021,4.1305 C11.4771,4.4435 10.4771,6.8185 9.7271,6.1935" id="Fill-10" fill="#ECECD3" sketch:type="MSShapeGroup" mask="url(#mask-2)"></path>
                            </g>
                        </g>
                    </g>
                </g>
            </g>
        </g>
    </g>
</svg>