<?xml version="1.0" encoding="UTF-8" standalone="no"?>
<svg width="17px" height="17px" viewBox="0 0 17 17" version="1.1" xmlns="http://www.w3.org/2000/svg" xmlns:xlink="http://www.w3.org/1999/xlink" xmlns:sketch="http://www.bohemiancoding.com/sketch/ns">
    <!-- Generator: Sketch 3.4 (15575) - http://www.bohemiancoding.com/sketch -->
    <title>Page 1</title>
    <desc>Created with Sketch.</desc>
    <defs></defs>
    <g id="Page-1" stroke="none" stroke-width="1" fill="none" fill-rule="evenodd" sketch:type="MSPage">
        <g id="Doctor---Patient-Landing-Page---Patient---Perio-Chart" sketch:type="MSArtboardGroup" transform="translate(-901.000000, -711.000000)">
            <g id="Chart" sketch:type="MSLayerGroup" transform="translate(271.000000, 398.000000)">
                <g id="Form" transform="translate(0.000000, 24.000000)" sketch:type="MSShapeGroup">
                    <g id="Row-16" transform="translate(622.000000, 197.000000)">
                        <g id="Page-1" transform="translate(8.000000, 93.000000)">
                            <path d="M1.6559,12.0134 C1.6549,12.2564 1.6549,12.5074 1.7499,12.7304 C1.8779,13.0304 2.1549,13.2334 2.4199,13.4224 C3.9109,14.4844 5.5599,15.5954 7.3869,15.4934 C7.8999,15.4654 8.4009,15.3404 8.9029,15.2364 C10.4419,14.9184 12.8469,15.2944 14.1779,14.3744 C15.2429,13.6384 15.6729,11.7694 15.6779,10.6204 C15.6849,9.2844 15.5899,7.9494 15.4959,6.6174 C15.4289,5.6574 15.3609,4.6964 15.2929,3.7354 C15.2419,3.0024 15.1799,2.2364 14.7959,1.6104 C14.0779,0.4394 12.5159,0.1524 11.1429,0.1224 C8.2289,0.0564 5.3239,0.6234 2.5579,1.5444 C2.2459,1.6484 1.9309,1.7594 1.6629,1.9494 C0.9489,2.4544 0.8229,3.1544 0.7669,3.9454 C0.6989,4.8924 0.4839,5.8314 0.5009,6.7834 C0.5179,7.7384 1.1689,8.2754 1.4759,9.1404 C1.7969,10.0444 1.6619,11.0724 1.6559,12.0134 L1.6559,12.0134 Z" id="Stroke-1" stroke="#F99B3B"></path>
                            <path d="M1.6559,12.0134 C1.6549,12.2564 1.6549,12.5074 1.7499,12.7304 C1.8779,13.0304 2.1549,13.2334 2.4199,13.4224 C3.9109,14.4844 5.5599,15.5954 7.3869,15.4934 C7.8999,15.4654 8.4009,15.3404 8.9029,15.2364 C10.4419,14.9184 12.8469,15.2944 14.1779,14.3744 C15.2429,13.6384 15.6729,11.7694 15.6779,10.6204 C15.6849,9.2844 15.5899,7.9494 15.4959,6.6174 C15.4289,5.6574 15.3609,4.6964 15.2929,3.7354 C15.2419,3.0024 15.1799,2.2364 14.7959,1.6104 C14.0779,0.4394 12.5159,0.1524 11.1429,0.1224 C8.2289,0.0564 5.3239,0.6234 2.5579,1.5444 C2.2459,1.6484 1.9309,1.7594 1.6629,1.9494 C0.9489,2.4544 0.8229,3.1544 0.7669,3.9454 C0.6989,4.8924 0.4839,5.8314 0.5009,6.7834 C0.5179,7.7384 1.1689,8.2754 1.4759,9.1404 C1.7969,10.0444 1.6619,11.0724 1.6559,12.0134" id="Fill-3" fill="#FFFEED"></path>
                            <path d="M4.2194,9.3732 C6.3354,9.3712 8.4524,9.3692 10.5684,9.3672 C10.9774,9.3672 11.4874,9.4342 11.6194,9.8212 C11.7024,10.0632 11.5964,10.3562 11.7374,10.5692 C11.8604,10.7552 12.1314,10.7932 12.3394,10.7132 C12.5484,10.6342 12.7094,10.4672 12.8634,10.3052 C13.2464,9.9002 13.6294,9.4952 14.0124,9.0902 C14.0564,9.0432 14.1034,8.9922 14.1134,8.9282 C14.1264,8.8522 14.0844,8.7772 14.0354,8.7162 C13.5154,8.0642 12.2664,8.2572 11.9324,7.4932 C11.7714,7.1232 11.9204,6.6982 11.9264,6.2942 C11.9314,5.8902 11.6254,5.3972 11.2394,5.5172 C11.0814,5.5662 10.9704,5.7062 10.8764,5.8422 C10.5814,6.2702 10.3464,6.7392 10.1784,7.2322 C9.2964,6.0892 9.3564,4.5122 9.2794,3.0702 C9.2714,2.9272 9.2504,2.7632 9.1314,2.6832 C8.9214,2.5432 8.6684,2.7912 8.5504,3.0152 C8.1504,3.7702 7.9094,4.6092 7.8494,5.4622 C7.8234,5.8222 7.8284,6.1932 7.6974,6.5292 C7.5664,6.8662 7.2534,7.1652 6.8934,7.1452 C6.3974,7.1172 6.1354,6.5652 5.9304,6.1132 C5.5474,5.2672 4.7764,4.3942 3.8654,4.5732 C3.8224,5.5092 4.1014,6.4562 4.6444,7.2192 C3.9274,7.4732 3.1314,7.4992 2.3994,7.2932 C2.2844,7.6752 2.3314,8.1032 2.5274,8.4512 C2.6684,8.7012 2.7204,9.1552 2.9604,9.3332 C3.3214,9.6022 3.7664,9.3732 4.2194,9.3732" id="Fill-5" fill="#ECECD3"></path>
                        </g>
                    </g>
                </g>
            </g>
        </g>
    </g>
</svg>