<?xml version="1.0" encoding="UTF-8" standalone="no"?>
<svg width="14px" height="43px" viewBox="0 0 14 43" version="1.1" xmlns="http://www.w3.org/2000/svg" xmlns:xlink="http://www.w3.org/1999/xlink" xmlns:sketch="http://www.bohemiancoding.com/sketch/ns">
    <!-- Generator: Sketch 3.4 (15575) - http://www.bohemiancoding.com/sketch -->
    <title>Page 1</title>
    <desc>Created with Sketch.</desc>
    <defs></defs>
    <g id="Page-1" stroke="none" stroke-width="1" fill="none" fill-rule="evenodd" sketch:type="MSPage">
        <g id="Doctor---Patient-Landing-Page---Patient---Perio-Chart" sketch:type="MSArtboardGroup" transform="translate(-518.000000, -836.000000)">
            <g id="Chart" sketch:type="MSLayerGroup" transform="translate(271.000000, 398.000000)">
                <g id="Form" transform="translate(0.000000, 24.000000)" sketch:type="MSShapeGroup">
                    <g id="Row-4" transform="translate(238.000000, 197.000000)">
                        <g id="Tooth---29" transform="translate(8.000000, 158.000000)">
                            <g id="Page-1" transform="translate(1.000000, 59.000000)">
                                <path d="M11.7501,2.4252 C10.8751,2.4252 9.5001,1.6752 8.6871,1.1842 C8.2611,0.9272 7.3181,0.9392 6.5191,1.0102 C5.7281,1.0792 4.9811,1.3832 4.3651,1.8842 C3.9801,2.1982 3.5201,2.5532 3.1251,2.8002 C2.3181,3.3052 0.5201,4.3762 0.5001,6.5502 C0.4871,7.9252 1.5001,9.4872 2.3121,12.0502 C2.4791,12.5772 2.6331,13.9212 2.7701,15.7252 C3.2991,22.6992 3.5741,36.6452 3.3751,37.7382 C3.1251,39.1132 3.8751,42.7382 5.1251,42.4882 C6.3751,42.2382 8.8751,34.8002 9.4371,32.6122 C9.9481,30.6252 10.0981,18.4802 10.4031,15.9442 C10.4331,15.6882 10.4661,15.5282 10.5001,15.4882 C10.8751,15.0502 12.5001,12.7382 12.7501,11.9252 C13.0001,11.1132 13.3121,5.7382 13.4371,4.8002 C13.5621,3.8622 12.6251,2.4252 11.7501,2.4252 L11.7501,2.4252 Z" id="Stroke-1" stroke="#F99B3B"></path>
                                <path d="M6.6251,17.3335 C4.9861,17.3335 3.6491,16.4905 2.7701,15.7255 C2.8211,16.4075 2.8711,17.1585 2.9171,17.9555 C3.7451,18.8665 4.7451,19.7205 5.6251,19.7585 C7.5421,19.8415 8.4581,20.5925 8.6251,21.4675 C8.7021,21.8725 9.4071,21.3695 10.1401,20.7145 C10.2231,18.5695 10.3051,16.7595 10.4031,15.9435 C9.1331,16.7135 7.7601,17.3335 6.6251,17.3335" id="Fill-3" fill="#E6C78C"></path>
                                <path d="M8.6251,21.4674 C8.4581,20.5934 7.5421,19.8414 5.6251,19.7584 C4.7451,19.7204 3.7451,18.8664 2.9171,17.9554 C3.3481,25.3064 3.5541,36.7524 3.3751,37.7374 C3.1251,39.1124 3.8751,42.7374 5.1251,42.4874 C6.3751,42.2374 8.8751,34.8004 9.4371,32.6124 C9.7841,31.2644 9.9651,25.2414 10.1401,20.7144 C9.4071,21.3694 8.7021,21.8724 8.6251,21.4674" id="Fill-5" fill="#F3D498"></path>
                                <path d="M11.7501,2.4252 C11.5841,2.4252 11.3971,2.3912 11.2021,2.3442 C11.1371,6.1982 10.7921,12.8452 9.2081,13.8422 C7.6391,14.8302 4.4521,14.5202 2.6081,13.9032 C2.6641,14.4322 2.7181,15.0462 2.7701,15.7252 C3.6491,16.4902 4.9861,17.3332 6.6251,17.3332 C7.7601,17.3332 9.1331,16.7142 10.4031,15.9442 C10.4331,15.6882 10.4661,15.5282 10.5001,15.4882 C10.8751,15.0502 12.5001,12.7382 12.7501,11.9252 C13.0001,11.1132 13.3121,5.7382 13.4371,4.8002 C13.5621,3.8622 12.6251,2.4252 11.7501,2.4252" id="Fill-7" fill="#ECECD3"></path>
                                <path d="M5.4584,6.9252 C5.2984,5.6952 4.8984,3.2772 4.6314,1.6982 C4.5424,1.7592 4.4504,1.8152 4.3654,1.8842 C3.9804,2.1982 3.5204,2.5532 3.1254,2.8002 C2.7194,3.0542 2.0634,3.4522 1.5074,4.0612 C2.3784,6.7762 5.6944,8.7322 5.4584,6.9252" id="Fill-9" fill="#ECECD3"></path>
                                <path d="M8.6876,1.1844 C8.2616,0.9264 7.3186,0.9394 6.5186,1.0104 C5.8366,1.0694 5.1926,1.3134 4.6316,1.6984 C4.8986,3.2774 5.2976,5.6954 5.4586,6.9254 C5.6936,8.7314 2.3776,6.7764 1.5076,4.0614 C0.9596,4.6624 0.5096,5.4694 0.4996,6.5504 C0.4876,7.9254 1.5006,9.4874 2.3126,12.0504 C2.4166,12.3784 2.5156,13.0254 2.6086,13.9024 C4.4516,14.5194 7.6386,14.8304 9.2086,13.8414 C10.7916,12.8444 11.1366,6.1984 11.2026,2.3444 C10.3706,2.1434 9.3466,1.5824 8.6876,1.1844" id="Fill-11" fill="#FFFEED"></path>
                            </g>
                        </g>
                    </g>
                </g>
            </g>
        </g>
    </g>
</svg>