<?xml version="1.0" encoding="UTF-8" standalone="no"?>
<svg width="18px" height="17px" viewBox="0 0 18 17" version="1.1" xmlns="http://www.w3.org/2000/svg" xmlns:xlink="http://www.w3.org/1999/xlink" xmlns:sketch="http://www.bohemiancoding.com/sketch/ns">
    <!-- Generator: Sketch 3.4 (15575) - http://www.bohemiancoding.com/sketch -->
    <title>Page 1</title>
    <desc>Created with Sketch.</desc>
    <defs></defs>
    <g id="Page-1" stroke="none" stroke-width="1" fill="none" fill-rule="evenodd" sketch:type="MSPage">
        <g id="Doctor---Patient-Landing-Page---Patient---Perio-Chart" sketch:type="MSArtboardGroup" transform="translate(-900.000000, -805.000000)">
            <g id="Chart" sketch:type="MSLayerGroup" transform="translate(271.000000, 398.000000)">
                <g id="Form" transform="translate(0.000000, 24.000000)" sketch:type="MSShapeGroup">
                    <g id="Row-16" transform="translate(622.000000, 197.000000)">
                        <g id="Page-1" transform="translate(7.000000, 186.000000)">
                            <path d="M10.75,16.5 L7,16.5 C3.41,16.5 0.5,13.59 0.5,10 L0.5,7 C0.5,3.41 3.41,0.5 7,0.5 L10.75,0.5 C14.34,0.5 17.25,3.41 17.25,7 L17.25,10 C17.25,13.59 14.34,16.5 10.75,16.5 L10.75,16.5 Z" id="Stroke-1" stroke="#F99B3B"></path>
                            <path d="M7.881,13.8937 C7.981,12.6087 8.048,11.3207 8.11,10.0327 C6.078,9.9307 4.047,9.7697 2.028,9.5267 C1.697,9.4887 1.064,9.5937 0.5,9.6197 L0.5,9.9997 C0.5,13.5897 3.41,16.4997 7,16.4997 L7.24,16.4997 C7.288,16.1977 7.358,15.9027 7.391,15.7417 C7.519,15.1207 7.831,14.5307 7.881,13.8937" id="Fill-3" fill="#FFFEED"></path>
                            <path d="M10.1232,3.7892 C9.9642,5.1662 9.7292,6.5332 9.5082,7.9012 C9.4792,8.0792 9.4522,8.2572 9.4242,8.4352 C9.7462,8.4592 10.0682,8.4852 10.3912,8.5082 C11.2332,8.5682 12.0822,8.6022 12.9252,8.5252 C13.7312,8.4522 14.3932,8.2072 15.2022,8.2592 C15.5252,8.2802 15.8542,8.3022 16.1592,8.4102 C16.4752,8.5222 16.7512,8.7212 17.0562,8.8572 C17.1122,8.8822 17.1842,8.8912 17.2502,8.9072 L17.2502,7.0002 C17.2502,3.4102 14.3402,0.5002 10.7502,0.5002 L10.2062,0.5002 C10.3742,1.5702 10.2432,2.7472 10.1232,3.7892" id="Fill-5" fill="#FFFEED"></path>
                            <path d="M4.224,8.0152 C4.582,8.1332 4.916,8.3622 5.296,8.3732 C6.117,8.3952 6.931,8.2992 7.759,8.3312 C7.91,8.3372 8.061,8.3492 8.212,8.3582 C8.254,7.7982 8.294,7.2232 8.212,6.6942 C8.119,6.0932 8.295,5.6282 8.283,5.0232 C8.274,4.5612 8.03,4.1262 8.039,3.6652 C8.045,3.3802 8.147,3.1062 8.186,2.8232 C8.24,2.4302 8.236,1.9352 8.217,1.5392 C8.2,1.1722 8.015,0.8532 7.944,0.5002 L7,0.5002 C3.41,0.5002 0.5,3.4102 0.5,7.0002 L0.5,8.2782 C0.765,8.2102 1.022,8.1562 1.2,8.0892 C2.161,7.7252 3.247,7.6932 4.224,8.0152" id="Fill-7" fill="#FFFEED"></path>
                            <path d="M10.4775,10.1282 C10.0455,10.1162 9.6125,10.0962 9.1805,10.0792 C9.0665,10.9292 8.9735,11.7812 8.9265,12.6372 C8.8825,13.4472 8.8775,14.2602 8.9315,15.0702 C8.9555,15.4292 9.0355,15.8132 9.0745,16.1922 C9.0855,16.2952 9.0885,16.3982 9.0915,16.5002 L10.7495,16.5002 C14.3395,16.5002 17.2495,13.5902 17.2495,10.0002 L17.2495,9.9902 C16.4055,10.0692 15.5555,10.1462 14.7135,10.1582 C13.3015,10.1782 11.8895,10.1682 10.4775,10.1282" id="Fill-9" fill="#FFFEED"></path>
                            <path d="M8.1861,2.8231 C8.1471,3.1061 8.0451,3.3801 8.0391,3.6651 C8.0301,4.1261 8.2741,4.5621 8.2831,5.0231 C8.2951,5.6281 8.1191,6.0931 8.2121,6.6941 C8.2941,7.2231 8.2541,7.7981 8.2121,8.3581 C9.1911,8.4111 9.4401,8.5281 9.8581,7.6341 C10.2111,6.8811 10.6911,6.2231 11.3751,5.7361 C11.6061,5.5721 11.8521,5.4301 12.1071,5.3081 C12.2111,5.2581 12.3211,5.2081 12.3941,5.1191 C12.5171,4.9691 12.5011,4.7411 12.4101,4.5691 C12.3191,4.3971 12.1681,4.2671 12.0251,4.1351 C11.4901,3.6461 11.0101,3.0751 10.6871,2.4221 C10.6231,2.2911 10.0421,0.5001 10.2061,0.5001 L7.9441,0.5001 C8.0151,0.8531 8.2001,1.1721 8.2171,1.5391 C8.2361,1.9361 8.2401,2.4301 8.1861,2.8231" id="Fill-11" fill="#ECECD3"></path>
                            <path d="M8.9317,15.0698 C8.8767,14.2598 8.8827,13.4478 8.9267,12.6378 C8.9737,11.7808 9.0667,10.9288 9.1807,10.0788 C8.8237,10.0648 8.4667,10.0508 8.1107,10.0328 C8.0477,11.3208 7.9817,12.6088 7.8807,13.8938 C7.8317,14.5308 7.5187,15.1208 7.3917,15.7418 C7.3587,15.9028 7.2877,16.1978 7.2397,16.4998 L9.0917,16.4998 C9.0887,16.3978 9.0857,16.2958 9.0747,16.1918 C9.0357,15.8138 8.9557,15.4288 8.9317,15.0698" id="Fill-13" fill="#ECECD3"></path>
                            <path d="M17.0566,8.857 C16.7516,8.721 16.4746,8.522 16.1596,8.41 C15.8536,8.302 15.5256,8.28 15.2016,8.259 C14.3926,8.207 13.7306,8.452 12.9246,8.526 C12.0826,8.602 11.2336,8.569 10.3906,8.508 C10.0686,8.485 9.7466,8.46 9.4236,8.435 C9.3366,8.982 9.2546,9.53 9.1806,10.079 C9.6126,10.096 10.0456,10.116 10.4776,10.128 C11.8896,10.168 13.3016,10.178 14.7136,10.158 C15.5556,10.146 16.4056,10.069 17.2496,9.99 L17.2496,8.907 C17.1846,8.892 17.1126,8.882 17.0566,8.857" id="Fill-15" fill="#ECECD3"></path>
                            <path d="M2.0284,9.5264 C4.0464,9.7694 6.0784,9.9304 8.1104,10.0334 C8.1264,9.7034 8.1554,9.3744 8.1694,9.0444 C8.1784,8.8214 8.1954,8.5914 8.2124,8.3574 C8.0614,8.3494 7.9104,8.3364 7.7584,8.3314 C6.9304,8.2994 6.1164,8.3954 5.2954,8.3734 C4.9154,8.3624 4.5824,8.1334 4.2244,8.0154 C3.2474,7.6934 2.1604,7.7244 1.2004,8.0894 C1.0224,8.1564 0.7644,8.2104 0.5004,8.2784 L0.5004,9.6194 C1.0644,9.5934 1.6974,9.4884 2.0284,9.5264" id="Fill-17" fill="#ECECD3"></path>
                            <path d="M8.1692,9.0445 C8.1552,9.3745 8.1262,9.7035 8.1102,10.0335 C8.4672,10.0515 8.8242,10.0645 9.1802,10.0785 C9.2542,9.5295 9.3372,8.9825 9.4242,8.4345 C9.0202,8.4045 8.6162,8.3795 8.2122,8.3575 C8.1952,8.5905 8.1782,8.8215 8.1692,9.0445" id="Fill-19" fill="#ECECD3"></path>
                            <path d="M6.4863,13.4245 C6.0023,14.8255 4.0853,12.3755 3.7973,11.9245 C3.1083,10.8445 2.7073,9.5165 2.9363,8.2335 C3.0473,7.6135 3.2863,7.0165 3.3293,6.3875 C3.3713,5.7775 3.2303,5.1315 3.4753,4.5715 C3.6303,4.2185 3.9203,3.9455 4.2273,3.7135 C5.5273,2.7315 7.2653,2.3525 8.8553,2.7035 C9.3003,2.8015 9.7843,3.0005 9.9513,3.4245 C10.1913,4.0385 9.7593,5.3335 9.4323,5.8765 C9.1943,6.2715 8.7933,6.5275 8.5343,6.9045 C8.2743,7.2825 8.3823,7.4655 8.3473,7.8695 C8.2553,8.9385 6.8933,8.9085 6.1283,9.0965 C5.7503,9.1895 5.3633,9.3415 5.1213,9.6465 C4.8303,10.0125 4.8083,10.5365 4.9483,10.9825 C5.1303,11.5665 5.4373,11.8045 5.8443,12.1715 C6.2043,12.4965 6.6843,12.8495 6.4863,13.4245" id="Fill-21" fill="#ECECD3"></path>
                            <path d="M13.8345,12.7531 C14.4625,12.2061 15.1765,11.0001 15.2145,10.1451 C15.2555,9.2291 14.3915,9.5671 13.9835,9.9741 C13.7225,10.2361 13.5255,10.5531 13.3005,10.8461 C12.9595,11.2901 12.4255,11.9131 11.8835,12.1151 C11.0165,12.4371 10.2965,11.1231 10.0635,10.4761 C9.9215,10.0841 9.7215,9.6371 9.3165,9.5421 C8.9065,9.4461 8.4985,9.7961 8.3765,10.2001 C8.1645,10.9051 8.6205,11.5011 8.3225,12.1971 C8.1235,12.6641 7.7905,13.1901 8.1415,13.6821 C8.8625,14.6921 10.7935,13.9851 11.7245,13.7141 C12.4735,13.4971 13.2475,13.2651 13.8345,12.7531" id="Fill-23" fill="#ECECD3"></path>
                        </g>
                    </g>
                </g>
            </g>
        </g>
    </g>
</svg>