<?xml version="1.0" encoding="UTF-8" standalone="no"?>
<svg width="12px" height="19px" viewBox="0 0 12 19" version="1.1" xmlns="http://www.w3.org/2000/svg" xmlns:xlink="http://www.w3.org/1999/xlink" xmlns:sketch="http://www.bohemiancoding.com/sketch/ns">
    <!-- Generator: Sketch 3.4 (15575) - http://www.bohemiancoding.com/sketch -->
    <title>Page 1</title>
    <desc>Created with Sketch.</desc>
    <defs></defs>
    <g id="Page-1" stroke="none" stroke-width="1" fill="none" fill-rule="evenodd" sketch:type="MSPage">
        <g id="Doctor---Patient-Landing-Page---Patient---Perio-Chart" sketch:type="MSArtboardGroup" transform="translate(-711.000000, -776.000000)">
            <g id="Chart" sketch:type="MSLayerGroup" transform="translate(271.000000, 398.000000)">
                <g id="Form" transform="translate(0.000000, 24.000000)" sketch:type="MSShapeGroup">
                    <g id="Row-10" transform="translate(429.000000, 197.000000)">
                        <g id="Tooth---24" transform="translate(11.000000, 158.000000)">
                            <g id="Page-1">
                                <path d="M1.4191,17.3612 C3.2761,17.4872 7.4921,17.6852 9.9541,17.1212 C10.5311,16.9882 10.9201,16.4582 10.8741,15.8682 C10.7681,14.5232 10.4831,11.9512 9.7441,9.5612 C8.6821,6.1242 8.5571,2.4362 7.6821,1.0612 C7.2771,0.4262 4.4941,-0.0918 3.5571,0.4852 C2.6191,1.0612 2.7441,3.6242 2.5571,4.4362 C2.3791,5.2062 0.6301,10.8192 0.5001,16.3682 C0.4881,16.8902 0.8991,17.3262 1.4191,17.3612 L1.4191,17.3612 Z" id="Stroke-1" stroke="#F99B3B"></path>
                                <path d="M4.38,16.0166 C4.788,15.8256 5.375,16.0976 5.67,15.7576 C5.835,15.5666 5.807,15.2836 5.78,15.0326 C5.521,12.6306 6.296,10.1346 7.87,8.3026 C8.141,7.9876 8.451,7.6516 8.462,7.2356 C8.467,7.0516 8.41,6.8706 8.353,6.6946 C8.19,6.1836 8.027,5.6736 7.864,5.1626 C7.79,4.9306 7.68,4.6646 7.443,4.6096 C7.194,4.5516 6.966,4.7716 6.84,4.9946 C6.597,5.4216 6.52,5.9206 6.354,6.3826 C6.07,7.1756 5.535,7.8486 5.069,8.5506 C3.346,11.1486 2.54,14.3296 2.774,17.4366 C3.132,17.4526 3.512,17.4666 3.918,17.4776 C3.923,17.2946 3.914,17.1076 3.921,16.9246 C3.936,16.5676 4.057,16.1676 4.38,16.0166" id="Fill-3" fill="#ECECD3"></path>
                                <path d="M9.7441,9.5612 C8.6821,6.1232 8.5571,2.4362 7.6811,1.0612 C7.2771,0.4262 4.4941,-0.0918 3.5571,0.4852 C2.6191,1.0612 2.7441,3.6242 2.5571,4.4362 C2.3791,5.2062 0.6301,10.8192 0.5001,16.3682 C0.4881,16.8902 0.8991,17.3262 1.4191,17.3612 C1.7841,17.3862 2.2581,17.4122 2.7741,17.4362 C2.5401,14.3292 3.3461,11.1482 5.0691,8.5502 C5.5351,7.8482 6.0701,7.1762 6.3541,6.3832 C6.5191,5.9202 6.5971,5.4222 6.8401,4.9942 C6.9661,4.7722 7.1941,4.5522 7.4431,4.6102 C7.6801,4.6642 7.7901,4.9312 7.8641,5.1622 C8.0271,5.6732 8.1901,6.1842 8.3531,6.6952 C8.4101,6.8712 8.4661,7.0512 8.4621,7.2362 C8.4511,7.6512 8.1411,7.9872 7.8701,8.3022 C6.2961,10.1352 5.5211,12.6312 5.7801,15.0322 C5.8071,15.2832 5.8351,15.5672 5.6701,15.7572 C5.3741,16.0972 4.7881,15.8252 4.3801,16.0162 C4.0571,16.1682 3.9361,16.5682 3.9211,16.9242 C3.9131,17.1072 3.9231,17.2942 3.9181,17.4782 C5.9001,17.5322 8.3121,17.4972 9.9541,17.1202 C10.5311,16.9882 10.9201,16.4582 10.8741,15.8682 C10.7681,14.5232 10.4831,11.9512 9.7441,9.5612" id="Fill-5" fill="#FFFEED"></path>
                            </g>
                        </g>
                    </g>
                </g>
            </g>
        </g>
    </g>
</svg>