<?xml version="1.0" encoding="UTF-8" standalone="no"?>
<svg width="12px" height="43px" viewBox="0 0 12 43" version="1.1" xmlns="http://www.w3.org/2000/svg" xmlns:xlink="http://www.w3.org/1999/xlink" xmlns:sketch="http://www.bohemiancoding.com/sketch/ns">
    <!-- Generator: Sketch 3.4 (15575) - http://www.bohemiancoding.com/sketch -->
    <title>Page 1</title>
    <desc>Created with Sketch.</desc>
    <defs></defs>
    <g id="Page-1" stroke="none" stroke-width="1" fill="none" fill-rule="evenodd" sketch:type="MSPage">
        <g id="Doctor---Patient-Landing-Page---Patient---Perio-Chart" sketch:type="MSArtboardGroup" transform="translate(-711.000000, -828.000000)">
            <g id="Chart" sketch:type="MSLayerGroup" transform="translate(271.000000, 398.000000)">
                <g id="Form" transform="translate(0.000000, 24.000000)" sketch:type="MSShapeGroup">
                    <g id="Row-10" transform="translate(429.000000, 197.000000)">
                        <g id="Tooth---24" transform="translate(11.000000, 158.000000)">
                            <g id="Page-1" transform="translate(0.000000, 52.000000)">
                                <path d="M10.8279,14.9548 C11.1729,11.5618 10.8059,4.0998 10.6389,1.1648 C10.6009,0.4978 10.0169,0.0018 9.3519,0.0648 L7.3269,0.2578 C5.9899,0.3848 4.6429,0.3748 3.3079,0.2258 L2.0289,0.0838 C1.3659,0.0108 0.7669,0.4978 0.7209,1.1628 C0.3399,6.5928 0.5059,12.4518 0.8159,15.8198 C0.8339,16.0158 0.8859,16.1928 0.9489,16.3638 C0.9479,16.3638 0.9429,16.3658 0.9429,16.3658 C0.9429,16.3658 2.1489,32.5328 3.8989,37.1158 C5.6489,41.6988 7.8159,43.4488 8.6489,38.6158 C9.4819,33.7828 10.9729,16.8238 10.8309,14.9668 C10.8309,14.9618 10.8279,14.9588 10.8279,14.9548 L10.8279,14.9548 Z" id="Stroke-1" stroke="#F99B3B"></path>
                                <path d="M0.9428,16.3659 C0.9428,16.3659 2.1488,32.5329 3.8988,37.1159 C5.6488,41.6989 7.8158,43.4489 8.6488,38.6159 C9.4818,33.7829 10.9728,16.8239 10.8308,14.9669 C10.7028,13.2839 0.9428,16.3659 0.9428,16.3659" id="Fill-3" fill="#F3D498"></path>
                                <path d="M2.0288,0.084 L3.3078,0.226 C4.6428,0.374 5.9898,0.385 7.3268,0.258 L9.3518,0.065 C10.0168,0.001 10.6008,0.498 10.6388,1.165 C10.8358,4.633 11.3178,14.452 10.5658,16.366 C9.6488,18.699 1.1488,19.44 0.8158,15.82 C0.5058,12.452 0.3398,6.593 0.7208,1.163 C0.7668,0.498 1.3658,0.01 2.0288,0.084" id="Fill-5" fill="#FFFEED"></path>
                                <path d="M7.6489,23.4274 C8.7569,23.2084 9.7619,21.7694 10.5669,20.1534 C10.7639,17.5284 10.8749,15.5364 10.8309,14.9664 C10.7029,13.2844 0.9429,16.3654 0.9429,16.3654 C0.9429,16.3654 0.9859,16.9374 1.0659,17.8964 C2.8289,20.2444 5.8279,23.7884 7.6489,23.4274" id="Fill-7" fill="#E6C78C"></path>
                                <path d="M7.6489,23.4274 C5.8279,23.7884 2.8289,20.2444 1.0659,17.8964 C1.4159,22.0354 2.4779,33.3944 3.8989,37.1154 C5.6489,41.6994 7.8159,43.4494 8.6489,38.6154 C9.2269,35.2644 10.1199,26.0874 10.5669,20.1534 C9.7619,21.7694 8.7569,23.2084 7.6489,23.4274" id="Fill-9" fill="#F3D498"></path>
                                <path d="M9.3271,0.0672 L7.3261,0.2582 C5.9891,0.3852 4.6431,0.3742 3.3081,0.2262 L2.0291,0.0842 C1.3661,0.0102 0.7671,0.4982 0.7201,1.1632 C0.4261,5.3552 0.4591,9.7992 0.6311,13.1592 C1.9171,13.5062 4.8101,14.2622 6.3991,14.4642 C8.0111,14.6692 8.9741,4.6252 9.3271,0.0672" id="Fill-11" fill="#FFFEED"></path>
                                <path d="M10.6385,1.1648 C10.6005,0.4978 10.0165,0.0018 9.3515,0.0648 L9.3275,0.0668 C8.9735,4.6248 8.0105,14.6688 6.3985,14.4638 C4.8095,14.2618 1.9175,13.5068 0.6315,13.1588 C0.6825,14.1508 0.7445,15.0518 0.8155,15.8198 C1.1485,19.4398 9.6485,18.6988 10.5655,16.3658 C11.3175,14.4518 10.8355,4.6338 10.6385,1.1648" id="Fill-13" fill="#ECECD3"></path>
                            </g>
                        </g>
                    </g>
                </g>
            </g>
        </g>
    </g>
</svg>