<?xml version="1.0" encoding="UTF-8" standalone="no"?>
<svg width="20px" height="21px" viewBox="0 0 20 21" version="1.1" xmlns="http://www.w3.org/2000/svg" xmlns:xlink="http://www.w3.org/1999/xlink" xmlns:sketch="http://www.bohemiancoding.com/sketch/ns">
    <!-- Generator: Sketch 3.4 (15575) - http://www.bohemiancoding.com/sketch -->
    <title>Page 1</title>
    <desc>Created with Sketch.</desc>
    <defs></defs>
    <g id="Page-1" stroke="none" stroke-width="1" fill="none" fill-rule="evenodd" sketch:type="MSPage">
        <g id="Doctor---Patient-Landing-Page---Patient---Perio-Chart" sketch:type="MSArtboardGroup" transform="translate(-835.000000, -708.000000)">
            <g id="Chart" sketch:type="MSLayerGroup" transform="translate(271.000000, 398.000000)">
                <g id="Form" transform="translate(0.000000, 24.000000)" sketch:type="MSShapeGroup">
                    <g id="Row-14" transform="translate(558.000000, 197.000000)">
                        <g id="Page-1" transform="translate(6.000000, 89.000000)">
                            <path d="M5.858,19.5992 C4.522,19.5132 3.316,18.8692 2.397,17.9172 C1.264,16.7432 1.484,15.7092 1.628,14.1822 C1.728,13.1242 1.647,11.9852 1.345,10.9642 C1.136,10.2572 0.805,9.5872 0.636,8.8692 C0.314,7.5002 0.605,6.0562 1.07,4.7282 C2.057,1.9112 4.366,0.7402 7.269,0.9582 C11.641,1.2882 17.974,4.1472 18.856,8.9022 C19.13,10.3762 19.021,11.8932 18.873,13.3852 C18.742,14.7132 18.578,16.0522 18.13,17.3092 C17.614,18.7132 17.088,19.4572 15.733,20.0012 C14.827,20.3652 13.855,20.7022 12.892,20.3542 C12.102,20.0692 11.57,19.4482 10.669,19.4112 C9.071,19.3452 7.408,19.6982 5.858,19.5992 L5.858,19.5992 Z" id="Stroke-1" stroke="#F99B3B"></path>
                            <path d="M18.8734,13.3854 C18.7424,14.7134 18.5784,16.0524 18.1304,17.3094 C17.6144,18.7134 17.0874,19.4564 15.7324,20.0014 C14.8274,20.3654 13.8544,20.7014 12.8914,20.3544 C12.3274,20.1504 11.8914,19.7814 11.3614,19.5704 C12.5304,17.3164 15.1654,15.9614 16.4434,13.6994 C16.6364,13.3584 16.7784,12.8824 16.4954,12.6124 C16.3244,12.4484 16.0644,12.4334 15.8284,12.4284 C15.2234,12.4134 14.6184,12.3994 14.0134,12.3854 C13.9094,13.4724 13.7684,14.6474 13.0174,15.4404 C12.6484,15.8304 12.1644,16.0894 11.6894,16.3404 C9.7174,17.3854 7.7444,18.4304 5.7714,19.4754 L6.5794,19.6014 C6.3384,19.6044 6.0944,19.6144 5.8584,19.5994 C4.5224,19.5134 3.3164,18.8694 2.3964,17.9174 C1.2634,16.7434 1.4844,15.7094 1.6274,14.1824 C1.7274,13.1234 1.6464,11.9844 1.3454,10.9644 C1.1364,10.2574 0.8054,9.5874 0.6364,8.8694 C0.3144,7.4994 0.6054,6.0564 1.0704,4.7284 C2.0564,1.9114 4.3664,0.7404 7.2694,0.9584 C11.6414,1.2884 17.9734,4.1474 18.8564,8.9024 C19.1304,10.3764 19.0214,11.8934 18.8734,13.3854" id="Fill-3" fill="#FFFEED"></path>
                            <path d="M11.6897,16.3408 C12.1647,16.0888 12.6487,15.8308 13.0177,15.4408 C13.7687,14.6468 13.9097,13.4728 14.0137,12.3848 C14.6187,12.3998 15.2227,12.4138 15.8277,12.4278 C16.0647,12.4338 16.3237,12.4488 16.4947,12.6118 C16.7787,12.8828 16.6367,13.3578 16.4437,13.6998 C15.1657,15.9618 12.5307,17.3168 11.3607,19.5698 C11.1497,19.4858 10.9257,19.4218 10.6687,19.4108 C9.3157,19.3558 7.9187,19.5858 6.5797,19.6008 L5.7717,19.4758 C7.7447,18.4308 9.7167,17.3858 11.6897,16.3408" id="Fill-5" fill="#ECECD3"></path>
                            <path d="M4.2451,9.827 C5.1731,10.542 6.6161,10.341 7.4491,9.518 C8.2821,8.694 8.5301,7.392 8.2471,6.255 C7.9651,5.118 7.2151,4.141 6.3151,3.391 C7.1091,3.512 7.9171,3.637 8.6381,3.991 C9.3591,4.345 9.9921,4.97 10.1501,5.757 C10.3201,6.602 9.9301,7.445 9.6081,8.245 C9.2771,9.068 9.0351,10.086 9.5911,10.777 C9.8681,11.121 10.2901,11.307 10.6961,11.481 C11.3851,11.776 12.0751,12.071 12.7641,12.366 C12.1351,12.475 11.7001,12.8 11.0871,12.95 C10.4701,13.101 9.8011,13.011 9.1731,13.063 C8.1761,13.146 7.2361,13.545 6.2571,13.749 C4.7391,14.065 3.0731,13.742 2.9961,12.051 C2.9351,10.723 2.6941,9.416 2.4421,8.102 C2.3731,7.74 2.0461,7.116 2.2041,6.752 C2.4211,6.252 2.9501,6.153 3.2051,6.603 C3.3721,6.898 3.1741,7.847 3.2871,8.254 C3.4561,8.858 3.7381,9.436 4.2451,9.827" id="Fill-7" fill="#ECECD3"></path>
                        </g>
                    </g>
                </g>
            </g>
        </g>
    </g>
</svg>