<?xml version="1.0" encoding="UTF-8" standalone="no"?>
<svg width="18px" height="46px" viewBox="0 0 18 46" version="1.1" xmlns="http://www.w3.org/2000/svg" xmlns:xlink="http://www.w3.org/1999/xlink" xmlns:sketch="http://www.bohemiancoding.com/sketch/ns">
    <!-- Generator: Sketch 3.4 (15575) - http://www.bohemiancoding.com/sketch -->
    <title>Page 1</title>
    <desc>Created with Sketch.</desc>
    <defs></defs>
    <g id="Page-1" stroke="none" stroke-width="1" fill="none" fill-rule="evenodd" sketch:type="MSPage">
        <g id="Doctor---Patient-Landing-Page---Patient---Perio-Chart" sketch:type="MSArtboardGroup" transform="translate(-644.000000, -659.000000)">
            <g id="Chart" sketch:type="MSLayerGroup" transform="translate(271.000000, 398.000000)">
                <g id="Form" transform="translate(0.000000, 24.000000)" sketch:type="MSShapeGroup">
                    <g id="Row-8" transform="translate(365.000000, 197.000000)">
                        <g id="Page-1" transform="translate(8.000000, 40.000000)">
                            <path d="M1.8091,44.329 C0.9281,44.017 0.3961,43.123 0.5171,42.196 C0.7711,40.252 1.2381,36.984 1.5851,36.377 C2.0851,35.502 3.5851,31.309 3.9601,27.343 C4.3351,23.377 6.2101,7.995 5.5851,0.561 L7.3351,0.561 L9.3351,2.183 C9.3351,2.183 15.6101,30.585 17.0631,42.413 C17.2551,43.975 16.0861,45.364 14.5141,45.432 C11.1031,45.58 5.3781,45.592 1.8091,44.329 L1.8091,44.329 Z" id="Stroke-1" stroke="#F99B3B"></path>
                            <path d="M11.361,23.9613 C11.598,24.8623 11.818,25.7683 12.028,26.6753 C10.494,26.0243 8.864,25.3923 7.226,25.6603 C5.94,25.8703 4.854,26.6063 3.936,27.5543 C3.944,27.4843 3.953,27.4133 3.96,27.3433 C4.335,23.3773 6.21,7.9953 5.585,0.5613 L7.335,0.5613 L8.332,1.3693 C9.004,7.2473 8.83,13.2603 10.093,19.0483 C10.454,20.7013 10.931,22.3253 11.361,23.9613" id="Fill-3" fill="#F3D498"></path>
                            <path d="M12.0275,26.6757 C13.4455,32.8227 14.2445,39.1047 14.7145,45.4027 C14.6465,45.4107 14.5835,45.4297 14.5135,45.4327 C11.1035,45.5797 5.3775,45.5927 1.8095,44.3287 C0.9275,44.0167 0.3965,43.1237 0.5175,42.1967 C0.7705,40.2527 1.2375,36.9837 1.5845,36.3767 C2.0765,35.5177 3.5295,31.4567 3.9365,27.5547 C4.8535,26.6067 5.9405,25.8707 7.2265,25.6597 C8.8635,25.3927 10.4935,26.0247 12.0275,26.6757" id="Fill-5" fill="#FFFEED"></path>
                            <path d="M12.0275,26.6757 C11.8185,25.7677 11.5975,24.8627 11.3605,23.9617 C10.9305,22.3257 10.4535,20.7007 10.0935,19.0487 C8.8295,13.2597 9.0045,7.2477 8.3315,1.3687 L9.3345,2.1827 C9.3345,2.1827 12.3025,15.6137 14.6285,27.8507 C13.8325,27.4537 13.0115,27.0947 12.2015,26.7487 C12.1435,26.7247 12.0855,26.6997 12.0275,26.6757" id="Fill-7" fill="#E6C78C"></path>
                            <path d="M14.7143,45.4022 C14.2453,39.1052 13.4453,32.8232 12.0273,26.6752 C12.0853,26.7002 12.1443,26.7242 12.2013,26.7492 C13.0123,27.0952 13.8323,27.4532 14.6293,27.8502 C15.6853,33.4082 16.6093,38.7192 17.0633,42.4132 C17.2473,43.9062 16.1813,45.2282 14.7143,45.4022" id="Fill-9" fill="#ECECD3"></path>
                        </g>
                    </g>
                </g>
            </g>
        </g>
    </g>
</svg>