<?xml version="1.0" encoding="UTF-8" standalone="no"?>
<svg width="14px" height="44px" viewBox="0 0 14 44" version="1.1" xmlns="http://www.w3.org/2000/svg" xmlns:xlink="http://www.w3.org/1999/xlink" xmlns:sketch="http://www.bohemiancoding.com/sketch/ns">
    <!-- Generator: Sketch 3.4 (15575) - http://www.bohemiancoding.com/sketch -->
    <title>Page 1</title>
    <desc>Created with Sketch.</desc>
    <defs></defs>
    <g id="Page-1" stroke="none" stroke-width="1" fill="none" fill-rule="evenodd" sketch:type="MSPage">
        <g id="Doctor---Patient-Landing-Page---Patient---Perio-Chart" sketch:type="MSArtboardGroup" transform="translate(-614.000000, -661.000000)">
            <g id="Chart" sketch:type="MSLayerGroup" transform="translate(271.000000, 398.000000)">
                <g id="Form" transform="translate(0.000000, 24.000000)" sketch:type="MSShapeGroup">
                    <g id="Row-7" transform="translate(333.000000, 197.000000)">
                        <g id="Tooth-7" transform="translate(10.000000, 43.000000)">
                            <g id="Page-1">
                                <path d="M1.0415,40.788 C0.5985,40.525 0.4055,39.982 0.5445,39.485 C1.3205,36.713 3.7805,27.895 4.0605,26.49 C4.3945,24.819 5.1445,4.902 4.6445,0.735 C4.6445,0.735 4.3105,-0.181 5.8945,0.319 C7.4775,0.819 7.7275,1.347 7.7275,1.791 C7.7275,2.235 10.6445,22.819 10.6445,25.735 L10.6445,28.652 C10.6445,28.652 13.0085,34.22 13.3595,40.54 C13.3885,41.065 13.0545,41.546 12.5545,41.707 C10.6085,42.335 5.6115,43.496 1.0415,40.788 L1.0415,40.788 Z" id="Stroke-1" stroke="#F99B3B"></path>
                                <path d="M7.1768,16.5381 C7.1178,19.1501 6.8528,21.7531 6.5878,24.3521 C6.5038,25.1711 6.4168,26.0051 6.0848,26.7581 C6.0528,26.8291 6.0158,26.9001 5.9808,26.9711 C5.3018,26.9401 4.6168,26.9421 3.9418,27.0071 C3.9938,26.7931 4.0378,26.6071 4.0608,26.4901 C4.3938,24.8191 5.1438,4.9021 4.6438,0.7351 C4.6438,0.7351 4.3108,-0.1809 5.8938,0.3191 C7.4778,0.8191 7.7278,1.3471 7.7278,1.7911 C7.7278,1.8741 7.8298,2.6631 7.9958,3.9091 C7.5378,6.3851 7.2698,8.8971 7.2078,11.4151 C7.1658,13.1221 7.2158,14.8311 7.1768,16.5381" id="Fill-3" fill="#F3D498"></path>
                                <path d="M5.9807,26.9708 C5.5577,27.8138 4.9017,28.6018 4.9647,29.5328 C6.3657,29.9968 7.2927,31.3818 7.6547,32.8118 C8.0157,34.2418 7.9157,35.7418 7.8887,37.2168 C7.8557,38.9758 7.9367,40.7358 8.1187,42.4848 C5.9797,42.5638 3.4537,42.2168 1.0417,40.7878 C0.5977,40.5248 0.4057,39.9818 0.5447,39.4858 C1.2557,36.9458 3.3757,29.3468 3.9417,27.0078 C4.6167,26.9418 5.3027,26.9398 5.9807,26.9708" id="Fill-5" fill="#FFFEED"></path>
                                <path d="M5.9807,26.9708 C6.0167,26.8998 6.0537,26.8298 6.0847,26.7578 C6.4167,26.0048 6.5037,25.1708 6.5877,24.3528 C6.8527,21.7528 7.1177,19.1508 7.1767,16.5378 C7.2157,14.8308 7.1657,13.1228 7.2077,11.4148 C7.2697,8.8978 7.5377,6.3858 7.9957,3.9088 C8.7167,9.3208 10.6447,23.3648 10.6447,25.7348 L10.6447,27.9888 C9.3187,27.3148 7.8037,27.0758 6.3127,26.9858 C6.2027,26.9798 6.0917,26.9758 5.9807,26.9708" id="Fill-7" fill="#E6C78C"></path>
                                <path d="M13.3595,40.5404 C13.3885,41.0654 13.0545,41.5454 12.5545,41.7074 C11.6355,42.0034 10.0315,42.4144 8.1185,42.4854 C7.9365,40.7354 7.8565,38.9754 7.8885,37.2174 C7.9155,35.7414 8.0165,34.2424 7.6545,32.8124 C7.2925,31.3814 6.3655,29.9964 4.9645,29.5324 C4.9015,28.6014 5.5575,27.8144 5.9805,26.9704 C6.0915,26.9754 6.2025,26.9794 6.3125,26.9864 C7.8035,27.0754 9.3185,27.3144 10.6445,27.9884 L10.6445,28.6524 C10.6445,28.6524 13.0085,34.2204 13.3595,40.5404" id="Fill-9" fill="#ECECD3"></path>
                            </g>
                        </g>
                    </g>
                </g>
            </g>
        </g>
    </g>
</svg>