<?xml version="1.0" encoding="UTF-8" standalone="no"?>
<svg width="16px" height="47px" viewBox="0 0 16 47" version="1.1" xmlns="http://www.w3.org/2000/svg" xmlns:xlink="http://www.w3.org/1999/xlink" xmlns:sketch="http://www.bohemiancoding.com/sketch/ns">
    <!-- Generator: Sketch 3.4 (15575) - http://www.bohemiancoding.com/sketch -->
    <title>Page 1</title>
    <desc>Created with Sketch.</desc>
    <defs></defs>
    <g id="Page-1" stroke="none" stroke-width="1" fill="none" fill-rule="evenodd" sketch:type="MSPage">
        <g id="Doctor---Patient-Landing-Page---Patient---Perio-Chart" sketch:type="MSArtboardGroup" transform="translate(-677.000000, -658.000000)">
            <g id="Chart" sketch:type="MSLayerGroup" transform="translate(271.000000, 398.000000)">
                <g id="Form" transform="translate(0.000000, 24.000000)" sketch:type="MSShapeGroup">
                    <g id="Row-9" transform="translate(397.000000, 197.000000)">
                        <g id="Tooth-8" transform="translate(9.000000, 39.000000)">
                            <g id="Page-1">
                                <path d="M2.4388,46.1412 C1.2528,45.8732 0.4298,44.7902 0.5048,43.5762 C0.7338,39.8702 1.3008,31.8322 2.0598,28.8182 C3.0598,24.8452 6.9348,0.8392 7.3098,0.6542 C7.5548,0.5342 9.1918,0.5712 10.2938,0.6112 C10.8618,0.6322 11.3098,1.0972 11.3098,1.6652 L11.3098,2.4702 C11.3098,2.4702 10.5598,13.8452 11.3098,26.0952 C11.3098,26.0952 13.9348,33.4702 14.5598,37.0952 C14.9198,39.1842 15.0308,41.2952 15.0598,42.7092 C15.0818,43.7642 14.4348,44.7122 13.4418,45.0712 C11.1408,45.9012 6.7258,47.1092 2.4388,46.1412 L2.4388,46.1412 Z" id="Stroke-1" stroke="#F99B3B"></path>
                                <path d="M5.8435,25.5333 C6.3895,25.2313 6.9525,24.9403 7.5625,24.8073 C7.7035,24.7763 7.8435,24.7693 7.9845,24.7553 C8.2335,25.4153 8.5045,26.0683 8.7655,26.7233 C9.8115,29.3433 10.7045,32.0253 11.4395,34.7493 C12.3835,38.2463 13.0335,42.0453 12.1565,45.4913 C9.7045,46.2333 6.0375,46.9523 2.4435,46.1423 C1.2545,45.8743 0.4295,44.7883 0.5055,43.5713 C0.7345,39.8643 1.3015,31.8303 2.0595,28.8183 C2.0985,28.6643 2.1425,28.4713 2.1895,28.2603 C3.2125,27.1613 4.5225,26.2653 5.8435,25.5333" id="Fill-3" fill="#FFFEED"></path>
                                <path d="M6.8397,16.4908 C6.8347,18.5808 6.8327,20.6948 7.3347,22.7238 C7.5057,23.4148 7.7337,24.0888 7.9847,24.7558 C7.8437,24.7698 7.7037,24.7768 7.5617,24.8078 C6.9527,24.9408 6.3897,25.2308 5.8437,25.5328 C4.5227,26.2648 3.2117,27.1608 2.1897,28.2608 C3.3557,23.0158 6.9487,0.8318 7.3097,0.6548 C7.4867,0.5678 8.3947,0.5628 9.3007,0.5828 C8.8597,3.2258 7.8647,5.7988 7.3587,8.4488 C6.8547,11.0918 6.8467,13.8008 6.8397,16.4908" id="Fill-5" fill="#F3D498"></path>
                                <path d="M14.5595,37.0955 C14.9195,39.1815 15.0305,41.2905 15.0605,42.7045 C15.0825,43.7625 14.4335,44.7135 13.4375,45.0725 C13.0675,45.2065 12.6265,45.3485 12.1565,45.4905 C13.0335,42.0455 12.3835,38.2455 11.4395,34.7495 C10.7045,32.0255 9.8115,29.3435 8.7655,26.7235 C8.5045,26.0685 8.2335,25.4155 7.9845,24.7555 C9.1185,24.6425 10.2315,25.0395 11.2815,25.6055 C11.2905,25.7685 11.2995,25.9315 11.3095,26.0955 C11.3095,26.0955 13.9345,33.4705 14.5595,37.0955" id="Fill-7" fill="#ECECD3"></path>
                                <path d="M7.9847,24.7557 C7.7337,24.0887 7.5057,23.4147 7.3347,22.7237 C6.8327,20.6957 6.8347,18.5807 6.8397,16.4907 C6.8467,13.8007 6.8547,11.0917 7.3587,8.4487 C7.8647,5.7987 8.8597,3.2257 9.3007,0.5827 C9.6457,0.5897 9.9917,0.6007 10.2957,0.6117 C10.8627,0.6327 11.3097,1.0987 11.3097,1.6657 L11.3097,2.4707 C11.3097,2.4707 10.5807,13.5447 11.2817,25.6057 C10.2317,25.0397 9.1177,24.6427 7.9847,24.7557" id="Fill-9" fill="#E6C78C"></path>
                            </g>
                        </g>
                    </g>
                </g>
            </g>
        </g>
    </g>
</svg>