<?xml version="1.0" encoding="UTF-8" standalone="no"?>
<svg width="14px" height="55px" viewBox="0 0 14 55" version="1.1" xmlns="http://www.w3.org/2000/svg" xmlns:xlink="http://www.w3.org/1999/xlink" xmlns:sketch="http://www.bohemiancoding.com/sketch/ns">
    <!-- Generator: Sketch 3.4 (15575) - http://www.bohemiancoding.com/sketch -->
    <title>Page 1</title>
    <desc>Created with Sketch.</desc>
    <defs></defs>
    <g id="Page-1" stroke="none" stroke-width="1" fill="none" fill-rule="evenodd" sketch:type="MSPage">
        <g id="Doctor---Patient-Landing-Page---Patient---Perio-Chart" sketch:type="MSArtboardGroup" transform="translate(-582.000000, -827.000000)">
            <g id="Chart" sketch:type="MSLayerGroup" transform="translate(271.000000, 398.000000)">
                <g id="Form" transform="translate(0.000000, 24.000000)" sketch:type="MSShapeGroup">
                    <g id="Row-6" transform="translate(302.000000, 197.000000)">
                        <g id="Tooth-27" transform="translate(9.000000, 157.000000)">
                            <g id="Page-1" transform="translate(0.000000, 52.000000)">
                                <path d="M11.8535,1.9341 C10.8245,1.4491 9.8965,1.0451 9.2025,0.5591 C7.9525,-0.3159 4.8185,0.5601 4.1935,1.6431 C3.7765,2.3671 2.7715,3.6061 1.6515,4.6001 C0.9855,5.1911 0.5805,6.0141 0.5315,6.9041 C0.3235,10.7121 1.1845,17.0881 1.7825,18.7261 C1.8705,18.9651 1.9405,19.5851 1.9955,20.4801 C2.3745,26.5951 2.0715,45.7721 1.9435,47.4351 C1.7565,49.8721 3.4435,56.4971 5.4435,51.9351 C8.2115,45.6201 10.4005,30.2431 11.7605,18.3191 C12.4725,12.0801 12.9585,6.7851 13.1805,4.2331 C13.2645,3.2641 12.7335,2.3481 11.8535,1.9341 L11.8535,1.9341 Z" id="Stroke-1" stroke="#F99B3B"></path>
                                <path d="M7.5269,24.5184 C7.6939,25.8514 6.4439,32.3894 7.5269,32.7874 C7.9659,32.9484 8.9779,32.3754 10.0259,31.6404 C10.6989,27.1344 11.2819,22.5144 11.7609,18.3184 C9.2649,19.9574 6.4179,21.2344 4.6939,21.4544 C3.6659,21.5854 2.7619,21.1484 1.9959,20.4804 C2.0219,20.8964 2.0439,21.3774 2.0639,21.9044 C2.7599,22.5514 3.4749,23.0494 4.0269,23.0414 C5.6099,23.0184 7.3599,23.1854 7.5269,24.5184" id="Fill-3" fill="#E6C78C"></path>
                                <path d="M7.5269,32.7873 C6.4439,32.3893 7.6939,25.8513 7.5269,24.5183 C7.3599,23.1853 5.6099,23.0183 4.0269,23.0413 C3.4749,23.0493 2.7599,22.5513 2.0639,21.9043 C2.3339,29.1283 2.0629,45.8853 1.9439,47.4353 C1.7559,49.8723 3.4439,56.4973 5.4439,51.9353 C7.2379,47.8423 8.7869,39.9393 10.0259,31.6403 C8.9779,32.3753 7.9659,32.9483 7.5269,32.7873" id="Fill-5" fill="#F3D498"></path>
                                <path d="M6.8447,18.412 C8.8287,18.222 8.2767,10.935 8.1107,8.352 C8.0107,6.804 9.1647,3.499 10.1087,1.092 C9.7797,0.92 9.4697,0.746 9.2027,0.559 C7.9527,-0.316 4.8187,0.56 4.1937,1.643 C3.7767,2.367 2.7717,3.606 1.6517,4.6 C0.9847,5.191 0.5807,6.014 0.5317,6.904 C0.3627,9.987 0.8957,14.751 1.4217,17.323 C3.1547,17.859 5.6277,18.528 6.8447,18.412" id="Fill-7" fill="#FFFEED"></path>
                                <path d="M11.8535,1.9341 C11.2205,1.6361 10.6345,1.3671 10.1085,1.0921 C9.1655,3.4991 8.0105,6.8041 8.1105,8.3521 C8.2765,10.9351 8.8295,18.2221 6.8445,18.4121 C5.6275,18.5281 3.1545,17.8591 1.4215,17.3231 C1.5455,17.9291 1.6685,18.4141 1.7825,18.7261 C1.8705,18.9651 1.9405,19.5851 1.9955,20.4801 C2.7615,21.1481 3.6655,21.5851 4.6935,21.4541 C6.4175,21.2341 9.2655,19.9571 11.7605,18.3191 C12.4725,12.0801 12.9585,6.7851 13.1805,4.2331 C13.2645,3.2641 12.7335,2.3481 11.8535,1.9341" id="Fill-9" fill="#ECECD3"></path>
                            </g>
                        </g>
                    </g>
                </g>
            </g>
        </g>
    </g>
</svg>