<?xml version="1.0" encoding="UTF-8" standalone="no"?>
<svg width="14px" height="18px" viewBox="0 0 14 18" version="1.1" xmlns="http://www.w3.org/2000/svg" xmlns:xlink="http://www.w3.org/1999/xlink" xmlns:sketch="http://www.bohemiancoding.com/sketch/ns">
    <!-- Generator: Sketch 3.4 (15575) - http://www.bohemiancoding.com/sketch -->
    <title>Page 1</title>
    <desc>Created with Sketch.</desc>
    <defs></defs>
    <g id="Page-1" stroke="none" stroke-width="1" fill="none" fill-rule="evenodd" sketch:type="MSPage">
        <g id="Doctor---Patient-Landing-Page---Patient---Perio-Chart" sketch:type="MSArtboardGroup" transform="translate(-806.000000, -738.000000)">
            <g id="Chart" sketch:type="MSLayerGroup" transform="translate(271.000000, 398.000000)">
                <g id="Form" transform="translate(0.000000, 24.000000)" sketch:type="MSShapeGroup">
                    <g id="Row-13" transform="translate(526.000000, 197.000000)">
                        <g id="Page-1" transform="translate(9.000000, 120.000000)">
                            <path d="M8.5264,16.1106 C8.5594,16.1006 8.5914,16.0906 8.6244,16.0806 C10.2774,15.5576 10.5104,14.0986 10.9764,12.6616 C11.7044,10.4176 12.4314,8.1746 13.1594,5.9316 C13.3124,5.4586 13.4684,4.9706 13.4284,4.4746 C13.3654,3.6886 12.8254,3.0236 12.2384,2.4956 C9.9804,0.4646 6.6284,-0.2654 3.7304,0.6416 C2.5994,0.9956 1.4854,1.6376 0.9404,2.6896 C0.5714,3.4016 0.5004,4.2296 0.5004,5.0316 C0.4984,7.1436 0.9384,9.2246 1.5614,11.2336 C1.9684,12.5436 2.2154,15.5966 3.7174,16.1826 C5.0614,16.6956 7.1444,16.5246 8.5264,16.1106 L8.5264,16.1106 Z" id="Stroke-1" stroke="#F99B3B"></path>
                            <path d="M7.0162,2.6263 C7.5532,2.7763 8.1282,2.9593 8.4572,3.4083 C8.7502,3.8093 8.7862,4.3373 8.8012,4.8343 C8.9202,8.7053 8.4822,12.5903 7.5202,16.3423 C6.2572,16.5643 4.7642,16.5823 3.7172,16.1823 C2.2152,15.5973 1.9682,12.5433 1.5612,11.2333 C0.9382,9.2243 0.4982,7.1433 0.5002,5.0323 C0.5002,4.3203 0.5692,3.5933 0.8392,2.9403 C1.3892,2.5303 2.0532,2.2473 2.7282,2.1333 C4.1592,1.8903 5.6182,2.2373 7.0162,2.6263" id="Fill-3" fill="#FFFEED"></path>
                            <path d="M13.1593,5.9314 C12.4313,8.1744 11.7043,10.4184 10.9763,12.6614 C10.5103,14.0984 10.2773,15.5584 8.6243,16.0804 C8.5923,16.0904 8.5593,16.1004 8.5263,16.1104 C8.2213,16.2024 7.8783,16.2794 7.5203,16.3424 C8.4823,12.5904 8.9203,8.7054 8.8013,4.8344 C8.7853,4.3374 8.7503,3.8094 8.4573,3.4084 C8.1283,2.9584 7.5533,2.7754 7.0163,2.6264 C5.6183,2.2374 4.1593,1.8904 2.7283,2.1334 C2.0533,2.2474 1.3893,2.5304 0.8393,2.9404 C0.8733,2.8564 0.8983,2.7704 0.9403,2.6894 C1.4853,1.6374 2.5993,0.9954 3.7303,0.6414 C6.6283,-0.2656 9.9813,0.4654 12.2383,2.4954 C12.8253,3.0234 13.3653,3.6884 13.4283,4.4754 C13.4683,4.9704 13.3123,5.4584 13.1593,5.9314" id="Fill-5" fill="#ECECD3"></path>
                        </g>
                    </g>
                </g>
            </g>
        </g>
    </g>
</svg>