<?xml version="1.0" encoding="UTF-8" standalone="no"?>
<svg width="17px" height="18px" viewBox="0 0 17 18" version="1.1" xmlns="http://www.w3.org/2000/svg" xmlns:xlink="http://www.w3.org/1999/xlink" xmlns:sketch="http://www.bohemiancoding.com/sketch/ns">
    <!-- Generator: Sketch 3.4 (15575) - http://www.bohemiancoding.com/sketch -->
    <title>Middle</title>
    <desc>Created with Sketch.</desc>
    <defs></defs>
    <g id="Page-1" stroke="none" stroke-width="1" fill="none" fill-rule="evenodd" sketch:type="MSPage">
        <g id="Doctor---Patient-Landing-Page---Patient---Perio-Chart" sketch:type="MSArtboardGroup" transform="translate(-421.000000, -710.000000)">
            <g id="Chart" sketch:type="MSLayerGroup" transform="translate(271.000000, 398.000000)">
                <g id="Form" transform="translate(0.000000, 24.000000)" sketch:type="MSShapeGroup">
                    <g id="Row-1" transform="translate(141.000000, 197.000000)">
                        <g id="Tooth---1" transform="translate(9.000000, 41.000000)">
                            <g id="Middle" transform="translate(0.000000, 51.000000)">
                                <path d="M3.8746,0.3466 C2.1506,0.2626 0.5296,1.5516 1.0726,3.4346 C1.4206,4.6426 0.9996,5.6566 0.8376,6.8486 C0.6646,8.1166 0.5556,9.3936 0.5106,10.6726 C0.4606,12.1276 0.5506,13.7356 1.5516,14.7936 C2.4136,15.7046 3.7386,15.9766 4.9816,16.1456 C6.2696,16.3196 7.5656,16.4326 8.8646,16.4836 C9.9116,16.5256 11.0026,16.5176 11.9496,16.0686 C13.7316,15.2256 14.4946,13.0716 14.5926,11.1026 C14.6146,10.6576 14.6126,10.2036 14.7456,9.7776 C14.8806,9.3436 15.1466,8.9646 15.3466,8.5566 C16.0916,7.0276 15.8486,5.2216 15.5546,3.5466 C15.4896,3.1776 15.4136,2.7896 15.1656,2.5096 C14.9106,2.2216 14.5196,2.1016 14.1486,1.9996 C10.7986,1.0716 7.3466,0.5166 3.8746,0.3466 L3.8746,0.3466 Z" id="Stroke-1" stroke="#F99B3B"></path>
                                <path d="M3.3309,8.2057 C3.7819,7.9217 4.3309,7.8377 4.8019,7.5887 C6.2129,6.8407 6.4709,4.9557 6.4769,3.3587 C6.4809,2.5227 6.5289,1.5477 7.2099,1.0617 C7.5309,2.8627 7.8509,4.6627 8.1719,6.4637 C8.2219,6.7447 8.2769,7.0367 8.4489,7.2647 C8.6209,7.4927 8.9479,7.6307 9.1999,7.4967 C9.4289,7.3757 9.5089,7.0967 9.6259,6.8657 C9.7419,6.6347 10.0019,6.4097 10.2339,6.5247 C10.4539,6.6327 10.4509,6.9387 10.5219,7.1747 C10.7059,7.7807 11.5329,7.9757 12.1119,7.7177 C12.6899,7.4597 13.0709,6.9057 13.4219,6.3777 C13.9159,5.6327 14.4099,4.8887 14.9039,4.1437 C15.3289,6.2747 14.3559,8.4507 13.0639,10.1967 C12.9989,10.2847 12.9279,10.3757 12.8249,10.4117 C12.6879,10.4607 12.5389,10.3977 12.4059,10.3377 C10.8609,9.6417 9.1559,9.3037 7.4619,9.3557 C6.3169,9.3917 5.0069,9.7277 4.5259,10.7667 C4.3159,11.2187 4.3029,11.7327 4.2929,12.2307 C4.2679,13.4947 4.2439,14.7587 4.2189,16.0237 C3.2199,15.8377 2.2379,15.5197 1.5519,14.7937 C1.4949,14.7337 1.4509,14.6667 1.3999,14.6037 C1.9639,13.8717 2.0959,12.7467 2.1089,11.7677 C2.1259,10.4547 2.2199,8.9047 3.3309,8.2057" id="Fill-3" fill="#ECECD3"></path>
                                <path d="M15.3461,8.5564 C15.1471,8.9654 14.8801,9.3444 14.7451,9.7774 C14.6131,10.2034 14.6141,10.6574 14.5921,11.1024 C14.4951,13.0714 13.7311,15.2254 11.9501,16.0694 C11.0021,16.5174 9.9121,16.5254 8.8641,16.4844 C7.5651,16.4324 6.2691,16.3194 4.9811,16.1454 C4.7291,16.1114 4.4731,16.0704 4.2191,16.0234 C4.2431,14.7594 4.2681,13.4944 4.2931,12.2304 C4.3031,11.7324 4.3161,11.2184 4.5251,10.7664 C5.0071,9.7274 6.3171,9.3914 7.4621,9.3564 C9.1561,9.3034 10.8601,9.6424 12.4061,10.3374 C12.5391,10.3974 12.6881,10.4604 12.8251,10.4124 C12.9281,10.3764 12.9991,10.2844 13.0641,10.1974 C14.3361,8.4774 15.2931,6.3404 14.9151,4.2414 C15.2501,4.7574 15.5551,5.2894 15.8291,5.8394 C15.8621,6.7834 15.7571,7.7124 15.3461,8.5564" id="Fill-5" fill="#FFFEED"></path>
                                <path d="M8.8968,1.9974 C9.2778,2.1334 9.6968,2.1024 10.0918,2.1924 C10.8638,2.3674 11.5058,2.9944 12.2968,3.0354 C12.8308,3.0634 13.3928,2.8174 13.8838,3.0284 C14.1768,3.1544 14.3818,3.4204 14.5658,3.6804 C14.6798,3.8414 14.7708,4.0174 14.8788,4.1824 C14.3928,4.9144 13.9068,5.6454 13.4218,6.3774 C13.0708,6.9054 12.6898,7.4604 12.1118,7.7184 C11.5328,7.9764 10.7058,7.7804 10.5218,7.1744 C10.4508,6.9394 10.4538,6.6324 10.2338,6.5244 C10.0018,6.4104 9.7428,6.6354 9.6258,6.8664 C9.5088,7.0964 9.4288,7.3764 9.1998,7.4974 C8.9478,7.6304 8.6208,7.4924 8.4488,7.2644 C8.2768,7.0364 8.2218,6.7444 8.1718,6.4634 C7.8508,4.6624 7.5308,2.8624 7.2098,1.0624 C6.5288,1.5474 6.4808,2.5224 6.4768,3.3594 C6.4708,4.9554 6.2128,6.8414 4.8018,7.5884 C4.3308,7.8374 3.7818,7.9224 3.3308,8.2054 C2.2198,8.9044 2.1268,10.4554 2.1088,11.7674 C2.0958,12.7464 1.9638,13.8714 1.3998,14.6034 C0.5508,13.5484 0.4628,12.0454 0.5108,10.6724 C0.5558,9.3934 0.6648,8.1164 0.8368,6.8484 C0.9988,5.6574 1.4198,4.6424 1.0728,3.4354 C0.5298,1.5514 2.1508,0.2624 3.8748,0.3464 C5.1918,0.4114 6.5048,0.5494 7.8118,0.7234 C7.8218,0.7584 7.8268,0.7944 7.8388,0.8284 C8.0118,1.3434 8.3848,1.8144 8.8968,1.9974" id="Fill-7" fill="#FFFEED"></path>
                                <path d="M14.9153,4.2414 C14.9093,4.2094 14.9103,4.1764 14.9033,4.1444 C14.8953,4.1564 14.8873,4.1694 14.8783,4.1824 C14.7703,4.0174 14.6803,3.8414 14.5663,3.6804 C14.3823,3.4204 14.1773,3.1544 13.8843,3.0284 C13.3933,2.8174 12.8313,3.0624 12.2973,3.0354 C11.5063,2.9944 10.8643,2.3674 10.0913,2.1924 C9.6973,2.1024 9.2773,2.1334 8.8973,1.9974 C8.3843,1.8144 8.0123,1.3434 7.8383,0.8284 C7.8273,0.7934 7.8223,0.7584 7.8123,0.7234 C9.9503,1.0094 12.0703,1.4234 14.1493,1.9994 C14.5203,2.1014 14.9103,2.2214 15.1663,2.5094 C15.4143,2.7894 15.4893,3.1774 15.5543,3.5464 C15.6863,4.2964 15.8023,5.0734 15.8293,5.8394 C15.5553,5.2894 15.2493,4.7574 14.9153,4.2414" id="Fill-9" fill="#ECECD3"></path>
                            </g>
                        </g>
                    </g>
                </g>
            </g>
        </g>
    </g>
</svg>