<?xml version="1.0" encoding="UTF-8" standalone="no"?>
<svg width="16px" height="16px" viewBox="0 0 16 16" version="1.1" xmlns="http://www.w3.org/2000/svg" xmlns:xlink="http://www.w3.org/1999/xlink" xmlns:sketch="http://www.bohemiancoding.com/sketch/ns">
    <!-- Generator: Sketch 3.4 (15575) - http://www.bohemiancoding.com/sketch -->
    <title>Page 1</title>
    <desc>Created with Sketch.</desc>
    <defs></defs>
    <g id="Page-1" stroke="none" stroke-width="1" fill="none" fill-rule="evenodd" sketch:type="MSPage">
        <g id="Doctor---Patient-Landing-Page---Patient---Perio-Chart" sketch:type="MSArtboardGroup" transform="translate(-804.000000, -776.000000)">
            <g id="Chart" sketch:type="MSLayerGroup" transform="translate(271.000000, 398.000000)">
                <g id="Form" transform="translate(0.000000, 24.000000)" sketch:type="MSShapeGroup">
                    <g id="Row-13" transform="translate(526.000000, 197.000000)">
                        <g id="Page-1" transform="translate(8.000000, 157.000000)">
                            <path d="M7.2309,15.2994 C7.7669,15.4844 8.3299,15.5644 8.8789,15.4404 C9.7559,15.2434 10.4369,14.5684 11.0429,13.9034 C12.0619,12.7844 13.0259,11.5914 13.7339,10.2474 C14.0899,9.5724 14.4839,8.8564 14.3959,8.1014 C14.2999,7.2664 13.8759,6.3544 13.5459,5.5884 C13.0619,4.4664 12.5749,3.5124 12.2499,2.3454 C11.8599,0.9404 9.9039,0.9864 8.6799,0.8584 C7.1619,0.7004 5.6309,0.7264 4.1069,0.7544 C3.8109,0.7604 3.5029,0.7684 3.2429,0.9084 C2.8349,1.1284 2.6519,1.6054 2.5009,2.0424 C2.1209,3.1454 1.7739,4.2584 1.4439,5.3764 C1.1439,6.3924 0.4989,7.7304 0.4999,8.7904 C0.5019,10.5384 2.8009,12.2364 4.0099,13.2174 C4.7479,13.8164 5.4909,14.4184 6.3199,14.8834 C6.6089,15.0454 6.9149,15.1904 7.2309,15.2994 L7.2309,15.2994 Z" id="Stroke-1" stroke="#F99B3B"></path>
                            <path d="M5.1386,10.766 C5.5896,11.092 5.7486,11.697 6.1486,12.084 C6.8506,12.765 8.1056,12.514 8.7566,11.783 C9.4066,11.053 9.5776,10.014 9.5896,9.036 C9.6136,7.135 9.1426,5.253 8.4216,3.494 C8.3356,3.284 8.2446,3.054 8.3086,2.837 C8.3546,2.68 8.4746,2.557 8.5896,2.441 C9.0726,1.957 9.5556,1.473 10.0396,0.989 C9.5616,0.927 9.0816,0.9 8.6806,0.859 C7.1616,0.7 5.6306,0.727 4.1066,0.755 C3.8106,0.76 3.5026,0.769 3.2426,0.909 C2.8356,1.128 2.6526,1.605 2.5016,2.043 C2.1206,3.145 1.7746,4.258 1.4436,5.377 C1.1446,6.392 0.4986,7.731 0.4996,8.79 C0.5006,9.387 0.7806,9.976 1.1816,10.534 C2.0646,10.487 2.9486,10.461 3.8326,10.472 C4.2866,10.477 4.7706,10.501 5.1386,10.766" id="Fill-3" fill="#FFFEED"></path>
                            <path d="M13.5454,5.5885 C13.0614,4.4665 12.5744,3.5125 12.2504,2.3455 C11.9874,1.4015 11.0184,1.1165 10.0394,0.9895 C9.5564,1.4735 9.0734,1.9575 8.5894,2.4415 C8.4744,2.5565 8.3544,2.6795 8.3084,2.8365 C8.2444,3.0545 8.3354,3.2835 8.4214,3.4935 C9.1424,5.2525 9.6134,7.1355 9.5894,9.0365 C9.5774,10.0145 9.4074,11.0525 8.7564,11.7835 C8.1054,12.5135 6.8504,12.7655 6.1484,12.0845 C5.7484,11.6975 5.5904,11.0915 5.1384,10.7665 C4.7704,10.5005 4.2864,10.4775 3.8334,10.4715 C2.9484,10.4605 2.0644,10.4875 1.1814,10.5345 C1.9564,11.6115 3.2134,12.5715 4.0094,13.2175 C4.7484,13.8155 5.4914,14.4175 6.3204,14.8835 C6.6084,15.0455 6.9154,15.1905 7.2304,15.2995 C7.7674,15.4845 8.3304,15.5635 8.8784,15.4405 C9.7564,15.2435 10.4374,14.5685 11.0424,13.9035 C12.0614,12.7845 13.0254,11.5915 13.7344,10.2475 C14.0904,9.5725 14.4834,8.8565 14.3964,8.1015 C14.2994,7.2665 13.8754,6.3545 13.5454,5.5885" id="Fill-5" fill="#ECECD3"></path>
                        </g>
                    </g>
                </g>
            </g>
        </g>
    </g>
</svg>