<?xml version="1.0" encoding="UTF-8" standalone="no"?>
<svg width="11px" height="18px" viewBox="0 0 11 18" version="1.1" xmlns="http://www.w3.org/2000/svg" xmlns:xlink="http://www.w3.org/1999/xlink" xmlns:sketch="http://www.bohemiancoding.com/sketch/ns">
    <!-- Generator: Sketch 3.4 (15575) - http://www.bohemiancoding.com/sketch -->
    <title>Page 1</title>
    <desc>Created with Sketch.</desc>
    <defs></defs>
    <g id="Page-1" stroke="none" stroke-width="1" fill="none" fill-rule="evenodd" sketch:type="MSPage">
        <g id="Doctor---Patient-Landing-Page---Patient---Perio-Chart" sketch:type="MSArtboardGroup" transform="translate(-648.000000, -776.000000)">
            <g id="Chart" sketch:type="MSLayerGroup" transform="translate(271.000000, 398.000000)">
                <g id="Form" transform="translate(0.000000, 24.000000)" sketch:type="MSShapeGroup">
                    <g id="Row-8" transform="translate(365.000000, 197.000000)">
                        <g id="Page-1" transform="translate(12.000000, 157.000000)">
                            <path d="M1.3409,17.5 L8.8919,17.5 C9.2849,17.5 9.6029,17.18 9.5959,16.787 C9.5599,14.644 9.4079,8.306 8.8569,6.583 C8.3219,4.914 7.5199,2.637 7.1799,1.399 C7.0649,0.982 6.6919,0.694 6.2589,0.694 L3.5699,0.694 C3.1479,0.694 2.7769,0.968 2.6559,1.372 C2.3069,2.54 1.6029,4.845 1.3569,5.265 C1.0349,5.813 0.1699,10.877 0.6339,16.848 C0.6629,17.215 0.9729,17.5 1.3409,17.5 L1.3409,17.5 Z" id="Stroke-1" stroke="#F99B3B"></path>
                            <path d="M4.5717,9.9121 C4.6807,9.2111 5.2007,8.6341 5.7977,8.2501 C6.3937,7.8661 7.0737,7.6371 7.7197,7.3431 C7.8607,7.2791 8.0077,7.2061 8.0887,7.0741 C8.1597,6.9611 8.1697,6.8211 8.1777,6.6871 C8.2117,6.1621 8.2047,3.6581 6.9357,4.1891 C6.8217,4.2361 6.7447,4.3421 6.6737,4.4431 C6.0937,5.2661 5.4257,5.3051 4.4837,5.5271 C3.8077,5.6871 3.0827,5.8751 2.6377,6.4091 C2.0017,7.1711 2.2247,8.0481 2.3097,8.9231 C2.4247,10.0981 2.3637,11.2711 2.5477,12.4521 C2.8107,14.1441 3.1367,15.8261 3.4967,17.5001 L7.9547,17.5001 C6.7687,15.6611 5.7507,13.7131 4.9267,11.6861 C4.6967,11.1201 4.4777,10.5161 4.5717,9.9121" id="Fill-3" fill="#ECECD3"></path>
                            <path d="M9.5964,16.7866 C9.5604,14.6436 9.4074,8.3056 8.8564,6.5836 C8.3224,4.9136 7.5204,2.6376 7.1804,1.3986 C7.0654,0.9816 6.6914,0.6946 6.2594,0.6946 L3.5704,0.6946 C3.1474,0.6946 2.7764,0.9676 2.6564,1.3726 C2.3074,2.5396 1.6034,4.8446 1.3564,5.2656 C1.0344,5.8136 0.1694,10.8776 0.6344,16.8476 C0.6624,17.2146 0.9734,17.4996 1.3414,17.4996 L3.4974,17.4996 C3.1364,15.8256 2.8104,14.1446 2.5474,12.4516 C2.3644,11.2716 2.4254,10.0986 2.3104,8.9236 C2.2244,8.0486 2.0014,7.1706 2.6374,6.4086 C3.0824,5.8756 3.8074,5.6866 4.4834,5.5276 C5.4264,5.3046 6.0944,5.2656 6.6744,4.4426 C6.7454,4.3426 6.8224,4.2366 6.9354,4.1886 C8.2054,3.6586 8.2114,6.1616 8.1784,6.6876 C8.1694,6.8206 8.1594,6.9606 8.0884,7.0746 C8.0074,7.2056 7.8604,7.2796 7.7204,7.3436 C7.0744,7.6366 6.3944,7.8666 5.7974,8.2506 C5.2014,8.6346 4.6804,9.2106 4.5714,9.9116 C4.4784,10.5156 4.6974,11.1206 4.9274,11.6866 C5.7514,13.7136 6.7694,15.6606 7.9544,17.4996 L8.8914,17.4996 C9.2854,17.4996 9.6034,17.1806 9.5964,16.7866" id="Fill-5" fill="#FFFEED"></path>
                        </g>
                    </g>
                </g>
            </g>
        </g>
    </g>
</svg>