<?xml version="1.0" encoding="UTF-8" standalone="no"?>
<svg width="17px" height="18px" viewBox="0 0 17 18" version="1.1" xmlns="http://www.w3.org/2000/svg" xmlns:xlink="http://www.w3.org/1999/xlink" xmlns:sketch="http://www.bohemiancoding.com/sketch/ns">
    <!-- Generator: Sketch 3.4 (15575) - http://www.bohemiancoding.com/sketch -->
    <title>Page 1</title>
    <desc>Created with Sketch.</desc>
    <defs></defs>
    <g id="Page-1" stroke="none" stroke-width="1" fill="none" fill-rule="evenodd" sketch:type="MSPage">
        <g id="Doctor---Patient-Landing-Page---Patient---Perio-Chart" sketch:type="MSArtboardGroup" transform="translate(-773.000000, -775.000000)">
            <g id="Chart" sketch:type="MSLayerGroup" transform="translate(271.000000, 398.000000)">
                <g id="Form" transform="translate(0.000000, 24.000000)" sketch:type="MSShapeGroup">
                    <g id="Row-12" transform="translate(494.000000, 197.000000)">
                        <g id="Rectangle-154-Copy-12-+-12-Copy" transform="translate(0.000000, 35.000000)">
                            <g id="tooth-22" transform="translate(8.000000, 122.000000)">
                                <g id="Page-1">
                                    <path d="M7.5724,15.9086 C8.1454,16.2136 8.7554,16.5176 9.4054,16.4996 C10.1904,16.4776 10.8764,15.9926 11.5084,15.5266 C12.3544,14.9046 13.1994,14.2826 14.0454,13.6606 C14.4454,13.3656 14.8544,13.0626 15.1374,12.6536 C15.6624,11.8946 15.6724,10.8996 15.5864,9.9806 C15.4254,8.2576 14.9914,6.5606 14.3064,4.9706 C13.8224,3.8486 13.3354,2.8946 13.0114,1.7276 C12.6204,0.3226 10.6644,0.3686 9.4414,0.2406 C7.9224,0.0826 6.3914,0.1086 4.8674,0.1366 C4.5724,0.1426 4.2634,0.1506 4.0034,0.2906 C3.5964,0.5106 3.4134,0.9876 3.2624,1.4246 C2.2544,4.3476 1.4834,7.3346 0.6444,10.2866 C0.5084,10.7646 0.4024,11.3046 0.6464,11.7366 C0.8014,12.0116 1.0744,12.1966 1.3414,12.3656 C3.3364,13.6306 5.4754,14.7946 7.5724,15.9086 L7.5724,15.9086 Z" id="Stroke-1" stroke="#F99B3B"></path>
                                    <path d="M11.8283,10.6979 C12.2583,10.4499 12.6763,10.1429 12.9133,9.7069 C13.2753,9.0419 13.1483,8.2289 13.0013,7.4859 C12.5303,5.1139 11.9323,2.7689 11.2533,0.4479 C10.6353,0.3249 9.9713,0.2959 9.4413,0.2409 C7.9223,0.0829 6.3913,0.1089 4.8673,0.1369 C4.5723,0.1429 4.2643,0.1509 4.0033,0.2909 C3.5963,0.5109 3.4133,0.9869 3.2623,1.4249 C2.4813,3.6879 1.8433,5.9889 1.2053,8.2829 C2.7773,9.7819 4.5613,11.1029 6.6673,11.5349 C8.4123,11.8939 10.2853,11.5899 11.8283,10.6979" id="Fill-3" fill="#FFFEED"></path>
                                    <path d="M15.5864,9.9809 C15.4254,8.2579 14.9914,6.5599 14.3064,4.9709 C13.8224,3.8479 13.3354,2.8949 13.0104,1.7279 C12.7894,0.9309 12.0624,0.6069 11.2534,0.4469 C11.9314,2.7689 12.5304,5.1139 13.0014,7.4859 C13.1484,8.2289 13.2754,9.0419 12.9134,9.7069 C12.6754,10.1429 12.2574,10.4499 11.8284,10.6979 C10.2854,11.5899 8.4124,11.8939 6.6674,11.5349 C4.5604,11.1029 2.7764,9.7819 1.2054,8.2829 C1.0194,8.9519 0.8334,9.6209 0.6444,10.2869 C0.5084,10.7649 0.4024,11.3039 0.6464,11.7369 C0.8014,12.0119 1.0744,12.1959 1.3414,12.3649 C3.3364,13.6309 5.4754,14.7949 7.5724,15.9089 C8.1454,16.2129 8.7554,16.5169 9.4054,16.4989 C10.1904,16.4769 10.8764,15.9929 11.5084,15.5269 C12.3544,14.9049 13.1994,14.2829 14.0444,13.6609 C14.4454,13.3659 14.8544,13.0629 15.1374,12.6539 C15.6624,11.8949 15.6724,10.8999 15.5864,9.9809" id="Fill-5" fill="#ECECD3"></path>
                                </g>
                            </g>
                        </g>
                    </g>
                </g>
            </g>
        </g>
    </g>
</svg>