<?xml version="1.0" encoding="UTF-8" standalone="no"?>
<svg width="22px" height="33px" viewBox="0 0 22 33" version="1.1" xmlns="http://www.w3.org/2000/svg" xmlns:xlink="http://www.w3.org/1999/xlink" xmlns:sketch="http://www.bohemiancoding.com/sketch/ns">
    <!-- Generator: Sketch 3.4 (15575) - http://www.bohemiancoding.com/sketch -->
    <title>Bottom</title>
    <desc>Created with Sketch.</desc>
    <defs></defs>
    <g id="Page-1" stroke="none" stroke-width="1" fill="none" fill-rule="evenodd" sketch:type="MSPage">
        <g id="Doctor---Patient-Landing-Page---Patient---Perio-Chart" sketch:type="MSArtboardGroup" transform="translate(-418.000000, -837.000000)">
            <g id="Chart" sketch:type="MSLayerGroup" transform="translate(271.000000, 398.000000)">
                <g id="Form" transform="translate(0.000000, 24.000000)" sketch:type="MSShapeGroup">
                    <g id="Row-1" transform="translate(141.000000, 197.000000)">
                        <g id="Tooth---32" transform="translate(6.000000, 157.000000)">
                            <g id="Bottom" transform="translate(0.000000, 61.000000)">
                                <path d="M19.0035,2.9122 C17.0975,2.3052 14.6425,1.6092 13.6145,1.6802 C11.8225,1.8052 11.3225,1.7222 10.3645,1.0972 C9.4065,0.4722 6.8435,0.7142 6.8435,0.7142 C5.8965,0.8312 3.9895,2.4722 3.8225,3.3052 C3.6565,4.1392 3.5315,5.3892 3.3645,7.4302 C3.2625,8.6792 3.7385,11.0352 4.3325,13.3722 C4.7095,14.8562 5.1335,16.3322 5.4895,17.5142 C6.4065,20.5552 2.3935,26.0512 1.2815,27.2642 C0.6265,27.9782 0.2605,30.3892 0.6775,31.5142 C1.0935,32.6392 2.8645,32.1392 4.3645,31.9302 C5.8645,31.7222 5.1975,33.1392 8.0315,32.1392 C10.8645,31.1392 16.2395,21.8572 17.0315,17.1802 C17.0885,16.8442 17.2245,16.3172 17.4105,15.6732 C18.1255,13.2012 19.6225,8.9122 20.6175,6.2122 C21.1195,4.8512 20.3845,3.3522 19.0035,2.9122 L19.0035,2.9122 Z" id="Stroke-1" stroke="#F99B3B"></path>
                                <path d="M7.5432,28.1001 C8.1932,27.3661 8.5802,26.4411 8.9542,25.5351 C9.5712,24.0451 10.1882,22.5541 10.8052,21.0641 C11.0042,20.5821 11.1622,19.9311 10.7442,19.6201 C10.2072,20.7091 9.7432,21.8341 9.3572,22.9861 C9.0742,23.8321 8.8302,24.7001 8.3972,25.4801 C8.0622,26.0831 7.6222,26.6201 7.1842,27.1531 C5.6922,28.9711 4.1352,30.8281 2.2622,32.2121 C2.9142,32.1821 3.6662,32.0271 4.3642,31.9301 C4.6822,31.8861 4.9002,31.9171 5.0772,31.9801 C5.2662,31.0361 5.5932,30.1431 6.2162,29.4151 C6.6212,28.9421 7.1302,28.5661 7.5432,28.1001" id="Fill-3" fill="#E6C78C"></path>
                                <path d="M17.4106,15.6729 C15.9836,16.0479 13.7606,16.4199 10.9476,16.1989 C8.1866,15.9829 5.8746,14.5959 4.3326,13.3719 C4.5366,14.1769 4.7546,14.9749 4.9686,15.7299 C5.1066,15.8059 5.2466,15.8799 5.3916,15.9409 C6.1006,16.2379 6.8646,16.3719 7.6176,16.5259 C9.2066,16.8499 10.7746,17.2749 12.3096,17.7969 C12.7066,17.9309 13.1266,18.0909 13.3646,18.4349 C13.6946,18.9109 13.5646,19.5539 13.4206,20.1139 C13.2186,20.9019 13.0176,21.6899 12.8176,22.4789 C12.7196,22.8659 12.6266,23.2979 12.8196,23.6469 C13.0586,24.0789 13.6176,24.1909 14.1066,24.2579 C14.1626,24.2659 14.2216,24.2709 14.2786,24.2779 C15.6316,21.7269 16.7106,19.0769 17.0316,17.1809 C17.0886,16.8449 17.2246,16.3169 17.4106,15.6729" id="Fill-5" fill="#E6C78C"></path>
                                <path d="M12.8197,23.647 C12.6267,23.297 12.7197,22.866 12.8177,22.478 C13.0177,21.69 13.2187,20.902 13.4207,20.114 C13.5637,19.553 13.6947,18.91 13.3647,18.435 C13.1267,18.091 12.7067,17.931 12.3097,17.796 C10.7747,17.275 9.2067,16.85 7.6177,16.526 C6.8647,16.372 6.1007,16.238 5.3917,15.941 C5.2467,15.88 5.1067,15.806 4.9687,15.729 C5.1487,16.366 5.3267,16.973 5.4897,17.514 C6.4067,20.556 2.3927,26.051 1.2817,27.264 C0.6267,27.978 0.2607,30.389 0.6767,31.514 C0.8997,32.115 1.5137,32.247 2.2627,32.212 C4.1357,30.828 5.6927,28.971 7.1847,27.153 C7.6217,26.62 8.0627,26.083 8.3967,25.48 C8.8297,24.7 9.0747,23.832 9.3577,22.986 C9.7427,21.835 10.2067,20.709 10.7447,19.62 C11.1627,19.931 11.0047,20.582 10.8047,21.064 C10.1887,22.554 9.5717,24.045 8.9547,25.535 C8.5797,26.442 8.1937,27.366 7.5427,28.1 C7.1297,28.566 6.6217,28.942 6.2167,29.415 C5.5937,30.143 5.2667,31.036 5.0767,31.98 C5.7367,32.216 5.7977,32.927 8.0317,32.139 C9.7157,31.544 12.2947,28.02 14.2787,24.278 C14.2217,24.271 14.1627,24.265 14.1067,24.258 C13.6177,24.191 13.0587,24.079 12.8197,23.647" id="Fill-7" fill="#F3D498"></path>
                                <path d="M3.5424,9.707 C3.7214,10.813 4.0064,12.092 4.3324,13.372 C4.9814,13.888 5.7744,14.427 6.6734,14.901 C5.6684,13.887 4.9864,12.589 4.3434,11.306 C4.0764,10.773 3.8094,10.24 3.5424,9.707" id="Fill-9" fill="#FFFEED"></path>
                                <path d="M19.0035,2.9122 C17.0975,2.3052 14.6425,1.6092 13.6145,1.6802 C12.2885,1.7732 11.6705,1.7502 11.0505,1.4792 C11.1765,1.9082 11.2635,2.3492 11.2695,2.7972 C11.2835,3.7512 11.0245,4.7252 11.2695,5.6482 C12.0675,5.5342 12.2875,4.4582 12.9415,3.9882 C13.5245,3.5702 14.3235,3.7122 15.0225,3.8722 C16.2625,4.1562 17.6515,4.5492 18.2455,5.6742 C18.6465,6.4352 18.5725,7.3692 18.2915,8.1822 C18.0105,8.9952 17.5425,9.7292 17.1605,10.5002 C16.5375,11.7592 16.1415,13.1312 15.9975,14.5292 C15.9865,14.6312 15.9795,14.7412 16.0335,14.8272 C16.0965,14.9282 16.2235,14.9652 16.3395,14.9952 C16.7335,15.0962 17.1285,15.1982 17.5225,15.2992 C18.2715,12.7882 19.6685,8.7862 20.6175,6.2122 C21.1195,4.8512 20.3845,3.3522 19.0035,2.9122" id="Fill-11" fill="#ECECD3"></path>
                                <path d="M16.0337,14.8271 C15.9797,14.7411 15.9867,14.6311 15.9977,14.5301 C16.1417,13.1311 16.5377,11.7591 17.1607,10.5001 C17.5427,9.7291 18.0107,8.9961 18.2917,8.1821 C18.5717,7.3691 18.6467,6.4351 18.2457,5.6741 C17.6517,4.5491 16.2627,4.1561 15.0227,3.8721 C14.3237,3.7121 13.5247,3.5701 12.9417,3.9881 C12.2877,4.4581 12.0667,5.5341 11.2697,5.6481 C11.0247,4.7251 11.2837,3.7511 11.2697,2.7971 C11.2637,2.3491 11.1767,1.9091 11.0507,1.4791 C10.8327,1.3841 10.6137,1.2601 10.3647,1.0971 C9.4067,0.4721 6.8437,0.7141 6.8437,0.7141 C6.4627,0.7611 5.9267,1.0601 5.4097,1.4491 C5.2847,2.5481 5.2017,3.6501 5.1997,4.7561 C5.1987,5.3831 5.2177,6.0141 5.3387,6.6301 C5.9077,9.5481 7.5267,12.3331 10.0707,13.9461 C10.7767,14.3941 11.5887,14.7461 12.2607,15.2311 C12.4387,15.3591 12.7717,15.8101 13.1117,16.2561 C14.9107,16.2131 16.3727,15.9461 17.4107,15.6731 C17.4437,15.5581 17.4867,15.4211 17.5227,15.2991 C17.1287,15.1981 16.7337,15.0961 16.3387,14.9951 C16.2237,14.9651 16.0967,14.9281 16.0337,14.8271" id="Fill-13" fill="#FFFEED"></path>
                                <path d="M12.2606,15.2311 C11.5886,14.7461 10.7776,14.3941 10.0706,13.9461 C7.5266,12.3331 5.9076,9.5481 5.3386,6.6301 C5.2186,6.0141 5.1986,5.3831 5.1996,4.7561 C5.2016,3.6501 5.2846,2.5481 5.4096,1.4491 C4.6446,2.0271 3.9226,2.8081 3.8226,3.3051 C3.6566,4.1391 3.5316,5.3891 3.3646,7.4301 C3.3186,7.9951 3.3946,8.7931 3.5426,9.7071 C3.8096,10.2401 4.0766,10.7731 4.3436,11.3061 C4.9866,12.5891 5.6686,13.8871 6.6736,14.9011 C7.9086,15.5521 9.3496,16.0741 10.9476,16.1991 C11.7166,16.2591 12.4356,16.2721 13.1116,16.2561 C12.7716,15.8101 12.4386,15.3591 12.2606,15.2311" id="Fill-15" fill="#ECECD3"></path>
                            </g>
                        </g>
                    </g>
                </g>
            </g>
        </g>
    </g>
</svg>