<?xml version="1.0" encoding="UTF-8" standalone="no"?>
<svg width="14px" height="21px" viewBox="0 0 14 21" version="1.1" xmlns="http://www.w3.org/2000/svg" xmlns:xlink="http://www.w3.org/1999/xlink" xmlns:sketch="http://www.bohemiancoding.com/sketch/ns">
    <!-- Generator: Sketch 3.4 (15575) - http://www.bohemiancoding.com/sketch -->
    <title>Page 1</title>
    <desc>Created with Sketch.</desc>
    <defs></defs>
    <g id="Page-1" stroke="none" stroke-width="1" fill="none" fill-rule="evenodd" sketch:type="MSPage">
        <g id="Doctor---Patient-Landing-Page---Patient---Perio-Chart" sketch:type="MSArtboardGroup" transform="translate(-582.000000, -776.000000)">
            <g id="Chart" sketch:type="MSLayerGroup" transform="translate(271.000000, 398.000000)">
                <g id="Form" transform="translate(0.000000, 24.000000)" sketch:type="MSShapeGroup">
                    <g id="Row-6" transform="translate(302.000000, 197.000000)">
                        <g id="Tooth-27" transform="translate(9.000000, 157.000000)">
                            <g id="Page-1">
                                <path d="M4.0821,19.7172 C2.8571,18.9802 1.4131,18.4372 0.8051,17.0582 C0.3651,16.0582 0.4791,14.9502 0.6631,13.9452 C0.9591,12.3232 1.5051,10.7572 2.0621,9.2092 C2.9071,6.8622 3.7881,4.5272 4.7031,2.2062 C4.8141,1.9252 4.9311,1.6362 5.1461,1.4242 C5.3791,1.1942 5.7041,1.0802 6.0261,1.0272 C7.7411,0.7432 9.3481,1.9852 10.3741,3.3882 C11.5921,5.0522 12.3451,7.0512 12.5291,9.1052 C12.6341,10.2882 12.5541,11.4792 12.5181,12.6662 C12.4641,14.4542 12.9631,16.7422 12.5531,18.4672 C12.1641,20.1012 10.2941,19.3412 9.1031,19.5782 C8.0691,19.7842 7.1521,20.5262 6.0981,20.4992 C5.3691,20.4802 4.7071,20.0932 4.0821,19.7172 L4.0821,19.7172 Z" id="Stroke-1" stroke="#F99B3B"></path>
                                <path d="M5.2898,11.3015 C5.5618,10.7965 6.0308,10.4315 6.4858,10.0825 C7.8068,9.0675 9.1278,8.0525 10.4488,7.0375 C10.6028,6.9185 10.7718,6.7945 10.9668,6.7895 C11.4258,6.7775 11.6198,7.3655 11.6518,7.8235 C11.7388,9.0435 11.6738,10.2745 11.4598,11.4795 C11.3458,12.1245 11.1878,12.7735 11.2318,13.4275 C11.2788,14.1065 11.5408,14.7505 11.7998,15.3805 L12.6838,17.5315 C12.8018,15.9685 12.4738,14.1475 12.5188,12.6655 C12.5548,11.4785 12.6338,10.2885 12.5288,9.1045 C12.3448,7.0515 11.5918,5.0515 10.3748,3.3875 C9.3488,1.9855 7.7408,0.7425 6.0268,1.0265 C5.7038,1.0805 5.3788,1.1945 5.1458,1.4245 C4.9308,1.6355 4.8138,1.9255 4.7038,2.2055 C3.7878,4.5265 2.9068,6.8615 2.0618,9.2095 C1.5048,10.7575 0.9598,12.3225 0.6628,13.9455 C0.4788,14.9505 0.3648,16.0585 0.8058,17.0585 C1.4128,18.4375 2.8568,18.9795 4.0818,19.7175 C4.6788,20.0755 5.3098,20.4355 5.9998,20.4855 C5.3598,18.1095 5.0038,15.6575 4.9708,13.1975 C4.9618,12.5495 4.9818,11.8715 5.2898,11.3015" id="Fill-3" fill="#FFFEED"></path>
                                <path d="M11.7999,15.3806 C11.5409,14.7506 11.2789,14.1066 11.2319,13.4276 C11.1879,12.7736 11.3459,12.1246 11.4599,11.4796 C11.6739,10.2746 11.7389,9.0436 11.6519,7.8236 C11.6189,7.3656 11.4259,6.7776 10.9669,6.7896 C10.7719,6.7946 10.6029,6.9186 10.4489,7.0376 C9.1279,8.0526 7.8069,9.0676 6.4859,10.0826 C6.0309,10.4316 5.5619,10.7966 5.2899,11.3016 C4.9819,11.8716 4.9619,12.5486 4.9709,13.1966 C5.0039,15.6566 5.3599,18.1096 5.9999,20.4846 C6.0329,20.4876 6.0649,20.4986 6.0979,20.4996 C7.1519,20.5266 8.0689,19.7846 9.1029,19.5786 C10.2949,19.3406 12.1639,20.1006 12.5529,18.4666 C12.6229,18.1716 12.6599,17.8546 12.6839,17.5316 L11.7999,15.3806 Z" id="Fill-5" fill="#ECECD3"></path>
                            </g>
                        </g>
                    </g>
                </g>
            </g>
        </g>
    </g>
</svg>