<?xml version="1.0" encoding="UTF-8" standalone="no"?>
<svg width="17px" height="36px" viewBox="0 0 17 36" version="1.1" xmlns="http://www.w3.org/2000/svg" xmlns:xlink="http://www.w3.org/1999/xlink" xmlns:sketch="http://www.bohemiancoding.com/sketch/ns">
    <!-- Generator: Sketch 3.4 (15575) - http://www.bohemiancoding.com/sketch -->
    <title>Page 1</title>
    <desc>Created with Sketch.</desc>
    <defs></defs>
    <g id="Page-1" stroke="none" stroke-width="1" fill="none" fill-rule="evenodd" sketch:type="MSPage">
        <g id="Doctor---Patient-Landing-Page---Patient---Perio-Chart" sketch:type="MSArtboardGroup" transform="translate(-900.000000, -660.000000)">
            <g id="Chart" sketch:type="MSLayerGroup" transform="translate(271.000000, 398.000000)">
                <g id="Form" transform="translate(0.000000, 24.000000)" sketch:type="MSShapeGroup">
                    <g id="Row-16" transform="translate(622.000000, 197.000000)">
                        <g id="Page-1" transform="translate(7.000000, 41.000000)">
                            <path d="M9.3572,1.1237 C6.9272,3.9427 5.6532,7.4517 4.6982,10.9967 C3.7342,14.5767 2.3232,18.3557 2.1882,22.0577 C2.1782,22.3577 2.1722,22.6667 2.0572,22.9437 C1.9552,23.1867 1.7772,23.3877 1.6152,23.5957 C0.3982,25.1587 0.4112,27.1087 0.5842,28.9867 C0.7142,30.4117 0.2202,32.5027 1.0902,33.7567 C1.9342,34.9747 3.8042,35.2877 5.1652,35.3177 C5.9812,35.3347 6.4302,35.1407 7.1332,34.8557 C7.9892,34.5077 8.5062,34.3627 9.3072,34.7237 C10.1672,35.1117 10.8812,35.4017 11.8862,35.4777 C12.4632,35.5217 13.0552,35.5127 13.6042,35.3287 C14.3802,35.0687 15.0122,34.4757 15.4552,33.7867 C16.4492,32.2407 16.5432,30.2657 16.2212,28.4557 C15.8982,26.6457 15.1982,24.9277 14.7002,23.1577 C12.7902,16.3597 13.9282,9.1387 14.4292,2.0947 C14.4432,1.8967 14.4482,1.6737 14.3102,1.5317 C14.1502,1.3687 13.8782,1.3977 13.6672,1.4837 C13.2502,1.6537 12.9232,1.9877 12.5302,2.2047 C12.1362,2.4207 11.5872,2.4907 11.2792,2.1627 C11.0512,1.9207 11.0342,1.5447 10.8492,1.2677 C10.5312,0.7917 9.7012,0.8157 9.4112,1.3087" id="Stroke-1" stroke="#F99B3B"></path>
                            <path d="M15.4549,33.7871 C15.0119,34.4761 14.3809,35.0691 13.6039,35.3291 C13.0549,35.5121 12.4629,35.5221 11.8859,35.4781 C10.8809,35.4011 10.1679,35.1111 9.3069,34.7241 C8.5059,34.3621 7.9889,34.5081 7.1329,34.8561 C6.4299,35.1411 5.9809,35.3351 5.1649,35.3171 C3.8039,35.2881 1.9349,34.9741 1.0899,33.7571 C0.9839,33.6041 0.8999,33.4391 0.8319,33.2651 C1.9459,33.3771 3.1069,33.1231 4.1369,32.6561 C5.5409,32.0201 6.7469,31.0251 7.9249,30.0311 C8.2279,29.7751 8.6419,29.5041 8.9879,29.6991 C9.3739,29.9161 9.2929,30.5041 9.0619,30.8821 C8.8309,31.2591 8.4899,31.6221 8.5119,32.0641 C8.5419,32.6771 9.2259,33.0131 9.8129,33.1951 C10.6819,33.4651 11.6459,33.6801 12.4809,33.3161 C13.5409,32.8541 14.0369,31.5801 13.9989,30.4241 C13.9609,29.2671 13.5099,28.1721 13.1829,27.0621 C12.9169,26.1621 12.7569,25.2351 12.6569,24.3031 C13.6799,24.6251 14.6439,25.0941 15.5029,25.7201 C15.7889,26.6211 16.0549,27.5261 16.2209,28.4561 C16.5439,30.2661 16.4489,32.2401 15.4549,33.7871" id="Fill-3" fill="#ECECD3"></path>
                            <path d="M10.9489,23.8761 C11.5259,23.9761 12.0959,24.1261 12.6569,24.3031 C12.7569,25.2361 12.9169,26.1621 13.1829,27.0621 C13.5099,28.1721 13.9609,29.2671 13.9989,30.4241 C14.0369,31.5801 13.5409,32.8541 12.4809,33.3161 C11.6459,33.6801 10.6819,33.4661 9.8129,33.1961 C9.2259,33.0131 8.5419,32.6771 8.5119,32.0641 C8.4899,31.6221 8.8309,31.2591 9.0619,30.8821 C9.2929,30.5051 9.3739,29.9161 8.9879,29.6991 C8.6419,29.5041 8.2279,29.7751 7.9249,30.0311 C6.7469,31.0261 5.5409,32.0201 4.1369,32.6561 C3.1069,33.1231 1.9459,33.3771 0.8319,33.2651 C0.3319,32.0041 0.6989,30.2391 0.5839,28.9871 C0.4239,27.2451 0.4149,25.4441 1.3829,23.9451 C2.6049,23.6561 3.9079,23.6211 5.1739,23.6021 C7.1039,23.5731 9.0469,23.5451 10.9489,23.8761" id="Fill-5" fill="#FFFEED"></path>
                            <path d="M10.8417,20.4461 C9.5007,19.6091 9.3607,17.7461 9.3677,16.1661 C9.3757,14.2771 9.3857,12.3721 9.7837,10.5261 C10.3787,7.7691 11.8227,5.1461 11.9847,2.3701 C12.1737,2.3491 12.3657,2.2951 12.5297,2.2041 C12.9237,1.9881 13.2507,1.6541 13.6667,1.4841 C13.8777,1.3981 14.1497,1.3691 14.3097,1.5321 C14.4477,1.6731 14.4437,1.8971 14.4297,2.0951 C14.3867,2.6911 14.3397,3.2901 14.2897,3.8891 C12.4007,6.6681 11.8337,10.2421 11.4567,13.6361 C11.2057,15.9011 11.0007,18.1721 10.8417,20.4461" id="Fill-7" fill="#E6C78C"></path>
                            <path d="M12.6567,24.3032 C12.0957,24.1262 11.5257,23.9762 10.9487,23.8762 C9.0477,23.5452 7.1037,23.5732 5.1737,23.6022 C3.9077,23.6212 2.6047,23.6562 1.3827,23.9452 C1.4587,23.8282 1.5267,23.7092 1.6147,23.5962 C1.7777,23.3872 1.9557,23.1872 2.0567,22.9442 C2.1727,22.6662 2.1777,22.3572 2.1887,22.0572 C2.3227,18.3562 3.7337,14.5762 4.6987,10.9962 C5.6527,7.4522 6.9277,3.9422 9.3577,1.1242 L9.4107,1.3082 C9.7007,0.8152 10.5307,0.7922 10.8487,1.2672 C11.0337,1.5442 11.0507,1.9202 11.2787,2.1632 C11.4587,2.3532 11.7197,2.3992 11.9847,2.3702 C11.8227,5.1462 10.3787,7.7692 9.7837,10.5262 C9.3857,12.3722 9.3757,14.2772 9.3677,16.1662 C9.3607,17.7462 9.5007,19.6092 10.8417,20.4462 C11.0007,18.1722 11.2057,15.9012 11.4567,13.6362 C11.8337,10.2422 12.4007,6.6682 14.2897,3.8892 C13.9417,8.1132 13.4797,12.3822 13.6867,16.5692 C12.7287,19.0162 12.3757,21.6912 12.6567,24.3032" id="Fill-9" fill="#F3D498"></path>
                            <path d="M13.6864,16.5695 C13.7964,18.7955 14.0934,20.9985 14.7004,23.1585 C14.9424,24.0185 15.2324,24.8675 15.5034,25.7205 C14.6444,25.0945 13.6794,24.6255 12.6564,24.3035 C12.3764,21.6905 12.7284,19.0165 13.6864,16.5695" id="Fill-11" fill="#E6C78C"></path>
                        </g>
                    </g>
                </g>
            </g>
        </g>
    </g>
</svg>