<?xml version="1.0" encoding="UTF-8" standalone="no"?>
<svg width="17px" height="13px" viewBox="0 0 17 13" version="1.1" xmlns="http://www.w3.org/2000/svg" xmlns:xlink="http://www.w3.org/1999/xlink" xmlns:sketch="http://www.bohemiancoding.com/sketch/ns">
    <!-- Generator: Sketch 3.4 (15575) - http://www.bohemiancoding.com/sketch -->
    <title>Bottom</title>
    <desc>Created with Sketch.</desc>
    <defs></defs>
    <g id="Page-1" stroke="none" stroke-width="1" fill="none" fill-rule="evenodd" sketch:type="MSPage">
        <g id="Doctor---Patient-Landing-Page---Patient---Perio-Chart" sketch:type="MSArtboardGroup" transform="translate(-421.000000, -743.000000)">
            <g id="Chart" sketch:type="MSLayerGroup" transform="translate(271.000000, 398.000000)">
                <g id="Form" transform="translate(0.000000, 24.000000)" sketch:type="MSShapeGroup">
                    <g id="Row-1" transform="translate(141.000000, 197.000000)">
                        <g id="Tooth---1" transform="translate(9.000000, 41.000000)">
                            <g id="Bottom" transform="translate(0.000000, 83.000000)">
                                <path d="M2.1437,2.4144 C1.0387,2.9074 0.4687,2.8794 0.5017,4.3034 C0.5187,5.0714 0.7597,5.9014 1.0307,6.5944 C1.5127,7.8264 2.2927,8.9174 3.1117,9.9554 C3.8337,10.8714 4.6537,11.7984 5.7647,12.1524 C6.2537,12.3074 6.7707,12.3414 7.2817,12.3704 C8.2527,12.4264 9.2247,12.4674 10.1967,12.4944 C10.5407,12.5044 10.8917,12.5114 11.2217,12.4144 C11.7087,12.2714 12.1017,11.9184 12.4757,11.5764 C13.0127,11.0834 13.5517,10.5864 14.0127,10.0214 C15.2757,8.4714 15.8967,6.4124 15.7007,4.4224 C15.6297,3.7004 15.3817,2.8934 14.7227,2.5914 C14.2367,2.3684 13.6737,2.4874 13.1387,2.4924 C11.4297,2.5064 9.9607,1.3254 8.3167,0.8614 C6.8087,0.4364 5.1327,0.6454 3.7767,1.4284 C3.2257,1.7474 2.7247,2.1554 2.1437,2.4144 L2.1437,2.4144 Z" id="Stroke-1" stroke="#F99B3B"></path>
                                <path d="M2.5114,4.6388 C2.8924,3.5168 3.8674,2.6038 5.0234,2.3478 C6.1804,2.0918 7.4754,2.5288 8.2004,3.4658 C8.3434,3.6518 8.4864,3.8688 8.7154,3.9218 C8.9254,3.9698 9.1344,3.8598 9.3294,3.7678 C10.3874,3.2688 11.6494,3.2198 12.7424,3.6368 C13.1104,3.7768 13.4694,3.9758 13.7164,4.2818 C13.9794,4.6098 14.0944,5.0298 14.1784,5.4418 C14.4694,6.8578 14.4744,8.3298 14.2104,9.7508 C14.1444,9.8408 14.0834,9.9348 14.0124,10.0208 C13.5514,10.5868 13.0134,11.0828 12.4754,11.5758 C12.1014,11.9188 11.7084,12.2718 11.2224,12.4148 C10.8914,12.5118 10.5404,12.5048 10.1964,12.4948 C9.2244,12.4678 8.2534,12.4258 7.2824,12.3708 C6.7704,12.3418 6.2534,12.3078 5.7654,12.1518 C4.6534,11.7988 3.8344,10.8708 3.1114,9.9558 C2.7514,9.4988 2.4034,9.0288 2.0804,8.5438 C2.1274,7.8628 2.1734,7.1818 2.2204,6.5008 C2.2644,5.8718 2.3084,5.2348 2.5114,4.6388" id="Fill-3" fill="#FFFEED"></path>
                                <path d="M14.2108,9.7509 C14.4738,8.3299 14.4688,6.8579 14.1788,5.4419 C14.0938,5.0299 13.9798,4.6089 13.7158,4.2819 C13.4688,3.9749 13.1108,3.7769 12.7428,3.6369 C11.6498,3.2199 10.3878,3.2689 9.3298,3.7679 C9.1348,3.8599 8.9248,3.9689 8.7148,3.9209 C8.4868,3.8689 8.3428,3.6519 8.1998,3.4659 C7.4758,2.5289 6.1798,2.0919 5.0238,2.3479 C3.8668,2.6039 2.8928,3.5169 2.5118,4.6389 C2.3088,5.2349 2.2638,5.8719 2.2208,6.5009 C2.1738,7.1819 2.1268,7.8629 2.0798,8.5439 C1.6688,7.9269 1.3008,7.2849 1.0308,6.5949 C0.7598,5.9009 0.5188,5.0709 0.5008,4.3029 C0.4688,2.8799 1.0388,2.9069 2.1438,2.4139 C2.7248,2.1549 3.2258,1.7469 3.7768,1.4289 C5.1328,0.6459 6.8088,0.4359 8.3158,0.8609 C9.9608,1.3249 11.4298,2.5059 13.1388,2.4919 C13.6728,2.4879 14.2368,2.3679 14.7218,2.5909 C15.3818,2.8939 15.6298,3.7009 15.7008,4.4229 C15.8858,6.3019 15.3348,8.2359 14.2108,9.7509" id="Fill-5" fill="#ECECD3"></path>
                            </g>
                        </g>
                    </g>
                </g>
            </g>
        </g>
    </g>
</svg>