<?xml version="1.0" encoding="UTF-8" standalone="no"?>
<svg width="15px" height="43px" viewBox="0 0 15 43" version="1.1" xmlns="http://www.w3.org/2000/svg" xmlns:xlink="http://www.w3.org/1999/xlink" xmlns:sketch="http://www.bohemiancoding.com/sketch/ns">
    <!-- Generator: Sketch 3.4 (15575) - http://www.bohemiancoding.com/sketch -->
    <title>Page 1</title>
    <desc>Created with Sketch.</desc>
    <defs></defs>
    <g id="Page-1" stroke="none" stroke-width="1" fill="none" fill-rule="evenodd" sketch:type="MSPage">
        <g id="Doctor---Patient-Landing-Page---Patient---Perio-Chart" sketch:type="MSArtboardGroup" transform="translate(-774.000000, -653.000000)">
            <g id="Chart" sketch:type="MSLayerGroup" transform="translate(271.000000, 398.000000)">
                <g id="Form" transform="translate(0.000000, 24.000000)" sketch:type="MSShapeGroup">
                    <g id="Row-12" transform="translate(494.000000, 197.000000)">
                        <g id="Rectangle-154-Copy-12-+-12-Copy" transform="translate(0.000000, 35.000000)">
                            <g id="Tooth-11" transform="translate(9.000000, 0.000000)">
                                <g id="Page-1">
                                    <path d="M11.3321,1.7372 C11.2921,1.5602 11.2231,1.4012 11.0461,1.2652 C10.6081,0.9302 9.7221,1.1072 9.2101,1.1822 C9.0611,1.2042 8.9101,1.2312 8.7591,1.2192 C8.4801,1.1982 8.2521,1.0292 8.0581,0.8402 C7.9141,0.6992 7.8401,0.4602 7.6531,0.3672 C7.4511,0.2682 7.2121,0.3172 7.0311,0.4392 C6.5701,0.7462 6.4271,1.4802 6.2401,1.9692 C5.9941,2.6122 5.7651,3.2622 5.5531,3.9172 C5.0811,5.3732 4.6761,6.7912 4.6051,8.3042 C4.5281,9.9312 3.8201,11.6202 3.4651,13.2042 C2.4721,17.6322 2.2041,22.2312 1.7801,26.7392 C1.7471,27.0902 1.7141,27.4432 1.6091,27.7802 C1.4791,28.1942 1.2471,28.5682 1.0711,28.9652 C0.5301,30.1892 0.5671,31.5492 0.5521,32.8592 C0.5351,34.3602 0.5181,35.8612 0.5011,37.3622 C0.4971,37.6532 0.4961,37.9532 0.6141,38.2182 C0.7451,38.5102 1.0021,38.7212 1.2511,38.9212 C2.2651,39.7352 3.2981,40.5592 4.5041,41.0432 C6.6971,41.9222 9.3541,41.5092 11.1771,40.0072 C11.6951,39.5802 12.1551,39.0692 12.7511,38.7612 C12.9871,38.6392 13.2531,38.5402 13.4011,38.3212 C13.5021,38.1722 13.5321,37.9872 13.5561,37.8092 C14.3321,32.1012 11.4031,26.5662 10.8791,20.8302 C10.7071,18.9442 10.7971,17.0452 10.8871,15.1532 C11.0721,11.2692 11.2561,7.3852 11.4411,3.5012 C11.4631,3.0462 11.4821,2.5852 11.3991,2.1352 C11.3731,1.9952 11.3601,1.8622 11.3321,1.7372 L11.3321,1.7372 Z" id="Stroke-1" stroke="#F99B3B"></path>
                                    <path d="M9.417,31.3914 C9.029,29.5074 8.464,27.6614 7.932,25.8094 C8.994,26.3234 9.991,27.0544 10.907,27.7954 C11.544,28.3104 12.18,28.8584 12.737,29.4644 C13.422,32.2334 13.938,35.0004 13.556,37.8084 C13.532,37.9874 13.502,38.1724 13.401,38.3214 C13.253,38.5404 12.987,38.6394 12.752,38.7604 C12.155,39.0684 11.695,39.5794 11.177,40.0064 C10.449,40.6074 9.585,41.0244 8.674,41.2644 C10.158,38.3064 10.095,34.6834 9.417,31.3914" id="Fill-3" fill="#ECECD3"></path>
                                    <path d="M7.9323,25.8098 C8.4643,27.6608 9.0283,29.5068 9.4173,31.3918 C10.0953,34.6828 10.1583,38.3068 8.6733,41.2638 C7.3033,41.6238 5.8213,41.5708 4.5043,41.0428 C3.2983,40.5598 2.2653,39.7348 1.2513,38.9208 C1.0023,38.7208 0.7443,38.5098 0.6143,38.2188 C0.4963,37.9538 0.4973,37.6528 0.5013,37.3628 C0.5183,35.8618 0.5353,34.3598 0.5523,32.8588 C0.5673,31.5488 0.5303,30.1898 1.0713,28.9648 C1.2473,28.5678 1.4793,28.1948 1.6093,27.7798 C1.7133,27.4438 1.7473,27.0898 1.7803,26.7398 C1.7963,26.5678 1.8113,26.3958 1.8273,26.2238 C2.6823,25.6378 3.6363,25.2188 4.6613,25.1218 C5.8033,25.0138 6.8983,25.3098 7.9323,25.8098" id="Fill-5" fill="#FFFEED"></path>
                                    <path d="M6.3582,16.335 C6.4122,17.665 6.4802,18.996 6.6632,20.314 C6.9232,22.18 7.4122,23.997 7.9322,25.81 C6.8982,25.309 5.8032,25.014 4.6622,25.122 C3.6362,25.218 2.6822,25.638 1.8272,26.224 C2.2252,21.881 2.5102,17.464 3.4652,13.204 C3.8202,11.62 4.5282,9.931 4.6052,8.304 C4.6762,6.791 5.0812,5.373 5.5532,3.917 C5.7652,3.262 5.9942,2.612 6.2402,1.969 C6.2572,1.924 6.2742,1.87 6.2912,1.821 C6.1452,6.658 6.1612,11.5 6.3582,16.335" id="Fill-7" fill="#F3D498"></path>
                                    <path d="M9.1066,15.5498 C9.4716,16.9588 10.1246,18.3338 10.8126,19.7058 C10.8286,20.0808 10.8456,20.4558 10.8796,20.8308 C11.1456,23.7438 12.0316,26.6058 12.7376,29.4638 C12.1806,28.8588 11.5446,28.3108 10.9066,27.7948 C9.9916,27.0538 8.9936,26.3238 7.9326,25.8098 C7.4116,23.9978 6.9226,22.1798 6.6636,20.3138 C6.4796,18.9958 6.4126,17.6648 6.3586,16.3348 C6.1606,11.4998 6.1456,6.6578 6.2916,1.8208 C6.4566,1.3418 6.6126,0.7188 7.0306,0.4388 C7.2126,0.3178 7.4516,0.2678 7.6536,0.3678 C7.8406,0.4598 7.9146,0.6988 8.0586,0.8398 C8.2226,1.0008 8.4196,1.1278 8.6436,1.1808 C8.1906,5.9968 7.8966,10.8858 9.1066,15.5498" id="Fill-9" fill="#E6C78C"></path>
                                    <path d="M10.887,15.1532 C10.815,16.6692 10.75,18.1902 10.813,19.7062 C10.124,18.3332 9.472,16.9592 9.107,15.5502 C7.897,10.8852 8.191,5.9972 8.643,1.1812 C8.683,1.1912 8.717,1.2162 8.759,1.2202 C8.91,1.2312 9.061,1.2042 9.211,1.1822 C9.723,1.1072 10.609,0.9302 11.046,1.2652 C11.223,1.4012 11.293,1.5602 11.332,1.7372 C11.36,1.8622 11.373,1.9952 11.399,2.1352 C11.483,2.5852 11.463,3.0462 11.441,3.5012 C11.256,7.3852 11.072,11.2692 10.887,15.1532" id="Fill-11" fill="#F3D498"></path>
                                </g>
                            </g>
                        </g>
                    </g>
                </g>
            </g>
        </g>
    </g>
</svg>