<?xml version="1.0" encoding="UTF-8" standalone="no"?>
<svg width="12px" height="43px" viewBox="0 0 12 43" version="1.1" xmlns="http://www.w3.org/2000/svg" xmlns:xlink="http://www.w3.org/1999/xlink" xmlns:sketch="http://www.bohemiancoding.com/sketch/ns">
    <!-- Generator: Sketch 3.4 (15575) - http://www.bohemiancoding.com/sketch -->
    <title>Page 1</title>
    <desc>Created with Sketch.</desc>
    <defs></defs>
    <g id="Page-1" stroke="none" stroke-width="1" fill="none" fill-rule="evenodd" sketch:type="MSPage">
        <g id="Doctor---Patient-Landing-Page---Patient---Perio-Chart" sketch:type="MSArtboardGroup" transform="translate(-615.000000, -828.000000)">
            <g id="Chart" sketch:type="MSLayerGroup" transform="translate(271.000000, 398.000000)">
                <g id="Form" transform="translate(0.000000, 24.000000)" sketch:type="MSShapeGroup">
                    <g id="Row-7" transform="translate(333.000000, 197.000000)">
                        <g id="Tooth-26" transform="translate(11.000000, 158.000000)">
                            <g id="Page-1" transform="translate(0.000000, 51.000000)">
                                <path d="M10.9495,1.7119 C10.9465,1.1569 10.4955,0.7169 9.9405,0.7169 L1.5125,0.7169 C0.9575,0.7169 0.5075,1.1609 0.5025,1.7159 C0.4675,5.5409 0.7825,11.2339 1.1885,16.8439 C1.8385,25.8239 2.7225,34.5879 2.7715,35.1339 C2.8545,36.0499 3.3995,45.4699 5.2715,41.5499 C8.4915,34.8099 9.8955,24.1839 10.5025,15.4589 C10.9405,9.1529 10.9625,3.8389 10.9495,1.7119 L10.9495,1.7119 Z" id="Stroke-1" stroke="#F99B3B"></path>
                                <path d="M5.726,16.4337 C7.522,15.6337 10.105,7.7167 9.772,4.4667 C9.618,2.9717 9.519,1.6857 9.456,0.7167 L1.512,0.7167 C0.957,0.7167 0.508,1.1607 0.503,1.7157 C0.473,4.9007 0.688,9.3837 0.995,14.0317 C2.445,15.3117 4.599,16.9357 5.726,16.4337" id="Fill-3" fill="#FFFEED"></path>
                                <path d="M10.9495,1.7119 C10.9465,1.1569 10.4955,0.7169 9.9405,0.7169 L9.4555,0.7169 C9.5195,1.6859 9.6185,2.9719 9.7715,4.4669 C10.1045,7.7169 7.5215,15.6339 5.7265,16.4339 C4.5995,16.9359 2.4445,15.3119 0.9945,14.0319 C1.0565,14.9669 1.1205,15.9049 1.1885,16.8439 C2.3875,18.3989 3.9125,19.8219 5.3545,19.5309 C6.6895,19.2619 8.6905,17.5229 10.5025,15.4589 C10.9405,9.1529 10.9625,3.8389 10.9495,1.7119" id="Fill-5" fill="#ECECD3"></path>
                                <path d="M7.7716,23.8037 C6.3626,24.7007 3.2486,21.4867 1.3736,19.3047 C1.9946,27.3617 2.7266,34.6387 2.7716,35.1337 C2.8546,36.0497 3.3996,45.4697 5.2716,41.5497 C7.9076,36.0317 9.3256,27.9087 10.0866,20.3557 C9.4276,21.8447 8.6216,23.2627 7.7716,23.8037" id="Fill-7" fill="#F3D498"></path>
                                <path d="M7.7716,23.8037 C8.6216,23.2627 9.4276,21.8447 10.0866,20.3557 C10.2546,18.6837 10.3916,17.0397 10.5016,15.4587 C8.6906,17.5227 6.6896,19.2617 5.3546,19.5307 C3.9126,19.8217 2.3876,18.3987 1.1886,16.8447 C1.2486,17.6697 1.3106,18.4897 1.3736,19.3047 C3.2486,21.4867 6.3626,24.7007 7.7716,23.8037" id="Fill-9" fill="#E6C78C"></path>
                            </g>
                        </g>
                    </g>
                </g>
            </g>
        </g>
    </g>
</svg>