<?xml version="1.0" encoding="UTF-8" standalone="no"?>
<svg width="17px" height="15px" viewBox="0 0 17 15" version="1.1" xmlns="http://www.w3.org/2000/svg" xmlns:xlink="http://www.w3.org/1999/xlink" xmlns:sketch="http://www.bohemiancoding.com/sketch/ns">
    <!-- Generator: Sketch 3.4 (15575) - http://www.bohemiancoding.com/sketch -->
    <title>Page 1</title>
    <desc>Created with Sketch.</desc>
    <defs></defs>
    <g id="Page-1" stroke="none" stroke-width="1" fill="none" fill-rule="evenodd" sketch:type="MSPage">
        <g id="Doctor---Patient-Landing-Page---Patient---Perio-Chart" sketch:type="MSArtboardGroup" transform="translate(-772.000000, -808.000000)">
            <g id="Chart" sketch:type="MSLayerGroup" transform="translate(271.000000, 398.000000)">
                <g id="Form" transform="translate(0.000000, 24.000000)" sketch:type="MSShapeGroup">
                    <g id="Row-12" transform="translate(494.000000, 197.000000)">
                        <g id="Rectangle-154-Copy-12-+-12-Copy" transform="translate(0.000000, 35.000000)">
                            <g id="tooth-22" transform="translate(8.000000, 122.000000)">
                                <g id="Page-1" transform="translate(0.000000, 32.000000)">
                                    <path d="M3.3457,13.6356 C3.5827,13.8676 3.8277,14.1056 4.1347,14.2326 C4.3817,14.3346 4.6537,14.3586 4.9217,14.3796 C6.6437,14.5096 8.3737,14.5346 10.0987,14.4546 C10.6057,14.4306 11.1257,14.3946 11.5837,14.1766 C12.0187,13.9686 12.3627,13.6126 12.6917,13.2596 C14.0007,11.8566 15.3157,10.1976 15.2677,8.2786 C15.2357,6.9776 14.5727,5.7856 13.9277,4.6546 C13.0917,3.1876 12.0557,1.5726 10.3967,1.2616 C9.8447,1.1586 9.2747,1.2156 8.7187,1.1346 C7.9077,1.0156 7.1397,0.6026 6.3207,0.6336 C5.2107,0.6756 4.2997,1.5156 3.6187,2.3936 C2.5417,3.7836 1.7687,5.3806 1.0457,6.9836 C0.7727,7.5906 0.4997,8.2226 0.4997,8.8876 C0.5007,10.7286 2.1237,12.4386 3.3457,13.6356 L3.3457,13.6356 Z" id="Stroke-1" stroke="#F99B3B"></path>
                                    <path d="M3.3457,13.6356 C3.5827,13.8676 3.8277,14.1056 4.1347,14.2326 C4.3817,14.3346 4.6537,14.3586 4.9217,14.3796 C6.6437,14.5096 8.3737,14.5346 10.0987,14.4546 C10.6057,14.4306 11.1257,14.3946 11.5837,14.1766 C12.0187,13.9686 12.3627,13.6126 12.6917,13.2596 C14.0007,11.8566 15.3157,10.1976 15.2677,8.2786 C15.2357,6.9776 14.5727,5.7856 13.9277,4.6546 C13.0917,3.1876 12.0557,1.5726 10.3967,1.2616 C9.8447,1.1586 9.2747,1.2156 8.7187,1.1346 C7.9077,1.0156 7.1397,0.6026 6.3207,0.6336 C5.2107,0.6756 4.2997,1.5156 3.6187,2.3936 C2.5417,3.7836 1.7687,5.3806 1.0457,6.9836 C0.7727,7.5906 0.4997,8.2226 0.4997,8.8876 C0.5007,10.7286 2.1237,12.4386 3.3457,13.6356" id="Fill-3" fill="#FFFEED"></path>
                                    <path d="M13.7701,10.0908 C13.2771,11.3708 12.0621,13.0348 10.6211,13.2268 C9.0391,13.4378 7.9871,12.2638 7.8071,10.7678 C7.5451,8.5858 8.3151,6.4278 9.0721,4.3658 C9.1711,4.0938 9.2871,3.8018 9.5331,3.6498 C9.8551,3.4508 10.3011,3.5768 10.5661,3.8478 C10.8301,4.1188 10.9501,4.4988 11.0291,4.8688 C11.0951,5.1798 11.1411,5.5028 11.2941,5.7818 C11.4471,6.0608 11.7421,6.2908 12.0581,6.2588 C12.2141,6.2428 12.3571,6.1658 12.5111,6.1358 C13.1131,6.0198 13.6071,6.6298 13.8111,7.2078 C14.1381,8.1328 14.1231,9.1748 13.7701,10.0908" id="Fill-5" fill="#ECECD3"></path>
                                    <path d="M5.388,5.833 C5.288,4.793 6.172,3.691 5.922,2.76 C5.896,2.662 5.832,2.549 5.73,2.554 C5.674,2.558 5.628,2.597 5.589,2.638 C5.258,2.978 5.028,3.508 4.762,3.903 C4.251,4.661 3.734,5.43 3.434,6.294 C3.071,7.341 3.047,8.471 3.026,9.579 C3.008,10.513 3.029,11.551 3.671,12.229 C4.009,10.919 4.356,9.584 5.078,8.439 C5.212,8.226 5.359,8.019 5.446,7.783 C5.673,7.166 5.451,6.487 5.388,5.833" id="Fill-7" fill="#ECECD3"></path>
                                </g>
                            </g>
                        </g>
                    </g>
                </g>
            </g>
        </g>
    </g>
</svg>