<?xml version="1.0" encoding="UTF-8" standalone="no"?>
<svg width="16px" height="52px" viewBox="0 0 16 52" version="1.1" xmlns="http://www.w3.org/2000/svg" xmlns:xlink="http://www.w3.org/1999/xlink" xmlns:sketch="http://www.bohemiancoding.com/sketch/ns">
    <!-- Generator: Sketch 3.4 (15575) - http://www.bohemiancoding.com/sketch -->
    <title>Page 1</title>
    <desc>Created with Sketch.</desc>
    <defs></defs>
    <g id="Page-1" stroke="none" stroke-width="1" fill="none" fill-rule="evenodd" sketch:type="MSPage">
        <g id="Doctor---Patient-Landing-Page---Patient---Perio-Chart" sketch:type="MSArtboardGroup" transform="translate(-581.000000, -653.000000)">
            <g id="Chart" sketch:type="MSLayerGroup" transform="translate(271.000000, 398.000000)">
                <g id="Form" transform="translate(0.000000, 24.000000)" sketch:type="MSShapeGroup">
                    <g id="Row-6" transform="translate(302.000000, 197.000000)">
                        <g id="Tooth--6" transform="translate(8.000000, 34.000000)">
                            <g id="Page-1">
                                <path d="M2.13,41.5581 L0.505,46.4331 C0.38,46.8081 2.63,49.2071 3.255,49.6331 C3.88,50.0581 7.505,51.6641 8.63,51.4861 C9.755,51.3081 14.234,49.2261 14.505,48.4331 C14.911,47.2451 14.535,41.8981 12.88,37.0111 C12.88,37.0111 12.088,33.8081 12.005,31.3081 C11.922,28.8081 11.385,10.9891 8.338,1.9751 C7.578,-0.2749 6.255,1.3911 6.172,3.7251 C6.172,3.7251 5.755,11.7251 5.505,14.8081 C5.255,17.8911 4.1,29.4961 3.755,34.6071 C3.495,38.4561 2.13,41.5581 2.13,41.5581 L2.13,41.5581 Z" id="Stroke-1" stroke="#F99B3B"></path>
                                <path d="M8.8341,9.6794 C8.8461,11.2434 8.8591,12.8064 8.8711,14.3704 C8.8991,18.0164 8.9281,21.6634 9.0931,25.3064 C9.2261,28.2214 9.4401,31.1434 9.5811,34.0624 C8.8401,33.8484 8.0681,33.7424 7.3011,33.7924 C6.0271,33.8734 4.8091,34.3074 3.7231,34.9774 C3.7341,34.8544 3.7461,34.7324 3.7551,34.6074 C4.1001,29.4954 5.2551,17.8914 5.5051,14.8084 C5.7551,11.7244 6.1721,3.7244 6.1721,3.7244 C6.2551,1.3914 7.5781,-0.2756 8.3381,1.9744 C8.6041,2.7614 8.8501,3.6174 9.0781,4.5214 C8.8241,6.2214 8.8201,7.9564 8.8341,9.6794" id="Fill-3" fill="#F3D498"></path>
                                <path d="M9.5807,34.0627 C9.7657,37.9097 9.8187,41.7517 9.3477,45.5687 C9.2067,46.7197 9.0167,47.8757 9.0917,49.0337 C9.1397,49.7767 9.3047,50.5097 9.5647,51.2067 C9.1687,51.3527 8.8407,51.4527 8.6297,51.4867 C7.5047,51.6647 3.8797,50.0577 3.2547,49.6327 C2.6297,49.2077 0.3797,46.8077 0.5047,46.4327 L2.1297,41.5577 C2.1297,41.5577 3.4047,38.6517 3.7237,34.9767 C4.8087,34.3077 6.0277,33.8737 7.3017,33.7917 C8.0677,33.7427 8.8397,33.8487 9.5807,34.0627" id="Fill-5" fill="#FFFEED"></path>
                                <path d="M14.505,48.4331 C14.284,49.0781 11.285,50.5741 9.565,51.2071 C9.305,50.5091 9.14,49.7771 9.092,49.0341 C9.017,47.8761 9.206,46.7201 9.348,45.5691 C9.818,41.7521 9.766,37.9091 9.581,34.0631 C10.746,34.3991 11.826,35.0281 12.634,35.9061 C12.773,36.5761 12.88,37.0111 12.88,37.0111 C14.535,41.8981 14.911,47.2461 14.505,48.4331" id="Fill-7" fill="#ECECD3"></path>
                                <path d="M9.0936,25.3059 C8.9286,21.6639 8.8996,18.0159 8.8706,14.3699 C8.8586,12.8069 8.8466,11.2429 8.8346,9.6789 C8.8206,7.9569 8.8246,6.2209 9.0786,4.5219 C11.4746,13.9839 11.9286,29.0259 12.0046,31.3079 C12.0576,32.8899 12.3936,34.7509 12.6336,35.9059 C11.8256,35.0279 10.7466,34.3999 9.5806,34.0629 C9.4406,31.1429 9.2256,28.2219 9.0936,25.3059" id="Fill-9" fill="#E6C78C"></path>
                            </g>
                        </g>
                    </g>
                </g>
            </g>
        </g>
    </g>
</svg>