<?xml version="1.0" encoding="UTF-8" standalone="no"?>
<svg width="12px" height="42px" viewBox="0 0 12 42" version="1.1" xmlns="http://www.w3.org/2000/svg" xmlns:xlink="http://www.w3.org/1999/xlink" xmlns:sketch="http://www.bohemiancoding.com/sketch/ns">
    <!-- Generator: Sketch 3.4 (15575) - http://www.bohemiancoding.com/sketch -->
    <title>Page 1</title>
    <desc>Created with Sketch.</desc>
    <defs></defs>
    <g id="Page-1" stroke="none" stroke-width="1" fill="none" fill-rule="evenodd" sketch:type="MSPage">
        <g id="Doctor---Patient-Landing-Page---Patient---Perio-Chart" sketch:type="MSArtboardGroup" transform="translate(-647.000000, -828.000000)">
            <g id="Chart" sketch:type="MSLayerGroup" transform="translate(271.000000, 398.000000)">
                <g id="Form" transform="translate(0.000000, 24.000000)" sketch:type="MSShapeGroup">
                    <g id="Row-8" transform="translate(365.000000, 197.000000)">
                        <g id="Page-1" transform="translate(11.000000, 209.000000)">
                            <path d="M11.027,1.7853 C11.023,1.3023 10.632,0.9163 10.149,0.9163 L1.455,0.9163 C0.975,0.9163 0.586,1.3063 0.578,1.7863 C0.533,4.7413 0.422,7.3343 0.589,11.0763 C0.685,13.2023 0.768,15.3953 0.841,17.5663 C1.162,27.0633 1.289,36.1213 1.381,37.1763 C1.672,40.5243 4.006,44.6663 5.798,37.7493 C6.796,33.8953 8.337,24.8303 9.521,16.6613 C9.971,13.5623 10.369,10.5903 10.667,8.0823 C11.001,5.2623 11.038,2.9673 11.027,1.7853 L11.027,1.7853 Z" id="Stroke-1" stroke="#F99B3B"></path>
                            <path d="M6.7292,23.7751 C7.4442,23.5911 8.1142,22.9031 8.7192,21.9731 C8.9972,20.2011 9.2682,18.4111 9.5212,16.6621 C7.6252,18.2301 5.5112,18.9131 4.3332,18.9741 C3.0112,19.0421 1.5012,18.0541 0.8412,17.5661 C0.8532,17.9151 0.8642,18.2611 0.8752,18.6081 C2.4602,21.4231 4.8792,24.2511 6.7292,23.7751" id="Fill-3" fill="#E6C78C"></path>
                            <path d="M6.7292,23.7751 C4.8792,24.2511 2.4602,21.4231 0.8752,18.6081 C1.1702,27.7151 1.2922,36.1601 1.3812,37.1761 C1.6722,40.5241 4.0062,44.6661 5.7972,37.7491 C6.5822,34.7211 7.7012,28.4741 8.7192,21.9731 C8.1142,22.9031 7.4442,23.5911 6.7292,23.7751" id="Fill-5" fill="#F3D498"></path>
                            <path d="M2.9167,16.3473 C4.7287,16.3953 7.2287,14.6633 7.7287,13.4673 C8.1457,12.4703 9.7307,4.3333 10.1057,0.9163 L1.4547,0.9163 C0.9747,0.9163 0.5857,1.3063 0.5787,1.7863 C0.5327,4.7413 0.4217,7.3343 0.5897,11.0763 C0.6257,11.8803 0.6577,12.7003 0.6907,13.5183 C1.2927,14.9673 2.0767,16.3253 2.9167,16.3473" id="Fill-7" fill="#FFFEED"></path>
                            <path d="M11.027,1.7853 C11.023,1.3023 10.632,0.9163 10.149,0.9163 L10.106,0.9163 C9.731,4.3333 8.146,12.4703 7.729,13.4673 C7.229,14.6633 4.729,16.3953 2.917,16.3473 C2.077,16.3253 1.293,14.9673 0.691,13.5183 C0.745,14.8643 0.796,16.2163 0.841,17.5663 C1.502,18.0543 3.011,19.0423 4.333,18.9743 C5.511,18.9133 7.625,18.2303 9.521,16.6613 C9.971,13.5623 10.369,10.5903 10.667,8.0823 C11.001,5.2623 11.038,2.9673 11.027,1.7853" id="Fill-9" fill="#ECECD3"></path>
                        </g>
                    </g>
                </g>
            </g>
        </g>
    </g>
</svg>