<?xml version="1.0" encoding="UTF-8" standalone="no"?>
<svg width="15px" height="18px" viewBox="0 0 15 18" version="1.1" xmlns="http://www.w3.org/2000/svg" xmlns:xlink="http://www.w3.org/1999/xlink" xmlns:sketch="http://www.bohemiancoding.com/sketch/ns">
    <!-- Generator: Sketch 3.4 (15575) - http://www.bohemiancoding.com/sketch -->
    <title>Page 1</title>
    <desc>Created with Sketch.</desc>
    <defs></defs>
    <g id="Page-1" stroke="none" stroke-width="1" fill="none" fill-rule="evenodd" sketch:type="MSPage">
        <g id="Doctor---Patient-Landing-Page---Patient---Perio-Chart" sketch:type="MSArtboardGroup" transform="translate(-549.000000, -738.000000)">
            <g id="Chart" sketch:type="MSLayerGroup" transform="translate(271.000000, 398.000000)">
                <g id="Form" transform="translate(0.000000, 24.000000)" sketch:type="MSShapeGroup">
                    <g id="Row-5" transform="translate(270.000000, 197.000000)">
                        <g id="Tooth---5" transform="translate(8.000000, 34.000000)">
                            <g id="Page-1" transform="translate(0.000000, 86.000000)">
                                <path d="M3.6017,1.8388 C2.0797,2.5618 1.2397,3.6238 0.6637,5.3048 C0.2627,6.4748 0.6797,7.9978 1.0487,9.1228 C1.5617,10.6868 2.3547,12.1658 2.6567,13.7848 C2.8007,14.5588 2.8827,15.4508 3.5157,15.9208 C3.9217,16.2228 4.4587,16.2658 4.9647,16.2968 C5.9457,16.3588 6.9267,16.4198 7.9087,16.4818 C8.3197,16.5068 8.7487,16.5308 9.1307,16.3738 C9.5557,16.1998 9.8637,15.8278 10.1477,15.4658 C10.9797,14.4048 11.7637,13.3058 12.4967,12.1748 C13.2027,11.0848 13.8707,9.9448 14.1867,8.6858 C14.6717,6.7458 14.2457,4.5978 13.0547,2.9908 C11.8647,1.3848 9.9337,0.3508 7.9367,0.2508 C7.3777,0.2228 6.8107,0.2648 6.2767,0.4308 C5.3117,0.7298 4.5137,1.4058 3.6017,1.8388 L3.6017,1.8388 Z" id="Stroke-1" stroke="#F99B3B"></path>
                                <path d="M5.583,3.3226 C5.956,3.4826 6.274,3.8456 6.25,4.2506 C4.371,4.3796 2.404,4.9286 1.156,6.3386 C0.917,6.6086 0.712,6.9266 0.573,7.2616 C0.468,6.5836 0.46,5.8986 0.663,5.3046 C0.942,4.4926 1.284,3.8276 1.733,3.2726 C2.611,3.1786 3.508,3.1646 4.385,3.1626 C4.791,3.1616 5.21,3.1626 5.583,3.3226" id="Fill-3" fill="#ECECD3"></path>
                                <path d="M8.1606,2.5206 C8.6636,3.4816 8.4846,4.6576 8.8106,5.6916 C9.2026,6.9366 10.3246,8.0216 10.1326,9.3126 C10.0266,10.0276 9.5286,10.6136 9.0436,11.1506 C7.4606,12.9016 5.7826,14.5626 4.0486,16.1646 C3.8586,16.1106 3.6756,16.0396 3.5156,15.9206 C2.8826,15.4506 2.8006,14.5596 2.6566,13.7846 C2.3546,12.1666 1.5616,10.6866 1.0486,9.1226 C0.8676,8.5686 0.6746,7.9186 0.5736,7.2616 C0.7116,6.9266 0.9166,6.6086 1.1566,6.3376 C2.4046,4.9276 4.3716,4.3786 6.2496,4.2506 C6.2736,3.8456 5.9566,3.4826 5.5826,3.3226 C5.2096,3.1626 4.7906,3.1616 4.3846,3.1626 C3.5076,3.1646 2.6106,3.1786 1.7336,3.2726 C2.2136,2.6796 2.8156,2.2126 3.6016,1.8386 C4.2296,1.5406 4.8066,1.1316 5.4186,0.8056 C6.5556,1.0476 7.6386,1.5236 8.1606,2.5206" id="Fill-5" fill="#FFFEED"></path>
                                <path d="M14.1863,8.6854 C13.8713,9.9444 13.2033,11.0854 12.4973,12.1744 C11.7633,13.3054 10.9793,14.4044 10.1483,15.4654 C9.8643,15.8274 9.5563,16.2004 9.1303,16.3744 C8.7483,16.5304 8.3203,16.5074 7.9083,16.4814 C6.9273,16.4204 5.9463,16.3584 4.9653,16.2974 C4.6583,16.2784 4.3423,16.2474 4.0483,16.1644 C5.7823,14.5624 7.4603,12.9014 9.0433,11.1504 C9.5283,10.6144 10.0263,10.0284 10.1333,9.3124 C10.3243,8.0214 9.2033,6.9374 8.8103,5.6914 C8.4853,4.6574 8.6633,3.4814 8.1603,2.5204 C7.6393,1.5234 6.5553,1.0474 5.4183,0.8054 C5.6943,0.6584 5.9763,0.5234 6.2763,0.4304 C6.8113,0.2654 7.3783,0.2224 7.9373,0.2504 C9.9343,0.3514 11.8643,1.3844 13.0553,2.9914 C14.2453,4.5974 14.6723,6.7454 14.1863,8.6854" id="Fill-7" fill="#ECECD3"></path>
                            </g>
                        </g>
                    </g>
                </g>
            </g>
        </g>
    </g>
</svg>