<?xml version="1.0" encoding="UTF-8" standalone="no"?>
<svg width="15px" height="17px" viewBox="0 0 15 17" version="1.1" xmlns="http://www.w3.org/2000/svg" xmlns:xlink="http://www.w3.org/1999/xlink" xmlns:sketch="http://www.bohemiancoding.com/sketch/ns">
    <!-- Generator: Sketch 3.4 (15575) - http://www.bohemiancoding.com/sketch -->
    <title>Page 1</title>
    <desc>Created with Sketch.</desc>
    <defs></defs>
    <g id="Page-1" stroke="none" stroke-width="1" fill="none" fill-rule="evenodd" sketch:type="MSPage">
        <g id="Doctor---Patient-Landing-Page---Patient---Perio-Chart" sketch:type="MSArtboardGroup" transform="translate(-774.000000, -739.000000)">
            <g id="Chart" sketch:type="MSLayerGroup" transform="translate(271.000000, 398.000000)">
                <g id="Form" transform="translate(0.000000, 24.000000)" sketch:type="MSShapeGroup">
                    <g id="Row-12" transform="translate(494.000000, 197.000000)">
                        <g id="Rectangle-154-Copy-12-+-12-Copy" transform="translate(0.000000, 35.000000)">
                            <g id="Tooth-11" transform="translate(9.000000, 0.000000)">
                                <g id="Page-1" transform="translate(0.000000, 86.000000)">
                                    <path d="M10.246,15.4106 C10.731,15.4106 10.977,14.8506 11.114,14.3846 C11.711,12.3546 12.308,10.3236 12.905,8.2926 C13.443,6.4636 13.952,4.3776 12.962,2.7486 C12.398,1.8206 11.416,1.2056 10.38,0.8816 C9.344,0.5566 8.246,0.4926 7.161,0.4526 C5.99,0.4096 4.779,0.3986 3.694,0.8436 C1.997,1.5396 0.885,3.2886 0.594,5.0996 C0.302,6.9106 0.726,8.7696 1.4,10.4766 C2.035,12.0836 2.699,15.4166 4.771,15.4846 C6.577,15.5446 8.431,15.4106 10.246,15.4106 L10.246,15.4106 Z" id="Stroke-1" stroke="#F99B3B"></path>
                                    <path d="M7.7896,2.9231 C8.4636,3.2371 9.1096,3.6621 9.5296,4.2751 C10.4226,5.5771 10.0946,7.3241 9.7326,8.8601 C9.2136,11.0571 8.6946,13.2541 8.1756,15.4511 C7.0366,15.4841 5.8946,15.5221 4.7706,15.4851 C2.6996,15.4161 2.0346,12.0841 1.3996,10.4761 C0.7256,8.7701 0.3016,6.9111 0.5936,5.1001 C0.7236,4.2941 1.0236,3.5061 1.4576,2.8121 C3.4686,1.9991 5.8176,2.0061 7.7896,2.9231" id="Fill-3" fill="#FFFEED"></path>
                                    <path d="M12.9052,8.2926 C12.3082,10.3236 11.7112,12.3546 11.1142,14.3846 C10.9772,14.8506 10.7312,15.4106 10.2462,15.4106 C9.5602,15.4106 8.8682,15.4306 8.1762,15.4506 C8.6952,13.2536 9.2132,11.0576 9.7322,8.8606 C10.0952,7.3246 10.4222,5.5766 9.5302,4.2756 C9.1092,3.6616 8.4642,3.2366 7.7892,2.9226 C5.8182,2.0056 3.4682,1.9996 1.4572,2.8116 C1.9982,1.9466 2.7522,1.2296 3.6942,0.8436 C4.7792,0.3986 5.9892,0.4096 7.1612,0.4526 C8.2462,0.4926 9.3442,0.5566 10.3802,0.8816 C11.4162,1.2056 12.3982,1.8206 12.9622,2.7486 C13.9522,4.3776 13.4432,6.4636 12.9052,8.2926" id="Fill-5" fill="#ECECD3"></path>
                                </g>
                            </g>
                        </g>
                    </g>
                </g>
            </g>
        </g>
    </g>
</svg>