<?xml version="1.0" encoding="UTF-8" standalone="no"?>
<svg width="19px" height="21px" viewBox="0 0 19 21" version="1.1" xmlns="http://www.w3.org/2000/svg" xmlns:xlink="http://www.w3.org/1999/xlink" xmlns:sketch="http://www.bohemiancoding.com/sketch/ns">
    <!-- Generator: Sketch 3.4 (15575) - http://www.bohemiancoding.com/sketch -->
    <title>Page 1</title>
    <desc>Created with Sketch.</desc>
    <defs></defs>
    <g id="Page-1" stroke="none" stroke-width="1" fill="none" fill-rule="evenodd" sketch:type="MSPage">
        <g id="Doctor---Patient-Landing-Page---Patient---Perio-Chart" sketch:type="MSArtboardGroup" transform="translate(-868.000000, -707.000000)">
            <g id="Chart" sketch:type="MSLayerGroup" transform="translate(271.000000, 398.000000)">
                <g id="Form" transform="translate(0.000000, 24.000000)" sketch:type="MSShapeGroup">
                    <g id="Row-15" transform="translate(590.000000, 197.000000)">
                        <g id="Page-1" transform="translate(7.000000, 89.000000)">
                            <path d="M1.7521,16.6088 C1.5261,15.9278 1.2651,15.2208 1.0651,14.5398 C0.8611,13.8468 1.0511,13.0878 1.0351,12.3758 C1.0141,11.4708 0.8191,10.5348 0.7131,9.6338 C0.5911,8.5838 0.4671,7.5288 0.5081,6.4718 C0.5851,4.4528 1.3891,2.3178 3.1241,1.2818 C3.6211,0.9848 4.1731,0.7908 4.7261,0.6198 C6.1791,0.1698 7.7491,-0.1322 9.2111,0.2868 C10.4931,0.6548 11.5581,1.5388 12.7691,2.0948 C14.1341,2.7208 15.7901,3.0068 16.6561,4.2338 C17.2181,5.0298 17.3101,6.0538 17.3851,7.0248 C17.4951,8.4628 17.6041,9.9018 17.7141,11.3398 C17.8091,12.5828 17.9021,13.8568 17.5671,15.0578 C17.2311,16.2648 16.4881,17.3108 15.7591,18.3298 C15.5141,18.6718 15.2571,19.0258 14.8891,19.2288 C14.4951,19.4468 14.0251,19.4648 13.5751,19.4748 C10.8871,19.5348 8.1961,19.4888 5.5111,19.3368 C4.8571,19.2998 4.1851,19.2518 3.5931,18.9718 C2.6661,18.5318 2.0761,17.5828 1.7521,16.6088 L1.7521,16.6088 Z" id="Stroke-1" stroke="#F99B3B"></path>
                            <path d="M1.7521,16.6088 C1.5261,15.9278 1.2651,15.2208 1.0651,14.5398 C0.8611,13.8468 1.0511,13.0878 1.0351,12.3758 C1.0141,11.4708 0.8191,10.5348 0.7131,9.6338 C0.5911,8.5838 0.4671,7.5288 0.5081,6.4718 C0.5851,4.4528 1.3891,2.3178 3.1241,1.2818 C3.6211,0.9848 4.1731,0.7908 4.7261,0.6198 C6.1791,0.1698 7.7491,-0.1322 9.2111,0.2868 C10.4931,0.6548 11.5581,1.5388 12.7691,2.0948 C14.1341,2.7208 15.7901,3.0068 16.6561,4.2338 C17.2181,5.0298 17.3101,6.0538 17.3851,7.0248 C17.4951,8.4628 17.6041,9.9018 17.7141,11.3398 C17.8091,12.5828 17.9021,13.8568 17.5671,15.0578 C17.2311,16.2648 16.4881,17.3108 15.7591,18.3298 C15.5141,18.6718 15.2571,19.0258 14.8891,19.2288 C14.4951,19.4468 14.0251,19.4648 13.5751,19.4748 C10.8871,19.5348 8.1961,19.4888 5.5111,19.3368 C4.8571,19.2998 4.1851,19.2518 3.5931,18.9718 C2.6661,18.5318 2.0761,17.5828 1.7521,16.6088" id="Fill-3" fill="#FFFEED"></path>
                            <path d="M5.524,12.2023 C6.446,11.7583 7.464,11.5143 8.488,11.4913 C8.666,11.4873 8.85,11.4913 9.01,11.5683 C9.19,11.6543 9.315,11.8193 9.452,11.9633 C9.775,12.3033 10.195,12.5483 10.649,12.6613 C10.753,12.6873 10.872,12.7163 10.923,12.8103 C10.969,12.8953 10.94,12.9993 10.91,13.0913 C10.388,14.6573 9.533,16.1123 8.42,17.3303 C9.272,16.9903 10.056,16.5023 10.835,16.0173 C11.228,15.7733 11.629,15.5213 11.913,15.1553 C12.078,14.9443 12.198,14.7013 12.363,14.4913 C13.15,13.4923 14.645,13.5193 15.911,13.6373 C15.342,12.8663 14.529,12.2783 13.619,11.9793 C12.681,11.6703 11.594,11.6343 10.872,10.9613 C10.148,10.2873 10.033,9.1853 10.107,8.1993 C10.235,6.4993 10.791,4.8333 11.71,3.3963 C11.233,3.1413 10.683,3.5653 10.331,3.9763 C9.057,5.4583 8.099,7.2113 7.54,9.0853 C7.026,8.8493 6.813,8.2373 6.718,7.6803 C6.622,7.1233 6.575,6.5213 6.219,6.0823 C6.175,6.0293 6.124,5.9763 6.058,5.9573 C5.905,5.9143 5.77,6.0613 5.686,6.1963 C5.307,6.8043 5.092,7.5143 5.071,8.2313 C5.05,8.9243 5.153,9.7523 4.607,10.1803 C4.123,10.5593 3.363,10.3423 2.975,9.8663 C2.587,9.3903 2.489,8.7433 2.465,8.1303 C1.84,8.6843 1.56,9.5973 1.767,10.4063 C1.932,11.0513 2.191,11.4113 2.1,12.0383 C1.96,12.9933 2.952,13.2153 3.786,12.9913 C4.396,12.8273 4.963,12.4823 5.524,12.2023" id="Fill-5" fill="#ECECD3"></path>
                        </g>
                    </g>
                </g>
            </g>
        </g>
    </g>
</svg>