<?xml version="1.0" encoding="UTF-8" standalone="no"?>
<svg width="16px" height="13px" viewBox="0 0 16 13" version="1.1" xmlns="http://www.w3.org/2000/svg" xmlns:xlink="http://www.w3.org/1999/xlink" xmlns:sketch="http://www.bohemiancoding.com/sketch/ns">
    <!-- Generator: Sketch 3.4 (15575) - http://www.bohemiancoding.com/sketch -->
    <title>Page 1</title>
    <desc>Created with Sketch.</desc>
    <defs></defs>
    <g id="Page-1" stroke="none" stroke-width="1" fill="none" fill-rule="evenodd" sketch:type="MSPage">
        <g id="Doctor---Patient-Landing-Page---Patient---Perio-Chart" sketch:type="MSArtboardGroup" transform="translate(-901.000000, -743.000000)">
            <g id="Chart" sketch:type="MSLayerGroup" transform="translate(271.000000, 398.000000)">
                <g id="Form" transform="translate(0.000000, 24.000000)" sketch:type="MSShapeGroup">
                    <g id="Row-16" transform="translate(622.000000, 197.000000)">
                        <g id="Page-1" transform="translate(8.000000, 125.000000)">
                            <path d="M6.6586,0.9937 C7.0746,0.7747 7.4776,0.5207 7.9266,0.3787 C9.6026,-0.1513 11.2996,0.9857 13.0126,1.3847 C13.7866,1.5647 14.7046,1.6637 15.1186,2.3427 C15.4066,2.8157 15.3376,3.4197 15.2026,3.9567 C14.7886,5.6027 13.8636,7.0687 12.9356,8.4887 C12.4226,9.2737 11.8786,10.0787 11.0806,10.5697 C10.4096,10.9827 9.6136,11.1367 8.8336,11.2477 C7.4446,11.4447 6.0396,11.5267 4.6376,11.4927 C4.3096,11.4847 3.9776,11.4697 3.6646,11.3707 C3.2256,11.2317 2.8506,10.9357 2.5316,10.6037 C1.5106,9.5447 0.9716,8.0947 0.7626,6.6377 C0.5996,5.4927 0.0136,2.5727 1.4006,1.9747 C1.9916,1.7197 3.0846,2.0227 3.7396,1.9307 C4.7566,1.7897 5.7506,1.4727 6.6586,0.9937 L6.6586,0.9937 Z" id="Stroke-1" stroke="#F99B3B"></path>
                            <path d="M6.7806,4.0626 C6.6096,4.0046 6.5086,3.8306 6.4256,3.6696 C6.0626,2.9686 5.7456,2.2446 5.4516,1.5106 C5.8656,1.3666 6.2706,1.1976 6.6586,0.9936 C7.0746,0.7746 7.4776,0.5206 7.9266,0.3786 C8.4456,0.2146 8.9676,0.2216 9.4916,0.3056 C8.8656,1.4186 8.2156,2.5176 7.5266,3.5926 C7.3546,3.8606 7.0816,4.1656 6.7806,4.0626" id="Fill-3" fill="#ECECD3"></path>
                            <path d="M15.1186,2.3428 C15.4066,2.8158 15.3376,3.4198 15.2026,3.9568 C14.7886,5.6028 13.8636,7.0678 12.9356,8.4888 C12.4226,9.2738 11.8786,10.0788 11.0806,10.5698 C10.4096,10.9828 9.6136,11.1368 8.8336,11.2478 C7.9556,11.3718 7.0706,11.4338 6.1836,11.4658 C6.5826,11.2918 6.9426,11.0498 7.2286,10.6958 C7.7496,10.0518 7.9166,9.1808 8.4206,8.5218 C9.1156,7.6138 10.3356,7.2498 11.0826,6.3838 C11.7616,5.5978 11.9536,4.5168 12.3716,3.5658 C12.6996,2.8188 13.1686,2.1568 13.7046,1.5408 C14.2746,1.6748 14.8246,1.8608 15.1186,2.3428" id="Fill-5" fill="#ECECD3"></path>
                            <path d="M11.0828,6.3842 C10.3358,7.2502 9.1148,7.6142 8.4198,8.5222 C7.9168,9.1802 7.7498,10.0512 7.2288,10.6962 C6.9428,11.0502 6.5828,11.2922 6.1838,11.4662 C5.6688,11.4852 5.1528,11.5052 4.6378,11.4922 C4.3098,11.4842 3.9778,11.4692 3.6648,11.3712 C3.2258,11.2322 2.8508,10.9362 2.5308,10.6042 C1.5108,9.5442 0.9708,8.0942 0.7628,6.6382 C0.5998,5.4922 0.0128,2.5722 1.4008,1.9742 C1.9918,1.7192 3.0848,2.0222 3.7398,1.9312 C4.3228,1.8502 4.8958,1.7042 5.4518,1.5112 C5.7458,2.2442 6.0618,2.9682 6.4258,3.6702 C6.5088,3.8312 6.6088,4.0042 6.7808,4.0622 C7.0818,4.1652 7.3548,3.8602 7.5268,3.5922 C8.2148,2.5172 8.8658,1.4182 9.4918,0.3052 C10.6568,0.4932 11.8308,1.1092 13.0128,1.3852 C13.2368,1.4372 13.4718,1.4862 13.7038,1.5412 C13.1688,2.1562 12.6998,2.8192 12.3718,3.5662 C11.9538,4.5172 11.7608,5.5982 11.0828,6.3842" id="Fill-7" fill="#FFFEED"></path>
                        </g>
                    </g>
                </g>
            </g>
        </g>
    </g>
</svg>