<?xml version="1.0" encoding="UTF-8" standalone="no"?>
<svg width="11px" height="19px" viewBox="0 0 11 19" version="1.1" xmlns="http://www.w3.org/2000/svg" xmlns:xlink="http://www.w3.org/1999/xlink" xmlns:sketch="http://www.bohemiancoding.com/sketch/ns">
    <!-- Generator: Sketch 3.4 (15575) - http://www.bohemiancoding.com/sketch -->
    <title>Page 1</title>
    <desc>Created with Sketch.</desc>
    <defs></defs>
    <g id="Page-1" stroke="none" stroke-width="1" fill="none" fill-rule="evenodd" sketch:type="MSPage">
        <g id="Doctor---Patient-Landing-Page---Patient---Perio-Chart" sketch:type="MSArtboardGroup" transform="translate(-679.000000, -776.000000)">
            <g id="Chart" sketch:type="MSLayerGroup" transform="translate(271.000000, 398.000000)">
                <g id="Form" transform="translate(0.000000, 24.000000)" sketch:type="MSShapeGroup">
                    <g id="Row-9" transform="translate(397.000000, 197.000000)">
                        <g id="Tooth-25" transform="translate(11.000000, 158.000000)">
                            <g id="Page-1">
                                <path d="M1.3881,17.5 L9.8771,17.5 C10.1511,17.5 10.3761,17.285 10.3891,17.011 C10.4711,15.177 10.6591,8.629 9.3461,5.113 C7.6971,0.694 7.6971,0.071 5.1971,0.083 C3.8331,0.09 -0.8459,5.975 0.8751,17.059 C0.9141,17.31 1.1341,17.5 1.3881,17.5 L1.3881,17.5 Z" id="Stroke-1" stroke="#F99B3B"></path>
                                <path d="M1.3881,17.5 L9.8771,17.5 C10.1511,17.5 10.3761,17.285 10.3891,17.011 C10.4711,15.177 10.6591,8.629 9.3461,5.113 C7.6971,0.694 7.6971,0.071 5.1971,0.083 C3.8331,0.09 -0.8459,5.975 0.8751,17.059 C0.9141,17.31 1.1341,17.5 1.3881,17.5 L1.3881,17.5 Z" id="Stroke-3" stroke="#F99B3B"></path>
                                <path d="M6.3382,10.3713 C6.5092,9.4763 7.2422,8.6163 8.1532,8.6273 C8.5482,8.6323 9.0522,8.7493 9.2542,8.4093 C9.3332,8.2753 9.3312,8.1103 9.3212,7.9553 C9.2312,6.5403 8.7302,5.1533 7.8952,4.0063 C7.7752,3.8413 7.6042,3.6633 7.4032,3.7013 C7.2122,3.7373 7.1162,3.9453 7.0202,4.1143 C6.7292,4.6313 6.2072,4.9653 5.7492,5.3433 C4.1802,6.6403 3.2762,8.5943 2.8252,10.5803 C2.3742,12.5653 2.3292,14.6163 2.1852,16.6473 C2.1652,16.9313 2.1422,17.2163 2.1122,17.5003 L7.9292,17.5003 C7.5082,16.0193 7.0882,14.5393 6.6682,13.0593 C6.4192,12.1823 6.1672,11.2663 6.3382,10.3713" id="Fill-5" fill="#ECECD3"></path>
                                <path d="M9.3463,5.1129 C7.6973,0.6949 7.6973,0.0709 5.1973,0.0829 C3.8143,0.0899 -0.9697,6.1309 0.9473,17.4999 L2.1113,17.4999 C2.1423,17.2159 2.1653,16.9309 2.1853,16.6479 C2.3293,14.6169 2.3743,12.5659 2.8253,10.5799 C3.2763,8.5949 4.1803,6.6409 5.7493,5.3429 C6.2073,4.9649 6.7293,4.6309 7.0203,4.1139 C7.1163,3.9449 7.2123,3.7369 7.4033,3.7009 C7.6043,3.6629 7.7753,3.8419 7.8953,4.0069 C8.7303,5.1529 9.2313,6.5399 9.3213,7.9559 C9.3303,8.1109 9.3333,8.2759 9.2543,8.4089 C9.0523,8.7489 8.5483,8.6329 8.1533,8.6279 C7.2413,8.6169 6.5083,9.4759 6.3383,10.3709 C6.1673,11.2669 6.4193,12.1829 6.6683,13.0599 C7.0883,14.5399 7.5083,16.0199 7.9293,17.4999 L9.8763,17.4999 C10.1513,17.4999 10.3763,17.2859 10.3883,17.0109 C10.4713,15.1769 10.6583,8.6289 9.3463,5.1129" id="Fill-7" fill="#FFFEED"></path>
                            </g>
                        </g>
                    </g>
                </g>
            </g>
        </g>
    </g>
</svg>