<?xml version="1.0" encoding="UTF-8" standalone="no"?>
<svg width="15px" height="22px" viewBox="0 0 15 22" version="1.1" xmlns="http://www.w3.org/2000/svg" xmlns:xlink="http://www.w3.org/1999/xlink" xmlns:sketch="http://www.bohemiancoding.com/sketch/ns">
    <!-- Generator: Sketch 3.4 (15575) - http://www.bohemiancoding.com/sketch -->
    <title>Page 1</title>
    <desc>Created with Sketch.</desc>
    <defs></defs>
    <g id="Page-1" stroke="none" stroke-width="1" fill="none" fill-rule="evenodd" sketch:type="MSPage">
        <g id="Doctor---Patient-Landing-Page---Patient---Perio-Chart" sketch:type="MSArtboardGroup" transform="translate(-741.000000, -734.000000)">
            <g id="Chart" sketch:type="MSLayerGroup" transform="translate(271.000000, 398.000000)">
                <g id="Form" transform="translate(0.000000, 24.000000)" sketch:type="MSShapeGroup">
                    <g id="Row-11" transform="translate(462.000000, 197.000000)">
                        <g id="Page-1" transform="translate(8.000000, 116.000000)">
                            <path d="M4.6268,19.1331 C3.7058,17.7521 3.1258,15.9601 2.3678,14.4671 C1.5088,12.7751 0.5638,11.0051 0.5028,9.0641 C0.4268,6.6241 1.8788,4.4321 3.2718,2.4271 C3.8968,1.5271 4.6508,0.5461 5.7388,0.4111 C6.4548,0.3221 7.1558,0.6311 7.8028,0.9531 C9.6768,1.8871 11.4668,2.9921 13.1398,4.2511 C13.3808,4.4321 13.6248,4.6221 13.7818,4.8791 C13.9778,5.2001 14.0178,5.5921 14.0258,5.9681 C14.0718,8.2851 13.0848,10.4821 12.1178,12.5881 L9.6768,17.9051 C9.1958,18.9531 8.5878,20.1141 7.4768,20.4261 C6.4028,20.7281 5.2458,20.0611 4.6268,19.1331 L4.6268,19.1331 Z" id="Stroke-1" stroke="#F99B3B"></path>
                            <path d="M7.5837,3.769 C7.3667,4.699 7.0327,5.768 6.1377,6.097 C5.2077,6.44 4.2397,5.787 3.2767,5.55 C3.1737,5.525 3.0657,5.504 2.9627,5.531 C2.6607,5.607 2.5937,6.001 2.5977,6.312 C2.6207,8.311 3.0767,10.304 3.9247,12.115 C4.1507,12.597 4.5017,12.512 4.9577,12.786 C5.0687,12.852 5.1877,12.914 5.2607,13.02 C5.3367,13.13 5.3517,13.27 5.3647,13.403 C5.4287,14.07 5.4917,14.738 5.4887,15.407 C5.4827,16.765 5.1987,18.096 4.8387,19.41 C4.7637,19.321 4.6907,19.229 4.6267,19.133 C3.7057,17.752 3.1257,15.961 2.3677,14.467 C1.5097,12.775 0.5637,11.006 0.5027,9.065 C0.4267,6.624 1.8787,4.432 3.2717,2.427 C3.8967,1.527 4.6507,0.546 5.7387,0.411 C6.4547,0.322 7.1557,0.631 7.8027,0.953 C7.9337,1.019 8.0607,1.091 8.1917,1.158 C8.0517,1.758 7.9127,2.359 7.7727,2.959 C7.7097,3.229 7.6467,3.499 7.5837,3.769" id="Fill-3" fill="#FFFEED"></path>
                            <path d="M9.7766,6.2964 C9.9036,6.7914 10.2786,7.1774 10.5356,7.6194 C11.1486,8.6764 11.0576,9.9834 10.9476,11.2004 C10.0206,11.4324 9.0936,11.6654 8.1666,11.8974 C7.9326,11.9554 7.6816,12.0264 7.5356,12.2174 C7.4266,12.3614 7.3976,12.5484 7.3716,12.7264 C6.9986,15.2804 6.6266,17.8354 6.2546,20.3904 C5.7116,20.2184 5.2136,19.8584 4.8386,19.4104 C5.1986,18.0964 5.4836,16.7644 5.4896,15.4074 C5.4926,14.7374 5.4286,14.0694 5.3646,13.4034 C5.3526,13.2694 5.3376,13.1294 5.2606,13.0194 C5.1876,12.9144 5.0686,12.8514 4.9586,12.7854 C4.5016,12.5124 4.1506,12.5964 3.9246,12.1154 C3.0766,10.3044 2.6206,8.3114 2.5976,6.3114 C2.5936,6.0004 2.6606,5.6074 2.9626,5.5304 C3.0656,5.5044 3.1736,5.5254 3.2766,5.5504 C4.2396,5.7864 5.2076,6.4394 6.1376,6.0974 C7.0326,5.7674 7.3666,4.6984 7.5836,3.7694 C7.6466,3.4984 7.7096,3.2284 7.7726,2.9584 C7.9126,2.3584 8.0516,1.7584 8.1916,1.1584 C9.1416,1.6464 10.0676,2.1794 10.9686,2.7544 C10.7746,4.0034 9.4606,5.0634 9.7766,6.2964" id="Fill-5" fill="#ECECD3"></path>
                            <path d="M12.1176,12.5883 C11.3036,14.3603 10.4906,16.1323 9.6766,17.9043 C9.1956,18.9533 8.5876,20.1143 7.4766,20.4263 C7.0696,20.5413 6.6516,20.5153 6.2546,20.3903 C6.6266,17.8353 6.9986,15.2813 7.3716,12.7263 C7.3976,12.5483 7.4266,12.3613 7.5356,12.2173 C7.6816,12.0263 7.9326,11.9563 8.1666,11.8973 C9.0936,11.6653 10.0206,11.4323 10.9476,11.2003 C11.0576,9.9833 11.1486,8.6763 10.5356,7.6193 C10.2786,7.1783 9.9036,6.7913 9.7766,6.2963 C9.4606,5.0633 10.7746,4.0033 10.9686,2.7543 C11.7096,3.2273 12.4376,3.7223 13.1406,4.2513 C13.3806,4.4323 13.6246,4.6223 13.7816,4.8793 C13.9776,5.2003 14.0176,5.5923 14.0256,5.9683 C14.0716,8.2853 13.0846,10.4823 12.1176,12.5883" id="Fill-7" fill="#FFFEED"></path>
                        </g>
                    </g>
                </g>
            </g>
        </g>
    </g>
</svg>