<?xml version="1.0" encoding="UTF-8" standalone="no"?>
<svg width="13px" height="20px" viewBox="0 0 13 20" version="1.1" xmlns="http://www.w3.org/2000/svg" xmlns:xlink="http://www.w3.org/1999/xlink" xmlns:sketch="http://www.bohemiancoding.com/sketch/ns">
    <!-- Generator: Sketch 3.4 (15575) - http://www.bohemiancoding.com/sketch -->
    <title>Page 1</title>
    <desc>Created with Sketch.</desc>
    <defs></defs>
    <g id="Page-1" stroke="none" stroke-width="1" fill="none" fill-rule="evenodd" sketch:type="MSPage">
        <g id="Doctor---Patient-Landing-Page---Patient---Perio-Chart" sketch:type="MSArtboardGroup" transform="translate(-614.000000, -736.000000)">
            <g id="Chart" sketch:type="MSLayerGroup" transform="translate(271.000000, 398.000000)">
                <g id="Form" transform="translate(0.000000, 24.000000)" sketch:type="MSShapeGroup">
                    <g id="Row-7" transform="translate(333.000000, 197.000000)">
                        <g id="Tooth-7" transform="translate(10.000000, 43.000000)">
                            <g id="Page-1" transform="translate(0.000000, 75.000000)">
                                <path d="M10.1708,0.3571 C7.7418,0.8431 5.1578,-0.5989 2.8218,0.8431 C1.3548,1.7481 0.3828,3.4651 0.5118,5.1841 C0.5668,5.9251 0.8108,6.6371 1.0528,7.3391 C2.1048,10.3931 3.1568,13.4471 4.2098,16.5011 C4.4568,17.2201 4.7638,18.0091 5.4468,18.3451 C6.0108,18.6221 6.7088,18.5031 7.2468,18.1781 C7.7848,17.8541 8.1898,17.3501 8.5508,16.8351 C9.6528,15.2611 10.4438,13.4871 11.0498,11.6631 C11.3378,10.7991 11.5868,9.9171 11.7008,9.0131 C11.9608,6.9471 11.5158,4.8001 12.0738,2.7941 C12.2548,2.1461 12.5268,1.4111 12.1658,0.8441 C11.7738,0.2291 10.8858,0.2141 10.1708,0.3571 L10.1708,0.3571 Z" id="Stroke-1" stroke="#F99B3B"></path>
                                <path d="M6.5273,9.1474 C6.4353,10.0204 6.6553,10.8924 6.8113,11.7564 C7.1953,13.8844 7.1893,16.0584 7.1533,18.2224 C6.6283,18.5074 5.9803,18.6074 5.4463,18.3454 C4.7643,18.0094 4.4573,17.2204 4.2093,16.5014 C3.1573,13.4474 2.1053,10.3934 1.0523,7.3394 C0.8103,6.6374 0.5663,5.9244 0.5113,5.1834 C0.3833,3.4654 1.3553,1.7484 2.8213,0.8434 C5.1573,-0.5986 7.7413,0.8434 10.1703,0.3574 C10.5853,0.2744 11.0483,0.2614 11.4493,0.3714 C10.2513,2.2754 9.0543,4.1794 7.8573,6.0834 C7.2593,7.0344 6.6453,8.0294 6.5273,9.1474" id="Fill-3" fill="#FFFEED"></path>
                                <path d="M12.074,2.7943 C11.516,4.8003 11.961,6.9463 11.701,9.0133 C11.587,9.9173 11.338,10.7993 11.05,11.6633 C10.443,13.4863 9.652,15.2613 8.55,16.8353 C8.19,17.3503 7.785,17.8533 7.247,18.1783 C7.217,18.1963 7.183,18.2063 7.153,18.2223 C7.189,16.0583 7.195,13.8843 6.812,11.7563 C6.656,10.8923 6.435,10.0203 6.527,9.1473 C6.645,8.0293 7.259,7.0343 7.857,6.0833 C9.054,4.1793 10.252,2.2753 11.449,0.3713 C11.739,0.4503 12.001,0.5853 12.166,0.8443 C12.527,1.4113 12.254,2.1463 12.074,2.7943" id="Fill-5" fill="#ECECD3"></path>
                            </g>
                        </g>
                    </g>
                </g>
            </g>
        </g>
    </g>
</svg>