<?xml version="1.0" encoding="UTF-8" standalone="no"?>
<svg width="14px" height="44px" viewBox="0 0 14 44" version="1.1" xmlns="http://www.w3.org/2000/svg" xmlns:xlink="http://www.w3.org/1999/xlink" xmlns:sketch="http://www.bohemiancoding.com/sketch/ns">
    <!-- Generator: Sketch 3.4 (15575) - http://www.bohemiancoding.com/sketch -->
    <title>Page 1</title>
    <desc>Created with Sketch.</desc>
    <defs></defs>
    <g id="Page-1" stroke="none" stroke-width="1" fill="none" fill-rule="evenodd" sketch:type="MSPage">
        <g id="Doctor---Patient-Landing-Page---Patient---Perio-Chart" sketch:type="MSArtboardGroup" transform="translate(-710.000000, -661.000000)">
            <g id="Chart" sketch:type="MSLayerGroup" transform="translate(271.000000, 398.000000)">
                <g id="Form" transform="translate(0.000000, 24.000000)" sketch:type="MSShapeGroup">
                    <g id="Row-10" transform="translate(429.000000, 197.000000)">
                        <g id="Tooth---9" transform="translate(10.000000, 43.000000)">
                            <g id="Page-1">
                                <path d="M0.556,39.4212 L3.247,26.7232 C3.247,26.7232 4.259,23.3012 4.363,20.4952 C4.441,18.3862 4.503,16.2772 4.697,14.1742 C5.047,10.3962 5.459,6.5412 6.509,2.8732 C6.651,2.3752 6.831,1.8882 7.007,1.3992 C7.189,0.8892 7.426,0.3072 7.973,0.1952 C8.334,0.1212 8.716,0.1602 9.054,0.3062 C10.034,0.7292 9.727,1.7192 9.607,2.5432 C9.462,3.5462 9.33,4.5502 9.215,5.5572 C8.977,7.6532 8.799,9.7632 8.803,11.8742 C8.805,12.8972 8.944,14.5642 9.094,15.5762 C9.927,21.1872 10.64,26.1522 11.122,27.0192 C11.622,27.9202 13.497,39.7952 13.247,40.6702 C13.046,41.3742 7.348,42.6632 2.914,42.4832 C1.352,42.4192 0.232,40.9502 0.556,39.4212 L0.556,39.4212 Z" id="Stroke-1" stroke="#F99B3B"></path>
                                <path d="M5.9076,27.4696 C6.2076,27.7606 6.6126,27.9206 6.9276,28.1966 C7.5406,28.7356 7.7086,29.6096 7.8306,30.4176 C8.4126,34.2696 8.7536,38.1566 8.8716,42.0516 C7.0186,42.3606 4.8466,42.5616 2.9136,42.4826 C1.3516,42.4196 0.2316,40.9506 0.5556,39.4216 L3.2466,26.7236 C3.2466,26.7236 3.3406,26.4046 3.4736,25.8866 C4.0796,25.6646 4.7186,25.5266 5.3656,25.4646 C5.3036,26.2236 5.3806,26.9596 5.9076,27.4696" id="Fill-3" fill="#FFFEED"></path>
                                <path d="M6.9272,28.1968 C6.6132,27.9208 6.2082,27.7608 5.9072,27.4698 C5.3812,26.9598 5.3032,26.2238 5.3662,25.4648 C5.8502,25.4188 6.3392,25.4138 6.8222,25.4528 C8.2882,25.5728 9.6962,26.0628 11.0062,26.7398 C11.0462,26.8538 11.0852,26.9528 11.1222,27.0198 C11.6222,27.9208 13.4972,39.7958 13.2472,40.6708 C13.1332,41.0678 11.2702,41.6508 8.8722,42.0508 C8.7532,38.1568 8.4132,34.2698 7.8312,30.4168 C7.7092,29.6098 7.5412,28.7358 6.9272,28.1968" id="Fill-5" fill="#ECECD3"></path>
                                <path d="M9.0942,15.5762 C9.8632,20.7552 10.5292,25.3762 11.0062,26.7402 C9.6962,26.0622 8.2882,25.5732 6.8222,25.4532 C6.3392,25.4132 5.8502,25.4192 5.3662,25.4652 C5.4002,25.0472 5.4752,24.6232 5.5442,24.2252 C6.1492,20.7292 5.4982,17.0662 6.4242,13.6412 C6.9202,11.8072 7.8452,10.1492 8.9292,8.5792 C8.8502,9.6762 8.8012,10.7752 8.8032,11.8742 C8.8052,12.8972 8.9442,14.5642 9.0942,15.5762" id="Fill-7" fill="#E6C78C"></path>
                                <path d="M5.5442,24.2252 C5.4752,24.6232 5.4002,25.0472 5.3662,25.4652 C4.7182,25.5262 4.0792,25.6642 3.4742,25.8862 C3.7782,24.6982 4.2912,22.4492 4.3632,20.4952 C4.4412,18.3862 4.5032,16.2772 4.6972,14.1742 C5.0462,10.3962 5.4582,6.5422 6.5082,2.8742 C6.6512,2.3752 6.8312,1.8882 7.0062,1.3992 C7.1892,0.8902 7.4262,0.3072 7.9732,0.1952 C8.3332,0.1212 8.7162,0.1602 9.0542,0.3062 C10.0342,0.7302 9.7272,1.7192 9.6072,2.5432 C9.4622,3.5462 9.3302,4.5512 9.2152,5.5572 C9.1012,6.5622 9.0022,7.5702 8.9292,8.5792 C7.8442,10.1492 6.9202,11.8072 6.4242,13.6412 C5.4982,17.0662 6.1492,20.7292 5.5442,24.2252" id="Fill-9" fill="#F3D498"></path>
                            </g>
                        </g>
                    </g>
                </g>
            </g>
        </g>
    </g>
</svg>