<?xml version="1.0" encoding="UTF-8" standalone="no"?>
<svg width="21px" height="40px" viewBox="0 0 21 40" version="1.1" xmlns="http://www.w3.org/2000/svg" xmlns:xlink="http://www.w3.org/1999/xlink" xmlns:sketch="http://www.bohemiancoding.com/sketch/ns">
    <!-- Generator: Sketch 3.4 (15575) - http://www.bohemiancoding.com/sketch -->
    <title>Page 1</title>
    <desc>Created with Sketch.</desc>
    <defs></defs>
    <g id="Page-1" stroke="none" stroke-width="1" fill="none" fill-rule="evenodd" sketch:type="MSPage">
        <g id="Doctor---Patient-Landing-Page---Patient---Perio-Chart" sketch:type="MSArtboardGroup" transform="translate(-866.000000, -837.000000)">
            <g id="Chart" sketch:type="MSLayerGroup" transform="translate(271.000000, 398.000000)">
                <g id="Form" transform="translate(0.000000, 24.000000)" sketch:type="MSShapeGroup">
                    <g id="Row-15" transform="translate(590.000000, 197.000000)">
                        <g id="Page-1" transform="translate(5.000000, 219.000000)">
                            <path d="M19.4601,12.2991 C20.1271,8.6321 21.1271,3.1321 17.0431,1.4661 C12.9601,-0.2009 11.3681,2.1321 10.2881,2.1321 C8.7101,2.1321 7.5431,0.1321 5.2101,0.2161 C2.8771,0.2991 0.9601,1.7161 0.5431,3.2991 C0.5431,3.2991 0.1271,10.9661 1.8771,13.5491 C2.1731,13.9871 2.4751,14.3421 2.7851,14.6411 L2.7851,14.6411 C2.7851,14.6411 2.1261,18.2161 2.1271,20.6321 C2.1271,23.2161 4.5431,34.1321 8.2931,37.0491 C12.0431,39.9661 9.9601,34.2161 9.5431,32.0491 C9.1271,29.8821 8.4601,21.2991 9.7101,20.8821 C10.9601,20.4661 15.3771,29.2161 16.3771,35.7991 C17.3771,42.3821 20.0431,35.2161 19.5431,32.3821 C19.0431,29.5491 18.8771,23.0491 18.4601,20.2161 C18.1721,18.2551 18.0431,15.8571 18.1291,14.2611 C18.8191,13.7501 19.3121,13.1131 19.4601,12.2991 L19.4601,12.2991 Z" id="Stroke-1" stroke="#F99B3B"></path>
                            <path d="M13.4013,19.9779 C13.3403,19.7149 13.2643,19.4459 13.0973,19.2339 C12.8813,18.9589 12.5423,18.8129 12.2083,18.7089 C11.4563,18.4739 10.6543,18.3969 9.8713,18.4849 C9.5213,18.5239 9.1473,18.6119 8.9193,18.8789 C8.7023,19.1349 8.6673,19.4959 8.6743,19.8309 C8.6913,20.5529 8.8803,21.2629 9.1893,21.9159 C9.3033,21.3419 9.4713,20.9619 9.7103,20.8829 C10.3883,20.6569 11.9973,23.1359 13.4883,26.4949 C13.5683,24.3149 13.8873,22.0939 13.4013,19.9779" id="Fill-3" fill="#E6C78C"></path>
                            <path d="M19.5434,32.3825 C19.0434,29.5495 18.8764,23.0495 18.4604,20.2155 C18.0434,17.3825 17.9604,13.6325 18.3764,12.7155 C18.5374,12.3615 16.2424,12.5695 13.3684,12.9575 C14.6754,15.2605 16.0134,18.2965 16.3084,19.2375 C17.0844,21.7115 17.3324,24.3155 17.5754,26.8965 C17.6704,27.9135 17.7664,28.9345 17.7264,29.9555 C17.6554,31.7635 17.1364,33.5455 16.2554,35.1245 C16.2964,35.3495 16.3434,35.5785 16.3764,35.7995 C17.3764,42.3825 20.0434,35.2155 19.5434,32.3825" id="Fill-5" fill="#E6C78C"></path>
                            <path d="M17.575,26.8966 C17.332,24.3156 17.084,21.7116 16.308,19.2376 C16.013,18.2966 14.675,15.2606 13.368,12.9566 C8.807,13.5726 2.785,14.6406 2.785,14.6406 C2.785,14.6406 2.126,18.2156 2.127,20.6326 C2.127,23.2156 4.543,34.1326 8.293,37.0496 C12.043,39.9656 9.96,34.2156 9.543,32.0496 C9.206,30.2956 8.706,24.3456 9.19,21.9156 C8.88,21.2626 8.691,20.5536 8.675,19.8316 C8.667,19.4966 8.702,19.1346 8.92,18.8796 C9.148,18.6116 9.521,18.5246 9.871,18.4856 C10.654,18.3966 11.456,18.4736 12.208,18.7086 C12.542,18.8136 12.881,18.9596 13.097,19.2336 C13.264,19.4466 13.341,19.7146 13.401,19.9776 C13.887,22.0936 13.568,24.3146 13.488,26.4956 C14.653,29.1216 15.737,32.2766 16.255,35.1246 C17.136,33.5456 17.656,31.7636 17.727,29.9556 C17.767,28.9346 17.671,27.9136 17.575,26.8966" id="Fill-7" fill="#F3D498"></path>
                            <path d="M17.0434,1.4658 C12.9604,-0.2012 11.3684,2.1328 10.2874,2.1328 C8.7104,2.1328 7.5434,0.1328 5.2104,0.2158 C4.0224,0.2578 2.9464,0.6478 2.1174,1.2268 C2.6354,1.2048 3.1554,1.2898 3.6684,1.3818 C4.7594,1.5788 5.8504,1.7758 6.9414,1.9718 C7.7504,2.1178 8.6264,2.2998 9.1634,2.9228 C9.7314,3.5828 9.9844,4.7388 10.8544,4.7678 C11.7054,4.7958 12.0394,3.7128 12.5274,3.0158 C13.3184,1.8858 15.0064,1.6338 16.2504,2.2298 C17.4944,2.8258 18.3144,4.0888 18.6954,5.4148 C19.0774,6.7408 19.0794,8.1418 19.0774,9.5208 C19.0764,10.5768 19.0644,11.6798 18.5764,12.6158 C18.1734,13.3878 17.4864,13.9668 16.8034,14.5068 C16.3014,14.9038 15.7504,15.3018 15.1614,15.5318 C17.3104,15.0008 19.1444,14.0358 19.4604,12.2988 C20.1264,8.6328 21.1264,3.1328 17.0434,1.4658" id="Fill-9" fill="#ECECD3"></path>
                            <path d="M18.5764,12.616 C19.0644,11.68 19.0764,10.577 19.0774,9.521 C19.0794,8.141 19.0774,6.74 18.6954,5.415 C18.3144,4.089 17.4944,2.826 16.2504,2.23 C15.0064,1.634 13.3184,1.886 12.5274,3.015 C12.0394,3.712 11.7054,4.795 10.8544,4.768 C9.9844,4.739 9.7314,3.582 9.1634,2.923 C8.6264,2.3 7.7504,2.118 6.9414,1.972 C5.8504,1.775 4.7594,1.579 3.6684,1.382 C3.1554,1.29 2.6354,1.205 2.1174,1.227 C1.3174,1.786 0.7484,2.522 0.5434,3.299 C0.5434,3.299 0.1264,10.966 1.8764,13.549 C3.6264,16.132 5.5434,16.049 8.4604,16.132 C9.8084,16.171 12.1144,16.133 14.2744,15.725 C14.1694,15.729 14.0634,15.731 13.9564,15.72 C14.0634,15.731 14.1694,15.729 14.2744,15.725 C14.5744,15.668 14.8694,15.604 15.1614,15.532 C15.7504,15.301 16.3014,14.904 16.8034,14.507 C17.4864,13.967 18.1734,13.388 18.5764,12.616" id="Fill-11" fill="#FFFEED"></path>
                        </g>
                    </g>
                </g>
            </g>
        </g>
    </g>
</svg>