<?xml version="1.0" encoding="UTF-8" standalone="no"?>
<svg width="14px" height="42px" viewBox="0 0 14 42" version="1.1" xmlns="http://www.w3.org/2000/svg" xmlns:xlink="http://www.w3.org/1999/xlink" xmlns:sketch="http://www.bohemiancoding.com/sketch/ns">
    <!-- Generator: Sketch 3.4 (15575) - http://www.bohemiancoding.com/sketch -->
    <title>Page 1</title>
    <desc>Created with Sketch.</desc>
    <defs></defs>
    <g id="Page-1" stroke="none" stroke-width="1" fill="none" fill-rule="evenodd" sketch:type="MSPage">
        <g id="Doctor---Patient-Landing-Page---Patient---Perio-Chart" sketch:type="MSArtboardGroup" transform="translate(-806.000000, -655.000000)">
            <g id="Chart" sketch:type="MSLayerGroup" transform="translate(271.000000, 398.000000)">
                <g id="Form" transform="translate(0.000000, 24.000000)" sketch:type="MSShapeGroup">
                    <g id="Row-13" transform="translate(526.000000, 197.000000)">
                        <g id="Page-1" transform="translate(9.000000, 36.000000)">
                            <path d="M13.1009,38.3708 C12.8939,38.8068 12.5349,39.1488 12.1709,39.4648 C11.5879,39.9718 10.9699,40.4378 10.3239,40.8608 C9.8439,41.1748 9.3209,41.4728 8.7479,41.4978 C8.1639,41.5238 7.6099,41.2628 7.0839,41.0078 C5.5639,40.2718 4.0439,39.5358 2.5239,38.7998 C0.3049,37.7248 0.3079,35.1408 0.6959,32.9848 C0.9979,31.3018 1.6489,29.7028 2.3419,28.1398 C2.6679,27.4048 3.0149,26.6638 3.5409,26.0558 C3.2109,24.8518 3.5319,23.4758 3.5649,22.2658 C3.6289,19.9018 3.7579,17.5388 4.0029,15.1858 C4.4889,10.5188 5.4359,5.8738 7.2089,1.5158 C7.3769,1.1028 7.6109,0.6408 8.0459,0.5408 C8.4209,0.4548 8.8109,0.6938 9.0179,1.0188 C9.2249,1.3438 9.2869,1.7378 9.3359,2.1198 C9.8219,5.8888 9.2239,9.5618 9.2939,13.3208 C9.3649,17.1508 9.8409,20.9398 9.7259,24.7848 C9.7089,25.3568 9.6859,25.9418 9.3919,26.3268 C9.4189,26.3388 9.4469,26.3498 9.4749,26.3628 C10.1289,26.6608 10.8099,26.9938 11.2179,27.5868 C11.4479,27.9208 11.5729,28.3138 11.6959,28.7008 C12.5449,31.3898 13.4029,34.1368 13.3549,36.9558 C13.3459,37.4388 13.3079,37.9348 13.1009,38.3708 L13.1009,38.3708 Z" id="Stroke-1" stroke="#F99B3B"></path>
                            <path d="M6.7114,27.1852 C6.7804,27.6282 6.8774,28.0642 7.0334,28.4852 C7.3304,29.2862 7.8114,30.0042 8.2814,30.7182 C9.4344,32.4722 10.5544,34.2852 11.1464,36.2992 C11.4984,37.4962 11.6394,38.7812 11.4924,40.0152 C11.1134,40.3112 10.7264,40.5972 10.3244,40.8612 C9.8444,41.1752 9.3214,41.4732 8.7484,41.4982 C8.1644,41.5242 7.6094,41.2632 7.0834,41.0082 C5.5634,40.2712 4.0444,39.5352 2.5244,38.7992 C0.3044,37.7242 0.3074,35.1412 0.6954,32.9842 C0.9984,31.3022 1.6484,29.7032 2.3414,28.1402 C2.6684,27.4042 3.0154,26.6642 3.5414,26.0562 C3.5734,26.1742 3.6054,26.2932 3.6514,26.4082 C4.0824,27.4772 5.4244,27.4322 6.7114,27.1852" id="Fill-3" fill="#FFFEED"></path>
                            <path d="M13.1009,38.3708 C12.8939,38.8068 12.5349,39.1488 12.1709,39.4648 C11.9509,39.6558 11.7219,39.8358 11.4919,40.0148 C11.6399,38.7808 11.4989,37.4968 11.1459,36.2988 C10.5539,34.2848 9.4349,32.4718 8.2819,30.7188 C7.8119,30.0038 7.3299,29.2868 7.0329,28.4848 C6.8779,28.0648 6.7809,27.6278 6.7109,27.1848 C7.4609,27.0418 8.1919,26.8288 8.7129,26.7278 C9.0339,26.6658 9.2449,26.5198 9.3919,26.3268 C9.4189,26.3388 9.4469,26.3498 9.4749,26.3628 C10.1289,26.6608 10.8099,26.9938 11.2179,27.5868 C11.4479,27.9208 11.5729,28.3138 11.6959,28.7008 C12.5449,31.3898 13.4029,34.1368 13.3549,36.9558 C13.3459,37.4388 13.3079,37.9348 13.1009,38.3708" id="Fill-5" fill="#ECECD3"></path>
                            <path d="M6.5474,25.1185 C6.2614,18.3315 7.2834,11.4985 9.5234,5.0855 C9.5504,7.8325 9.2424,10.5535 9.2934,13.3205 C9.3644,17.1505 9.8414,20.9405 9.7264,24.7855 C9.7094,25.3575 9.6864,25.9415 9.3924,26.3265 C8.6594,25.9935 7.9224,25.6705 7.1794,25.3605 C6.9724,25.2735 6.7614,25.1885 6.5474,25.1185" id="Fill-7" fill="#E6C78C"></path>
                            <path d="M6.5474,25.1185 C6.2854,25.0325 6.0174,24.9675 5.7424,24.9575 C4.9164,24.9285 4.1324,25.3875 3.5814,26.0045 C3.5664,26.0205 3.5554,26.0395 3.5414,26.0555 C3.2104,24.8525 3.5324,23.4755 3.5644,22.2665 C3.6284,19.9025 3.7574,17.5385 4.0024,15.1865 C4.4884,10.5195 5.4364,5.8735 7.2084,1.5165 C7.3764,1.1025 7.6104,0.6405 8.0454,0.5405 C8.4204,0.4545 8.8114,0.6935 9.0184,1.0185 C9.2254,1.3435 9.2874,1.7375 9.3364,2.1195 C9.4644,3.1135 9.5144,4.1015 9.5234,5.0855 C7.2834,11.4985 6.2614,18.3315 6.5474,25.1185" id="Fill-9" fill="#F3D498"></path>
                            <path d="M8.7129,26.7283 C8.1919,26.8293 7.4609,27.0413 6.7119,27.1853 C6.6269,26.6473 6.5859,26.1013 6.5579,25.5573 C6.5509,25.4113 6.5539,25.2643 6.5479,25.1183 C6.7619,25.1893 6.9719,25.2733 7.1799,25.3603 C7.9219,25.6703 8.6589,25.9933 9.3919,26.3263 C9.2449,26.5193 9.0339,26.6663 8.7129,26.7283" id="Fill-11" fill="#ECECD3"></path>
                            <path d="M5.7424,24.9578 C6.0174,24.9678 6.2854,25.0318 6.5474,25.1188 C6.5534,25.2648 6.5504,25.4108 6.5584,25.5568 C6.5854,26.1008 6.6274,26.6478 6.7114,27.1848 C5.4244,27.4318 4.0824,27.4778 3.6514,26.4078 C3.6054,26.2928 3.5734,26.1748 3.5414,26.0558 C3.5554,26.0398 3.5664,26.0208 3.5814,26.0038 C4.1324,25.3878 4.9164,24.9288 5.7424,24.9578" id="Fill-13" fill="#FFFEED"></path>
                        </g>
                    </g>
                </g>
            </g>
        </g>
    </g>
</svg>