<?xml version="1.0" encoding="UTF-8" standalone="no"?>
<svg width="15px" height="19px" viewBox="0 0 15 19" version="1.1" xmlns="http://www.w3.org/2000/svg" xmlns:xlink="http://www.w3.org/1999/xlink" xmlns:sketch="http://www.bohemiancoding.com/sketch/ns">
    <!-- Generator: Sketch 3.4 (15575) - http://www.bohemiancoding.com/sketch -->
    <title>Page 1</title>
    <desc>Created with Sketch.</desc>
    <defs></defs>
    <g id="Page-1" stroke="none" stroke-width="1" fill="none" fill-rule="evenodd" sketch:type="MSPage">
        <g id="Doctor---Patient-Landing-Page---Patient---Perio-Chart" sketch:type="MSArtboardGroup" transform="translate(-517.000000, -737.000000)">
            <g id="Chart" sketch:type="MSLayerGroup" transform="translate(271.000000, 398.000000)">
                <g id="Form" transform="translate(0.000000, 24.000000)" sketch:type="MSShapeGroup">
                    <g id="Row-4" transform="translate(238.000000, 197.000000)">
                        <g id="Tooth---4" transform="translate(8.000000, 33.000000)">
                            <g id="Page-1" transform="translate(0.000000, 86.000000)">
                                <path d="M3.9883,15.4981 C4.0853,15.8811 4.1903,16.2861 4.4723,16.5621 C4.7283,16.8131 5.0903,16.9171 5.4363,17.0111 C6.3013,17.2481 7.1783,17.4871 8.0753,17.4991 C8.9723,17.5121 9.9073,17.2731 10.5653,16.6631 C11.0953,16.1721 11.4003,15.4901 11.6743,14.8211 C13.0173,11.5391 13.9363,8.0831 14.4003,4.5671 C14.4483,4.2051 14.4903,3.8311 14.3983,3.4781 C14.2743,2.9991 13.9203,2.6171 13.5523,2.2871 C11.2993,0.2671 8.3003,0.0141 5.3933,0.5251 C4.3793,0.7031 3.4023,1.4541 2.6673,2.1601 C1.9403,2.8591 0.6093,3.8791 0.5073,4.9251 C0.4373,5.6531 0.8743,6.2321 1.1563,6.8551 C1.5593,7.7411 1.8723,8.6871 2.1983,9.6031 C2.8883,11.5381 3.4853,13.5061 3.9883,15.4981 L3.9883,15.4981 Z" id="Stroke-1" stroke="#F99B3B"></path>
                                <path d="M9.9256,2.3116 C9.5436,3.2196 9.8296,4.2506 10.0306,5.2156 C10.3466,6.7296 10.4386,8.2906 10.3026,9.8326 C10.1896,11.1026 9.8846,12.4336 8.9916,13.3436 C8.3776,13.9676 7.5456,14.3286 6.7076,14.5796 C5.9846,14.7966 5.2206,14.9426 4.4756,14.8176 C4.2156,14.7736 3.9656,14.6786 3.7276,14.5606 C3.2796,12.8896 2.7796,11.2326 2.1986,9.6036 C1.8726,8.6866 1.5586,7.7406 1.1566,6.8546 C0.8736,6.2316 0.4366,5.6536 0.5076,4.9246 C0.6086,3.8786 1.9406,2.8586 2.6676,2.1606 C3.4016,1.4546 4.3786,0.7036 5.3926,0.5246 C7.3736,0.1766 9.3906,0.2006 11.1906,0.8776 C10.6766,1.2786 10.1756,1.7166 9.9256,2.3116" id="Fill-3" fill="#FFFEED"></path>
                                <path d="M14.4003,4.5668 C13.9363,8.0828 13.0173,11.5388 11.6743,14.8218 C11.4003,15.4898 11.0953,16.1718 10.5653,16.6628 C9.9073,17.2728 8.9723,17.5118 8.0753,17.4998 C7.1783,17.4868 6.3013,17.2488 5.4363,17.0118 C5.0903,16.9168 4.7283,16.8128 4.4723,16.5618 C4.1903,16.2858 4.0853,15.8808 3.9883,15.4978 C3.9093,15.1838 3.8123,14.8738 3.7283,14.5608 C3.9663,14.6788 4.2163,14.7728 4.4763,14.8168 C5.2203,14.9428 5.9843,14.7968 6.7073,14.5798 C7.5453,14.3288 8.3783,13.9678 8.9913,13.3438 C9.8853,12.4338 10.1903,11.1028 10.3023,9.8318 C10.4383,8.2908 10.3463,6.7298 10.0313,5.2148 C9.8303,4.2508 9.5433,3.2198 9.9253,2.3118 C10.1763,1.7168 10.6763,1.2778 11.1913,0.8778 C12.0343,1.1948 12.8343,1.6428 13.5523,2.2868 C13.9203,2.6168 14.2743,2.9998 14.3983,3.4778 C14.4903,3.8318 14.4483,4.2048 14.4003,4.5668" id="Fill-5" fill="#ECECD3"></path>
                            </g>
                        </g>
                    </g>
                </g>
            </g>
        </g>
    </g>
</svg>