<?xml version="1.0" encoding="UTF-8" standalone="no"?>
<svg width="22px" height="19px" viewBox="0 0 22 19" version="1.1" xmlns="http://www.w3.org/2000/svg" xmlns:xlink="http://www.w3.org/1999/xlink" xmlns:sketch="http://www.bohemiancoding.com/sketch/ns">
    <!-- Generator: Sketch 3.4 (15575) - http://www.bohemiancoding.com/sketch -->
    <title>Page 1</title>
    <desc>Created with Sketch.</desc>
    <defs></defs>
    <g id="Page-1" stroke="none" stroke-width="1" fill="none" fill-rule="evenodd" sketch:type="MSPage">
        <g id="Doctor---Patient-Landing-Page---Patient---Perio-Chart" sketch:type="MSArtboardGroup" transform="translate(-866.000000, -803.000000)">
            <g id="Chart" sketch:type="MSLayerGroup" transform="translate(271.000000, 398.000000)">
                <g id="Form" transform="translate(0.000000, 24.000000)" sketch:type="MSShapeGroup">
                    <g id="Row-15" transform="translate(590.000000, 197.000000)">
                        <g id="Page-1" transform="translate(6.000000, 184.000000)">
                            <path d="M12.9816,18.5 L4.4616,18.5 C2.2736,18.5 0.4996,16.726 0.4996,14.538 L0.4996,4.936 C0.4996,2.733 2.2856,0.948 4.4886,0.948 L15.7476,0.948 C17.8416,0.948 19.5396,2.646 19.5396,4.74 L19.5396,11.942 C19.5396,15.564 16.6036,18.5 12.9816,18.5 L12.9816,18.5 Z" id="Stroke-1" stroke="#F99B3B"></path>
                            <path d="M19.5391,9.4007 L19.5391,4.7397 C19.5391,2.6457 17.8411,0.9477 15.7471,0.9477 L4.4881,0.9477 C2.2851,0.9477 0.5001,2.7337 0.5001,4.9357 L0.5001,14.5377 C0.5001,16.7257 2.2741,18.4997 4.4621,18.4997 L10.2151,18.4997 C12.3581,17.6547 14.3521,16.4657 16.0101,14.8727 C17.5861,13.3587 18.8121,11.4577 19.5391,9.4007" id="Fill-3" fill="#FFFEED"></path>
                            <path d="M16.0101,14.8729 C14.3521,16.4659 12.3581,17.6549 10.2151,18.4999 L12.9811,18.4999 C16.6031,18.4999 19.5391,15.5639 19.5391,11.9429 L19.5391,9.4009 C18.8131,11.4579 17.5861,13.3579 16.0101,14.8729" id="Fill-5" fill="#ECECD3"></path>
                            <path d="M9.9149,13.7122 C9.8869,15.0402 10.0049,16.3502 10.0679,17.6712 C9.1959,17.6202 8.8409,16.5092 8.1649,16.0372 C7.3719,15.4822 6.4039,15.2332 5.5979,14.6932 C4.4699,13.9382 3.5499,12.7462 3.4639,11.3912 C3.3759,10.0002 4.1499,8.5472 3.6139,7.2612 C3.4749,6.9262 3.2469,6.5802 3.3479,6.2332 C3.5139,5.6582 4.3109,5.6812 4.8989,5.5702 C5.8129,5.3972 6.4929,4.6562 7.1549,4.0032 C7.8169,3.3492 8.6469,2.7052 9.5719,2.8082 C9.8749,2.8422 10.1819,2.9702 10.3559,3.2192 C10.8589,3.9372 9.9649,4.8242 9.8649,5.6962 C9.7569,6.6292 10.6779,7.4442 11.6159,7.5112 C12.5529,7.5782 13.4439,7.0892 14.1749,6.4982 C14.6969,6.0742 15.3829,5.5622 15.9629,5.9022 C16.3919,6.1542 16.4679,6.7322 16.4949,7.2302 C16.5249,7.7822 16.5509,8.3482 16.3829,8.8742 C16.2149,9.4012 15.8089,9.8882 15.2659,9.9912 C15.2509,10.5032 15.6959,10.8912 16.0299,11.2802 C16.3639,11.6692 16.5899,12.3162 16.1999,12.6492 C16.0699,12.7602 15.8969,12.8052 15.7309,12.8472 C15.0399,13.0242 14.1959,13.1602 13.7069,12.6402 C13.2229,12.1282 13.3279,11.1822 12.7319,10.8072 C12.4499,10.6302 12.0859,10.6422 11.7649,10.7282 C11.0309,10.9242 10.4059,11.4872 10.1349,12.1962 C9.9519,12.6752 9.9259,13.1992 9.9149,13.7122" id="Fill-7" fill="#ECECD3"></path>
                        </g>
                    </g>
                </g>
            </g>
        </g>
    </g>
</svg>