<?xml version="1.0" encoding="UTF-8" standalone="no"?>
<svg width="19px" height="15px" viewBox="0 0 19 15" version="1.1" xmlns="http://www.w3.org/2000/svg" xmlns:xlink="http://www.w3.org/1999/xlink" xmlns:sketch="http://www.bohemiancoding.com/sketch/ns">
    <!-- Generator: Sketch 3.4 (15575) - http://www.bohemiancoding.com/sketch -->
    <title>Page 1</title>
    <desc>Created with Sketch.</desc>
    <defs></defs>
    <g id="Page-1" stroke="none" stroke-width="1" fill="none" fill-rule="evenodd" sketch:type="MSPage">
        <g id="Doctor---Patient-Landing-Page---Patient---Perio-Chart" sketch:type="MSArtboardGroup" transform="translate(-868.000000, -741.000000)">
            <g id="Chart" sketch:type="MSLayerGroup" transform="translate(271.000000, 398.000000)">
                <g id="Form" transform="translate(0.000000, 24.000000)" sketch:type="MSShapeGroup">
                    <g id="Row-15" transform="translate(590.000000, 197.000000)">
                        <g id="Page-1" transform="translate(7.000000, 123.000000)">
                            <path d="M11.0979,13.4701 L6.2399,13.4701 C4.6799,13.4701 3.9029,13.7911 3.1079,12.3271 C2.3919,11.0081 2.0629,9.4701 1.5439,8.1241 C0.9759,6.6531 0.2719,5.1121 0.5719,3.5631 C0.7989,2.3921 1.6259,1.3611 2.7039,0.8491 C3.7819,0.3371 5.0839,0.3421 6.1749,0.8261 C6.7219,1.0691 7.2239,1.4261 7.8039,1.5741 C8.5929,1.7741 9.4199,1.5631 10.2169,1.3971 C11.7639,1.0741 13.3459,0.9191 14.9259,0.9361 C15.2859,0.9401 15.6539,0.9551 15.9909,1.0841 C16.5199,1.2871 16.9069,1.7511 17.1889,2.2431 C18.1539,3.9271 18.1009,6.0501 17.4639,7.8841 C16.7189,10.0261 15.3369,11.6761 13.9939,13.4551 C13.0509,13.5271 12.0439,13.4701 11.0979,13.4701 L11.0979,13.4701 Z" id="Stroke-1" stroke="#F99B3B"></path>
                            <path d="M3.9415,1.192 C4.4165,1.11 4.9025,1.257 5.3415,1.458 C6.9625,2.197 8.2095,3.712 8.6225,5.445 C9.7705,5.191 9.7785,3.318 10.8625,2.865 C11.5115,2.594 12.2435,2.966 12.8035,3.389 C14.3035,4.521 15.4995,6.439 14.9165,8.224 C14.5675,9.291 13.6655,10.07 13.0555,11.012 C12.5875,11.736 12.3445,12.739 12.6485,13.487 C12.1265,13.483 11.6045,13.47 11.0975,13.47 L6.2395,13.47 C4.6835,13.47 3.9065,13.788 3.1135,12.336 C3.1115,12.333 3.1095,12.331 3.1075,12.327 C2.3915,11.009 2.0635,9.47 1.5435,8.124 C1.1575,7.124 0.7165,6.092 0.5625,5.047 C0.9845,4.1 1.6345,3.216 2.2985,2.411 C2.7425,1.874 3.2545,1.311 3.9415,1.192" id="Fill-3" fill="#FFFEED"></path>
                            <path d="M17.4635,7.8844 C16.7185,10.0254 15.3375,11.6764 13.9945,13.4544 C13.5555,13.4884 13.1025,13.4904 12.6485,13.4874 C12.3445,12.7384 12.5875,11.7364 13.0555,11.0124 C13.6655,10.0694 14.5675,9.2914 14.9165,8.2244 C15.4995,6.4384 14.3035,4.5214 12.8035,3.3894 C12.2425,2.9654 11.5115,2.5944 10.8625,2.8654 C9.7785,3.3174 9.7705,5.1904 8.6225,5.4454 C8.2095,3.7114 6.9625,2.1974 5.3415,1.4574 C4.9025,1.2574 4.4165,1.1094 3.9415,1.1924 C3.2545,1.3114 2.7425,1.8734 2.2985,2.4114 C1.6345,3.2164 0.9845,4.0994 0.5625,5.0474 C0.4895,4.5544 0.4755,4.0594 0.5715,3.5634 C0.6265,3.2824 0.7195,3.0114 0.8375,2.7514 C1.2135,1.9294 1.8835,1.2384 2.7035,0.8494 C3.7815,0.3374 5.0835,0.3424 6.1745,0.8264 C6.7225,1.0694 7.2235,1.4264 7.8045,1.5734 C8.5935,1.7744 9.4205,1.5634 10.2175,1.3964 C11.7635,1.0734 13.3455,0.9194 14.9255,0.9364 C15.2865,0.9404 15.6545,0.9544 15.9905,1.0844 C16.4525,1.2614 16.8015,1.6404 17.0715,2.0604 C17.1105,2.1214 17.1535,2.1804 17.1885,2.2424 C17.7495,3.2214 17.9585,4.3484 17.9165,5.4794 C17.8875,6.2964 17.7305,7.1154 17.4635,7.8844" id="Fill-5" fill="#ECECD3"></path>
                        </g>
                    </g>
                </g>
            </g>
        </g>
    </g>
</svg>