<?xml version="1.0" encoding="UTF-8" standalone="no"?>
<svg width="19px" height="20px" viewBox="0 0 19 20" version="1.1" xmlns="http://www.w3.org/2000/svg" xmlns:xlink="http://www.w3.org/1999/xlink" xmlns:sketch="http://www.bohemiancoding.com/sketch/ns">
    <!-- Generator: Sketch 3.4 (15575) - http://www.bohemiancoding.com/sketch -->
    <title>Page 1</title>
    <desc>Created with Sketch.</desc>
    <defs>
        <path id="path-1" d="M7.762,0.714 C3.752,0.714 0.5,3.966 0.5,7.977 L0.5,7.977 L0.5,13.066 C0.5,16.312 3.131,18.943 6.377,18.943 L6.377,18.943 L13.494,18.943 C15.903,18.943 17.857,16.99 17.857,14.58 L17.857,14.58 L17.857,7.213 C17.857,3.624 14.947,0.714 11.358,0.714 L11.358,0.714"></path>
    </defs>
    <g id="Page-1" stroke="none" stroke-width="1" fill="none" fill-rule="evenodd" sketch:type="MSPage">
        <g id="Doctor---Patient-Landing-Page---Patient---Perio-Chart" sketch:type="MSArtboardGroup" transform="translate(-484.000000, -803.000000)">
            <g id="Chart" sketch:type="MSLayerGroup" transform="translate(271.000000, 398.000000)">
                <g id="Form" transform="translate(0.000000, 24.000000)">
                    <g id="Row-3" transform="translate(206.000000, 197.000000)">
                        <g id="Tooth---30" transform="translate(5.000000, 157.000000)">
                            <g id="Page-1" transform="translate(2.000000, 27.000000)">
                                <g id="Group-5" sketch:type="MSShapeGroup">
                                    <path d="M13.4935,18.9435 L6.3775,18.9435 C3.1315,18.9435 0.5005,16.3125 0.5005,13.0665 L0.5005,7.9775 C0.5005,3.9665 3.7515,0.7145 7.7625,0.7145 L11.3585,0.7145 C14.9475,0.7145 17.8575,3.6245 17.8575,7.2135 L17.8575,14.5795 C17.8575,16.9895 15.9035,18.9435 13.4935,18.9435 L13.4935,18.9435 Z" id="Stroke-1" stroke="#F99B3B"></path>
                                    <path d="M13.4935,18.9435 L6.3775,18.9435 C3.1315,18.9435 0.5005,16.3125 0.5005,13.0665 L0.5005,7.9775 C0.5005,3.9665 3.7515,0.7145 7.7625,0.7145 L11.3585,0.7145 C14.9475,0.7145 17.8575,3.6245 17.8575,7.2135 L17.8575,14.5795 C17.8575,16.9895 15.9035,18.9435 13.4935,18.9435" id="Fill-3" fill="#FFFEED"></path>
                                </g>
                                <g id="Group-8">
                                    <mask id="mask-2" sketch:name="Clip 7" fill="white">
                                        <use xlink:href="#path-1"></use>
                                    </mask>
                                    <g id="Clip-7"></g>
                                    <path d="M7.0287,17.4255 C7.0547,17.9175 7.1537,18.4465 7.0907,18.9385 C7.0467,19.2745 6.7537,19.6965 6.7847,20.0265 C6.8307,20.5205 7.5567,21.2805 8.1257,20.8945 C8.2207,20.8295 8.2797,20.7255 8.3277,20.6205 C9.4077,18.2735 8.3627,14.8155 8.6577,12.2875 C8.7057,11.8725 8.7957,11.4215 9.1207,11.1585 C9.3487,10.9725 9.6547,10.9165 9.9477,10.8865 C10.6237,10.8165 11.3107,10.8545 11.9757,10.9965 C12.8417,11.1815 13.6647,11.5415 14.5377,11.6885 C15.5417,11.8575 16.5697,11.7375 17.5817,11.6175 C18.0547,11.5615 18.5477,11.4975 18.9427,11.2325 C19.3387,10.9665 19.5977,10.4315 19.3947,10.0005 C18.8507,8.8455 16.8817,10.0215 16.3007,8.7495 C16.2167,8.5655 16.2107,8.3565 16.1787,8.1575 C16.1477,7.9575 16.0797,7.7465 15.9137,7.6305 C15.7087,7.4855 15.4197,7.5365 15.2047,7.6655 C14.6257,8.0155 14.1847,8.6315 13.4797,8.7745 C12.5947,8.9535 11.4547,8.7105 10.5637,8.6145 C10.4117,8.5985 10.2507,8.5765 10.1367,8.4745 C9.9887,8.3425 9.9707,8.1215 9.9627,7.9235 C9.9037,6.5095 9.8467,5.0865 10.0297,3.6825 C10.1527,2.7355 10.3837,1.7615 10.1277,0.8415 C9.8717,-0.0795 8.8907,-0.8895 7.9977,-0.5495 C7.8877,1.4765 7.8947,3.5095 8.0177,5.5355 C8.0487,6.0485 8.0867,6.5605 8.1327,7.0725 C8.1657,7.4335 8.3297,7.9065 8.1137,8.2005 C7.7087,8.7515 6.8097,8.6935 6.2457,8.6125 C5.8957,8.5625 5.5027,8.4595 5.3397,8.1455 C4.8917,7.2885 6.2567,6.9015 6.7867,6.7225 C7.1237,6.6075 7.2667,6.2685 7.3307,5.9455 C7.3947,5.6225 7.4517,5.1905 7.4567,4.8655 C7.4637,4.3825 7.1807,4.3245 6.8557,4.1065 C6.5197,3.8815 6.3377,3.5985 5.9067,3.5135 C5.5397,3.4405 5.1547,3.5105 4.8067,3.6485 C4.4577,3.7865 4.1397,3.9895 3.8237,4.1915 C3.6417,4.3075 3.4287,4.3985 3.2597,4.5315 C3.0877,4.6665 2.9607,4.8515 2.8447,5.0375 C2.1017,6.2335 1.9047,7.4065 1.9437,8.7965 C1.9437,10.0405 2.0147,11.2895 2.0507,12.5335 C2.0807,13.5885 1.8167,14.7985 2.9517,15.3465 C3.4097,15.5675 3.9427,15.5995 4.4427,15.5085 C4.6187,15.4775 4.7957,15.4295 4.9427,15.3275 C5.0897,15.2265 5.2037,15.0645 5.2077,14.8855 C5.2127,14.6975 5.1007,14.5295 5.0017,14.3695 C4.4877,13.5365 4.0787,12.5345 4.0997,11.5515 C4.1057,11.2505 4.1147,10.9365 4.2527,10.6685 C4.5467,10.0935 5.4387,10.2095 5.9817,10.1645 C6.5457,10.1175 7.2547,10.1515 7.4847,10.6675 C7.6047,10.9385 7.5407,11.2515 7.4797,11.5405 C7.0737,13.4715 6.9237,15.4555 7.0287,17.4255" id="Fill-6" fill="#ECECD3" sketch:type="MSShapeGroup" mask="url(#mask-2)"></path>
                                </g>
                            </g>
                        </g>
                    </g>
                </g>
            </g>
        </g>
    </g>
</svg>