<?xml version="1.0" encoding="UTF-8" standalone="no"?>
<svg width="21px" height="41px" viewBox="0 0 21 41" version="1.1" xmlns="http://www.w3.org/2000/svg" xmlns:xlink="http://www.w3.org/1999/xlink" xmlns:sketch="http://www.bohemiancoding.com/sketch/ns">
    <!-- Generator: Sketch 3.4 (15575) - http://www.bohemiancoding.com/sketch -->
    <title>Page 1</title>
    <desc>Created with Sketch.</desc>
    <defs></defs>
    <g id="Page-1" stroke="none" stroke-width="1" fill="none" fill-rule="evenodd" sketch:type="MSPage">
        <g id="Doctor---Patient-Landing-Page---Patient---Perio-Chart" sketch:type="MSArtboardGroup" transform="translate(-835.000000, -655.000000)">
            <g id="Chart" sketch:type="MSLayerGroup" transform="translate(271.000000, 398.000000)">
                <g id="Form" transform="translate(0.000000, 24.000000)" sketch:type="MSShapeGroup">
                    <g id="Row-14" transform="translate(558.000000, 197.000000)">
                        <g id="Page-1" transform="translate(6.000000, 37.000000)">
                            <path d="M4.7134,5.2313 C4.6964,4.9283 4.4564,0.9303 4.0904,1.1443 C2.2214,2.2413 1.2074,4.1063 1.1074,6.3023 C1.0204,8.2273 1.6884,10.0573 1.9864,11.9343 C2.3004,13.9103 2.1364,15.8643 2.3564,17.8483 C2.5384,19.4833 3.5374,21.1213 3.2354,22.7983 C2.9574,24.3423 2.2034,25.7993 1.5134,27.1903 C0.3554,29.5243 0.3014,32.2213 0.7944,34.7363 C0.9934,35.7563 1.1884,37.2383 1.9044,38.0193 C2.7194,38.9073 4.1894,39.0603 5.3064,39.1653 C6.4824,39.2753 7.6824,39.3833 8.8364,39.1263 C9.3344,39.0143 9.8344,38.8343 10.3404,38.8963 C10.6854,38.9393 11.0064,39.0913 11.3334,39.2083 C13.6844,40.0513 16.4264,38.9833 18.0514,37.0863 C19.6104,35.2653 19.4294,33.6813 19.6684,31.4623 C19.8664,29.6163 20.1504,27.1723 18.8964,25.6123 C17.8274,24.2823 16.8394,22.8363 16.4034,21.1873 C15.9044,19.3033 16.1664,17.3133 16.3534,15.3733 C16.6094,12.7193 16.7204,10.0533 16.7684,7.3883 C16.7924,6.0583 17.6824,1.1323 15.7744,0.9293 C14.8444,0.8303 14.2494,1.4623 13.7844,2.1913 C13.2704,2.9953 13.0064,3.9293 12.7494,4.8483 C12.3004,6.4533 11.8514,8.0583 11.4024,9.6633 C10.6034,6.8863 11.9474,2.6713 9.9434,0.3353 C9.8124,0.1823 9.6484,0.0353 9.4474,0.0203 C6.9084,-0.1637 7.7694,6.0593 7.8004,7.3233 C7.8094,7.6873 7.8194,8.0593 7.7014,8.4033 C7.3334,9.4783 6.3724,9.6043 5.7424,8.8133 C4.9674,7.8393 4.7804,6.4313 4.7134,5.2313 L4.7134,5.2313 Z" id="Stroke-1" stroke="#F99B3B"></path>
                            <path d="M12.042,24.1737 C13.048,24.2567 14.052,24.4167 15.056,24.5647 C15.1,24.6087 15.137,24.6587 15.182,24.7007 C15.895,25.3707 16.808,25.8247 17.423,26.5857 C18.636,28.0877 18.344,30.2637 17.961,32.1557 C17.712,33.3787 17.411,34.6777 16.511,35.5417 C15.436,36.5737 13.812,36.7117 12.324,36.7937 C11.878,36.8177 11.372,36.8207 11.059,36.5007 C10.826,36.2637 10.768,35.9107 10.721,35.5807 C10.5,34.0467 10.28,32.5137 10.06,30.9797 C8.989,32.8557 9.842,35.4737 8.541,37.1977 C7.829,38.1397 6.596,38.5797 5.416,38.5727 C4.236,38.5667 3.094,38.1687 2.011,37.6997 C1.856,37.6317 1.7,37.5597 1.544,37.4837 C1.117,36.6707 0.954,35.5567 0.794,34.7367 C0.302,32.2207 0.355,29.5247 1.513,27.1907 C1.856,26.4997 2.214,25.7927 2.522,25.0667 C4.126,24.6907 5.752,24.4107 7.392,24.2507 C8.937,24.0997 10.495,24.0457 12.042,24.1737" id="Fill-3" fill="#FFFEED"></path>
                            <path d="M5.4164,38.573 C6.5964,38.58 7.8294,38.139 8.5404,37.198 C9.8424,35.473 8.9894,32.855 10.0604,30.979 C10.2804,32.513 10.5004,34.047 10.7204,35.581 C10.7674,35.91 10.8264,36.263 11.0594,36.501 C11.3724,36.82 11.8774,36.818 12.3244,36.793 C13.8114,36.712 15.4364,36.574 16.5104,35.542 C17.4104,34.677 17.7124,33.379 17.9604,32.156 C18.3444,30.264 18.6364,28.087 17.4224,26.586 C16.8084,25.825 15.8954,25.371 15.1824,24.701 C15.1364,24.658 15.0994,24.609 15.0564,24.564 C16.1524,24.726 17.2474,24.866 18.3404,24.884 C18.5234,25.129 18.7054,25.375 18.8964,25.612 C20.1504,27.173 19.8664,29.616 19.6684,31.462 C19.4294,33.681 19.6104,35.265 18.0514,37.086 C16.4264,38.983 13.6844,40.051 11.3334,39.209 C11.0064,39.091 10.6854,38.939 10.3404,38.897 C9.8344,38.835 9.3344,39.015 8.8364,39.126 C7.6824,39.384 6.4824,39.275 5.3054,39.165 C4.1894,39.06 2.7194,38.908 1.9034,38.019 C1.7634,37.866 1.6484,37.681 1.5444,37.483 C1.6994,37.559 1.8554,37.632 2.0114,37.699 C3.0934,38.168 4.2364,38.566 5.4164,38.573" id="Fill-5" fill="#ECECD3"></path>
                            <path d="M10.4491,12.3733 C10.8551,12.1353 11.2391,11.6993 11.6951,11.8133 C11.3971,14.6063 9.0411,17.0373 9.3831,19.8253 C8.8891,18.1573 9.2131,16.1113 7.9651,14.9003 C7.5511,14.4983 7.0141,14.2533 6.5281,13.9423 C5.1411,13.0543 4.1501,11.5713 3.8631,9.9503 C3.6001,8.4713 3.9321,6.9013 4.7491,5.6423 C4.8371,6.7433 5.0531,7.9473 5.7421,8.8133 C6.0731,9.2283 6.4941,9.3843 6.8731,9.2893 C7.0321,10.1183 7.2491,10.9413 7.7561,11.6053 C8.3761,12.4163 9.5681,12.8883 10.4491,12.3733" id="Fill-7" fill="#E6C78C"></path>
                            <path d="M9.6895,9.7092 C9.2965,7.8912 9.3155,6.0112 9.0715,4.1672 C8.9215,3.0272 8.6505,1.8682 8.1565,0.8372 C8.4325,0.3052 8.8405,-0.0238 9.4475,0.0202 C9.6485,0.0352 9.8125,0.1822 9.9435,0.3352 C11.5385,2.1942 11.0145,5.2422 11.1365,7.8102 C10.9385,8.2972 10.6745,8.7632 10.4045,9.2172 C10.2445,9.4852 9.9905,9.7942 9.6895,9.7092" id="Fill-9" fill="#E6C78C"></path>
                            <path d="M18.3407,24.8843 C17.2467,24.8663 16.1527,24.7263 15.0557,24.5643 C13.7967,23.2873 13.3047,21.3973 13.3197,19.5953 C13.3357,17.7303 13.8187,15.9063 14.1717,14.0753 C14.5727,11.9873 14.8077,9.8673 14.8707,7.7413 C14.9397,5.4443 14.8807,2.9753 15.7887,0.9333 C17.6767,1.1623 16.7917,6.0613 16.7677,7.3883 C16.7207,10.0533 16.6097,12.7193 16.3537,15.3733 C16.1657,17.3133 15.9047,19.3033 16.4027,21.1873 C16.7607,22.5423 17.4987,23.7553 18.3407,24.8843" id="Fill-11" fill="#E6C78C"></path>
                            <path d="M6.4601,22.0557 C6.9471,21.8217 7.3101,21.3787 7.7961,21.1437 C8.8201,20.6487 10.0381,21.1987 11.1661,21.0657 C11.9411,20.9747 12.6421,20.5667 13.3351,20.1577 C13.4181,21.7827 13.9271,23.4197 15.0561,24.5647 C14.0521,24.4167 13.0481,24.2567 12.0421,24.1737 C10.4951,24.0457 8.9371,24.0997 7.3921,24.2507 C5.7521,24.4107 4.1261,24.6907 2.5221,25.0667 C2.8341,24.3307 3.0951,23.5757 3.2351,22.7977 C3.2381,22.7847 3.2371,22.7717 3.2391,22.7587 C3.8141,22.5677 4.4021,22.4147 5.0051,22.3457 C5.4991,22.2887 6.0121,22.2707 6.4601,22.0557" id="Fill-13" fill="#E6C78C"></path>
                            <path d="M11.1663,21.0661 C10.0373,21.1991 8.8203,20.6491 7.7963,21.1431 C7.3093,21.3781 6.9473,21.8221 6.4603,22.0561 C6.0113,22.2701 5.4993,22.2891 5.0053,22.3461 C4.4023,22.4151 3.8143,22.5671 3.2393,22.7591 C3.5183,21.0951 2.5373,19.4701 2.3563,17.8481 C2.1363,15.8651 2.3003,13.9101 1.9863,11.9341 C1.6883,10.0571 1.0203,8.2271 1.1083,6.3021 C1.2073,4.1061 2.2213,2.2411 4.0903,1.1441 C4.4563,0.9301 4.6963,4.9281 4.7133,5.2311 C4.7213,5.3641 4.7383,5.5051 4.7493,5.6421 C3.9323,6.9021 3.6003,8.4711 3.8633,9.9501 C4.1503,11.5711 5.1413,13.0541 6.5273,13.9421 C7.0133,14.2531 7.5503,14.4981 7.9643,14.9001 C9.2133,16.1111 8.8893,18.1581 9.3833,19.8251 C9.0413,17.0371 11.3973,14.6071 11.6953,11.8131 C11.2383,11.6991 10.8553,12.1361 10.4493,12.3731 C9.5683,12.8891 8.3763,12.4161 7.7563,11.6051 C7.2493,10.9421 7.0313,10.1181 6.8733,9.2891 C7.2163,9.2031 7.5263,8.9141 7.7013,8.4031 C7.8193,8.0591 7.8093,7.6871 7.8003,7.3231 C7.7773,6.3621 7.2773,2.5341 8.1563,0.8371 C8.6503,1.8681 8.9213,3.0271 9.0723,4.1671 C9.3153,6.0111 9.2963,7.8911 9.6893,9.7091 C9.9903,9.7941 10.2443,9.4851 10.4043,9.2171 C10.6743,8.7631 10.9383,8.2971 11.1363,7.8101 C11.1683,8.4681 11.2393,9.0971 11.4033,9.6631 C11.8513,8.0581 12.3003,6.4531 12.7493,4.8481 C13.0063,3.9291 13.2703,2.9951 13.7843,2.1911 C14.2493,1.4621 14.8443,0.8301 15.7743,0.9291 C15.7793,0.9291 15.7833,0.9321 15.7883,0.9331 C14.8813,2.9751 14.9393,5.4441 14.8713,7.7411 C14.8073,9.8671 14.5733,11.9871 14.1713,14.0751 C13.8193,15.9061 13.3363,17.7301 13.3203,19.5951 C13.3183,19.7821 13.3253,19.9701 13.3353,20.1581 C12.6423,20.5661 11.9413,20.9751 11.1663,21.0661" id="Fill-15" fill="#F3D498"></path>
                        </g>
                    </g>
                </g>
            </g>
        </g>
    </g>
</svg>