<?xml version="1.0" encoding="UTF-8" standalone="no"?>
<svg width="21px" height="34px" viewBox="0 0 21 34" version="1.1" xmlns="http://www.w3.org/2000/svg" xmlns:xlink="http://www.w3.org/1999/xlink" xmlns:sketch="http://www.bohemiancoding.com/sketch/ns">
    <!-- Generator: Sketch 3.4 (15575) - http://www.bohemiancoding.com/sketch -->
    <title>Page 1</title>
    <desc>Created with Sketch.</desc>
    <defs></defs>
    <g id="Page-1" stroke="none" stroke-width="1" fill="none" fill-rule="evenodd" sketch:type="MSPage">
        <g id="Doctor---Patient-Landing-Page---Patient---Perio-Chart" sketch:type="MSArtboardGroup" transform="translate(-898.000000, -837.000000)">
            <g id="Chart" sketch:type="MSLayerGroup" transform="translate(271.000000, 398.000000)">
                <g id="Form" transform="translate(0.000000, 24.000000)" sketch:type="MSShapeGroup">
                    <g id="Row-16" transform="translate(622.000000, 197.000000)">
                        <g id="Page-1" transform="translate(5.000000, 219.000000)">
                            <path d="M19.3499,27.3946 C18.6379,24.9036 16.7619,22.2406 16.5369,21.4576 C16.1969,20.2696 15.8019,14.8966 16.1619,13.0196 C16.1619,13.0196 17.9129,5.6446 16.1619,1.8946 C14.4129,-1.8554 8.7199,1.2076 7.5369,1.3946 C6.4479,1.5676 4.1389,0.6756 2.7249,1.2076 C-0.0461,2.2486 -0.1501,8.0826 1.9749,11.2076 C4.0999,14.3316 3.9119,14.6446 3.9119,14.6446 C3.9119,14.6446 4.7249,16.6316 4.7249,18.0196 C4.7249,19.8636 6.5369,25.7696 9.5999,28.0816 C12.6629,30.3946 15.9679,34.7566 19.4749,31.0826 C20.7869,29.7076 19.7159,28.6766 19.3499,27.3946 L19.3499,27.3946 Z" id="Stroke-1" stroke="#F99B3B"></path>
                            <path d="M12.0599,25.4725 C10.6919,23.7225 9.4359,21.8845 8.3039,19.9735 C8.1379,21.4885 8.9699,22.9145 9.7709,24.2105 C10.5629,25.4925 11.3639,26.7865 12.4199,27.8595 C13.1089,28.5595 13.8959,29.1545 14.6799,29.7465 C15.7629,30.5645 16.8459,31.3835 17.9289,32.2015 C18.4259,31.9835 18.9259,31.6415 19.4309,31.1215 C17.7159,30.3615 16.0469,29.4995 14.6309,28.2805 C13.6679,27.4515 12.8429,26.4735 12.0599,25.4725" id="Fill-3" fill="#E6C78C"></path>
                            <path d="M13.5251,19.156 C13.7791,20.082 13.8441,21.051 14.0881,21.98 C14.8361,24.817 17.1401,26.934 19.3361,28.881 C19.5891,29.105 19.8411,29.329 20.0941,29.553 C20.0321,28.839 19.5691,28.162 19.3501,27.395 C18.6381,24.903 16.7621,22.241 16.5371,21.457 C16.1971,20.27 15.8011,14.897 16.1621,13.02 C16.4691,11.425 13.9151,9.747 13.1381,9.278 C12.1501,10.375 11.4571,11.768 11.4831,13.233 C11.5191,15.334 12.9691,17.13 13.5251,19.156" id="Fill-5" fill="#E6C78C"></path>
                            <path d="M20.0945,29.5534 C19.8415,29.3294 19.5885,29.1054 19.3355,28.8804 C17.1405,26.9334 14.8365,24.8174 14.0885,21.9794 C13.8435,21.0514 13.7795,20.0824 13.5255,19.1564 C12.9695,17.1294 11.5195,15.3344 11.4825,13.2334 C11.4575,11.7674 12.1505,10.3754 13.1385,9.2774 C13.0005,9.1944 12.9125,9.1444 12.9125,9.1444 L3.9125,14.6444 C3.9125,14.6444 4.7245,16.6314 4.7245,18.0194 C4.7245,19.8634 6.5375,25.7694 9.5995,28.0824 C12.2085,30.0514 14.9935,33.4904 17.9295,32.2014 C16.8465,31.3834 15.7625,30.5644 14.6795,29.7464 C13.8965,29.1544 13.1095,28.5594 12.4205,27.8594 C11.3635,26.7864 10.5625,25.4924 9.7705,24.2104 C8.9695,22.9144 8.1375,21.4894 8.3035,19.9744 C9.4355,21.8844 10.6915,23.7224 12.0595,25.4724 C12.8435,26.4734 13.6675,27.4514 14.6315,28.2804 C16.0475,29.4994 17.7155,30.3614 19.4315,31.1224 C19.4455,31.1074 19.4605,31.0974 19.4745,31.0824 C20.0025,30.5294 20.1365,30.0334 20.0945,29.5534" id="Fill-7" fill="#F3D498"></path>
                            <path d="M7.9011,4.5833 C7.8781,4.7913 7.7901,4.9893 7.7861,5.1983 C7.7741,5.7243 8.4051,6.1463 8.8861,5.9373 C8.6901,5.8833 8.6221,5.6213 8.6921,5.4303 C8.7611,5.2393 8.9211,5.0973 9.0571,4.9463 C9.7681,4.1593 9.8991,2.9983 9.7671,1.9453 C9.7161,1.5363 9.6291,1.1333 9.5371,0.7303 C8.6261,1.0363 7.8851,1.3393 7.5371,1.3943 C6.4481,1.5673 4.1391,0.6753 2.7251,1.2073 C2.5851,1.2593 2.4571,1.3323 2.3311,1.4083 C3.6961,1.6333 5.0581,2.2213 6.3261,2.8093 C7.0961,3.1663 7.9961,3.7403 7.9011,4.5833" id="Fill-9" fill="#ECECD3"></path>
                            <path d="M16.1624,1.8946 C15.1984,-0.1704 13.0404,-0.1664 11.0974,0.2826 C11.3444,0.7426 11.7464,1.1606 12.1794,1.4486 C13.0734,2.0446 14.1664,2.4406 14.7494,3.3436 C15.3604,4.2906 15.2264,5.5516 14.7974,6.5946 C14.3694,7.6376 13.6814,8.5536 13.1924,9.5696 C12.4694,11.0716 12.2004,12.7436 11.9464,14.3926 C13.7104,14.1486 15.3084,13.7316 16.1624,13.0196 C16.1624,13.0196 17.9124,5.6446 16.1624,1.8946" id="Fill-11" fill="#ECECD3"></path>
                            <path d="M14.7979,6.5945 C15.2269,5.5515 15.3609,4.2905 14.7489,3.3435 C14.1659,2.4405 13.0739,2.0445 12.1799,1.4485 C11.7469,1.1605 11.3449,0.7425 11.0979,0.2825 C10.5479,0.4095 10.0199,0.5685 9.5369,0.7305 C9.6289,1.1335 9.7169,1.5365 9.7679,1.9455 C9.8989,2.9985 9.7679,4.1595 9.0569,4.9465 C8.9209,5.0975 8.7609,5.2385 8.6919,5.4305 C8.6219,5.6215 8.6899,5.8835 8.8859,5.9365 C8.4049,6.1465 7.7739,5.7235 7.7859,5.1985 C7.7909,4.9895 7.8779,4.7915 7.9009,4.5835 C7.9969,3.7405 7.0959,3.1655 6.3269,2.8095 C5.0579,2.2205 3.6959,1.6335 2.3319,1.4085 C-0.0461,2.8375 -0.0431,8.2395 1.9749,11.2075 C4.0999,14.3325 3.9129,14.6445 3.9129,14.6445 C3.9129,14.6445 8.2899,14.8975 11.9459,14.3925 C12.1999,12.7435 12.4689,11.0715 13.1929,9.5695 C13.6819,8.5535 14.3689,7.6375 14.7979,6.5945" id="Fill-13" fill="#FFFEED"></path>
                        </g>
                    </g>
                </g>
            </g>
        </g>
    </g>
</svg>