<?xml version="1.0" encoding="UTF-8" standalone="no"?>
<svg width="13px" height="17px" viewBox="0 0 13 17" version="1.1" xmlns="http://www.w3.org/2000/svg" xmlns:xlink="http://www.w3.org/1999/xlink" xmlns:sketch="http://www.bohemiancoding.com/sketch/ns">
    <!-- Generator: Sketch 3.4 (15575) - http://www.bohemiancoding.com/sketch -->
    <title>Page 1</title>
    <desc>Created with Sketch.</desc>
    <defs></defs>
    <g id="Page-1" stroke="none" stroke-width="1" fill="none" fill-rule="evenodd" sketch:type="MSPage">
        <g id="Doctor---Patient-Landing-Page---Patient---Perio-Chart" sketch:type="MSArtboardGroup" transform="translate(-775.000000, -711.000000)">
            <g id="Chart" sketch:type="MSLayerGroup" transform="translate(271.000000, 398.000000)">
                <g id="Form" transform="translate(0.000000, 24.000000)" sketch:type="MSShapeGroup">
                    <g id="Row-12" transform="translate(494.000000, 197.000000)">
                        <g id="Rectangle-154-Copy-12-+-12-Copy" transform="translate(0.000000, 35.000000)">
                            <g id="Tooth-11" transform="translate(9.000000, 0.000000)">
                                <g id="Page-1" transform="translate(1.000000, 57.000000)">
                                    <path d="M0.568,6.6288 C0.438,7.4888 0.518,8.3648 0.615,9.2288 C0.867,11.4658 1.23,13.6908 1.705,15.8908 C1.742,16.0608 1.787,16.2458 1.925,16.3518 C2.04,16.4408 2.194,16.4558 2.339,16.4658 C4.383,16.5988 6.451,16.3458 8.402,15.7248 C9.409,15.4038 10.439,14.9428 11.037,14.0718 C11.609,13.2398 11.69,12.1768 11.753,11.1688 C11.938,8.1928 12.101,5.0828 10.893,2.3558 C10.643,1.7908 10.018,1.2098 9.418,1.0458 C9.03,0.9398 8.621,0.9418 8.218,0.9468 C6.917,0.9618 4.155,0.5138 3.08,1.3708 C2.548,1.7948 2.225,2.9548 1.866,3.5358 C1.271,4.4988 0.74,5.4938 0.568,6.6288 L0.568,6.6288 Z" id="Stroke-1" stroke="#F99B3B"></path>
                                    <path d="M0.568,6.6288 C0.438,7.4888 0.518,8.3648 0.615,9.2288 C0.867,11.4658 1.23,13.6908 1.705,15.8908 C1.742,16.0608 1.787,16.2458 1.925,16.3518 C2.04,16.4408 2.194,16.4558 2.339,16.4658 C4.383,16.5988 6.451,16.3458 8.402,15.7248 C9.409,15.4038 10.439,14.9428 11.037,14.0718 C11.609,13.2398 11.69,12.1768 11.753,11.1688 C11.938,8.1928 12.101,5.0828 10.893,2.3558 C10.643,1.7908 10.018,1.2098 9.418,1.0458 C9.03,0.9398 8.621,0.9418 8.218,0.9468 C6.917,0.9618 4.155,0.5138 3.08,1.3708 C2.548,1.7948 2.225,2.9548 1.866,3.5358 C1.271,4.4988 0.74,5.4938 0.568,6.6288" id="Fill-3" fill="#FFFEED"></path>
                                    <path d="M3.8254,9.0627 C3.8524,9.3097 3.8794,9.5607 3.9804,9.7877 C4.3654,10.6607 5.6994,10.7347 6.4224,10.1117 C7.1454,9.4887 7.3604,8.4567 7.3654,7.5017 C7.3694,6.5477 7.2094,5.5857 7.3644,4.6437 C8.0584,4.5817 8.7654,4.6627 9.4274,4.8797 C9.5504,4.9207 9.6814,4.9727 9.7524,5.0817 C9.8154,5.1787 9.8174,5.3017 9.8184,5.4177 L9.8344,9.3427 C9.8354,9.6157 9.8344,9.8977 9.7214,10.1467 C9.6134,10.3847 9.4124,10.5687 9.1944,10.7147 C8.4584,11.2067 7.5394,11.3107 6.6844,11.5427 C5.8294,11.7747 4.9304,12.2317 4.6414,13.0697 C4.5854,13.2317 4.5204,13.4357 4.3504,13.4597 C4.2764,13.4697 4.2034,13.4407 4.1394,13.4037 C3.6934,13.1497 3.5294,12.6037 3.2884,12.1507 C3.0464,11.6977 2.5284,11.2647 2.0664,11.4877 C2.1464,11.4497 1.8064,7.1427 1.8234,6.6897 C1.8444,6.1297 2.0004,3.9817 2.5794,3.7287 C3.6094,3.2797 3.7504,8.3637 3.8254,9.0627" id="Fill-5" fill="#ECECD3"></path>
                                </g>
                            </g>
                        </g>
                    </g>
                </g>
            </g>
        </g>
    </g>
</svg>