<?xml version="1.0" encoding="UTF-8" standalone="no"?>
<svg width="14px" height="55px" viewBox="0 0 14 55" version="1.1" xmlns="http://www.w3.org/2000/svg" xmlns:xlink="http://www.w3.org/1999/xlink" xmlns:sketch="http://www.bohemiancoding.com/sketch/ns">
    <!-- Generator: Sketch 3.4 (15575) - http://www.bohemiancoding.com/sketch -->
    <title>Page 1</title>
    <desc>Created with Sketch.</desc>
    <defs>
        <path id="path-1" d="M0,0.266 L13.724,0.266 L13.724,55 L0,55"></path>
    </defs>
    <g id="Page-1" stroke="none" stroke-width="1" fill="none" fill-rule="evenodd" sketch:type="MSPage">
        <g id="Doctor---Patient-Landing-Page---Patient---Perio-Chart" sketch:type="MSArtboardGroup" transform="translate(-742.000000, -828.000000)">
            <g id="Chart" sketch:type="MSLayerGroup" transform="translate(271.000000, 398.000000)">
                <g id="Form" transform="translate(0.000000, 24.000000)">
                    <g id="Row-11" transform="translate(462.000000, 197.000000)">
                        <g id="Page-1" transform="translate(9.000000, 209.000000)">
                            <g id="Group-3">
                                <mask id="mask-2" sketch:name="Clip 2" fill="white">
                                    <use xlink:href="#path-1"></use>
                                </mask>
                                <g id="Clip-2"></g>
                                <path d="M5.8155,0.2661 C5.7765,0.2661 5.7405,0.2671 5.7065,0.2691 C3.1815,0.4381 1.3285,1.8101 0.4885,4.1321 C0.3455,4.5261 0.2435,4.8811 0.1665,5.2501 C-0.6515,9.1801 1.7945,17.8721 2.0715,18.8341 C2.0645,19.1971 2.0445,20.7951 2.1355,23.1831 C2.3875,29.7271 3.4875,42.3511 8.0275,53.3751 L8.0655,53.4681 L8.1365,53.5391 C8.2845,53.6871 9.6235,54.9851 10.9045,55.0001 C11.6915,55.0001 12.6545,54.5651 12.9025,52.4951 C13.0535,51.2351 12.8935,48.9321 12.6705,45.7451 C12.4765,42.9651 12.2345,39.5061 12.1565,35.8411 C12.1265,34.4531 12.1305,32.9111 12.1685,31.2571 C12.2775,26.4871 12.6525,21.5731 12.9015,18.3061 C13.7245,15.7921 13.8985,8.8041 13.5635,5.8361 C13.5375,5.6081 13.5085,5.4071 13.4775,5.2261 C13.4495,5.0681 13.4205,4.9221 13.3895,4.8051 C12.8635,2.8511 9.3615,1.2301 7.5835,0.6461 C7.0555,0.4731 6.3195,0.2661 5.8155,0.2661 M5.6725,21.2631 C5.7085,21.2801 5.7445,21.2951 5.7815,21.3111 C5.7455,21.2951 5.7085,21.2791 5.6725,21.2631 C5.6365,21.2471 5.6005,21.2301 5.5635,21.2131 C5.5995,21.2301 5.6365,21.2471 5.6725,21.2631 M4.1395,20.2901 C4.2635,20.3901 4.3925,20.4891 4.5245,20.5851 C4.6715,20.6911 4.8235,20.7921 4.9785,20.8881 C5.0495,20.9321 5.1225,20.9761 5.1955,21.0171 C5.1225,20.9751 5.0505,20.9321 4.9785,20.8881 C4.6815,20.7041 4.3995,20.4981 4.1395,20.2901 C3.4835,19.7611 2.9645,19.2101 2.7225,18.9401 C2.9575,19.2051 3.4755,19.7571 4.1395,20.2901 M2.6465,18.8541 C2.6675,18.8771 2.6915,18.9051 2.7205,18.9371 C2.6885,18.9021 2.6655,18.8751 2.6465,18.8541 C2.6345,18.8401 2.6235,18.8271 2.6135,18.8161 C2.6225,18.8271 2.6335,18.8391 2.6465,18.8541 M5.8155,0.7661 C6.1595,0.7661 6.7425,0.8961 7.4275,1.1211 C9.4815,1.7961 12.4775,3.3411 12.9065,4.9351 C12.9345,5.0401 12.9605,5.1701 12.9845,5.3111 C13.0145,5.4831 13.0415,5.6751 13.0665,5.8921 C13.4025,8.8741 13.2105,15.8891 12.4025,18.2221 L12.4065,18.2231 C12.1435,21.6721 11.7775,26.4841 11.6685,31.2451 C11.6335,32.8031 11.6245,34.3551 11.6565,35.8521 C11.8195,43.5291 12.6855,50.1091 12.4065,52.4351 C12.2175,54.0131 11.6085,54.5001 10.9265,54.5001 L10.9105,54.5001 C9.7955,54.4871 8.4895,53.1851 8.4895,53.1851 C3.9745,42.2191 2.8855,29.6531 2.6355,23.1641 C2.5305,20.4311 2.5735,18.7681 2.5735,18.7681 C2.5735,18.7681 -0.1765,9.3521 0.6565,5.3521 C0.7365,4.9671 0.8415,4.6251 0.9585,4.3021 C2.0555,1.2691 4.6095,0.8441 5.7395,0.7681 C5.7635,0.7671 5.7885,0.7661 5.8155,0.7661" id="Fill-1" fill="#F99B3B" sketch:type="MSShapeGroup" mask="url(#mask-2)"></path>
                            </g>
                            <path d="M10.2549,33.2685 C10.8279,33.2685 11.2919,32.4755 11.6689,31.2455 C11.7779,26.4845 12.1429,21.6725 12.4059,18.2235 L12.4019,18.2225 C12.3249,18.4445 12.2449,18.6395 12.1559,18.7685 C11.1369,20.2645 9.2329,21.4095 7.5239,21.5605 C7.1379,21.5945 6.7589,21.5955 6.4059,21.5185 C4.4899,21.1015 2.5729,18.7685 2.5729,18.7685 C2.5729,18.7685 2.5309,20.4315 2.6359,23.1635 C4.0689,27.2375 6.7769,33.2685 10.2549,33.2685" id="Fill-4" fill="#E6C78C" sketch:type="MSShapeGroup"></path>
                            <path d="M11.6689,31.2455 C11.2919,32.4755 10.8279,33.2685 10.2549,33.2685 C6.7769,33.2685 4.0689,27.2375 2.6359,23.1635 C2.8849,29.6535 3.9739,42.2195 8.4899,53.1855 C8.4899,53.1855 9.7949,54.4875 10.9099,54.5005 C11.5989,54.5075 12.2159,54.0255 12.4059,52.4355 C12.6859,50.1085 11.8199,43.5285 11.6559,35.8515 C11.6249,34.3545 11.6329,32.8025 11.6689,31.2455" id="Fill-6" fill="#F3D498" sketch:type="MSShapeGroup"></path>
                            <path d="M3.9215,6.6852 C3.4245,7.0582 4.1325,16.0442 4.5245,20.5852 C5.1025,21.0052 5.7515,21.3762 6.4065,21.5182 C6.7595,21.5952 7.1385,21.5952 7.5235,21.5612 C9.2325,21.4092 11.1365,20.2642 12.1565,18.7682 C12.2445,18.6392 12.3255,18.4442 12.4025,18.2222 C13.2105,15.8892 13.4025,8.8742 13.0665,5.8922 C13.0415,5.6752 13.0145,5.4832 12.9845,5.3112 C9.7075,7.4362 4.4215,6.3102 3.9215,6.6852" id="Fill-8" fill="#ECECD3" sketch:type="MSShapeGroup"></path>
                            <path d="M7.4275,1.1215 C6.6895,0.8795 6.0705,0.7465 5.7395,0.7685 C4.6095,0.8435 2.0555,1.2685 0.9585,4.3025 C0.8415,4.6245 0.7365,4.9675 0.6565,5.3515 C-0.1765,9.3515 2.5735,18.7685 2.5735,18.7685 C2.5735,18.7685 3.4095,19.7755 4.5245,20.5855 C4.1325,16.0445 3.4245,7.0585 3.9215,6.6855 C4.4215,6.3095 9.7075,7.4355 12.9845,5.3105 C12.9595,5.1695 12.9345,5.0395 12.9065,4.9355 C12.4775,3.3415 9.4815,1.7955 7.4275,1.1215" id="Fill-10" fill="#FFFEED" sketch:type="MSShapeGroup"></path>
                        </g>
                    </g>
                </g>
            </g>
        </g>
    </g>
</svg>