<?xml version="1.0" encoding="UTF-8" standalone="no"?>
<svg width="14px" height="19px" viewBox="0 0 14 19" version="1.1" xmlns="http://www.w3.org/2000/svg" xmlns:xlink="http://www.w3.org/1999/xlink" xmlns:sketch="http://www.bohemiancoding.com/sketch/ns">
    <!-- Generator: Sketch 3.4 (15575) - http://www.bohemiancoding.com/sketch -->
    <title>Page 1</title>
    <desc>Created with Sketch.</desc>
    <defs></defs>
    <g id="Page-1" stroke="none" stroke-width="1" fill="none" fill-rule="evenodd" sketch:type="MSPage">
        <g id="Doctor---Patient-Landing-Page---Patient---Perio-Chart" sketch:type="MSArtboardGroup" transform="translate(-550.000000, -709.000000)">
            <g id="Chart" sketch:type="MSLayerGroup" transform="translate(271.000000, 398.000000)">
                <g id="Form" transform="translate(0.000000, 24.000000)" sketch:type="MSShapeGroup">
                    <g id="Row-5" transform="translate(270.000000, 197.000000)">
                        <g id="Tooth---5" transform="translate(8.000000, 34.000000)">
                            <g id="Page-1" transform="translate(1.000000, 57.000000)">
                                <path d="M4.7425,17.2937 C3.6785,17.0297 1.9035,16.0157 1.2005,15.1707 C0.7935,14.6817 0.7105,14.0017 0.7295,13.3667 C0.7835,11.5607 0.4375,9.8437 0.5105,8.0057 C0.5985,5.7627 1.2575,3.4897 2.6865,1.7587 C3.0315,1.3407 3.4275,0.9517 3.9135,0.7117 C4.4555,0.4437 5.0775,0.3797 5.6815,0.3987 C7.9985,0.4727 10.1205,1.6877 11.9975,3.0487 C12.3395,3.2967 12.6885,3.5617 12.8895,3.9337 C13.0835,4.2907 13.1225,4.7097 13.1485,5.1157 C13.3645,8.4587 13.0315,11.8367 12.1645,15.0717 C12.0435,15.5227 11.9055,15.9847 11.6075,16.3437 C11.0625,16.9997 10.1335,17.1547 9.2885,17.2657 C7.7765,17.4647 6.2225,17.6617 4.7425,17.2937 L4.7425,17.2937 Z" id="Stroke-1" stroke="#F99B3B"></path>
                                <path d="M2.7918,7.3027 C3.0818,7.0437 3.5808,6.9747 3.8428,7.2627 C4.1098,7.5567 3.9978,8.0197 4.0738,8.4107 C4.2238,9.1827 5.1658,9.5967 5.9308,9.4147 C6.6968,9.2317 7.2858,8.6217 7.7338,7.9737 C8.1808,7.3267 8.5378,6.6107 9.0778,6.0377 C9.2458,5.8597 9.4428,5.6907 9.6838,5.6457 C10.1678,5.5537 10.6088,6.0207 10.6948,6.5057 C10.7818,6.9907 10.6218,7.4807 10.4998,7.9587 C10.2098,9.0957 10.1288,10.2847 10.2608,11.4507 C7.7388,11.2267 5.1878,11.3277 2.6908,11.7527 C2.4048,11.8017 2.0858,11.8477 1.8438,11.6877 C1.6998,11.5917 1.6078,11.4367 1.5218,11.2867 C1.1708,10.6737 0.8438,10.0487 0.5248,9.4187 C0.5018,8.9537 0.4908,8.4837 0.5098,8.0057 C0.5268,7.5857 0.5708,7.1647 0.6288,6.7457 C1.1678,7.2697 1.7058,7.7937 2.2448,8.3187 C2.3678,7.9487 2.5018,7.5617 2.7918,7.3027" id="Fill-3" fill="#ECECD3"></path>
                                <path d="M11.6071,16.3441 C11.0621,17.0001 10.1341,17.1551 9.2881,17.2661 C7.7761,17.4651 6.2221,17.6611 4.7421,17.2941 C3.6791,17.0291 1.9031,16.0161 1.2001,15.1701 C0.7941,14.6821 0.7101,14.0021 0.7291,13.3661 C0.7451,12.8291 0.7231,12.3001 0.6891,11.7721 C1.0091,12.3221 1.3291,12.8721 1.6631,13.4131 C2.0831,14.0951 2.5341,14.7891 3.2001,15.2331 C4.0571,15.8051 5.1401,15.8801 6.1681,15.9371 C6.7811,15.9721 7.4031,16.0051 8.0021,15.8711 C8.5811,15.7411 9.1141,15.4601 9.6241,15.1571 C10.7121,14.5111 11.7221,13.7401 12.6551,12.8851 C12.5151,13.6191 12.3581,14.3501 12.1641,15.0721 C12.0441,15.5231 11.9051,15.9851 11.6071,16.3441" id="Fill-5" fill="#ECECD3"></path>
                                <path d="M8.0018,15.8711 C7.4028,16.0051 6.7808,15.9721 6.1688,15.9371 C5.1398,15.8801 4.0568,15.8051 3.1998,15.2331 C2.5338,14.7891 2.0828,14.0951 1.6628,13.4131 C1.3288,12.8721 1.0088,12.3221 0.6898,11.7721 C0.6398,10.9891 0.5648,10.2101 0.5248,9.4191 C0.8438,10.0481 1.1708,10.6741 1.5218,11.2871 C1.6078,11.4371 1.6998,11.5921 1.8438,11.6871 C2.0858,11.8481 2.4048,11.8011 2.6908,11.7531 C5.1878,11.3281 7.7388,11.2261 10.2608,11.4511 C10.1288,10.2851 10.2098,9.0951 10.4998,7.9581 C10.6218,7.4811 10.7818,6.9911 10.6948,6.5061 C10.6088,6.0201 10.1678,5.5541 9.6838,5.6451 C9.4428,5.6911 9.2458,5.8601 9.0778,6.0381 C8.5378,6.6111 8.1808,7.3271 7.7338,7.9741 C7.2858,8.6211 6.6968,9.2311 5.9308,9.4141 C5.1658,9.5971 4.2238,9.1831 4.0738,8.4101 C3.9978,8.0191 4.1098,7.5571 3.8428,7.2621 C3.5808,6.9741 3.0818,7.0431 2.7918,7.3031 C2.5018,7.5621 2.3678,7.9491 2.2448,8.3181 C1.7058,7.7941 1.1678,7.2701 0.6288,6.7461 C0.8798,4.9311 1.5258,3.1651 2.6868,1.7591 C3.0318,1.3411 3.4278,0.9511 3.9138,0.7111 C4.4558,0.4441 5.0778,0.3801 5.6818,0.3991 C7.9988,0.4731 10.1208,1.6881 11.9978,3.0481 C12.3398,3.2961 12.6878,3.5621 12.8898,3.9341 C13.0838,4.2911 13.1218,4.7101 13.1488,5.1161 C13.3168,7.7131 13.1428,10.3291 12.6548,12.8851 C11.7218,13.7401 10.7128,14.5111 9.6238,15.1571 C9.1138,15.4601 8.5808,15.7411 8.0018,15.8711" id="Fill-7" fill="#FFFEED"></path>
                            </g>
                        </g>
                    </g>
                </g>
            </g>
        </g>
    </g>
</svg>