<?xml version="1.0" encoding="UTF-8" standalone="no"?>
<svg width="21px" height="19px" viewBox="0 0 21 19" version="1.1" xmlns="http://www.w3.org/2000/svg" xmlns:xlink="http://www.w3.org/1999/xlink" xmlns:sketch="http://www.bohemiancoding.com/sketch/ns">
    <!-- Generator: Sketch 3.4 (15575) - http://www.bohemiancoding.com/sketch -->
    <title>Page 1</title>
    <desc>Created with Sketch.</desc>
    <defs></defs>
    <g id="Page-1" stroke="none" stroke-width="1" fill="none" fill-rule="evenodd" sketch:type="MSPage">
        <g id="Doctor---Patient-Landing-Page---Patient---Perio-Chart" sketch:type="MSArtboardGroup" transform="translate(-451.000000, -803.000000)">
            <g id="Chart" sketch:type="MSLayerGroup" transform="translate(271.000000, 398.000000)">
                <g id="Form" transform="translate(0.000000, 24.000000)" sketch:type="MSShapeGroup">
                    <g id="Row-2" transform="translate(174.000000, 197.000000)">
                        <g id="Tooth--31" transform="translate(5.000000, 157.000000)">
                            <g id="Page-1" transform="translate(1.000000, 27.000000)">
                                <path d="M15.2064,18.5 L4.8434,18.5 C2.4444,18.5 0.5004,16.555 0.5004,14.156 L0.5004,4.906 C0.5004,2.507 2.4444,0.563 4.8434,0.563 L15.2064,0.563 C17.6054,0.563 19.5504,2.507 19.5504,4.906 L19.5504,14.156 C19.5504,16.555 17.6054,18.5 15.2064,18.5 L15.2064,18.5 Z" id="Stroke-1" stroke="#F99B3B"></path>
                                <path d="M18.0164,12.0455 C17.8914,11.9075 17.8024,11.7395 17.6724,11.6065 C17.3734,11.2985 16.9164,11.2195 16.4904,11.1635 C15.2224,10.9965 13.9454,10.8965 12.6654,10.8645 C12.4484,10.8595 12.2234,10.8545 12.0294,10.7585 C11.8344,10.6635 11.6784,10.4495 11.7244,10.2375 C11.7924,9.9225 12.1994,9.8435 12.5214,9.8385 C13.9094,9.8185 15.3014,9.9515 16.6814,9.8165 C17.3834,9.7475 18.6614,8.9895 19.5504,9.0755 L19.5504,4.9065 C19.5504,2.5075 17.6054,0.5625 15.2064,0.5625 L4.8434,0.5625 C2.4444,0.5625 0.5004,2.5075 0.5004,4.9065 L0.5004,14.1565 C0.5004,16.5555 2.4444,18.5005 4.8434,18.5005 L8.9684,18.5005 C8.9824,18.4745 9.0034,18.4535 9.0164,18.4265 C9.1814,18.0785 9.1734,17.6765 9.1624,17.2915 C9.1164,15.6965 9.2354,13.9955 9.0214,12.4155 C8.8714,11.3065 8.3144,10.5785 8.7914,9.4085 C8.8674,9.2205 8.9784,9.0245 9.1684,8.9545 C9.2964,8.9075 9.4374,8.9255 9.5714,8.9515 C10.0644,9.0465 10.5584,9.2585 10.8624,9.6575 C11.2134,10.1175 11.2524,10.7505 11.1354,11.3165 C11.0184,11.8825 10.7644,12.4095 10.5724,12.9555 C9.8114,15.1215 10.2564,16.8925 11.5554,18.5005 L15.2064,18.5005 C17.6054,18.5005 19.5504,16.5555 19.5504,14.1565 L19.5504,12.7075 C19.4154,12.6815 19.2824,12.6495 19.1564,12.6135 C18.7424,12.4965 18.3044,12.3655 18.0164,12.0455" id="Fill-3" fill="#FFFEED"></path>
                                <path d="M16.6818,9.8161 C15.3008,9.9511 13.9088,9.8191 12.5218,9.8381 C12.1998,9.8431 11.7918,9.9221 11.7248,10.2371 C11.6788,10.4491 11.8338,10.6631 12.0288,10.7591 C12.2238,10.8541 12.4488,10.8591 12.6658,10.8651 C13.9448,10.8961 15.2228,10.9961 16.4908,11.1631 C16.9158,11.2191 17.3728,11.2991 17.6718,11.6061 C17.8018,11.7401 17.8918,11.9071 18.0168,12.0451 C18.3048,12.3651 18.7418,12.4971 19.1568,12.6141 C19.2818,12.6491 19.4158,12.6821 19.5498,12.7071 L19.5498,9.0751 C18.6608,8.9891 17.3828,9.7471 16.6818,9.8161" id="Fill-5" fill="#ECECD3"></path>
                                <path d="M10.5725,12.9553 C10.7645,12.4093 11.0185,11.8833 11.1355,11.3163 C11.2525,10.7503 11.2135,10.1173 10.8625,9.6573 C10.5585,9.2583 10.0645,9.0463 9.5715,8.9513 C9.4375,8.9253 9.2965,8.9073 9.1685,8.9543 C8.9785,9.0253 8.8675,9.2203 8.7915,9.4083 C8.3145,10.5783 8.8715,11.3063 9.0215,12.4153 C9.2345,13.9953 9.1165,15.6963 9.1625,17.2913 C9.1735,17.6763 9.1815,18.0783 9.0165,18.4263 C9.0035,18.4533 8.9825,18.4743 8.9675,18.5003 L11.5545,18.5003 C10.2565,16.8923 9.8115,15.1213 10.5725,12.9553" id="Fill-7" fill="#ECECD3"></path>
                                <path d="M7.8017,3.6843 C8.7927,3.3313 9.8227,2.9733 10.8697,3.0733 C11.4477,3.1283 12.0037,3.3223 12.5487,3.5223 C13.5697,3.8973 14.5967,4.3103 15.4467,4.9883 C16.2967,5.6663 16.9597,6.6523 17.0127,7.7383 C17.0437,8.3863 16.7017,9.1713 16.0537,9.2003 C15.5277,9.2233 15.1397,8.7463 14.7617,8.3793 C13.6587,7.3073 11.9227,6.9413 10.4797,7.4763 C9.8217,7.7213 9.1597,8.2743 9.2207,8.9733 C9.2807,9.6583 9.9967,10.2933 9.4007,10.9283 C9.0147,11.3393 8.2877,11.1643 7.8337,11.4363 C7.4747,11.6513 6.9717,12.0753 7.2347,12.5913 C7.4167,12.9473 8.0147,12.8783 8.2807,13.1023 C8.6407,13.4053 8.6847,14.0123 8.3737,14.3643 C7.7567,15.0603 6.5497,15.1263 5.7177,14.9333 C5.1157,14.7933 4.5407,14.4453 4.2367,13.9073 C3.9267,13.3603 3.9277,12.6983 3.9367,12.0703 C3.9617,10.2543 3.7247,7.8963 4.4837,6.2153 C5.1457,4.7523 6.3147,4.2143 7.8017,3.6843" id="Fill-9" fill="#ECECD3"></path>
                            </g>
                        </g>
                    </g>
                </g>
            </g>
        </g>
    </g>
</svg>