<?xml version="1.0" encoding="UTF-8" standalone="no"?>
<svg width="20px" height="14px" viewBox="0 0 20 14" version="1.1" xmlns="http://www.w3.org/2000/svg" xmlns:xlink="http://www.w3.org/1999/xlink" xmlns:sketch="http://www.bohemiancoding.com/sketch/ns">
    <!-- Generator: Sketch 3.4 (15575) - http://www.bohemiancoding.com/sketch -->
    <title>Page 1</title>
    <desc>Created with Sketch.</desc>
    <defs></defs>
    <g id="Page-1" stroke="none" stroke-width="1" fill="none" fill-rule="evenodd" sketch:type="MSPage">
        <g id="Doctor---Patient-Landing-Page---Patient---Perio-Chart" sketch:type="MSArtboardGroup" transform="translate(-483.000000, -775.000000)">
            <g id="Chart" sketch:type="MSLayerGroup" transform="translate(271.000000, 398.000000)">
                <g id="Form" transform="translate(0.000000, 24.000000)" sketch:type="MSShapeGroup">
                    <g id="Row-3" transform="translate(206.000000, 197.000000)">
                        <g id="Tooth---30" transform="translate(5.000000, 157.000000)">
                            <g id="Page-1" transform="translate(1.000000, 0.000000)">
                                <path d="M17.9443,0.767 C17.0883,0.176 15.6433,0.475 14.4993,0.489 C12.6053,0.513 10.7113,0.538 8.8173,0.562 C7.2263,0.582 5.6183,0.676 4.0283,0.624 C3.1693,0.595 2.4933,0.297 1.7993,0.951 C-0.0537,2.699 0.4573,7.231 1.0123,9.442 C1.1933,10.164 1.4623,10.908 2.0353,11.384 C2.4473,11.726 2.9743,11.893 3.4903,12.036 C4.6443,12.354 5.8433,12.591 7.0333,12.466 C8.1423,12.349 9.0013,11.267 10.0873,11.18 C11.0103,11.107 12.1593,11.981 13.1803,12.154 C14.0223,12.296 14.8863,12.397 15.7283,12.252 C16.5703,12.107 17.3973,11.684 17.8633,10.969 C18.2483,10.379 18.3553,9.657 18.4533,8.96 C18.7833,6.613 19.0543,4.271 18.6223,1.92 C18.5183,1.357 18.2753,0.996 17.9443,0.767 L17.9443,0.767 Z" id="Stroke-1" stroke="#F99B3B"></path>
                                <path d="M7.8055,9.6379 C8.0795,9.0589 8.1495,8.3909 8.4845,7.8449 C8.8195,7.2989 9.6065,6.9289 10.0985,7.3379 C10.1945,7.6289 10.2905,7.9189 10.3865,8.2089 C10.8035,7.9289 11.3565,8.3539 11.5575,8.8139 C11.7585,9.2749 11.8275,9.8269 12.2085,10.1549 C12.5635,10.4609 13.0775,10.4709 13.5465,10.4649 C14.2555,10.4559 14.9645,10.4479 15.6725,10.4389 C15.9115,10.4359 16.1595,10.4309 16.3755,10.3269 C16.8535,10.0969 16.9915,9.4909 17.0485,8.9639 C17.3155,6.4499 16.9925,3.8759 16.1125,1.5059 C15.9825,1.1539 15.8405,0.7849 15.8225,0.4179 C15.3705,0.4419 14.9145,0.4839 14.4995,0.4889 C12.6055,0.5129 10.7115,0.5379 8.8175,0.5619 C7.2265,0.5819 5.6185,0.6759 4.0285,0.6239 C3.1695,0.5949 2.4935,0.2969 1.7995,0.9519 C-0.0535,2.6989 0.4575,7.2309 1.0125,9.4429 C1.1385,9.9449 1.3145,10.4519 1.5975,10.8779 C2.4315,11.2079 3.2855,11.4689 4.1775,11.5079 C5.6185,11.5709 7.1885,10.9419 7.8055,9.6379" id="Fill-3" fill="#FFFEED"></path>
                                <path d="M18.622,1.9196 C18.519,1.3566 18.276,0.9956 17.944,0.7666 C17.399,0.3906 16.615,0.3756 15.822,0.4176 C15.84,0.7846 15.982,1.1546 16.113,1.5056 C16.993,3.8756 17.316,6.4496 17.048,8.9636 C16.992,9.4916 16.853,10.0976 16.375,10.3276 C16.16,10.4306 15.912,10.4356 15.673,10.4386 C14.964,10.4476 14.255,10.4556 13.546,10.4646 C13.078,10.4706 12.564,10.4606 12.208,10.1546 C11.827,9.8276 11.759,9.2746 11.558,8.8146 C11.357,8.3536 10.804,7.9286 10.387,8.2096 C10.291,7.9186 10.195,7.6286 10.099,7.3386 C9.606,6.9286 8.82,7.2996 8.485,7.8456 C8.15,8.3906 8.079,9.0586 7.805,9.6376 C7.189,10.9416 5.618,11.5706 4.177,11.5076 C3.286,11.4686 2.432,11.2076 1.598,10.8776 C1.722,11.0646 1.861,11.2396 2.035,11.3836 C2.447,11.7266 2.974,11.8936 3.49,12.0356 C4.644,12.3536 5.843,12.5916 7.034,12.4656 C8.142,12.3496 9.001,11.2676 10.087,11.1806 C11.01,11.1066 12.159,11.9816 13.18,12.1536 C14.022,12.2956 14.887,12.3966 15.728,12.2516 C16.57,12.1066 17.397,11.6846 17.864,10.9686 C18.248,10.3796 18.355,9.6566 18.453,8.9596 C18.783,6.6126 19.054,4.2716 18.622,1.9196" id="Fill-5" fill="#ECECD3"></path>
                            </g>
                        </g>
                    </g>
                </g>
            </g>
        </g>
    </g>
</svg>