<?xml version="1.0" encoding="UTF-8" standalone="no"?>
<svg width="16px" height="18px" viewBox="0 0 16 18" version="1.1" xmlns="http://www.w3.org/2000/svg" xmlns:xlink="http://www.w3.org/1999/xlink" xmlns:sketch="http://www.bohemiancoding.com/sketch/ns">
    <!-- Generator: Sketch 3.4 (15575) - http://www.bohemiancoding.com/sketch -->
    <title>Page 1</title>
    <desc>Created with Sketch.</desc>
    <defs></defs>
    <g id="Page-1" stroke="none" stroke-width="1" fill="none" fill-rule="evenodd" sketch:type="MSPage">
        <g id="Doctor---Patient-Landing-Page---Patient---Perio-Chart" sketch:type="MSArtboardGroup" transform="translate(-805.000000, -711.000000)">
            <g id="Chart" sketch:type="MSLayerGroup" transform="translate(271.000000, 398.000000)">
                <g id="Form" transform="translate(0.000000, 24.000000)" sketch:type="MSShapeGroup">
                    <g id="Row-13" transform="translate(526.000000, 197.000000)">
                        <g id="Page-1" transform="translate(8.000000, 92.000000)">
                            <path d="M5.8744,17.0943 C4.0114,16.5383 1.4694,15.6273 0.8404,13.5713 C0.3054,11.8223 1.8254,10.0623 1.0544,8.3423 C0.8894,7.9723 0.6134,7.6473 0.5284,7.2513 C0.4504,6.8823 0.5474,6.5013 0.6444,6.1373 C1.1954,4.0673 1.9624,1.7363 3.9264,0.8803 C4.6514,0.5643 5.4614,0.4983 6.2514,0.5283 C8.1954,0.6013 10.3484,0.9703 12.1004,1.9143 C14.7814,3.3583 14.6364,5.6423 14.6274,8.3903 C14.6254,9.0783 14.6144,9.7733 14.4644,10.4453 C14.2854,11.2423 13.9174,11.9823 13.5524,12.7133 C12.5634,14.6933 11.3174,16.8863 9.1624,17.3923 C8.0784,17.6463 6.9414,17.4123 5.8744,17.0943 L5.8744,17.0943 Z" id="Stroke-1" stroke="#F99B3B"></path>
                            <path d="M5.8744,17.0943 C4.0114,16.5383 1.4694,15.6273 0.8404,13.5713 C0.3054,11.8223 1.8254,10.0623 1.0544,8.3423 C0.8894,7.9723 0.6134,7.6473 0.5284,7.2513 C0.4504,6.8823 0.5474,6.5013 0.6444,6.1373 C1.1954,4.0673 1.9624,1.7363 3.9264,0.8803 C4.6514,0.5643 5.4614,0.4983 6.2514,0.5283 C8.1954,0.6013 10.3484,0.9703 12.1004,1.9143 C14.7814,3.3583 14.6364,5.6423 14.6274,8.3903 C14.6254,9.0783 14.6144,9.7733 14.4644,10.4453 C14.2854,11.2423 13.9174,11.9823 13.5524,12.7133 C12.5634,14.6933 11.3174,16.8863 9.1624,17.3923 C8.0784,17.6463 6.9414,17.4123 5.8744,17.0943" id="Fill-3" fill="#FFFEED"></path>
                            <path d="M3.2211,11.2913 C3.8301,11.0463 4.4991,11.0023 5.1551,10.9603 C7.4791,10.8143 9.9021,10.6843 12.0451,11.5953 C12.3211,11.0603 11.9321,10.4253 11.5081,9.9983 C11.0831,9.5713 10.5671,9.1293 10.5401,8.5273 C10.5201,8.0953 10.7661,7.7013 11.0031,7.3393 C11.2401,6.9773 11.4871,6.5853 11.4721,6.1533 C11.4571,5.7203 11.0401,5.2813 10.6301,5.4173 C10.4881,5.4643 10.3731,5.5693 10.2731,5.6813 C9.6111,6.4213 9.4511,7.5103 8.7841,8.2463 C8.0291,9.0793 6.5221,9.1993 5.8191,8.3223 C5.4151,7.8193 5.3421,7.1373 5.1391,6.5243 C4.9361,5.9123 4.4661,5.2753 3.8211,5.2953 C3.1781,5.3143 2.7401,5.9923 2.6631,6.6303 C2.5861,7.2693 2.7491,7.9133 2.7221,8.5553 C2.6851,9.3903 2.1311,10.1863 2.0361,11.0243 C2.0101,11.2613 1.8701,11.8373 2.1431,12.0023 C2.5511,12.2493 2.8141,11.4553 3.2211,11.2913" id="Fill-5" fill="#ECECD3"></path>
                        </g>
                    </g>
                </g>
            </g>
        </g>
    </g>
</svg>