<?xml version="1.0" encoding="UTF-8" standalone="no"?>
<svg width="11px" height="42px" viewBox="0 0 11 42" version="1.1" xmlns="http://www.w3.org/2000/svg" xmlns:xlink="http://www.w3.org/1999/xlink" xmlns:sketch="http://www.bohemiancoding.com/sketch/ns">
    <!-- Generator: Sketch 3.4 (15575) - http://www.bohemiancoding.com/sketch -->
    <title>Page 1</title>
    <desc>Created with Sketch.</desc>
    <defs></defs>
    <g id="Page-1" stroke="none" stroke-width="1" fill="none" fill-rule="evenodd" sketch:type="MSPage">
        <g id="Doctor---Patient-Landing-Page---Patient---Perio-Chart" sketch:type="MSArtboardGroup" transform="translate(-679.000000, -828.000000)">
            <g id="Chart" sketch:type="MSLayerGroup" transform="translate(271.000000, 398.000000)">
                <g id="Form" transform="translate(0.000000, 24.000000)" sketch:type="MSShapeGroup">
                    <g id="Row-9" transform="translate(397.000000, 197.000000)">
                        <g id="Tooth-25" transform="translate(11.000000, 158.000000)">
                            <g id="Page-1" transform="translate(1.000000, 51.000000)">
                                <path d="M9.2569,2.3105 C9.2569,1.5855 8.6689,0.9985 7.9449,0.9985 L1.9049,0.9985 C1.2089,0.9985 0.6369,1.5385 0.5939,2.2325 C0.4979,3.8165 0.4059,6.8965 0.6939,11.3105 C0.8239,13.2825 1.0089,14.6615 1.2749,15.6465 L1.2719,15.6475 C1.2719,15.6475 3.3199,36.1235 5.3819,39.8735 C7.4449,43.6235 8.4449,40.0605 8.3819,37.4985 C8.3199,34.9355 8.2569,22.8135 8.6319,19.8125 C9.0069,16.8105 9.0759,14.4665 9.0759,14.4665 L9.0579,14.4665 C9.1759,13.9865 9.2569,13.4965 9.2569,12.9965 L9.2569,2.3105 L9.2569,2.3105 Z" id="Stroke-1" stroke="#F99B3B"></path>
                                <path d="M6.1528,23.3521 C6.8978,23.0451 7.7338,22.4061 8.5168,21.2341 C8.5498,20.6561 8.5878,20.1661 8.6318,19.8121 C9.0068,16.8101 9.0758,14.4671 9.0758,14.4671 L4.3198,14.4671 L1.2728,15.6481 C1.2728,15.6481 1.3408,16.3291 1.4628,17.4551 C3.0278,20.1751 5.2698,23.7161 6.1528,23.3521" id="Fill-3" fill="#E6C78C"></path>
                                <path d="M8.5171,21.2342 C7.7331,22.4062 6.8971,23.0452 6.1531,23.3522 C5.2701,23.7162 3.0271,20.1752 1.4631,17.4552 C2.0161,22.5352 3.6941,36.8032 5.3821,39.8732 C7.4441,43.6232 8.4441,40.0602 8.3821,37.4982 C8.3271,35.2382 8.2721,25.5512 8.5171,21.2342" id="Fill-5" fill="#F3D498"></path>
                                <path d="M6.1528,13.0188 C7.6348,12.7718 8.2188,5.0688 8.4218,1.0948 C8.2728,1.0358 8.1138,0.9978 7.9448,0.9978 L1.9048,0.9978 C1.2088,0.9978 0.6368,1.5378 0.5948,2.2328 C0.4978,3.8168 0.4058,6.8968 0.6948,11.3108 C0.7148,11.6258 0.7388,11.9128 0.7618,12.1998 C2.1078,12.5918 4.7108,13.2588 6.1528,13.0188" id="Fill-7" fill="#FFFEED"></path>
                                <path d="M8.4214,1.0943 C8.2184,5.0683 7.6354,12.7713 6.1524,13.0183 C4.7114,13.2593 2.1074,12.5913 0.7624,12.1993 C1.2374,17.9843 2.3254,18.0073 4.9754,18.1853 C6.0574,18.2583 6.9454,17.7363 7.6264,17.0703 C8.7114,16.0093 9.2574,14.5133 9.2574,12.9973 L9.2574,2.3103 C9.2574,1.7543 8.9094,1.2853 8.4214,1.0943" id="Fill-9" fill="#ECECD3"></path>
                            </g>
                        </g>
                    </g>
                </g>
            </g>
        </g>
    </g>
</svg>