<?xml version="1.0" encoding="UTF-8" standalone="no"?>
<svg width="12px" height="18px" viewBox="0 0 12 18" version="1.1" xmlns="http://www.w3.org/2000/svg" xmlns:xlink="http://www.w3.org/1999/xlink" xmlns:sketch="http://www.bohemiancoding.com/sketch/ns">
    <!-- Generator: Sketch 3.4 (15575) - http://www.bohemiancoding.com/sketch -->
    <title>Page 1</title>
    <desc>Created with Sketch.</desc>
    <defs></defs>
    <g id="Page-1" stroke="none" stroke-width="1" fill="none" fill-rule="evenodd" sketch:type="MSPage">
        <g id="Doctor---Patient-Landing-Page---Patient---Perio-Chart" sketch:type="MSArtboardGroup" transform="translate(-615.000000, -777.000000)">
            <g id="Chart" sketch:type="MSLayerGroup" transform="translate(271.000000, 398.000000)">
                <g id="Form" transform="translate(0.000000, 24.000000)" sketch:type="MSShapeGroup">
                    <g id="Row-7" transform="translate(333.000000, 197.000000)">
                        <g id="Tooth-26" transform="translate(11.000000, 158.000000)">
                            <g id="Page-1">
                                <path d="M1.6997,17.5 L9.9197,17.5 C10.5967,17.5 11.1397,16.946 11.1177,16.269 C11.0527,14.284 10.8607,10.469 10.3147,9.219 C9.5647,7.5 8.3147,1.417 8.2317,0.917 C8.1477,0.417 3.8977,0.917 3.8977,0.917 C3.8977,0.917 2.3977,6.25 1.8977,7.917 C1.4887,9.28 0.6897,13.767 0.5037,16.221 C0.4507,16.915 1.0037,17.5 1.6997,17.5 L1.6997,17.5 Z" id="Stroke-1" stroke="#F99B3B"></path>
                                <path d="M4.6305,15.8166 C4.7675,14.9006 5.2775,14.0776 5.4645,13.1706 C5.7135,11.9586 5.3885,10.6046 6.0045,9.5316 C6.3555,8.9206 6.9585,8.5066 7.4575,8.0076 C7.9555,7.5096 8.3765,6.8146 8.2025,6.1316 C7.5105,6.4996 6.7425,6.7246 5.9615,6.7876 C5.5935,6.8166 5.1955,6.8206 4.9035,7.0446 C4.7235,7.1826 4.6095,7.3866 4.5035,7.5866 C2.9115,10.6066 2.2655,14.1086 2.6405,17.4996 L4.4715,17.4996 C4.4735,17.4956 4.4755,17.4916 4.4765,17.4866 C4.6055,16.9416 4.5475,16.3706 4.6305,15.8166" id="Fill-3" fill="#ECECD3"></path>
                                <path d="M10.3147,9.2188 C9.5647,7.4998 8.3147,1.4168 8.2317,0.9168 C8.1477,0.4168 3.8977,0.9168 3.8977,0.9168 C3.8977,0.9168 2.3977,6.2498 1.8977,7.9168 C1.4887,9.2798 0.6897,13.7668 0.5037,16.2208 C0.4507,16.9148 1.0037,17.4998 1.6997,17.4998 L2.6407,17.4998 C2.2647,14.1088 2.9117,10.6068 4.5037,7.5868 C4.6097,7.3868 4.7237,7.1828 4.9037,7.0448 C5.1957,6.8208 5.5937,6.8168 5.9607,6.7868 C6.7427,6.7238 7.5107,6.4998 8.2027,6.1308 C8.3767,6.8138 7.9557,7.5088 7.4577,8.0078 C6.9587,8.5058 6.3547,8.9208 6.0047,9.5318 C5.3887,10.6048 5.7137,11.9588 5.4647,13.1708 C5.2777,14.0778 4.7667,14.8998 4.6307,15.8168 C4.5477,16.3698 4.6047,16.9418 4.4767,17.4868 C4.4757,17.4918 4.4727,17.4958 4.4717,17.4998 L9.9197,17.4998 C10.5967,17.4998 11.1397,16.9458 11.1177,16.2688 C11.0527,14.2838 10.8607,10.4698 10.3147,9.2188" id="Fill-5" fill="#FFFEED"></path>
                            </g>
                        </g>
                    </g>
                </g>
            </g>
        </g>
    </g>
</svg>