<?xml version="1.0" encoding="UTF-8" standalone="no"?>
<svg width="20px" height="22px" viewBox="0 0 20 22" version="1.1" xmlns="http://www.w3.org/2000/svg" xmlns:xlink="http://www.w3.org/1999/xlink" xmlns:sketch="http://www.bohemiancoding.com/sketch/ns">
    <!-- Generator: Sketch 3.4 (15575) - http://www.bohemiancoding.com/sketch -->
    <title>Page 1</title>
    <desc>Created with Sketch.</desc>
    <defs></defs>
    <g id="Page-1" stroke="none" stroke-width="1" fill="none" fill-rule="evenodd" sketch:type="MSPage">
        <g id="Doctor---Patient-Landing-Page---Patient---Perio-Chart" sketch:type="MSArtboardGroup" transform="translate(-483.000000, -706.000000)">
            <g id="Chart" sketch:type="MSLayerGroup" transform="translate(271.000000, 398.000000)">
                <g id="Form" transform="translate(0.000000, 24.000000)" sketch:type="MSShapeGroup">
                    <g id="Row-3" transform="translate(206.000000, 197.000000)">
                        <g id="Tooth---3" transform="translate(5.000000, 36.000000)">
                            <g id="Page-1" transform="translate(1.000000, 51.000000)">
                                <path d="M1.6489,4.6792 C0.6149,5.9062 0.5779,7.5542 0.5709,9.0792 C0.5589,11.7322 0.5419,14.3832 0.5029,17.0352 C0.4949,17.5642 0.4909,18.1132 0.7109,18.5942 C0.9269,19.0662 1.3349,19.4192 1.7509,19.7292 C2.5869,20.3542 3.5029,20.8702 4.4699,21.2602 C4.9039,21.4362 5.3879,21.5872 5.8329,21.4412 C6.1519,21.3372 6.4029,21.0942 6.6749,20.8962 C8.8239,19.3322 11.9289,20.6982 14.4569,19.8782 C15.6229,19.5002 16.6229,18.6372 17.1679,17.5392 C18.3819,15.0942 17.2619,12.0862 18.0179,9.4642 C18.2279,8.7382 18.5799,8.0492 18.6719,7.2992 C18.8339,5.9762 18.1679,4.7082 17.5229,3.5422 C17.0889,2.7562 16.6329,1.9452 15.9069,1.4172 C15.4169,1.0602 14.8309,0.8562 14.2399,0.7242 C10.8359,-0.0338 7.3839,1.4892 4.2299,2.9752 C3.2889,3.4182 2.3179,3.8842 1.6489,4.6792 L1.6489,4.6792 Z" id="Stroke-1" stroke="#F99B3B"></path>
                                <path d="M12.3802,13.5108 C11.3892,13.4448 10.3362,13.6748 9.6052,14.3478 C9.3872,14.5478 9.1922,14.8178 9.2222,15.1118 C8.4682,14.8368 7.8252,14.2698 7.4582,13.5568 C7.3462,13.3388 7.2582,13.0868 7.3322,12.8538 C7.4592,12.4558 7.9642,12.3348 8.2402,12.0218 C8.3842,11.8588 8.4612,11.6468 8.5872,11.4698 C8.9602,10.9438 9.6992,10.8098 10.3352,10.9138 C10.9712,11.0188 11.5612,11.3118 12.1852,11.4728 C13.4972,11.8118 14.8922,11.5538 16.1822,11.1388 C16.7292,10.9628 17.2682,10.7588 17.8072,10.5588 C17.6292,12.0508 17.8302,13.6178 17.7392,15.1068 C16.9122,14.8168 16.0862,14.5278 15.2602,14.2378 C14.3232,13.9088 13.3712,13.5768 12.3802,13.5108" id="Fill-3" fill="#ECECD3"></path>
                                <path d="M3.4583,20.175 C4.0383,19.915 4.0663,19.115 4.0043,18.482 C3.8813,17.226 3.7253,15.89 2.9223,14.917 C2.5823,14.505 2.1123,13.954 2.4333,13.526 C2.5963,13.309 2.9013,13.258 3.1733,13.271 C4.2463,13.321 5.1553,14.063 5.8843,14.852 C6.6133,15.64 7.2733,16.532 8.2103,17.057 C9.5203,17.79 11.1303,17.673 12.6113,17.425 C13.8913,17.211 15.1583,16.915 16.4013,16.54 C16.8983,16.391 17.4533,16.148 17.6863,15.721 C17.6053,16.35 17.4553,16.961 17.1683,17.539 C16.6233,18.637 15.6223,19.5 14.4563,19.879 C11.9283,20.698 8.8233,19.333 6.6753,20.896 C6.4033,21.094 6.1523,21.337 5.8323,21.441 C5.3883,21.587 4.9043,21.436 4.4703,21.261 C3.9383,21.046 3.4273,20.785 2.9313,20.498 C2.9553,20.449 2.9793,20.399 3.0243,20.362 C3.1463,20.261 3.3133,20.24 3.4583,20.175" id="Fill-5" fill="#ECECD3"></path>
                                <path d="M15.9423,4.5012 C14.4993,3.6992 12.5843,3.5302 11.2553,4.5112 C10.9463,4.7382 10.6753,5.0252 10.5033,5.3682 C10.2493,5.8772 10.2303,6.4662 10.1373,7.0272 C9.8653,8.6812 8.8873,10.2062 7.4993,11.1442 C8.6083,8.9182 8.4283,6.1022 7.0443,4.0362 C6.9273,3.8612 6.7873,3.6802 6.5853,3.6232 C6.4323,3.5792 6.2703,3.6132 6.1163,3.6502 C5.3673,3.8282 4.6123,4.0712 4.0103,4.5512 C2.9263,5.4152 2.5373,6.8592 2.1293,8.1842 C1.8053,9.2352 1.3533,10.3442 0.5543,11.0502 C0.5573,10.3932 0.5673,9.7362 0.5713,9.0802 C0.5783,7.5542 0.6153,5.9062 1.6493,4.6792 C2.3183,3.8842 3.2893,3.4182 4.2293,2.9752 C7.3843,1.4892 10.8363,-0.0338 14.2403,0.7242 C14.8313,0.8562 15.4163,1.0602 15.9063,1.4172 C16.6323,1.9452 17.0893,2.7562 17.5233,3.5422 C18.1133,4.6092 18.7123,5.7622 18.6873,6.9632 C17.8973,5.9982 17.0253,5.1032 15.9423,4.5012" id="Fill-7" fill="#ECECD3"></path>
                                <path d="M18.0183,9.4641 C17.9153,9.8221 17.8513,10.1881 17.8073,10.5581 C17.2683,10.7591 16.7293,10.9621 16.1823,11.1381 C14.8923,11.5541 13.4973,11.8121 12.1853,11.4731 C11.5613,11.3111 10.9713,11.0181 10.3353,10.9141 C9.6993,10.8091 8.9603,10.9441 8.5873,11.4701 C8.4613,11.6471 8.3843,11.8581 8.2403,12.0211 C7.9643,12.3341 7.4593,12.4551 7.3323,12.8531 C7.2583,13.0861 7.3463,13.3391 7.4583,13.5561 C7.8253,14.2701 8.4683,14.8361 9.2223,15.1111 C9.1913,14.8171 9.3873,14.5481 9.6053,14.3481 C10.3363,13.6751 11.3893,13.4441 12.3803,13.5111 C13.3713,13.5771 14.3233,13.9091 15.2603,14.2381 C16.0863,14.5271 16.9123,14.8171 17.7383,15.1071 C17.7263,15.3131 17.7123,15.5181 17.6863,15.7211 C17.4533,16.1481 16.8973,16.3901 16.4013,16.5401 C15.1583,16.9151 13.8913,17.2111 12.6113,17.4251 C11.1303,17.6731 9.5203,17.7901 8.2103,17.0571 C7.2733,16.5321 6.6133,15.6401 5.8843,14.8521 C5.1553,14.0631 4.2453,13.3211 3.1733,13.2711 C2.9013,13.2581 2.5963,13.3091 2.4333,13.5261 C2.1123,13.9541 2.5823,14.5051 2.9223,14.9171 C3.7253,15.8901 3.8813,17.2261 4.0043,18.4821 C4.0663,19.1141 4.0383,19.9151 3.4583,20.1751 C3.3133,20.2401 3.1463,20.2611 3.0243,20.3621 C2.9793,20.3981 2.9553,20.4481 2.9313,20.4981 C2.5243,20.2621 2.1273,20.0101 1.7513,19.7291 C1.3353,19.4191 0.9273,19.0661 0.7113,18.5941 C0.4913,18.1131 0.4943,17.5641 0.5023,17.0351 C0.5323,15.0401 0.5423,13.0451 0.5543,11.0501 C1.3533,10.3441 1.8053,9.2351 2.1293,8.1841 C2.5373,6.8591 2.9263,5.4151 4.0103,4.5511 C4.6123,4.0711 5.3673,3.8281 6.1153,3.6501 C6.2703,3.6131 6.4323,3.5791 6.5853,3.6231 C6.7873,3.6801 6.9273,3.8611 7.0443,4.0361 C8.4283,6.1021 8.6083,8.9181 7.4993,11.1441 C8.8873,10.2061 9.8653,8.6811 10.1373,7.0271 C10.2293,6.4661 10.2493,5.8771 10.5033,5.3681 C10.6753,5.0251 10.9463,4.7391 11.2553,4.5111 C12.5843,3.5301 14.4993,3.6991 15.9423,4.5011 C17.0253,5.1031 17.8973,5.9981 18.6873,6.9631 C18.6853,7.0751 18.6853,7.1871 18.6713,7.2991 C18.5803,8.0491 18.2273,8.7381 18.0183,9.4641" id="Fill-9" fill="#FFFEED"></path>
                            </g>
                        </g>
                    </g>
                </g>
            </g>
        </g>
    </g>
</svg>