<?xml version="1.0" encoding="UTF-8" standalone="no"?>
<svg width="17px" height="16px" viewBox="0 0 17 16" version="1.1" xmlns="http://www.w3.org/2000/svg" xmlns:xlink="http://www.w3.org/1999/xlink" xmlns:sketch="http://www.bohemiancoding.com/sketch/ns">
    <!-- Generator: Sketch 3.4 (15575) - http://www.bohemiancoding.com/sketch -->
    <title>Page 1</title>
    <desc>Created with Sketch.</desc>
    <defs></defs>
    <g id="Page-1" stroke="none" stroke-width="1" fill="none" fill-rule="evenodd" sketch:type="MSPage">
        <g id="Doctor---Patient-Landing-Page---Patient---Perio-Chart" sketch:type="MSArtboardGroup" transform="translate(-549.000000, -806.000000)">
            <g id="Chart" sketch:type="MSLayerGroup" transform="translate(271.000000, 398.000000)">
                <g id="Form" transform="translate(0.000000, 24.000000)" sketch:type="MSShapeGroup">
                    <g id="Row-5" transform="translate(270.000000, 197.000000)">
                        <g id="Tooth---6" transform="translate(8.000000, 157.000000)">
                            <g id="Page-1" transform="translate(0.000000, 31.000000)">
                                <path d="M4.3987,13.1933 C3.6737,12.9943 2.5787,12.3953 2.0897,11.8173 C1.5237,11.1493 1.9317,10.1253 1.4877,9.3783 C1.2237,8.9333 0.6947,8.6583 0.5427,8.1643 C0.4097,7.7313 0.6107,7.2703 0.8367,6.8783 C1.2867,6.1023 1.8587,5.3963 2.5257,4.7963 C3.1167,4.2643 3.7897,3.8073 4.2667,3.1693 C4.8097,2.4443 5.0647,1.5293 5.6407,0.8303 C5.8037,0.6333 6.0007,0.4503 6.2477,0.3843 C6.4177,0.3393 6.5967,0.3533 6.7717,0.3683 C7.6707,0.4443 8.5697,0.5203 9.4697,0.5963 C9.9837,0.6403 10.5037,0.6843 10.9937,0.8473 C12.4917,1.3443 13.4297,2.8403 13.9517,4.3303 C14.4747,5.8203 14.7157,7.4183 15.4537,8.8143 C15.5437,8.9833 15.6427,9.1633 15.6227,9.3543 C15.6057,9.5253 15.4947,9.6703 15.3877,9.8053 L12.8597,13.0003 C12.5237,13.4263 12.1567,13.8743 11.6397,14.0423 C11.0047,14.2503 10.2937,13.9833 9.6477,14.1563 C9.3097,14.2473 9.0047,14.4553 8.6567,14.4933 C7.9457,14.5713 7.3797,13.9423 6.7287,13.6453 C6.0067,13.3163 5.1647,13.4033 4.3987,13.1933 L4.3987,13.1933 Z" id="Stroke-1" stroke="#F99B3B"></path>
                                <path d="M4.3987,13.1933 C3.6737,12.9943 2.5787,12.3953 2.0897,11.8173 C1.5237,11.1493 1.9317,10.1253 1.4877,9.3783 C1.2237,8.9333 0.6947,8.6583 0.5427,8.1643 C0.4097,7.7313 0.6107,7.2703 0.8367,6.8783 C1.2867,6.1023 1.8587,5.3963 2.5257,4.7963 C3.1167,4.2643 3.7897,3.8073 4.2667,3.1693 C4.8097,2.4443 5.0647,1.5293 5.6407,0.8303 C5.8037,0.6333 6.0007,0.4503 6.2477,0.3843 C6.4177,0.3393 6.5967,0.3533 6.7717,0.3683 C7.6707,0.4443 8.5697,0.5203 9.4697,0.5963 C9.9837,0.6403 10.5037,0.6843 10.9937,0.8473 C12.4917,1.3443 13.4297,2.8403 13.9517,4.3303 C14.4747,5.8203 14.7157,7.4183 15.4537,8.8143 C15.5437,8.9833 15.6427,9.1633 15.6227,9.3543 C15.6057,9.5253 15.4947,9.6703 15.3877,9.8053 L12.8597,13.0003 C12.5237,13.4263 12.1567,13.8743 11.6397,14.0423 C11.0047,14.2503 10.2937,13.9833 9.6477,14.1563 C9.3097,14.2473 9.0047,14.4553 8.6567,14.4933 C7.9457,14.5713 7.3797,13.9423 6.7287,13.6453 C6.0067,13.3163 5.1647,13.4033 4.3987,13.1933" id="Fill-3" fill="#FFFEED"></path>
                                <path d="M4.7768,10.2834 C4.7468,10.8254 4.5328,12.2854 3.6238,11.4954 C3.1778,11.1084 3.3638,9.8874 3.1398,9.3414 C2.8868,8.7234 2.4028,8.1604 2.4268,7.4934 C2.4498,6.8734 2.9158,6.3574 3.4238,6.0004 C3.9318,5.6444 4.5108,5.3814 4.9558,4.9504 C5.4648,4.4564 5.7548,3.7864 6.1328,3.1854 C6.2098,3.0634 6.3418,2.9264 6.4738,2.9864 C6.5198,3.0074 6.5528,3.0494 6.5798,3.0924 C7.0768,3.8904 5.9858,4.9264 6.3078,5.8104 C6.4498,6.2014 6.8318,6.4414 7.1588,6.6984 C8.8348,8.0104 9.4728,10.2904 9.4338,12.4184 C9.4298,12.6174 9.4188,12.8244 9.3198,12.9974 C9.1058,13.3674 8.5458,13.4104 8.1868,13.1784 C7.8278,12.9454 7.6368,12.5254 7.5248,12.1124 C7.4128,11.6994 7.3588,11.2674 7.1828,10.8774 C6.8528,10.1434 6.1068,9.5874 6.0228,8.7874 C6.0128,8.6884 6.0108,8.5804 5.9478,8.5044 C5.7928,8.3164 5.4918,8.4974 5.3478,8.6924 C5.0098,9.1534 4.8088,9.7134 4.7768,10.2834" id="Fill-5" fill="#ECECD3"></path>
                                <path d="M12.0697,12.0739 C11.1647,12.4309 11.2277,11.3399 11.1487,10.8389 C11.0597,10.2759 10.7347,9.6929 10.4967,9.1819 C10.0367,8.1909 9.5457,7.2089 9.2397,6.1599 C8.9327,5.1119 8.8187,3.9789 9.1237,2.9299 C9.1547,2.8229 9.1937,2.7119 9.2757,2.6379 C9.3687,2.5529 9.5007,2.5299 9.6257,2.5229 C10.5957,2.4699 11.4217,3.2139 12.0087,3.9879 C12.4497,4.5699 12.8387,5.2249 12.9147,5.9509 C12.9817,6.5929 12.8267,7.3349 13.2577,7.8149 C13.3577,7.9259 13.4827,8.0129 13.5667,8.1359 C13.7707,8.4319 13.6777,8.8439 13.4967,9.1549 C13.3167,9.4659 13.0577,9.7309 12.9167,10.0619 C12.7677,10.4109 12.7627,10.8019 12.6857,11.1729 C12.6077,11.5449 12.4227,11.9349 12.0697,12.0739" id="Fill-7" fill="#ECECD3"></path>
                            </g>
                        </g>
                    </g>
                </g>
            </g>
        </g>
    </g>
</svg>