<?xml version="1.0" encoding="UTF-8" standalone="no"?>
<svg width="17px" height="21px" viewBox="0 0 17 21" version="1.1" xmlns="http://www.w3.org/2000/svg" xmlns:xlink="http://www.w3.org/1999/xlink" xmlns:sketch="http://www.bohemiancoding.com/sketch/ns">
    <!-- Generator: Sketch 3.4 (15575) - http://www.bohemiancoding.com/sketch -->
    <title>Page 1</title>
    <desc>Created with Sketch.</desc>
    <defs></defs>
    <g id="Page-1" stroke="none" stroke-width="1" fill="none" fill-rule="evenodd" sketch:type="MSPage">
        <g id="Doctor---Patient-Landing-Page---Patient---Perio-Chart" sketch:type="MSArtboardGroup" transform="translate(-677.000000, -735.000000)">
            <g id="Chart" sketch:type="MSLayerGroup" transform="translate(271.000000, 398.000000)">
                <g id="Form" transform="translate(0.000000, 24.000000)" sketch:type="MSShapeGroup">
                    <g id="Row-9" transform="translate(397.000000, 197.000000)">
                        <g id="Tooth-8" transform="translate(9.000000, 39.000000)">
                            <g id="Page-1" transform="translate(0.000000, 78.000000)">
                                <path d="M13.6574,0.4711 L9.4764,0.4711 C8.3434,0.4711 7.2074,0.4981 6.0754,0.4711 C5.0044,0.4451 4.1484,0.2001 3.0564,0.4151 C0.6484,0.8901 0.3134,3.9601 0.5744,6.0381 C0.8164,7.9591 1.5954,9.7641 2.2794,11.5761 C3.1064,13.7631 3.8044,15.9981 4.3714,18.2671 C4.4294,18.5011 4.4924,18.7471 4.6594,18.9211 C4.8664,19.1371 5.1844,19.1941 5.4804,19.2351 C6.6824,19.4011 7.8954,19.4901 9.1094,19.4991 C9.4014,19.5021 9.7014,19.4981 9.9704,19.3851 C10.3604,19.2201 10.6224,18.8541 10.8564,18.5001 C13.7424,14.1211 15.4314,8.9611 15.6924,3.7221 C15.7294,2.9851 15.7324,2.2181 15.4234,1.5481 C15.1134,0.8781 14.3954,0.4711 13.6574,0.4711 L13.6574,0.4711 Z" id="Stroke-1" stroke="#F99B3B"></path>
                                <path d="M13.6574,0.4711 L9.4764,0.4711 C8.3434,0.4711 7.2074,0.4981 6.0754,0.4711 C5.0044,0.4451 4.1484,0.2001 3.0564,0.4151 C0.6484,0.8901 0.3134,3.9601 0.5744,6.0381 C0.8164,7.9591 1.5954,9.7641 2.2794,11.5761 C3.1064,13.7631 3.8044,15.9981 4.3714,18.2671 C4.4294,18.5011 4.4924,18.7471 4.6594,18.9211 C4.8664,19.1371 5.1844,19.1941 5.4804,19.2351 C6.6824,19.4011 7.8954,19.4901 9.1094,19.4991 C9.4014,19.5021 9.7014,19.4981 9.9704,19.3851 C10.3604,19.2201 10.6224,18.8541 10.8564,18.5001 C13.7424,14.1211 15.4314,8.9611 15.6924,3.7221 C15.7294,2.9851 15.7324,2.2181 15.4234,1.5481 C15.1134,0.8781 14.3954,0.4711 13.6574,0.4711" id="Fill-3" fill="#FFFEED"></path>
                                <path d="M6.2093,7.6905 C6.6563,6.9415 7.2673,6.2335 8.0953,5.9615 C8.9233,5.6885 9.9873,6.0045 10.3103,6.8145 C10.4103,7.0665 10.4933,7.4015 10.7613,7.4385 C10.9413,7.4635 11.0993,7.3265 11.2303,7.2005 C11.6763,6.7685 12.1343,6.3195 12.3703,5.7445 C12.6053,5.1705 12.5603,4.4325 12.0953,4.0205 C11.9023,3.8495 11.6563,3.7495 11.4073,3.6815 C10.9213,3.5485 10.4123,3.5285 9.9083,3.5085 C8.9703,3.4705 8.0333,3.4335 7.0963,3.3965 C5.8993,3.3495 4.5043,3.3895 3.7803,4.3445 C3.4563,4.7715 3.3313,5.3165 3.2603,5.8475 C3.1733,6.5005 3.4103,12.0915 4.6363,11.6315 C4.7953,11.5725 4.8863,11.4085 4.9543,11.2535 C5.4673,10.0755 5.5253,8.8365 6.2093,7.6905" id="Fill-5" fill="#ECECD3"></path>
                            </g>
                        </g>
                    </g>
                </g>
            </g>
        </g>
    </g>
</svg>