<?xml version="1.0" encoding="UTF-8" standalone="no"?>
<svg width="15px" height="18px" viewBox="0 0 15 18" version="1.1" xmlns="http://www.w3.org/2000/svg" xmlns:xlink="http://www.w3.org/1999/xlink" xmlns:sketch="http://www.bohemiancoding.com/sketch/ns">
    <!-- Generator: Sketch 3.4 (15575) - http://www.bohemiancoding.com/sketch -->
    <title>Page 1</title>
    <desc>Created with Sketch.</desc>
    <defs></defs>
    <g id="Page-1" stroke="none" stroke-width="1" fill="none" fill-rule="evenodd" sketch:type="MSPage">
        <g id="Doctor---Patient-Landing-Page---Patient---Perio-Chart" sketch:type="MSArtboardGroup" transform="translate(-517.000000, -776.000000)">
            <g id="Chart" sketch:type="MSLayerGroup" transform="translate(271.000000, 398.000000)">
                <g id="Form" transform="translate(0.000000, 24.000000)" sketch:type="MSShapeGroup">
                    <g id="Row-4" transform="translate(238.000000, 197.000000)">
                        <g id="Tooth---29" transform="translate(8.000000, 158.000000)">
                            <g id="Page-1">
                                <path d="M4.0464,1.4518 C4.2094,1.3428 4.4144,1.3228 4.5944,1.2448 C4.8964,1.1138 5.1014,0.8318 5.3474,0.6118 C6.1384,-0.0962 7.4644,-0.0972 8.2574,0.6078 C8.5204,0.8418 8.7324,1.1438 9.0474,1.2998 C9.7924,1.6688 10.8354,1.1028 11.4594,1.6518 C11.6614,1.8288 11.7664,2.0888 11.8654,2.3388 C12.5374,4.0428 13.2104,5.7488 13.7354,7.5028 C14.1604,8.9238 14.5554,10.1588 13.7114,11.4588 C12.8064,12.8548 11.6184,14.1368 10.4674,15.3318 C10.0554,15.7588 9.6054,16.4168 9.0294,16.4918 C8.3734,16.5758 7.5124,16.0138 6.8154,15.9938 C5.8334,15.9648 4.7334,16.4078 3.9374,15.8318 C3.6584,15.6288 3.4694,15.3268 3.2874,15.0328 C2.5794,13.8858 1.8704,12.7398 1.1624,11.5928 C0.0034,9.7178 0.5364,7.6418 1.4544,5.7938 C1.9034,4.8898 2.4154,4.0008 2.9774,3.1648 C3.2794,2.7148 3.6184,1.7388 4.0464,1.4518 L4.0464,1.4518 Z" id="Stroke-1" stroke="#F99B3B"></path>
                                <path d="M2.4803,10.3172 C2.6163,10.7052 2.7013,11.1202 2.9303,11.4622 C3.0993,11.7162 3.3373,11.9152 3.5873,12.0912 C5.2093,13.2322 7.4683,13.4262 9.2323,12.5192 C10.9963,11.6112 12.1613,9.6192 12.0223,7.6402 C11.9743,6.9632 11.7883,6.3022 11.7213,5.6272 C11.6273,4.6712 11.7773,3.7312 12.0473,2.8092 C11.9853,2.6532 11.9263,2.4952 11.8653,2.3392 C11.7663,2.0892 11.6613,1.8292 11.4593,1.6522 C10.8353,1.1032 9.7923,1.6692 9.0483,1.3002 C8.7323,1.1442 8.5203,0.8422 8.2573,0.6082 C7.4643,-0.0978 6.1383,-0.0958 5.3473,0.6122 C5.1013,0.8322 4.8963,1.1142 4.5943,1.2452 C4.4143,1.3232 4.2093,1.3432 4.0463,1.4522 C3.6183,1.7392 3.2793,2.7152 2.9773,3.1642 C2.4153,4.0012 1.9033,4.8892 1.4543,5.7942 C1.0943,6.5182 0.7983,7.2782 0.6363,8.0482 C1.4773,8.5772 2.1503,9.3782 2.4803,10.3172" id="Fill-3" fill="#FFFEED"></path>
                                <path d="M13.7356,7.5028 C13.2586,5.9098 12.6566,4.3578 12.0466,2.8098 C11.7776,3.7308 11.6276,4.6718 11.7216,5.6268 C11.7876,6.3028 11.9746,6.9628 12.0216,7.6398 C12.1616,9.6188 10.9966,11.6118 9.2326,12.5188 C7.4686,13.4268 5.2096,13.2328 3.5866,12.0908 C3.3376,11.9158 3.0986,11.7158 2.9296,11.4618 C2.7016,11.1198 2.6166,10.7058 2.4806,10.3168 C2.1506,9.3778 1.4776,8.5768 0.6366,8.0478 C0.3836,9.2398 0.4576,10.4528 1.1626,11.5928 C1.8706,12.7398 2.5796,13.8858 3.2876,15.0328 C3.4696,15.3268 3.6576,15.6288 3.9376,15.8308 C4.7336,16.4078 5.8336,15.9648 6.8146,15.9938 C7.5126,16.0138 8.3736,16.5758 9.0286,16.4918 C9.6056,16.4168 10.0556,15.7588 10.4676,15.3308 C11.6186,14.1368 12.8056,12.8548 13.7116,11.4588 C14.5556,10.1588 14.1606,8.9238 13.7356,7.5028" id="Fill-5" fill="#ECECD3"></path>
                            </g>
                        </g>
                    </g>
                </g>
            </g>
        </g>
    </g>
</svg>