<?xml version="1.0" encoding="UTF-8" standalone="no"?>
<svg width="22px" height="40px" viewBox="0 0 22 40" version="1.1" xmlns="http://www.w3.org/2000/svg" xmlns:xlink="http://www.w3.org/1999/xlink" xmlns:sketch="http://www.bohemiancoding.com/sketch/ns">
    <!-- Generator: Sketch 3.4 (15575) - http://www.bohemiancoding.com/sketch -->
    <title>Page 1</title>
    <desc>Created with Sketch.</desc>
    <defs></defs>
    <g id="Page-1" stroke="none" stroke-width="1" fill="none" fill-rule="evenodd" sketch:type="MSPage">
        <g id="Doctor---Patient-Landing-Page---Patient---Perio-Chart" sketch:type="MSArtboardGroup" transform="translate(-450.000000, -836.000000)">
            <g id="Chart" sketch:type="MSLayerGroup" transform="translate(271.000000, 398.000000)">
                <g id="Form" transform="translate(0.000000, 24.000000)" sketch:type="MSShapeGroup">
                    <g id="Row-2" transform="translate(174.000000, 197.000000)">
                        <g id="Tooth--31" transform="translate(5.000000, 157.000000)">
                            <g id="Page-1" transform="translate(0.000000, 61.000000)">
                                <path d="M20.3273,2.0561 C19.6193,0.5981 18.2123,0.5121 16.3373,0.2211 C14.4623,-0.0709 12.5773,1.0561 12.1603,1.4301 C11.7443,1.8041 10.6873,1.5201 10.0353,1.0141 C9.3373,0.4731 8.3693,0.3061 6.3273,0.2231 C4.2853,0.1391 2.4623,2.6291 2.4623,2.6291 C0.2443,6.0041 2.1993,10.3861 3.1593,14.1771 C3.3283,14.8451 3.4563,15.4991 3.4943,16.1311 C3.7443,20.3521 1.3693,31.0351 0.8063,33.1601 C0.2443,35.2851 0.4943,37.6601 1.2443,38.3731 C1.9943,39.0861 5.4313,36.6601 5.4313,34.2851 C5.4313,31.9101 8.4943,23.2231 9.5563,21.5351 C10.6193,19.8481 11.6813,19.9101 12.2443,23.0981 C12.8063,26.2851 11.5353,33.1811 11.1193,34.4311 C10.7023,35.6811 10.9943,39.3891 14.7023,35.1811 C18.4103,30.9731 19.2023,18.5981 19.0353,16.4731 C18.9963,15.9681 19.0213,15.5131 19.0843,15.0921 C19.2863,13.7391 19.9143,12.7591 20.3273,11.8061 C20.8693,10.5561 21.0353,3.5141 20.3273,2.0561 L20.3273,2.0561 Z" id="Stroke-1" stroke="#F99B3B"></path>
                                <path d="M10.4173,4.9773 C10.5173,5.2673 10.6323,5.5643 10.8523,5.7783 C11.3133,6.2263 12.0523,6.1623 12.6883,6.0683 C12.8363,6.0463 12.9963,6.0183 13.0983,5.9083 C13.1833,5.8173 13.2093,5.6873 13.2323,5.5653 C13.4843,4.2333 13.7353,2.9013 13.9873,1.5693 C14.0633,1.1663 14.1433,0.7583 14.2953,0.3793 C13.2513,0.6713 12.4203,1.1973 12.1603,1.4303 C11.7443,1.8043 10.6873,1.5203 10.0353,1.0143 C9.6753,0.7343 9.2383,0.5563 8.6233,0.4363 C8.8573,0.7643 9.0623,1.1163 9.2303,1.4783 C9.7503,2.5963 10.0153,3.8123 10.4173,4.9773" id="Fill-3" fill="#ECECD3"></path>
                                <path d="M20.4563,6.5943 C20.1573,8.5593 19.9873,10.6843 18.7133,12.2103 C17.2893,13.9163 14.5713,14.3613 12.6773,13.1983 C12.0413,12.8083 11.3833,12.2393 10.6553,12.4023 C10.1473,12.5163 9.7843,12.9723 9.5743,13.4493 C9.3733,13.9053 9.2903,14.4063 9.3013,14.9043 C12.6763,15.2193 16.4233,15.4113 19.0843,15.0923 C19.2863,13.7393 19.9143,12.7593 20.3273,11.8063 C20.6903,10.9693 20.8823,7.5443 20.7593,4.9293 C20.6453,5.4813 20.5413,6.0363 20.4563,6.5943" id="Fill-5" fill="#ECECD3"></path>
                                <path d="M9.5739,13.4491 C9.7839,12.9721 10.1479,12.5161 10.6559,12.4021 C11.3829,12.2391 12.0419,12.8081 12.6769,13.1991 C14.5709,14.3621 17.2899,13.9161 18.7139,12.2101 C19.9869,10.6841 20.1569,8.5591 20.4559,6.5941 C20.5409,6.0361 20.6449,5.4811 20.7599,4.9291 C20.6989,3.6361 20.5619,2.5381 20.3269,2.0561 C19.6189,0.5981 18.2129,0.5121 16.3379,0.2211 C15.6319,0.1111 14.9249,0.2021 14.2949,0.3791 C14.1439,0.7581 14.0629,1.1661 13.9869,1.5691 C13.7359,2.9011 13.4839,4.2331 13.2329,5.5651 C13.2099,5.6871 13.1829,5.8171 13.0979,5.9081 C12.9959,6.0181 12.8359,6.0461 12.6889,6.0681 C12.0519,6.1621 11.3139,6.2271 10.8519,5.7781 C10.6319,5.5641 10.5169,5.2671 10.4169,4.9771 C10.0159,3.8121 9.7499,2.5961 9.2309,1.4781 C9.0619,1.1161 8.8579,0.7641 8.6229,0.4361 C8.0469,0.3241 7.3149,0.2631 6.3269,0.2231 C4.2859,0.1391 2.4629,2.6291 2.4629,2.6291 C0.2439,6.0041 2.1989,10.3861 3.1599,14.1771 C4.6559,14.3901 6.8839,14.6781 9.3009,14.9041 C9.2899,14.4061 9.3729,13.9051 9.5739,13.4491" id="Fill-7" fill="#FFFEED"></path>
                                <path d="M9.3604,15.5501 C9.5064,15.3161 9.6974,15.1251 9.9104,14.9591 C7.2604,14.7271 4.7814,14.4071 3.1594,14.1771 C3.3284,14.8451 3.4564,15.4991 3.4944,16.1311 C3.7444,20.3521 1.3694,31.0351 0.8064,33.1601 C0.2444,35.2851 0.4944,37.6601 1.2444,38.3731 C1.9944,39.0861 5.4314,36.6601 5.4314,34.2851 C5.4314,32.0091 8.2384,23.9551 9.4084,21.8001 C9.2274,20.5661 9.0754,19.3281 8.9874,18.0851 C8.9254,17.2181 8.9004,16.2871 9.3604,15.5501" id="Fill-9" fill="#F3D498"></path>
                                <path d="M15.4833,31.731 C15.7913,30.867 15.9863,29.969 16.1823,29.073 C16.5003,27.613 16.8183,26.153 17.1363,24.692 C17.3083,23.906 17.4793,23.118 17.5723,22.318 C17.6643,21.531 17.6793,20.737 17.6943,19.944 C17.7243,18.363 17.7543,16.782 17.7833,15.2 C16.4873,15.276 15.0303,15.266 13.5253,15.201 C13.6433,15.466 13.7273,15.754 13.7673,16.038 C14.0833,18.263 13.1623,20.427 12.1113,22.448 C12.1573,22.65 12.2023,22.863 12.2443,23.098 C12.8063,26.285 11.5353,33.181 11.1193,34.431 C10.8813,35.144 10.8773,36.652 11.6023,37.039 C13.3413,35.644 14.7373,33.825 15.4833,31.731" id="Fill-11" fill="#F3D498"></path>
                                <path d="M19.0841,15.0921 C18.6771,15.1411 18.2371,15.1741 17.7841,15.2001 C17.7541,16.7811 17.7241,18.3631 17.6941,19.9441 C17.6791,20.7361 17.6641,21.5301 17.5731,22.3181 C17.4791,23.1181 17.3081,23.9061 17.1361,24.6921 C16.8181,26.1531 16.5001,27.6131 16.1821,29.0731 C15.9871,29.9691 15.7911,30.8671 15.4831,31.7311 C14.7381,33.8251 13.3411,35.6441 11.6021,37.0391 C12.1491,37.3311 13.1091,36.9891 14.7021,35.1811 C18.4111,30.9731 19.2021,18.5981 19.0361,16.4731 C18.9961,15.9681 19.0211,15.5131 19.0841,15.0921" id="Fill-13" fill="#E6C78C"></path>
                                <path d="M13.7677,16.0375 C13.7277,15.7545 13.6437,15.4665 13.5257,15.2005 C12.3257,15.1485 11.1027,15.0635 9.9107,14.9595 C9.6967,15.1255 9.5057,15.3165 9.3607,15.5505 C8.9007,16.2875 8.9247,17.2175 8.9867,18.0845 C9.0757,19.3285 9.2277,20.5665 9.4087,21.7995 C9.4597,21.7055 9.5117,21.6055 9.5567,21.5355 C10.5407,19.9725 11.5237,19.9155 12.1107,22.4485 C13.1627,20.4265 14.0827,18.2625 13.7677,16.0375" id="Fill-15" fill="#E6C78C"></path>
                            </g>
                        </g>
                    </g>
                </g>
            </g>
        </g>
    </g>
</svg>