<?xml version="1.0" encoding="UTF-8" standalone="no"?>
<svg width="23px" height="22px" viewBox="0 0 23 22" version="1.1" xmlns="http://www.w3.org/2000/svg" xmlns:xlink="http://www.w3.org/1999/xlink">
    <!-- Generator: Sketch 3.6.1 (26313) - http://www.bohemiancoding.com/sketch -->
    <title>Group</title>
    <desc>Created with Sketch.</desc>
    <defs></defs>
    <g id="Page-1" stroke="none" stroke-width="1" fill="none" fill-rule="evenodd">
        <g id="Administered---Add-Vaccine-Modal---Doctor---Patient-Landing-Page" transform="translate(-873.000000, -490.000000)" fill="#FFFFFF">
            <g id="Time-Administered" transform="translate(657.000000, 450.000000)">
                <g id="Jump-to-Date" transform="translate(0.000000, 29.000000)">
                    <g id="Rectangle-24-+-Rectangle-24-Copy">
                        <g id="Group" transform="translate(216.000000, 11.000000)">
                            <path d="M0.114817646,4.00198846 L4.00161834,0.115187765 L5.61982303,1.73339245 L1.73302234,5.62019315 L0.114817646,4.00198846 L0.114817646,4.00198846 Z" id="Rectangle-path"></path>
                            <path d="M17.2831276,1.7334804 L18.9013323,0.115275715 L22.788133,4.00207641 L21.1699283,5.6202811 L17.2831276,1.7334804 L17.2831276,1.7334804 Z" id="Rectangle-path"></path>
                            <path d="M12.5968768,2.82261654 L12.5968768,0.458068248 L10.3065356,0.458068248 L10.3065356,2.82261654 C5.53483864,3.38970503 1.83227299,7.44315095 1.83227299,12.3678427 C1.83227299,14.6110029 2.60640833,16.6700197 3.89403817,18.3062394 L2.22071486,19.9795628 L3.84044419,21.5992921 L5.5137675,19.9259688 C7.14952921,21.2126825 9.20854598,21.9872759 11.4517062,21.9872759 C13.6948664,21.9872759 15.7538832,21.2131405 17.3901029,19.9255107 L19.0634263,21.598834 L20.6831556,19.9791047 L19.0098323,18.3057814 C20.297004,16.6700197 21.0711394,14.6110029 21.0711394,12.3678427 C21.0711394,7.44315095 17.3685737,3.38970503 12.5968768,2.82261654 L12.5968768,2.82261654 Z M4.12261423,12.3678427 C4.12261423,8.3267646 7.41017004,5.03875072 11.4517062,5.03875072 C15.4932423,5.03875072 18.7807981,8.32630654 18.7807981,12.3678427 C18.7807981,16.4093788 15.4932423,19.6969346 11.4517062,19.6969346 C7.41017004,19.6969346 4.12261423,16.4089208 4.12261423,12.3678427 L4.12261423,12.3678427 Z" id="Shape"></path>
                            <path d="M12.5968768,7.32817582 L10.3065356,7.32817582 L10.3065356,12.8923308 L13.1094552,15.6952504 L14.7287264,14.0759792 L12.5968768,11.9436715 L12.5968768,7.32817582 Z" id="Shape"></path>
                        </g>
                    </g>
                </g>
            </g>
        </g>
    </g>
</svg>