<?xml version="1.0" encoding="utf-8"?>
<!-- Generator: Adobe Illustrator 19.2.1, SVG Export Plug-In . SVG Version: 6.00 Build 0)  -->
<svg version="1.1" id="Слой_1" xmlns="http://www.w3.org/2000/svg" xmlns:xlink="http://www.w3.org/1999/xlink" x="0px" y="0px"
	 viewBox="0 0 128 128" style="enable-background:new 0 0 128 128;" xml:space="preserve">
<style type="text/css">
	.st0{fill:#7F7F7F;}
</style>
<path class="st0" d="M125.7,128c-0.1-0.7-0.3-1.3-0.4-2c-0.7-3.1-1.4-6.2-2.1-9.3l0,0l-1.6-7.5l-0.5-2.3l-0.7-3.1
	c-1-3.8-4.2-5.9-7.9-7.4c-5.8-2.3-11.8-4.3-17.6-6.6c-1.6-0.6-3.2-1.7-4.5-2.8c-2.3-1.9-4.3-3.9-6.5-5.9c-2-1.9-3-4.5-2.2-7
	c1.5-5,3.4-10,5.5-14.8c2-4.6,4.1-8.7,2.4-14.1c-1.1-3.5-0.7-7.5-0.8-11.3c-0.3-6.5-3.6-10.6-9.8-12.4c-2.7-0.8-5.3-2-7.9-3.1
	c-3.5-1.6-7-0.9-10.4-0.1C49,21.1,42.3,29.9,42,41.8c-0.1,2.7,0.2,5.4-0.1,8c-0.5,5,2.2,8.8,4.3,13c2.1,4.3,3.5,9,4.9,13.6
	c0.6,1.9-0.3,3.5-2.3,4.4c-0.9,0.4-1.8,0.8-2.4,1.4c-6.6,7-15.5,8.5-24.2,10.5c-2.9,0.7-5.7,1.5-8.6,2c-2.4,0.5-3.7,1.8-4.2,4.1
	c-0.5,2-0.9,4-1.4,6.1L2.1,128H125.7z"/>
</svg>
