<svg id="Слой_1" data-name="Слой 1" xmlns="http://www.w3.org/2000/svg" viewBox="0 0 28 27.57"><defs><style>.cls-1{fill:#262c2e;}.cls-2{fill:#fff;}</style></defs><title>avatar-people</title><path class="cls-1" d="M311.08,429.06a4.21,4.21,0,0,0-1.58-.92,19.45,19.45,0,0,0-3.75-.83c-2.2-.4-2.73-0.59-3.08-1.08a2.69,2.69,0,0,1-.42-2.25,6.33,6.33,0,0,1,.67-1.67c0.63-1.48,1-2.17,1.33-2.83a10.8,10.8,0,0,0,1.08-6,6.76,6.76,0,0,0-1.08-3,6.64,6.64,0,0,0-1.92-1.83,8.22,8.22,0,0,0-4-1.32h-0.72a8.22,8.22,0,0,0-4,1.32,6.64,6.64,0,0,0-1.92,1.83,6.76,6.76,0,0,0-1.08,3,10.8,10.8,0,0,0,1.08,6c0.31,0.66.7,1.35,1.33,2.83a6.33,6.33,0,0,1,.67,1.67,2.69,2.69,0,0,1-.42,2.25c-0.35.49-.88,0.69-3.08,1.08a19.45,19.45,0,0,0-3.75.83,4.21,4.21,0,0,0-1.58.92,3.81,3.81,0,0,0-.92,1.44v4.27l0.08,0.12h27.85l0.08-.12V430.5A3.81,3.81,0,0,0,311.08,429.06Z" transform="translate(-284 -407.32)"/><polygon class="cls-2" points="13.15 23.81 12.24 27.57 13.15 27.57 15.12 27.57 16.02 27.57 15.11 23.81 13.15 23.81"/><polygon class="cls-2" points="14.69 20.57 13.58 20.57 11.69 20.57 13.19 23.01 13.33 23.01 14.69 23.01 15.08 23.01 16.58 20.57 14.69 20.57"/></svg>