<?xml version="1.0" encoding="UTF-8" standalone="no"?>
<svg width="25px" height="25px" viewBox="0 0 25 25" version="1.1" xmlns="http://www.w3.org/2000/svg" xmlns:xlink="http://www.w3.org/1999/xlink" xmlns:sketch="http://www.bohemiancoding.com/sketch/ns">
    <!-- Generator: bin/sketchtool 1.4 (305) - http://www.bohemiancoding.com/sketch -->
    <title>1430939675_calendar-80px copy</title>
    <desc>Created with bin/sketchtool.</desc>
    <defs></defs>
    <g id="Page-1" stroke="none" stroke-width="1" fill="none" fill-rule="evenodd" sketch:type="MSPage">
        <g id="Doctor---Add-New-Appointment---New-Block-Out" sketch:type="MSArtboardGroup" transform="translate(-951.000000, -260.000000)" fill="#FFFFFF">
            <g id="Modal" sketch:type="MSLayerGroup" transform="translate(413.000000, 146.000000)">
                <g id="First-Row" transform="translate(29.000000, 105.000000)" sketch:type="MSShapeGroup">
                    <g id="Appointment-Date" transform="translate(293.000000, 0.000000)">
                        <g id="Rectangle-24-+-Rectangle-24-Copy">
                            <g id="1430939675_calendar-80px-copy" transform="translate(216.000000, 9.000000)">
                                <g id="Group">
                                    <path d="M22.1153846,2.42644231 L19.2307692,2.42644231 L19.2307692,0 L16.8269231,0 L16.8269231,2.42644231 L7.21153846,2.42644231 L7.21153846,0 L4.80769231,0 L4.80769231,2.42644231 L1.96201923,2.42644231 C0.9,2.42644231 0.0389423077,3.2875 0.0389423077,4.34951923 L0.0389423077,22.1153846 C0.0389423077,23.1774038 0.9,24.0384615 1.96201923,24.0384615 L22.1153846,24.0384615 C23.1774038,24.0384615 24.0384615,23.1774038 24.0384615,22.1153846 L24.0384615,4.34951923 C24.0384615,3.2875 23.1774038,2.42644231 22.1153846,2.42644231 L22.1153846,2.42644231 Z M21.6346154,21.6346154 L2.40384615,21.6346154 L2.40384615,9.61538462 L21.6346154,9.61538462 L21.6346154,21.6346154 L21.6346154,21.6346154 Z M21.6346154,7.21153846 L2.40384615,7.21153846 L2.40384615,4.80769231 L21.6346154,4.80769231 L21.6346154,7.21153846 L21.6346154,7.21153846 Z" id="Shape"></path>
                                    <rect id="Rectangle-path" x="11.0576923" y="12.0192308" width="2.40384615" height="2.40384615"></rect>
                                    <rect id="Rectangle-path" x="15.8653846" y="12.0192308" width="2.40384615" height="2.40384615"></rect>
                                    <rect id="Rectangle-path" x="11.0576923" y="16.8269231" width="2.40384615" height="2.40384615"></rect>
                                    <rect id="Rectangle-path" x="6.25" y="16.8269231" width="2.40384615" height="2.40384615"></rect>
                                </g>
                            </g>
                        </g>
                    </g>
                </g>
            </g>
        </g>
    </g>
</svg>