<svg id="Layer_1" data-name="Layer 1" xmlns="http://www.w3.org/2000/svg" viewBox="0 0 25 25">
  <defs>
    <style>
      .cls-1 {
        fill: #000333;
      }
    </style>
  </defs>
  <title>close-button-graydark</title>
  <g id="Page-1">
    <g id="close-button-green">
      <g id="Page-1-2" data-name="Page-1">
        <g id="EHR-187-About-EHR1">
          <path id="Fill-40" class="cls-1" d="M16.5,8.6a0.78,0.78,0,0,0-1.1,0l-2.8,2.8L9.8,8.6A0.78,0.78,0,1,0,8.7,9.7l2.8,2.8L8.7,15.3a0.78,0.78,0,1,0,1.1,1.1l2.8-2.8,2.8,2.8a0.78,0.78,0,1,0,1.1-1.1l-2.8-2.8,2.8-2.8a0.78,0.78,0,0,0,0-1.1h0Zm7,13.3a1.58,1.58,0,0,1-1.6,1.6H3.1a1.58,1.58,0,0,1-1.6-1.6V3.1A1.58,1.58,0,0,1,3.1,1.5H22a1.58,1.58,0,0,1,1.6,1.6V21.9H23.5ZM22,0H3.2A3.12,3.12,0,0,0,.1,3.1V21.9A3.12,3.12,0,0,0,3.2,25H22a3.12,3.12,0,0,0,3.1-3.1V3.1A3.12,3.12,0,0,0,22,0h0Z" transform="translate(-0.1 0)"/>
        </g>
      </g>
    </g>
  </g>
</svg>
