<?xml version="1.0" encoding="UTF-8" standalone="no"?>
<svg width="26px" height="26px" viewBox="0 0 26 26" version="1.1" xmlns="http://www.w3.org/2000/svg" xmlns:xlink="http://www.w3.org/1999/xlink" xmlns:sketch="http://www.bohemiancoding.com/sketch/ns">
    <!-- Generator: Sketch 3.3.3 (12072) - http://www.bohemiancoding.com/sketch -->
    <title>Slice 1</title>
    <desc>Created with Sketch.</desc>
    <defs></defs>
    <g id="Page-1" stroke="none" stroke-width="1" fill="none" fill-rule="evenodd" sketch:type="MSPage">
        <g id="close-button-green" sketch:type="MSLayerGroup" fill="#FFFFFF">
            <g id="Page-1" sketch:type="MSShapeGroup">
                <g id="EHR-187-About-EHR1">
                    <path d="M16.5,8.6 C16.2,8.3 15.7,8.3 15.4,8.6 L12.6,11.4 L9.8,8.6 C9.5,8.3 9,8.3 8.7,8.6 C8.4,8.9 8.4,9.4 8.7,9.7 L11.5,12.5 L8.7,15.3 C8.4,15.6 8.4,16.1 8.7,16.4 C9,16.7 9.5,16.7 9.8,16.4 L12.6,13.6 L15.4,16.4 C15.7,16.7 16.2,16.7 16.5,16.4 C16.8,16.1 16.8,15.6 16.5,15.3 L13.7,12.5 L16.5,9.7 C16.8,9.4 16.8,8.9 16.5,8.6 L16.5,8.6 L16.5,8.6 Z M23.5,21.9 C23.5,22.8 22.8,23.5 21.9,23.5 L3.1,23.5 C2.2,23.5 1.5,22.8 1.5,21.9 L1.5,3.1 C1.5,2.2 2.2,1.5 3.1,1.5 L22,1.5 C22.9,1.5 23.6,2.2 23.6,3.1 L23.6,21.9 L23.5,21.9 L23.5,21.9 Z M22,0 L3.2,0 C1.5,0 0.1,1.4 0.1,3.1 L0.1,21.9 C0.1,23.6 1.5,25 3.2,25 L22,25 C23.7,25 25.1,23.6 25.1,21.9 L25.1,3.1 C25.1,1.4 23.7,0 22,0 L22,0 L22,0 Z" id="Fill-40"></path>
                </g>
            </g>
        </g>
    </g>
</svg>