<?xml version="1.0" encoding="utf-8"?>
<!-- Generator: Adobe Illustrator 19.1.0, SVG Export Plug-In . SVG Version: 6.00 Build 0)  -->
<svg version="1.1" id="Слой_1" xmlns:sketch="http://www.bohemiancoding.com/sketch/ns"
	 xmlns="http://www.w3.org/2000/svg" xmlns:xlink="http://www.w3.org/1999/xlink" x="0px" y="0px" viewBox="7 -4 26 25"
	 style="enable-background:new 7 -4 26 25;" xml:space="preserve">
<style type="text/css">
	.st0{fill:#2E877B;}
</style>
<title>Fill 40</title>
<desc>Created with Sketch.</desc>
<g id="Page-1" sketch:type="MSPage">
	<g id="EHR-187-About-EHR1" transform="translate(-865.000000, -276.000000)" sketch:type="MSArtboardGroup">
		<path id="Fill-40" sketch:type="MSShapeGroup" class="st0" d="M888.5,280.6c-0.3-0.3-0.8-0.3-1.1,0l-2.8,2.8l-2.8-2.8
			c-0.3-0.3-0.8-0.3-1.1,0c-0.3,0.3-0.3,0.8,0,1.1l2.8,2.8l-2.8,2.8c-0.3,0.3-0.3,0.8,0,1.1c0.3,0.3,0.8,0.3,1.1,0l2.8-2.8l2.8,2.8
			c0.3,0.3,0.8,0.3,1.1,0c0.3-0.3,0.3-0.8,0-1.1l-2.8-2.8l2.8-2.8C888.8,281.4,888.8,280.9,888.5,280.6L888.5,280.6z M895.5,293.9
			c0,0.9-0.7,1.6-1.6,1.6h-18.8c-0.9,0-1.6-0.7-1.6-1.6v-18.8c0-0.9,0.7-1.6,1.6-1.6H894c0.9,0,1.6,0.7,1.6,1.6V293.9L895.5,293.9z
			 M894,272h-18.8c-1.7,0-3.1,1.4-3.1,3.1v18.8c0,1.7,1.4,3.1,3.1,3.1H894c1.7,0,3.1-1.4,3.1-3.1v-18.8
			C897.1,273.4,895.7,272,894,272L894,272z"/>
	</g>
</g>
</svg>
