<svg id="Layer_1" data-name="Layer 1" xmlns="http://www.w3.org/2000/svg" viewBox="0 0 240.16 280.15">
  <defs>
    <style>
      .cls-1 {
        fill: #fff;
      }
    </style>
  </defs>
  <title>Database Icon</title>
  <g>
    <path class="cls-1" d="M309.8,284c27.24,1,56.55,3.68,84.26,15,6.84,2.79,13.24,6.91,19.33,11.16,5.46,3.81,8,9.59,7.63,16.49-0.22,4.65-.21,9.33,0,14,0.33,7.66-2.89,13.5-8.76,18.08-12.38,9.68-27,14.37-42,17.6-50.77,11-101.45,10.91-151.53-3.71-10.17-3-19.68-8.67-28.94-14.06-6.37-3.71-9.18-10.27-8.84-17.93a110.69,110.69,0,0,0,0-13c-0.62-8.57,3.31-14.68,9.87-19.52,11.35-8.37,24.48-12.74,37.92-16C254.15,285.88,280.93,283.33,309.8,284Z" transform="translate(-180.89 -283.87)"/>
    <path class="cls-1" d="M421,377.65c0,9.3.12,17.63,0,25.95-0.14,7.15-4.37,12.07-9.78,16-12.22,8.89-26.3,13.54-40.84,16.66-50.81,10.93-101.49,10.85-151.61-3.7-9.74-2.83-18.94-8-27.81-13.13-7-4-10.42-10.81-9.95-19.39,0.4-7.14.08-14.32,0.08-21.43a2.46,2.46,0,0,1,1.09-.29c21.18,13.45,45,18.79,69.36,22.21a348.65,348.65,0,0,0,83.22,1.77C364.62,399.33,394.1,394.55,421,377.65Z" transform="translate(-180.89 -283.87)"/>
    <path class="cls-1" d="M421,438c0,9,.19,17.51-0.06,26-0.2,6.92-4.41,11.72-9.67,15.55-12.22,8.9-26.29,13.56-40.83,16.69-50.81,11-101.49,10.89-151.62-3.66-9.74-2.82-18.94-8-27.82-13.1-7-4-10.48-10.77-10-19.35,0.39-7.23.08-14.5,0.08-22.63,14,9.18,28.57,14.62,43.85,18.11,36.18,8.26,72.82,10.14,109.73,6.71,23.77-2.21,47.26-5.95,69.36-15.6C409.55,444.29,414.86,441.17,421,438Z" transform="translate(-180.89 -283.87)"/>
    <path class="cls-1" d="M420.9,499.19c0,8.1.33,16.91-.11,25.68-0.33,6.63-4.72,11.2-9.87,14.9-12.27,8.85-26.35,13.49-40.88,16.58-50.64,10.8-101.17,10.78-151.14-3.72-9.58-2.78-18.64-7.85-27.42-12.78-7.44-4.17-11.07-11.09-10.55-20.06,0.41-7.09.08-14.22,0.08-20.69,11.3,4.63,22.16,10.15,33.65,13.58,33,9.86,67,12.21,101.35,10.89,24-.92,47.89-3.51,70.9-10.78C398.4,509.16,409.37,503.87,420.9,499.19Z" transform="translate(-180.89 -283.87)"/>
  </g>
</svg>
