<?xml version="1.0" encoding="UTF-8" standalone="no"?>
<svg width="21px" height="20px" viewBox="0 0 21 20" version="1.1" xmlns="http://www.w3.org/2000/svg" xmlns:xlink="http://www.w3.org/1999/xlink" xmlns:sketch="http://www.bohemiancoding.com/sketch/ns">
    <!-- Generator: Sketch 3.5 (25232) - http://www.bohemiancoding.com/sketch -->
    <title>Group</title>
    <desc>Created with Sketch.</desc>
    <defs></defs>
    <g id="Page-1" stroke="none" stroke-width="1" fill="none" fill-rule="evenodd" sketch:type="MSPage">
        <g id="Group" sketch:type="MSLayerGroup" fill="#FFFFFF">
            <path d="M20.8,11.07 L20.8,11.31 C20.6406932,11.7714426 20.1714976,12.0504238 19.69,11.97 L18.76,11.97 L16.67,11.97 C16.5913107,11.97 16.5172136,12.0070485 16.47,12.07 C16.37,12.42 16.28,12.77 16.19,13.13 L16.37,13.21 C17.1921099,13.493452 17.9380059,13.9622032 18.55,14.58 C19.5521534,15.617504 20.0680852,17.0308665 19.97,18.47 C19.9394377,18.740754 19.7698044,18.9759346 19.5225294,19.090376 C19.2752543,19.2048173 18.9861842,19.1819291 18.76,19.03 C18.5157792,18.8521471 18.3798673,18.5614467 18.4,18.26 C18.4297376,17.2144997 17.9982087,16.2088179 17.22,15.51 C16.7199151,15.0825999 16.133099,14.7687215 15.5,14.59 C14.5655805,16.2584742 13.0320986,17.5095667 11.21,18.09 L11.21,17.82 L11.21,12.09 C11.232822,11.6344916 11.164837,11.1789921 11.01,10.75 C10.9708038,10.4457531 10.7117614,10.2179423 10.405,10.2179423 C10.0982386,10.2179423 9.8391962,10.4457531 9.8,10.75 C9.64043261,11.1849031 9.56904511,11.6472222 9.59,12.11 L9.59,17.84 L9.59,18.07 C8.78554442,17.84115 8.03209408,17.4610309 7.37,16.95 C6.57016901,16.33782 5.89184799,15.5814921 5.37,14.72 C5.37,14.64 5.29,14.58 5.17,14.62 C4.33348672,14.8622767 3.59496964,15.3627883 3.06,16.05 C2.59984131,16.7123713 2.36174782,17.503682 2.38,18.31 C2.3941345,18.531563 2.31438701,18.7488475 2.16027965,18.9086625 C2.00617229,19.0684776 1.79193033,19.156071 1.57,19.15 C1.34918878,19.1515142 1.13835388,19.0581566 0.991058721,18.8936451 C0.843763564,18.7291336 0.774185098,18.5093023 0.8,18.29 C0.79839974,18.0125349 0.815102662,17.7352664 0.85,17.46 C1.09343112,15.530031 2.41153128,13.9056664 4.25,13.27 L4.6,13.14 C4.51,12.8 4.41,12.48 4.34,12.14 C4.33824637,12.0809926 4.31051377,12.0257742 4.26422885,11.989132 C4.21794393,11.9524897 4.1578354,11.9381673 4.1,11.95 L1.01,11.95 C0.543958022,12.0180173 0.105608838,11.7111729 0.01,11.25 L0.01,11.07 C0.174817137,10.5994304 0.661093836,10.3221673 1.15,10.42 L3.93,10.42 L4.19,10.42 L4.19,9.1 C4.16933155,9.02381936 4.12351867,8.95686206 4.06,8.91 C3.70613247,8.59785361 3.37214639,8.26386753 3.06,7.91 C2.05249836,6.5465901 1.55688736,4.87213294 1.66,3.18 C1.68803295,2.79337816 1.99573329,2.48600789 2.38238499,2.45838991 C2.7690367,2.43077193 3.11730032,2.69128763 3.2,3.07 C3.26,3.53 3.27,4 3.33,4.46 C3.42908682,5.37808002 3.77461796,6.25227382 4.33,6.99 C4.72106951,7.44050181 5.21993251,7.78454526 5.78,7.99 C7.79231294,8.9140635 10.0335478,9.2203192 12.22,8.87 C13.2026785,8.71709405 14.1630805,8.44509208 15.08,8.06 C15.681083,7.82561001 16.2066824,7.43141052 16.6,6.92 C17.1832025,6.12202546 17.5297763,5.17587886 17.6,4.19 C17.6,3.82 17.6,3.45 17.69,3.08 C17.7560093,2.69742889 18.1030588,2.4284655 18.49,2.46 C18.8741832,2.46468752 19.1889759,2.76636389 19.21,3.15 C19.2159536,3.64455675 19.1892287,4.13896662 19.13,4.63 C19.0009503,6.35532627 18.1334054,7.94096491 16.75,8.98 C16.7028244,9.01308058 16.6705094,9.06334833 16.66,9.12 L16.66,10.45 L16.94,10.45 L19.8,10.45 C20.2383203,10.3927448 20.6563757,10.6519391 20.8,11.07 L20.8,11.07 Z" id="Shape" sketch:type="MSShapeGroup"></path>
            <path d="M10.4,7.88 C9.53890756,7.87255801 8.68093698,7.77536603 7.84,7.59 C7.14500621,7.46900096 6.53030605,7.06763791 6.14,6.48 C5.85797097,5.9598788 5.72964794,5.37028649 5.77,4.78 C5.80060422,3.76518338 6.41692646,2.86020389 7.35,2.46 C7.57,2.34 7.81,2.27 8.03,2.15 C8.10916591,2.11111421 8.17012266,2.04298609 8.2,1.96 C8.41238287,0.916479598 9.33008624,0.166738178 10.395,0.166738178 C11.4599138,0.166738178 12.3776171,0.916479598 12.59,1.96 C12.6074916,2.05873829 12.6822879,2.1374712 12.78,2.16 C13.2879893,2.33088882 13.7594585,2.59545423 14.17,2.94 C14.8692381,3.55113914 15.1894251,4.48882953 15.01,5.4 C14.9660404,6.20137244 14.5021847,6.91996863 13.79,7.29 C13.3432487,7.51682638 12.8584553,7.65921325 12.36,7.71 C11.7,7.78 11.05,7.82 10.4,7.88 L10.4,7.88 Z" id="Shape" sketch:type="MSShapeGroup"></path>
        </g>
    </g>
</svg>