<svg id="Слой_1" data-name="Слой 1" xmlns="http://www.w3.org/2000/svg" viewBox="0 0 232 88"><defs><style>.cls-1{fill:#41b6a6;}.cls-2{fill:#fff;}</style></defs><title>ehr</title><rect class="cls-1" width="232" height="88"/><path class="cls-2" d="M392.33,321.95V314.5a13.61,13.61,0,0,0-13.61-13.61H320.79l-4.79,49h-9.67l4.33-49h-14L295,325.22H250.42l2.25-24.33H182a19.84,19.84,0,0,0-19.82,19l-1.26,29a12.76,12.76,0,0,0,12.74,13.31h50.68l0.89-12H179.58a5.24,5.24,0,0,1-5.24-5.24v-7.76h51.85L227,325.89H176v-5.25a8.08,8.08,0,0,1,8.08-8.08h53.25l-4,49.67H247l2.25-24.37h44.41l-2.33,24.37H329l5-49.67h38.9c4.66,0,5.23,2.72,5,5.45l-0.65,6.89a6.09,6.09,0,0,1-6.08,5.83h-27l-1.33,11.67,21.83,19.83h24l-25.33-21h9.72A19.28,19.28,0,0,0,392.33,321.95Z" transform="translate(-160.33 -287.56)"/></svg>