<svg id="Слой_1" data-name="Слой 1" xmlns="http://www.w3.org/2000/svg" xmlns:xlink="http://www.w3.org/1999/xlink" viewBox="0 0 461.86 94.55"><defs><style>.cls-1{fill:#706f70;}.cls-1,.cls-2,.cls-3,.cls-4,.cls-5,.cls-6{fill-rule:evenodd;}.cls-2{fill:url(#GradientFill_1);}.cls-3{fill:url(#GradientFill_2);}.cls-4{fill:url(#GradientFill_3);}.cls-5{fill:url(#GradientFill_4);}.cls-6{fill:#fff;}</style><linearGradient id="GradientFill_1" x1="94.45" y1="370.08" x2="117.19" y2="463.48" gradientUnits="userSpaceOnUse"><stop offset="0" stop-color="#006884"/><stop offset="1" stop-color="#8ad1d0"/></linearGradient><linearGradient id="GradientFill_2" x1="66.71" y1="383.36" x2="128.69" y2="416.87" gradientUnits="userSpaceOnUse"><stop offset="0" stop-color="#24bbb6"/><stop offset="1" stop-color="#dbe692"/></linearGradient><linearGradient id="GradientFill_3" x1="138.03" y1="439.33" x2="138.03" y2="407.04" gradientUnits="userSpaceOnUse"><stop offset="0" stop-color="#fcc072"/><stop offset="1" stop-color="#f58a5b"/></linearGradient><linearGradient id="GradientFill_4" x1="78.71" y1="478.53" x2="127.68" y2="428.7" gradientUnits="userSpaceOnUse"><stop offset="0" stop-color="#712b8f"/><stop offset="1" stop-color="#ea1d27"/></linearGradient></defs><title>google-play-logo-2012</title><path class="cls-1" d="M320.28,461a24.34,24.34,0,0,1-4.83-6.61l7-3a14.8,14.8,0,0,0,2.14,3.31,9.59,9.59,0,0,0,7.13,3.29,9.43,9.43,0,0,0,7.42-3.49,12.35,12.35,0,0,0,2-7.31v-2.74c-5,6.44-16,5.54-22.09-1.12a19.32,19.32,0,0,1,.13-25.8c6.54-6.48,16.23-7.29,21.94-1.16h0v-3.1h7.6v33c0,8.41-3.09,13.16-6.92,15.93a18,18,0,0,1-10.2,3A16.82,16.82,0,0,1,320.28,461h0Zm182.19,1.82h0l7.34-17.39-13-30.14h7.4l9.26,21.47,9.06-21.47h7.4l-20.06,47.53h-7.4Zm-35.13-16.6h0a11.69,11.69,0,0,1-3.26-8.07,10.17,10.17,0,0,1,2.69-7.09c3-3.19,7.46-4.55,12.16-4.55a15.85,15.85,0,0,1,7.85,1.8c0-5.31-4.15-7.35-7.67-7.35a7.43,7.43,0,0,0-7.22,4.69L465.25,423c1.18-3.21,4.9-8.7,13.7-8.7a15.57,15.57,0,0,1,11.31,4.46c2.77,2.95,3.7,6.62,3.7,11.5V448.5h-7.25v-3.26a12.34,12.34,0,0,1-4,3.15,14,14,0,0,1-6.07,1.23,13.73,13.73,0,0,1-9.33-3.36h0ZM235.42,430.56h0c0-8.7,6.62-18.29,18.11-18.29s18.11,9.58,18.11,18.28-6.62,18.29-18.11,18.29-18.11-9.58-18.11-18.28h0Zm39.31,0h0c0-8.7,6.62-18.29,18.11-18.29s18.11,9.58,18.11,18.28-6.62,18.29-18.11,18.29-18.11-9.58-18.11-18.28h0Zm-88.36,9.61h0a28.29,28.29,0,0,1,39.56-40.42l-5.43,5.66a19.77,19.77,0,0,0-28,.38,21,21,0,0,0-.19,29.07c7.83,8.06,20.82,8.53,28.65.47,2.65-2.72,3.55-6.2,4.09-9.76H206.65v-7.77h25.81a31.75,31.75,0,0,1,.43,5.91,26.13,26.13,0,0,1-7,17.54,25.85,25.85,0,0,1-18.9,7.53,29.5,29.5,0,0,1-20.58-8.62h0Zm183.84,3.26h0a19.77,19.77,0,0,1,0-25.91,15.9,15.9,0,0,1,23.72,0,27.67,27.67,0,0,1,4.65,8.4L374.44,436a9.42,9.42,0,0,0,8.58,5.57c3.76,0,6.32-1.26,9-5.09l6.32,4.25h0c-0.73,1-1.62,1.91-2.3,2.65-6.45,7.12-19.4,7.12-25.85,0h0Zm45.35,5.11h0V400.4h15.49c9.33,0,16.38,6.53,16.38,14.58a14.77,14.77,0,0,1-14.95,14.58h-9.58v19h-7.34Zm36.67,0h0V400.4h7.34v48.14h-7.34Zm-98.3-.78h0V393.89h8v53.87h-8Zm132.8-13.33h0a13,13,0,0,0-6.92-1.76c-5.22,0-8.17,2.64-8.17,5.53,0,3.22,3.08,4.82,6,4.82,4.19,0,9.12-3.49,9.12-8.58h0Zm-223.1-3.86h0c0-5.25-3.69-11-10.11-11s-10.11,5.78-10.11,11,3.69,11,10.11,11,10.11-5.79,10.11-11h0Zm39.3,0h0c0-5.25-3.69-11-10.11-11s-10.11,5.78-10.11,11,3.69,11,10.11,11,10.11-5.79,10.11-11h0Zm38.41,3.32h0a10.1,10.1,0,0,0,.29-1.3,0.48,0.48,0,0,0,0-.17,11.58,11.58,0,0,0,0-3.76,1,1,0,0,0,0-.23,9.7,9.7,0,0,0-.41-1.62c-1.37-4.26-5-7.28-9.28-7.25-5.42,0-9.78,5-9.74,11.08s4.47,11,9.88,10.92c4.27,0,7.88-3.12,9.28-7.67h0Zm31.85-4h0l16.11-6.83a7.43,7.43,0,0,0-6.67-3.77c-6.13,0-10.33,7-9.44,10.61h0Zm66.74-14.76h0c0-4.2-3.3-7.62-8.21-7.62h-8.82v15.23h9.24A7.69,7.69,0,0,0,439.94,415.15Z" transform="translate(-68.07 -375.73)"/><path class="cls-2" d="M68.07,423V380.24a4.59,4.59,0,0,1,4.2-4.52,7.2,7.2,0,0,1,3.86,1.08l78.4,42.86c1.68,0.92,2.52,2.13,2.52,3.33s-0.83,2.41-2.52,3.33L76.13,469.2a7.2,7.2,0,0,1-3.86,1.08,4.59,4.59,0,0,1-4.2-4.51V423Z" transform="translate(-68.07 -375.73)"/><path class="cls-3" d="M119,423.28L71.53,375.81a3.3,3.3,0,0,1,.74-0.08,7.2,7.2,0,0,1,3.86,1.08l57.76,31.58Z" transform="translate(-68.07 -375.73)"/><path class="cls-4" d="M133.54,437.82L119,423.28l14.9-14.9,20.64,11.28c1.68,0.92,2.52,2.13,2.52,3.33s-0.83,2.41-2.52,3.33Z" transform="translate(-68.07 -375.73)"/><path class="cls-5" d="M72,470.26l0,0L119,423.28l14.54,14.54L76.13,469.2a7.2,7.2,0,0,1-3.86,1.08H72Z" transform="translate(-68.07 -375.73)"/><path class="cls-6" d="M508.09,462.51h0v0h0a0,0,0,0,0,0,0v0a0,0,0,0,0,0,0h0Z" transform="translate(-68.07 -375.73)"/><path class="cls-6" d="M508.15,462.52l0,0a0,0,0,0,0,0,0h0a0,0,0,0,0,0,0h0v0.08h0v0h0l0,0h0Zm0-.06h0v0h0Z" transform="translate(-68.07 -375.73)"/><polygon class="cls-6" points="440.14 86.78 440.11 86.78 440.11 86.76 440.13 86.76 440.13 86.74 440.11 86.74 440.11 86.72 440.13 86.72 440.14 86.71 440.09 86.71 440.09 86.79 440.14 86.79 440.14 86.78"/><path class="cls-6" d="M508.28,462.52l0-.08h0l0,0.08h0v0h0v0h0Zm0,0h0v0h0v0Z" transform="translate(-68.07 -375.73)"/><polygon class="cls-6" points="440.25 86.71 440.2 86.71 440.2 86.72 440.22 86.72 440.22 86.79 440.24 86.79 440.24 86.72 440.25 86.72 440.25 86.71"/><polygon class="cls-6" points="440.31 86.78 440.27 86.78 440.27 86.76 440.3 86.76 440.3 86.74 440.27 86.74 440.27 86.72 440.31 86.72 440.31 86.71 440.26 86.71 440.26 86.79 440.31 86.79 440.31 86.78"/><path class="cls-6" d="M508.44,462.49v0a0,0,0,0,0,0,0h0v0.08h0a0,0,0,0,0,0,0h0Zm0,0h0v-0.06h0v0Z" transform="translate(-68.07 -375.73)"/><path class="cls-6" d="M508.54,462.5h0v0h0a0,0,0,0,0,0,0h0v0.08h0a0,0,0,0,0,0,0h0Zm0,0h0v0h0Zm0,0h0v0h0Z" transform="translate(-68.07 -375.73)"/><polygon class="cls-6" points="440.54 86.71 440.52 86.71 440.51 86.74 440.51 86.75 440.5 86.74 440.49 86.71 440.47 86.71 440.5 86.76 440.5 86.79 440.51 86.79 440.51 86.76 440.54 86.71"/><polygon class="cls-6" points="440.65 86.77 440.6 86.77 440.6 86.67 440.57 86.67 440.57 86.79 440.64 86.79 440.65 86.77"/><path class="cls-6" d="M508.81,462.49v-0.07a0,0,0,0,0,0,0,0,0,0,0,0,0,0v0.07a0,0,0,0,0,0,0,0,0,0,0,0,0,0h0Zm0,0h0a0,0,0,0,1,0,0l0,0v-0.06h0v0.06Z" transform="translate(-68.07 -375.73)"/><path class="cls-6" d="M508.9,462.52v-0.07h0v0h0v0h0v-0.06h0v0l0,0a0,0,0,0,0,0,0v0.06a0,0,0,0,0,0,0h0Z" transform="translate(-68.07 -375.73)"/><path class="cls-6" d="M509,462.49v-0.07a0,0,0,0,0,0,0,0,0,0,0,0,0,0v0.07a0,0,0,0,0,0,0,0,0,0,0,0,0,0h0Zm0,0h0l0,0,0,0v-0.06h0v0.06Z" transform="translate(-68.07 -375.73)"/><polygon class="cls-6" points="441.11 86.79 441.11 86.67 441.09 86.67 441.05 86.76 441 86.67 440.99 86.67 440.99 86.79 441.01 86.79 441.01 86.73 441 86.72 441.04 86.79 441.06 86.79 441.09 86.72 441.08 86.73 441.08 86.79 441.11 86.79"/><path class="cls-6" d="M509.28,462.52l0-.12h0l0,0.12h0v0h0v0h0Zm0-.06h0v0h0v0Z" transform="translate(-68.07 -375.73)"/><path class="cls-6" d="M509.37,462.49a0,0,0,0,0,0,0,0,0,0,0,1,0,0h0v0h0a0,0,0,0,0,0,0,0,0,0,0,0,0,0s0,0,0,0l0,0,0,0v0l0,0A0,0,0,0,0,509.37,462.49Z" transform="translate(-68.07 -375.73)"/><polygon class="cls-6" points="441.38 86.67 441.3 86.67 441.3 86.69 441.33 86.69 441.33 86.79 441.35 86.79 441.35 86.69 441.38 86.69 441.38 86.67"/><polygon class="cls-6" points="441.47 86.77 441.42 86.77 441.42 86.74 441.46 86.74 441.46 86.72 441.42 86.72 441.42 86.69 441.46 86.69 441.47 86.67 441.39 86.67 441.39 86.79 441.47 86.79 441.47 86.77"/><path class="cls-6" d="M509.64,462.52l0-.05a0,0,0,0,0,0,0h0a0,0,0,0,0,0,0h0v0.12h0v0h0l0,0h0Zm0-.08h0a0,0,0,0,1,0,0h0v0h0Z" transform="translate(-68.07 -375.73)"/></svg>