<?xml version="1.0" encoding="utf-8"?>
<!-- Generator: Adobe Illustrator 19.1.0, SVG Export Plug-In . SVG Version: 6.00 Build 0)  -->
<svg version="1.1" id="Слой_1" xmlns:sketch="http://www.bohemiancoding.com/sketch/ns"
	 xmlns="http://www.w3.org/2000/svg" xmlns:xlink="http://www.w3.org/1999/xlink" x="0px" y="0px" width="25px" height="19px"
	 viewBox="0 3 25 19" style="enable-background:new 0 3 25 19;" xml:space="preserve">
<style type="text/css">
	.st0{fill:#FFFFFF;}
</style>
<title>Shape</title>
<desc>Created with Sketch.</desc>
<g id="Page-1" sketch:type="MSPage">
	
		<g id="Doctor---Patient-Landing-Page---Patient-Chart" transform="translate(-634.000000, -997.000000)" sketch:type="MSArtboardGroup">
		<g id="Smoking-Status" transform="translate(171.000000, 980.000000)" sketch:type="MSLayerGroup">
			<g id="Edit-Button" transform="translate(435.000000, 11.000000)" sketch:type="MSShapeGroup">
				<path id="Shape" class="st0" d="M46.2,9.7c1.1,1.1,1,2.7-0.1,3.8L45,14.6c17.6-7.6,0.8-1.2-0.9-2.8c-1.5-1.5-2.8-0.8-2.8-0.8
					l1.1-1.1C43.5,8.7,45.2,8.7,46.2,9.7L46.2,9.7z M44.2,15.4L32.9,26.7l-4.8,1.2L28,27.8l1.3-4.8l11.3-11.2
					c0.2-0.1,0.7-0.2,1.4-0.1l-12,12l-0.3,1.3l1.4,1.4l1.3-0.3l0.6-0.5l0.1-1.3L32,23.2l11-11c0.2,0.1,0.2,0.1,0.3,0.3
					C44.9,14.2,44.2,15.4,44.2,15.4L44.2,15.4z"/>
			</g>
		</g>
	</g>
</g>
</svg>
