<?xml version="1.0" encoding="utf-8"?>
<!-- Generator: Adobe Illustrator 19.1.0, SVG Export Plug-In . SVG Version: 6.00 Build 0)  -->
<svg version="1.1" id="Слой_1" xmlns="http://www.w3.org/2000/svg" xmlns:xlink="http://www.w3.org/1999/xlink" x="0px" y="0px"
	 viewBox="2 -2 18 18" style="enable-background:new 2 -2 18 18;" xml:space="preserve">
<style type="text/css">
	.st0{opacity:0.59;fill:#7C7C7C;enable-background:new    ;}
</style>
<path class="st0" d="M19.8,13.7l-4.5-4.5C16,8,16.5,6.6,16.5,5.1c0-3.9-3.2-7.1-7.1-7.1c-4,0-7.2,3.2-7.2,7.2c0,3.9,3.2,7.1,7.1,7.1
	c1.3,0,2.4-0.3,3.5-0.9l4.6,4.6L19.8,13.7z M4.1,5.2c0-2.9,2.4-5.3,5.3-5.3s5.3,2.4,5.3,5.3s-2.4,5.3-5.3,5.3
	C6.4,10.5,4.1,8.1,4.1,5.2z"/>
</svg>
