<?xml version="1.0" encoding="UTF-8" standalone="no"?>
<svg width="32px" height="32px" viewBox="0 0 32 32" version="1.1" xmlns="http://www.w3.org/2000/svg" xmlns:xlink="http://www.w3.org/1999/xlink" xmlns:sketch="http://www.bohemiancoding.com/sketch/ns">
    <!-- Generator: bin/sketchtool 1.4 (305) - http://www.bohemiancoding.com/sketch -->
    <title>Fill 40</title>
    <desc>Created with bin/sketchtool.</desc>
    <defs></defs>
    <g id="Page-1" stroke="none" stroke-width="1" fill="none" fill-rule="evenodd" sketch:type="MSPage">
        <g id="Patients---Dashboard" sketch:type="MSArtboardGroup" transform="translate(-916.000000, -477.000000)" fill-opacity="0.300000012" fill="#494949">
            <g id="Group" sketch:type="MSLayerGroup" transform="translate(185.000000, 116.000000)">
                <g id="Aug-30-(-1h-ago-)-+-Lab-Tests-Result(s)-" transform="translate(92.000000, 354.000000)" sketch:type="MSShapeGroup">
                    <path d="M659.95,18.05 C659.559,17.66 658.926,17.66 658.536,18.05 L655,21.59 L651.464,18.05 C651.074,17.66 650.441,17.66 650.05,18.05 C649.66,18.44 649.66,19.07 650.05,19.46 L653.586,23 L650.05,26.54 C649.66,26.93 649.66,27.56 650.05,27.95 C650.441,28.34 651.074,28.34 651.464,27.95 L655,24.41 L658.536,27.95 C658.926,28.34 659.559,28.34 659.95,27.95 C660.34,27.56 660.34,26.93 659.95,26.54 L656.414,23 L659.95,19.46 C660.34,19.07 660.34,18.44 659.95,18.05 L659.95,18.05 Z M669,35 C669,36.1 668.104,37 667,37 L643,37 C641.896,37 641,36.1 641,35 L641,11 C641,9.9 641.896,9 643,9 L667,9 C668.104,9 669,9.9 669,11 L669,35 L669,35 Z M667,7 L643,7 C640.791,7 639,8.79 639,11 L639,35 C639,37.21 640.791,39 643,39 L667,39 C669.209,39 671,37.21 671,35 L671,11 C671,8.79 669.209,7 667,7 L667,7 Z" id="Fill-40"></path>
                </g>
            </g>
        </g>
    </g>
</svg>