<svg id="Layer_1" data-name="Layer 1" xmlns="http://www.w3.org/2000/svg" xmlns:xlink="http://www.w3.org/1999/xlink" viewBox="0 0 60.44 61.42"><defs><style>.cls-1{fill:#fe8f00;}.cls-2{fill:#fff;}.cls-3{fill:none;stroke-width:0.5px;stroke:url(#linear-gradient);}</style><linearGradient id="linear-gradient" x1="415.46" y1="443.42" x2="415.46" y2="442.42" gradientTransform="matrix(59.94, 0, 0, -21.81, -24831.88, 9700.4)" gradientUnits="userSpaceOnUse"><stop offset="0" stop-color="#41b6a6"/><stop offset="0.23" stop-color="#fff"/><stop offset="0.75" stop-color="#fff"/><stop offset="1" stop-color="#41b6a6"/></linearGradient></defs><title>nav-header</title><g id="Page-1"><g id="Doctor---Dashboard"><g id="Header"><g id="Header-Copy"><g id="Background"><g id="Path-Copy-_-Rectangle-1-_-EHR-1_ai.ai" data-name="Path-Copy-+-Rectangle-1-+-EHR-1_ai.ai"><g id="logo"><g id="EHR-1_ai.ai" data-name="EHR-1 ai.ai"><path id="Fill-1" class="cls-1" d="M62.51,28.7l0.55-7.13H51.46L64.19,9H81.78a1.05,1.05,0,0,1,1,1.21l-0.12,1.67h0L81.38,28.7H62.51ZM78.85,62.37l-0.37,4.78h0v0l-0.14,2v0.19a1.24,1.24,0,0,1-1.13,1.15H60.35a1,1,0,0,1-1-1.05l0.55-7,0.73-9.43H79.56Z" transform="translate(-40.09 -9.05)"/><path id="Fill-3" class="cls-2" d="M50,47.33a8.66,8.66,0,0,1-2.4-.28,3,3,0,0,1-1.47-.89,3.15,3.15,0,0,1-.69-1.6,10.25,10.25,0,0,1,0-2.43l0.39-4.75A10.77,10.77,0,0,1,46.24,35a3.84,3.84,0,0,1,1-1.61,3.73,3.73,0,0,1,1.62-.89,9.2,9.2,0,0,1,2.44-.28h14L64.8,38.36h9.68L75,32.19h2.92l-1,12.21h2.26l1-12.18H90.5a11.94,11.94,0,0,1,2.36.2,3.39,3.39,0,0,1,1.56.71,2.61,2.61,0,0,1,.8,1.4,7.1,7.1,0,0,1,.1,2.23l-0.09,1A6.67,6.67,0,0,1,94.76,40a3.27,3.27,0,0,1-1.07,1.35A4.32,4.32,0,0,1,92,42a12.22,12.22,0,0,1-2.36.2H89.1l5.53,5.13H89.56L85,42.51l0.24-2.87h4.46a9,9,0,0,0,1.2-.07,1.84,1.84,0,0,0,.78-0.27,1.2,1.2,0,0,0,.44-0.58,3.64,3.64,0,0,0,.2-1l0.07-.82a3.31,3.31,0,0,0,0-1A1,1,0,0,0,92,35.36a1.52,1.52,0,0,0-.73-0.27A9,9,0,0,0,90.08,35H82.86L82.7,36.89l-0.23,2.75-0.18,2.18-0.21,2.58-0.24,2.92H73.73l0.5-6H64.55l-0.5,6H61.11l1-12.27H51a3.82,3.82,0,0,0-1.06.12,1.55,1.55,0,0,0-.68.39,1.6,1.6,0,0,0-.39.71,6.1,6.1,0,0,0-.18,1.11l-0.08,1H59.88l-0.22,2.69H48.41l-0.09,1.07a6,6,0,0,0,0,1.13,1.37,1.37,0,0,0,.26.71,1.08,1.08,0,0,0,.62.37,4.54,4.54,0,0,0,1,.1h9.21l-0.24,2.86H50Z" transform="translate(-40.09 -9.05)"/></g><path id="Rectangle-2" class="cls-3" d="M42.35,30.81a2,2,0,0,1,1.92-1.73H98.73a1.52,1.52,0,0,1,1.54,1.73l-2,18.35a2,2,0,0,1-1.92,1.73H41.9a1.52,1.52,0,0,1-1.54-1.73Z" transform="translate(-40.09 -9.05)"/></g></g></g></g></g></g></g></svg>