<?xml version="1.0" encoding="UTF-8" standalone="no"?>
<svg width="1440px" height="80px" viewBox="0 0 1440 80" version="1.1" xmlns="http://www.w3.org/2000/svg" xmlns:xlink="http://www.w3.org/1999/xlink" xmlns:sketch="http://www.bohemiancoding.com/sketch/ns">
    <!-- Generator: bin/sketchtool 1.4 (305) - http://www.bohemiancoding.com/sketch -->
    <title>Header Copy</title>
    <desc>Created with bin/sketchtool.</desc>
    <defs>
        <path id="path-1" d="M1235.59138,1.42124101e-14 L1440.68023,1.42124101e-14 L1441,80 C1441,80 1210.85443,79.9999999 1197.08766,79.9999999 L22.642894,79.9999999 C8.86711582,79.9999999 0,80 0,80 L0,2.37009384e-10 C0,2.37009384e-10 47.3798505,1.42124101e-14 61.146622,1.42124101e-14 L1235.59138,1.42124101e-14 Z"></path>
        <linearGradient x1="50%" y1="0%" x2="50%" y2="100%" id="linearGradient-3">
            <stop stop-color="#41B6A6" offset="0%"></stop>
            <stop stop-color="#FFFFFF" offset="23%"></stop>
            <stop stop-color="#FFFFFF" offset="75%"></stop>
            <stop stop-color="#41B6A6" offset="100%"></stop>
        </linearGradient>
    </defs>
    <g id="Page-1" stroke="none" stroke-width="1" fill="none" fill-rule="evenodd" sketch:type="MSPage">
        <g id="Doctor---Dashboard" sketch:type="MSArtboardGroup">
            <g id="Header" sketch:type="MSLayerGroup">
                <g id="Header-Copy">
                    <g id="Background">
                        <g id="Path-Copy-+-Rectangle-1-+-EHR-1_ai.ai">
                            <mask id="mask-2" sketch:name="Mask" fill="white">
                                <use xlink:href="#path-1"></use>
                            </mask>
                            <use id="Mask" fill="#41B6A6" sketch:type="MSShapeGroup" xlink:href="#path-1"></use>
                            <g id="logo" transform="translate(40.000000, 9.000000)" sketch:type="MSShapeGroup">
                                <g id="EHR-1_ai.ai" transform="translate(4.485294, 0.000000)">
                                    <path d="M18.0281644,19.7026203 L18.5768731,12.5722657 L6.9755413,12.5722657 L19.7086524,0.0474877797 L36.0244704,0.0474877797 L37.293697,0.0474877797 C37.8746065,0.0474877797 38.3118013,0.592258864 38.2655533,1.25847573 L38.1495011,2.92674423 L38.1520944,2.92674423 L36.8912962,19.7026203 L18.0281644,19.7026203 Z M34.3619198,53.3701177 L33.988478,58.1535945 L33.9709729,58.1535945 L33.9694601,58.187054 L33.8337417,60.1381177 L33.8190461,60.3254912 C33.7453518,60.9619663 33.2469972,61.4717907 32.6848896,61.4717907 L31.8128771,61.4717907 L17.2194728,61.4717907 L15.8609919,61.4717907 C15.3265465,61.4717907 14.9139885,61.0102967 14.8878389,60.4171952 L15.4380604,53.3701177 L16.1633327,43.9394809 L35.0705515,43.9394809 L34.3619198,53.3701177 Z" id="Fill-1" fill="#FE8F00"></path>
                                    <path d="M5.51751915,38.3279422 C4.55020122,38.3279422 3.75166687,38.234999 3.12169999,38.0498561 C2.49216533,37.865209 2.00051022,37.5690299 1.64716687,37.1623105 C1.29382353,36.7553432 1.06409632,36.2229645 0.957336928,35.5641831 C0.850577532,34.9061453 0.837610803,34.0956806 0.916923958,33.1340282 L1.31176083,28.3845067 C1.38977732,27.4379731 1.53759802,26.6312262 1.75414238,25.9652571 C1.97068674,25.299536 2.28901992,24.7634396 2.71022248,24.3562244 C3.13099281,23.949505 3.67148927,23.653326 4.33214408,23.4686788 C4.99215054,23.2840317 5.80646108,23.1910885 6.77377901,23.1910885 L10.8578662,23.1910885 L15.8705872,23.1910885 L17.8819429,23.1910885 L18.9186328,23.1910885 L20.8236613,23.1910885 L20.3116917,29.3610299 L29.9876804,29.3610299 L30.4998662,23.1910885 L33.4217023,23.1910885 L32.4085686,35.3976289 L34.6727755,35.3976289 L35.6843964,23.2133948 L46.0180144,23.2133948 C46.9470805,23.2133948 47.7350253,23.2803139 48.3820651,23.4134086 C49.0288887,23.5462554 49.5477739,23.7831986 49.939153,24.1195291 C50.330316,24.4598251 50.598295,24.9260282 50.7422257,25.5176427 C50.8870208,26.1060351 50.9218149,26.8532985 50.8470401,27.7519972 L50.7605952,28.7951917 C50.6886299,29.6643966 50.5256814,30.3856358 50.2721818,30.9512262 C50.0186823,31.5210299 49.661665,31.9723621 49.2017784,32.3054706 C48.742324,32.6343656 48.177623,32.8678389 47.5087559,33.0009336 C46.8398888,33.1340282 46.0536729,33.2006995 45.1507564,33.2006995 L44.6173916,33.2006995 L50.1438112,38.3279422 L45.0736043,38.3279422 L40.5082354,33.5134843 L40.7459588,30.6481074 L45.2073777,30.6481074 C45.6847695,30.6481074 46.0834964,30.6260489 46.4031262,30.5819318 C46.7227561,30.5373191 46.9820906,30.4485893 47.1798332,30.3154947 C47.3782242,30.1824 47.5264771,29.9898217 47.6248081,29.7387511 C47.7231391,29.486937 47.7892695,29.1540764 47.8238474,28.7394258 L47.8919227,27.9183036 C47.9249879,27.5190196 47.9137501,27.1933466 47.8566964,26.9420282 C47.8000751,26.690462 47.6874806,26.4981315 47.5176165,26.3645411 C47.3481846,26.2314465 47.1037618,26.1432124 46.7852125,26.0983518 C46.4660148,26.0542348 46.0683685,26.0319284 45.5907607,26.0319284 L38.3723992,26.0319284 L38.2176629,27.894758 L37.9892323,30.6481074 L37.8087787,32.8237219 L37.5939632,35.4085343 L37.3517015,38.3279422 L35.5741792,38.3279422 L34.4296493,38.3279422 L32.1656586,38.3279422 L29.9876804,38.3279422 L29.2436063,38.3279422 L29.7443382,32.2908475 L20.0681333,32.2908475 L19.5674015,38.3279422 L16.625683,38.3279422 L17.6442196,26.0542348 L15.63308,26.0542348 L10.8578662,26.0542348 L6.53627177,26.0542348 C6.11096308,26.0542348 5.75913252,26.0948819 5.4809962,26.1764241 C5.20372433,26.2574706 4.97680658,26.3873432 4.80045908,26.5645549 C4.62497602,26.7425102 4.49530874,26.9789577 4.41297001,27.2748888 C4.33041518,27.5710678 4.27055212,27.9408578 4.23359694,28.3845067 L4.14866487,29.4056427 L15.3923311,29.4056427 L15.1697356,32.0908337 L3.92628548,32.0908337 L3.8376795,33.1565824 C3.79942765,33.6148544 3.79769876,33.9925756 3.83098003,34.2882589 C3.8642613,34.5839422 3.95070615,34.8211332 4.09139515,34.9983449 C4.23121971,35.1763002 4.43717457,35.2979938 4.70925976,35.3649129 C4.98112883,35.4310885 5.32928548,35.464548 5.75545862,35.464548 L14.9670224,35.464548 L14.729299,38.3279422 L5.51751915,38.3279422 Z" id="Fill-3" fill="#FFFFFF"></path>
                                </g>
                                <path d="M2.35231302,21.805409 C2.45643227,20.8501345 3.31578839,20.0757315 4.27420987,20.0757315 L58.7255183,20.0757315 C59.6828334,20.0757315 60.3742836,20.8519848 60.270366,21.805409 L58.2701816,40.1567252 C58.1660624,41.1119997 57.3067063,41.8864028 56.3482848,41.8864028 L1.89697636,41.8864028 C0.939661279,41.8864028 0.248211073,41.1101494 0.352128644,40.1567252 L2.35231302,21.805409 Z" id="Rectangle-2" stroke="url(#linearGradient-3)" stroke-width="0.5"></path>
                            </g>
                        </g>
                    </g>
                </g>
            </g>
        </g>
    </g>
</svg>