<?xml version="1.0" encoding="UTF-8" standalone="no"?>
<svg width="30px" height="32px" viewBox="0 0 30 32" version="1.1" xmlns="http://www.w3.org/2000/svg" xmlns:xlink="http://www.w3.org/1999/xlink" xmlns:sketch="http://www.bohemiancoding.com/sketch/ns">
    <!-- Generator: bin/sketchtool 1.4 (305) - http://www.bohemiancoding.com/sketch -->
    <title>Fill 168</title>
    <desc>Created with bin/sketchtool.</desc>
    <defs></defs>
    <g id="Page-1" stroke="none" stroke-width="1" fill="none" fill-rule="evenodd" sketch:type="MSPage">
        <g id="Patients---Dashboard" sketch:type="MSArtboardGroup" transform="translate(-539.000000, -12.000000)" fill="#FFFFFF">
            <g id="menu" sketch:type="MSLayerGroup" transform="translate(384.000000, 0.000000)">
                <g id="Menu-Items-Copy-+-Group" transform="translate(13.000000, 12.000000)" sketch:type="MSShapeGroup">
                    <g id="Menu-Items-Copy">
                        <path d="M156,24 L158,24 L158,26 L156,26 L156,24 Z M156,28 L158,28 C159.104,28 160,27.104 160,26 L160,24 C160,22.896 159.104,22 158,22 L156,22 C154.896,22 154,22.896 154,24 L154,26 C154,27.104 154.896,28 156,28 L156,28 Z M148,24 L150,24 L150,26 L148,26 L148,24 Z M148,28 L150,28 C151.104,28 152,27.104 152,26 L152,24 C152,22.896 151.104,22 150,22 L148,22 C146.896,22 146,22.896 146,24 L146,26 C146,27.104 146.896,28 148,28 L148,28 Z M156,16 L158,16 L158,18 L156,18 L156,16 Z M156,20 L158,20 C159.104,20 160,19.104 160,18 L160,16 C160,14.896 159.104,14 158,14 L156,14 C154.896,14 154,14.896 154,16 L154,18 C154,19.104 154.896,20 156,20 L156,20 Z M148,16 L150,16 L150,18 L148,18 L148,16 Z M148,20 L150,20 C151.104,20 152,19.104 152,18 L152,16 C152,14.896 151.104,14 150,14 L148,14 C146.896,14 146,14.896 146,16 L146,18 C146,19.104 146.896,20 148,20 L148,20 Z M170,8 L144,8 L144,6 C144,4.896 144.896,4 146,4 L150,4 L150,5 C150,5.553 150.447,6 151,6 C151.553,6 152,5.553 152,5 L152,4 L162,4 L162,5 C162,5.553 162.447,6 163,6 C163.553,6 164,5.553 164,5 L164,4 L168,4 C169.104,4 170,4.896 170,6 L170,8 L170,8 Z M170,28 C170,29.104 169.104,30 168,30 L146,30 C144.896,30 144,29.104 144,28 L144,10 L170,10 L170,28 L170,28 Z M168,2 L164,2 L164,1 C164,0.448 163.553,0 163,0 C162.447,0 162,0.448 162,1 L162,2 L152,2 L152,1 C152,0.448 151.553,0 151,0 C150.447,0 150,0.448 150,1 L150,2 L146,2 C143.791,2 142,3.791 142,6 L142,28 C142,30.209 143.791,32 146,32 L168,32 C170.209,32 172,30.209 172,28 L172,6 C172,3.791 170.209,2 168,2 L168,2 Z M164,16 L166,16 L166,18 L164,18 L164,16 Z M164,20 L166,20 C167.104,20 168,19.104 168,18 L168,16 C168,14.896 167.104,14 166,14 L164,14 C162.896,14 162,14.896 162,16 L162,18 C162,19.104 162.896,20 164,20 L164,20 Z M164,24 L166,24 L166,26 L164,26 L164,24 Z M164,28 L166,28 C167.104,28 168,27.104 168,26 L168,24 C168,22.896 167.104,22 166,22 L164,22 C162.896,22 162,22.896 162,24 L162,26 C162,27.104 162.896,28 164,28 L164,28 Z" id="Fill-168"></path>
                    </g>
                </g>
            </g>
        </g>
    </g>
</svg>