<?xml version="1.0" encoding="UTF-8" standalone="no"?>
<svg width="32px" height="31px" viewBox="0 0 32 31" version="1.1" xmlns="http://www.w3.org/2000/svg" xmlns:xlink="http://www.w3.org/1999/xlink" xmlns:sketch="http://www.bohemiancoding.com/sketch/ns">
    <!-- Generator: bin/sketchtool 1.4 (305) - http://www.bohemiancoding.com/sketch -->
    <title>Fill 72</title>
    <desc>Created with bin/sketchtool.</desc>
    <defs></defs>
    <g id="Page-1" stroke="none" stroke-width="1" fill="none" fill-rule="evenodd" sketch:type="MSPage">
        <g id="Patients---Dashboard" sketch:type="MSArtboardGroup" transform="translate(-761.000000, -12.000000)" fill="#FFFFFF">
            <g id="menu" sketch:type="MSLayerGroup" transform="translate(384.000000, 0.000000)">
                <g id="Menu-Items-Copy-+-Group" transform="translate(13.000000, 12.000000)" sketch:type="MSShapeGroup">
                    <g id="Group" transform="translate(20.000000, 0.000000)">
                        <path d="M372,13.682 L360,28 L348,13.623 C346.565,11.629 346,10.282 346,8.438 C346,4.999 348.455,1.904 352,1.875 C354.916,1.851 358.222,4.829 360,7.074 C361.731,4.908 365.084,1.875 368,1.875 C371.451,1.875 374,4.999 374,8.438 C374,10.282 373.553,11.729 372,13.682 L372,13.682 Z M368,0 C364.667,0 362.145,1.956 360,4 C357.957,1.831 355.333,0 352,0 C347.306,0 344,4.036 344,8.438 C344,10.799 344.967,12.499 346.026,14.097 L358.459,29.003 C359.854,30.48 360.118,30.48 361.513,29.003 L373.974,14.097 C375.22,12.499 376,10.799 376,8.438 C376,4.036 372.694,0 368,0 L368,0 Z" id="Fill-72"></path>
                    </g>
                </g>
            </g>
        </g>
    </g>
</svg>