<?xml version="1.0" encoding="UTF-8" standalone="no"?>
<svg width="18px" height="14px" viewBox="0 0 18 14" version="1.1" xmlns="http://www.w3.org/2000/svg" xmlns:xlink="http://www.w3.org/1999/xlink" xmlns:sketch="http://www.bohemiancoding.com/sketch/ns">
    <!-- Generator: Sketch 3.5 (25232) - http://www.bohemiancoding.com/sketch -->
    <title>Group</title>
    <desc>Created with Sketch.</desc>
    <defs>
        <path d="M11.5,0 L0,0 L0,9 L14,9 L14,7 L19,7 L19,0 L11.5,0 Z" id="path-1"></path>
        <circle id="path-3" cx="3.5" cy="3.5" r="3.5"></circle>
        <circle id="path-5" cx="3" cy="3" r="3"></circle>
    </defs>
    <g id="Page-1" stroke="none" stroke-width="1" fill="none" fill-rule="evenodd" sketch:type="MSPage">
        <g id="Group" sketch:type="MSLayerGroup" transform="translate(-1.000000, 0.000000)">
            <g id="Oval-3" transform="translate(0.000000, 5.000000)">
                <mask id="mask-2" sketch:name="Mask" fill="white">
                    <use xlink:href="#path-1"></use>
                </mask>
                <use id="Mask" sketch:type="MSShapeGroup" xlink:href="#path-1"></use>
                <path d="M8.47925718,3.86116379 C8.44652097,3.93023443 8.41532109,4.00017499 8.38570166,4.07094135 C8.09736512,4.0242624 7.80151595,4 7.5,4 C4.46243388,4 2,6.46243388 2,9.5 C2,12.5375661 4.46243388,15 7.5,15 C10.0190665,15 12.1425884,13.3064721 12.7941425,10.9958393 C12.8624179,10.9986042 12.9310459,11 13,11 C15.7614237,11 18,8.76142375 18,6 C18,3.23857625 15.7614237,1 13,1 C12.234727,1 11.5096091,1.17192483 10.8611638,1.47925718 C10.5279547,2.6249016 9.6249016,3.5279547 8.47925718,3.86116379 Z M7.5,15 C10.5375661,15 13,12.5375661 13,9.5 C13,6.46243388 10.5375661,4 7.5,4 C4.46243388,4 2,6.46243388 2,9.5 C2,12.5375661 4.46243388,15 7.5,15 Z" stroke="#FFFFFF" sketch:type="MSShapeGroup" mask="url(#mask-2)"></path>
            </g>
            <g id="Oval-1" transform="translate(4.000000, 2.000000)">
                <mask id="mask-4" sketch:name="Mask" fill="white">
                    <use xlink:href="#path-3"></use>
                </mask>
                <use id="Mask" sketch:type="MSShapeGroup" xlink:href="#path-3"></use>
                <path d="M3.5,7 C5.43299662,7 7,5.43299662 7,3.5 C7,1.56700338 5.43299662,0 3.5,0 C1.56700338,0 0,1.56700338 0,3.5 C0,5.43299662 1.56700338,7 3.5,7 Z" stroke="#FFFFFF" stroke-width="2" sketch:type="MSShapeGroup" mask="url(#mask-4)"></path>
            </g>
            <g id="Oval-1" transform="translate(10.000000, 0.000000)">
                <mask id="mask-6" sketch:name="Mask" fill="white">
                    <use xlink:href="#path-5"></use>
                </mask>
                <use id="Mask" sketch:type="MSShapeGroup" xlink:href="#path-5"></use>
                <circle stroke="#FFFFFF" stroke-width="2" sketch:type="MSShapeGroup" mask="url(#mask-6)" cx="3" cy="3" r="3"></circle>
            </g>
        </g>
    </g>
</svg>