<?xml version="1.0" encoding="UTF-8" standalone="no"?>
<svg width="17px" height="16px" viewBox="0 0 17 16" version="1.1" xmlns="http://www.w3.org/2000/svg" xmlns:xlink="http://www.w3.org/1999/xlink" xmlns:sketch="http://www.bohemiancoding.com/sketch/ns">
    <!-- Generator: Sketch 3.4.4 (17249) - http://www.bohemiancoding.com/sketch -->
    <title>Group</title>
    <desc>Created with Sketch.</desc>
    <defs></defs>
    <g id="Page-1" stroke="none" stroke-width="1" fill="none" fill-rule="evenodd" sketch:type="MSPage">
        <g id="Group" sketch:type="MSLayerGroup" transform="translate(-1.000000, -1.000000)" stroke="#FFFFFF" stroke-linecap="square">
            <path d="M1.5,1.5 L1.5,6.5" id="Line" sketch:type="MSShapeGroup"></path>
            <path d="M1.5,6.5 L6.5,6.5" id="Line" sketch:type="MSShapeGroup"></path>
            <path d="M6.5,6.5 L6.5,1.5" id="Line" sketch:type="MSShapeGroup"></path>
            <path d="M6.5,1.5 L1.5,1.5" id="Line" sketch:type="MSShapeGroup"></path>
            <path d="M1.5,11.5 L1.5,16.5" id="Line" sketch:type="MSShapeGroup"></path>
            <path d="M1.5,16.5 L6.5,16.5" id="Line" sketch:type="MSShapeGroup"></path>
            <path d="M6.5,16.5 L6.5,11.5" id="Line" sketch:type="MSShapeGroup"></path>
            <path d="M6.5,11.5 L1.5,11.5" id="Line" sketch:type="MSShapeGroup"></path>
            <path d="M12.5,11.5 L12.5,16.5" id="Line" sketch:type="MSShapeGroup"></path>
            <path d="M12.5,16.5 L17.5,16.5" id="Line" sketch:type="MSShapeGroup"></path>
            <path d="M17.5,16.5 L17.5,11.5" id="Line" sketch:type="MSShapeGroup"></path>
            <path d="M17.5,11.5 L12.5,11.5" id="Line" sketch:type="MSShapeGroup"></path>
            <path d="M12.5,6.5 L12.5,1.5" id="Line" sketch:type="MSShapeGroup"></path>
            <path d="M12.5,1.5 L17.5,1.5" id="Line" sketch:type="MSShapeGroup"></path>
            <path d="M17.5,1.5 L17.5,6.5" id="Line" sketch:type="MSShapeGroup"></path>
            <path d="M17.5,6.5 L12.5,6.5" id="Line" sketch:type="MSShapeGroup"></path>
        </g>
    </g>
</svg>