<?xml version="1.0" encoding="UTF-8" standalone="no"?>
<svg width="17px" height="19px" viewBox="0 0 17 19" version="1.1" xmlns="http://www.w3.org/2000/svg" xmlns:xlink="http://www.w3.org/1999/xlink" xmlns:sketch="http://www.bohemiancoding.com/sketch/ns">
    <!-- Generator: Sketch 3.4.4 (17249) - http://www.bohemiancoding.com/sketch -->
    <title>Path 4</title>
    <desc>Created with Sketch.</desc>
    <defs>
        <path d="M10.9211229,13.6132363 C10.4814363,12.9984129 9.51709135,12.4590703 8.74443322,12.4091568 C8.74443322,12.4091568 8.30237024,12.375 8.10430231,12.375 C7.90623439,12.375 7.68988735,12.3979269 7.68988735,12.3979269 C6.92917732,12.4543003 5.92274225,12.9814655 5.44818115,13.567688 L4.8135767,14.3516111 C4.46780409,14.778742 4.63004567,15.125 5.19314349,15.125 L10.9966062,15.125 C11.5520078,15.125 11.7412262,14.760005 11.4185665,14.3088228 L10.9211229,13.6132363 Z M6.0625,2 L6.0625,8.75 L0,16.3125 L0,18.03125 L17,18.03125 L17,16.3125 L11.125,8.8125 L11.125,2 L13,2 L13,0 L4,8.0757977e-10 L4,2 L6.0625,2 Z M6.9375,9.03125 L0.9375,16.96875 L16.125,16.96875 L10.125,9.03125 L10.125,1.99956599 L6.9375,1.99956599 L6.9375,9.03125 Z" id="path-1"></path>
    </defs>
    <g id="Page-1" stroke="none" stroke-width="1" fill="none" fill-rule="evenodd" sketch:type="MSPage">
        <g id="Path-4" sketch:type="MSLayerGroup">
            <mask id="mask-2" sketch:name="Mask" fill="white">
                <use xlink:href="#path-1"></use>
            </mask>
            <use id="Mask" fill="#FFFFFF" sketch:type="MSShapeGroup" xlink:href="#path-1"></use>
            <path id="Path-5" fill="#D8D8D8" sketch:type="MSShapeGroup" mask="url(#mask-2)" d="M1.25000001,16.875 L15.9375,16.875 L1.25000001,16.875 Z"></path>
        </g>
    </g>
</svg>