<?xml version="1.0" encoding="UTF-8" standalone="no"?>
<svg width="15px" height="16px" viewBox="0 0 15 16" version="1.1" xmlns="http://www.w3.org/2000/svg" xmlns:xlink="http://www.w3.org/1999/xlink" xmlns:sketch="http://www.bohemiancoding.com/sketch/ns">
    <!-- Generator: Sketch 3.4.4 (17249) - http://www.bohemiancoding.com/sketch -->
    <title>Shape + Shape</title>
    <desc>Created with Sketch.</desc>
    <defs></defs>
    <g id="Page-1" stroke="none" stroke-width="1" fill="none" fill-rule="evenodd" sketch:type="MSPage">
        <g id="Shape-+-Shape" sketch:type="MSLayerGroup" fill="#FFFFFF">
            <path d="M5.5,0.1 L2.6,0.1 L0.3,2.4 L0.3,14.2 L1.7,15.6 L5.7,15.6 L5.7,0.2 L5.5,0.2 L5.5,0.1 Z M5.2,15.1 L1.9,15.1 L0.8,14 L0.8,13.8 L2.2,12.5 L3.8,12.5 L3.8,11 L2.3,11 L0.8,12.2 L0.8,11 L2.2,9.7 L3.8,9.7 L3.8,8.1 L2.3,8.1 L0.8,9.3 L0.8,7.8 L2.2,6.5 L3.8,6.5 L3.8,5 L2.3,5 L0.8,6.2 L0.8,5 L2.2,3.7 L3.8,3.7 L3.8,2.1 L2.3,2.1 L0.8,3.3 L0.8,2.7 L2.8,0.7 L5.2,0.7 L5.2,15.1 L5.2,15.1 Z" id="Shape" sketch:type="MSShapeGroup"></path>
            <path d="M13.8,0.1 L4.8,0.1 C5,0.2 5.1,0.4 5.1,0.6 L5.1,15 C5.1,15.3 4.9,15.5 4.6,15.6 L13.7,15.5 L15,14.2 L15,1.5 L13.8,0.1 Z M12.1242096,13.7225546 L12.1242096,13.2588204 C13.0928988,13.1798138 13.65625,12.6645536 13.65625,11.8504425 C13.65625,11.1634289 13.2680873,10.7443506 12.4196255,10.5176361 L12.1242096,10.4454996 L12.1242096,8.76575135 C12.6291646,8.82758257 12.9692364,9.15047897 12.9829767,9.57986248 L13.5669382,9.57986248 C13.5428928,8.83445271 12.9761065,8.30545222 12.1242096,8.23331579 L12.1242096,7.75584133 L11.6639105,7.75584133 L11.6639105,8.23675086 C10.7879681,8.32262756 10.2452274,8.83788778 10.2452274,9.58673262 C10.2452274,10.2187851 10.6505654,10.6722141 11.3891051,10.868013 L11.6639105,10.9435845 L11.6639105,12.7298199 C11.1005593,12.6611186 10.7501824,12.3553975 10.7123966,11.8950984 L10.125,11.8950984 C10.1284351,12.6542484 10.7330071,13.1935541 11.6639105,13.2622555 L11.6639105,13.7225546 L12.1242096,13.7225546 Z M13.0619832,11.8985334 C13.0619832,12.4034885 12.7219115,12.7092095 12.1242096,12.7401251 L12.1242096,11.0363314 C12.7700024,11.1737341 13.0619832,11.4416694 13.0619832,11.8985334 Z M10.8360591,9.55238194 C10.8360591,9.12299843 11.183001,8.79323189 11.6639105,8.76575135 L11.6639105,10.3458827 C11.1211697,10.2325254 10.8360591,9.95771997 10.8360591,9.55238194 Z" id="Shape" sketch:type="MSShapeGroup"></path>
        </g>
    </g>
</svg>