<svg id="Layer_1" data-name="Layer 1" xmlns="http://www.w3.org/2000/svg" viewBox="0 0 18.38 17.75"><defs><style>.cls-1,.cls-2{fill:none;stroke:#fff;}.cls-2{stroke-width:0.5px;}</style></defs><title>Снимок экрана 2016-01-26 в 15.41.17</title><ellipse class="cls-1" cx="9.19" cy="8.88" rx="4.88" ry="4.25"/><path class="cls-1" d="M309,440.64h0v3.06l1.75,0.44,0.63,1.06L310.56,447l2.19,1.69,1.38-.69,1.63,1.13,0.38,1.19h3.25l0.19-1.12,1.69-1,1.19,1,2.63-2.06-0.81-1.56,0.56-1.19,1.56-.9v-3.19l-1.92-.92,0.23-2.56L322.56,435l-2.06.88-1-2.31h-3.37l-0.31,1.69-1.44.75-1.81-.87-1.94,2,0.93,1.91-0.87,1.23Z" transform="translate(-308.5 -433.08)"/><path class="cls-2" d="M259.67,426.22" transform="translate(-308.5 -433.08)"/></svg>