<?xml version="1.0" encoding="UTF-8" standalone="no"?>
<svg width="16px" height="16px" viewBox="0 0 16 16" version="1.1" xmlns="http://www.w3.org/2000/svg" xmlns:xlink="http://www.w3.org/1999/xlink" xmlns:sketch="http://www.bohemiancoding.com/sketch/ns">
    <!-- Generator: Sketch 3.4.4 (17249) - http://www.bohemiancoding.com/sketch -->
    <title>nav-provider-erx</title>
    <desc>Created with Sketch.</desc>
    <defs></defs>
    <g id="Page-1" stroke="none" stroke-width="1" fill="none" fill-rule="evenodd" sketch:type="MSPage">
        <g id="nav-provider-erx" sketch:type="MSLayerGroup" fill="#FFFFFF">
            <path d="M12.7,7.3 L12.7,14.6 L1.4,14.6 L1.4,1.4 L12,1.4 L13.3,0 L13.4,0 L13.4,0 L0.9,0 C0.4,0 0,0.4 0,0.9 L0,15 C0,15.6 0.4,16 0.9,16 L13.3,16 C13.8,16 14.2,15.6 14.2,15.1 L14.2,5.7 L12.7,7.3 L12.7,7.3 Z" id="Shape" sketch:type="MSShapeGroup"></path>
            <path d="M14.3,0.6 L12.8,2.1 L13.2,2.5 L14.1,3.4 L13.4999998,4.0000001 L12.8,3.2656251 L12.2343748,2.6875001 L5.1,9.7 L6.3,10.9 L5.7,11.5 L4.5,10.4 L3.3,13.1 L6.2,12 C6.2,12 9.46666667,8.76666667 11.1,7.15 L16,2.3 L14.3,0.6 Z" id="Shape" sketch:type="MSShapeGroup"></path>
        </g>
    </g>
</svg>