<?xml version="1.0" encoding="UTF-8" standalone="no"?>
<svg width="31px" height="32px" viewBox="0 0 31 32" version="1.1" xmlns="http://www.w3.org/2000/svg" xmlns:xlink="http://www.w3.org/1999/xlink" xmlns:sketch="http://www.bohemiancoding.com/sketch/ns">
    <!-- Generator: bin/sketchtool 1.4 (305) - http://www.bohemiancoding.com/sketch -->
    <title>Fill 189</title>
    <desc>Created with bin/sketchtool.</desc>
    <defs></defs>
    <g id="Page-1" stroke="none" stroke-width="1" fill="none" fill-rule="evenodd" sketch:type="MSPage">
        <g id="Patients---Dashboard" sketch:type="MSArtboardGroup" transform="translate(-656.000000, -12.000000)" fill="#FFFFFF">
            <g id="menu" sketch:type="MSLayerGroup" transform="translate(384.000000, 0.000000)">
                <g id="Menu-Items-Copy-+-Group" transform="translate(13.000000, 12.000000)" sketch:type="MSShapeGroup">
                    <g id="Menu-Items-Copy">
                        <path d="M261,11.5 C261,6.254 265.753,2 272,2 C276.973,2 282,6.254 282,11.5 C282,16.747 278.075,21 272,21 C271.107,21 269.244,20.898 268.413,20.725 L265,23 L265,19.456 C262.561,17.477 261,14.834 261,11.5 L261,11.5 Z M268.637,22.736 C269.414,22.863 271.181,23 272,23 C279.18,23 284,17.657 284,11.375 C284,5.093 277.977,0 272,0 C264.811,0 259,5.093 259,11.375 C259,15.015 260.387,18.104 263,20.329 L263,26 L268.637,22.736 L268.637,22.736 Z M285.949,9.139 C285.968,9.425 286,9.709 286,10 C286,10.636 285.938,11.259 285.849,11.874 C287.195,13.45 288,15.392 288,17.5 C288,20.834 286.008,23.761 283,25.456 L283,29 L279.587,26.725 C278.756,26.898 277.893,27 277,27 C274.41,27 273.034,26.222 271.154,24.929 C270.609,24.973 270.059,25 269.5,25 C269.102,25 268.712,24.972 268.32,24.949 C270.701,27.276 273.149,28.75 277,28.75 C277.819,28.75 278.618,28.676 279.395,28.549 L285,32 L285,26.329 C288.04,24.246 290,21.015 290,17.375 C290,14.131 288.439,11.211 285.949,9.139 L285.949,9.139 Z M277.5,13 C278.329,13 279,12.329 279,11.5 C279,10.672 278.329,10 277.5,10 C276.671,10 276,10.672 276,11.5 C276,12.329 276.671,13 277.5,13 L277.5,13 Z M265.5,13 C266.329,13 267,12.329 267,11.5 C267,10.672 266.329,10 265.5,10 C264.671,10 264,10.672 264,11.5 C264,12.329 264.671,13 265.5,13 L265.5,13 Z M271.5,13 C272.329,13 273,12.329 273,11.5 C273,10.672 272.329,10 271.5,10 C270.671,10 270,10.672 270,11.5 C270,12.329 270.671,13 271.5,13 L271.5,13 Z" id="Fill-189"></path>
                    </g>
                </g>
            </g>
        </g>
    </g>
</svg>