<svg id="Слой_1" data-name="Слой 1" xmlns="http://www.w3.org/2000/svg" viewBox="0 0 145.36 248"><defs><style>.cls-1{fill:#fe8f00;}</style></defs><title>num-top</title><path class="cls-1" d="M518.36,281.67H437a0.16,0.16,0,0,0-.11,0L379,332.09a0,0,0,0,0,0,.07H431.8a0.58,0.58,0,0,1,.57.63l-2.18,24.89c-0.14,1.64-.25,3-0.24,3h87.77a0,0,0,0,0,0,0l6.57-72.42A6,6,0,0,0,518.36,281.67Z" transform="translate(-379 -281.67)"/><path class="cls-1" d="M459.43,458.17H422a0.06,0.06,0,0,0-.06.05L416,523.12a6,6,0,0,0,6,6.54H497a6,6,0,0,0,6-5.46l6-65.92a0.11,0.11,0,0,0-.11-0.12H459.43Z" transform="translate(-379 -281.67)"/></svg>