<svg id="Слой_1" data-name="Слой 1" xmlns="http://www.w3.org/2000/svg" viewBox="0 0 37.68 39.46"><defs><style>.cls-1{fill:#161819;}</style></defs><title>avatar</title><path class="cls-1" d="M36.92,29.9a24.19,24.19,0,0,1-1.23-2.33l-0.06-.13a28.21,28.21,0,0,1-1-3.4,15.16,15.16,0,0,0-.69-1.87,7.86,7.86,0,0,0-.82-1.66,9.43,9.43,0,0,0-1.33-1.57,3.45,3.45,0,0,0-1.6-.73,1.93,1.93,0,0,0-1.79.29,0.84,0.84,0,0,0-.18.77,3.22,3.22,0,0,1,.29.89,0.52,0.52,0,0,1-.82.29A1.06,1.06,0,0,1,27.34,20a1.6,1.6,0,0,0-.45-0.68A2.18,2.18,0,0,0,25.47,19a2.65,2.65,0,0,0-1.21.26A0.87,0.87,0,0,0,24,20.33a7,7,0,0,1,.21,1.25c0,0.18,0,1-.29.93a0.38,0.38,0,0,1-.2-0.13,9.75,9.75,0,0,1-.94-1.33l-0.54-.77a1.52,1.52,0,0,0-1.44-.42,1.69,1.69,0,0,0-1.47,1.09,2.13,2.13,0,0,0,.36,1.12c0.19,0.38.75,1.15,0.55,1.59a0.55,0.55,0,0,1-.5.27c-0.87,0-1.3-.9-1.73-1.52l-2.26-3.27c-0.43-.62-0.81-1.28-1.26-1.89a6.45,6.45,0,0,0-1-1A1.89,1.89,0,0,0,11,16.15c-0.72.76-.33,1.83,0.13,2.61,0.93,1.58,2.08,3,3.12,4.56l0.06,0.08L16.79,27c0.14,0.2.27,0.41,0.42,0.61s0.77,1.06.42,1.2a0.42,0.42,0,0,1-.17,0c-0.51,0-1-.07-1.52-0.14a6.46,6.46,0,0,0-1.87,0,2.52,2.52,0,0,0-1.39.66A1.56,1.56,0,0,0,12.41,31a2.23,2.23,0,0,0,.64.78,5.1,5.1,0,0,0,1.4.87c0.55,0.22,1.12.37,1.68,0.54A41.13,41.13,0,0,1,20.72,35a19.36,19.36,0,0,1,3.34,2c0.5,0.36,1,.74,1.46,1.14,0.12,0.11,1.41,1.32,1.4,1.33l10.75-8.25Z" transform="translate(0 0)"/><path class="cls-1" d="M9.8,13.63a3.14,3.14,0,0,1,1.5-.45,2.55,2.55,0,0,1,.8.08c0.32,0.1.61,0.29,0.94,0.37s0.92-.14.75-0.67c-0.79-2.43-4.32-2.55-5.92-.91a3.8,3.8,0,0,0-.95,3.1C7,15.69,7.49,18,8.41,17.33a1.09,1.09,0,0,0,.07-1.06A2.62,2.62,0,0,1,9.8,13.63Z" transform="translate(0 0)"/><path class="cls-1" d="M21.13,4.42V2.06A2.06,2.06,0,0,0,19.07,0h-17A2.06,2.06,0,0,0,0,2.06V33.61a2.06,2.06,0,0,0,2.06,2.06H15.87a2.88,2.88,0,0,0-.51-0.23c-0.27-.1-0.53-0.22-0.79-0.34-0.56-.25-1.11-0.52-1.66-0.79a5.3,5.3,0,0,1-2.6-2.24,3.76,3.76,0,0,1,2-5,2.32,2.32,0,0,0,.61-0.25A0.25,0.25,0,0,0,13,26.49a0.31,0.31,0,0,0-.32-0.12H4.13a0.88,0.88,0,0,1-.87-0.87V6.33a0.88,0.88,0,0,1,.88-0.87H17.3a0.88,0.88,0,0,1,.88.88v12a1,1,0,0,0,0,.15,0.31,0.31,0,0,0,.25.21,0.34,0.34,0,0,0,.27-0.29,1.74,1.74,0,0,1,1.11-.79l0.14,0a3.43,3.43,0,0,1,.81,0,0.32,0.32,0,0,0,.34-0.2V16.44q0-2.53,0-5.06v-1Q21.13,7.4,21.13,4.42Z" transform="translate(0 0)"/></svg>